g Combined_M_Cmn_ami01_Prefab_Mesh
v 15.1311 284.8376 -267.7318
v -0.09841919 289.34 -281.3188
v 15.1311 289.34 -281.3188
v -0.09841919 284.8376 -267.7318
v -0.09841919 289.34 -281.3188
v -15.32794 284.8376 -267.7318
v -15.32794 289.34 -281.3188
v -0.09841919 284.8376 -267.7318
v 15.1311 282.5592 -268.4865
v 15.1311 287.0621 -282.0735
v -0.09841919 287.0621 -282.0735
v -0.09841919 282.5592 -268.4865
v -0.09841919 287.0621 -282.0735
v -15.32794 287.0621 -282.0735
v -15.32794 282.5592 -268.4865
v -0.09841919 282.5592 -268.4865
v -64.57715 217.4189 55.48859
v -75.42044 220.9044 45.91177
v -64.57715 220.9044 45.91177
v -75.42044 217.4189 55.48859
v -75.42044 220.9044 45.91177
v -86.2637 217.4189 55.48859
v -86.2637 220.9044 45.91177
v -75.42044 217.4189 55.48859
v -64.57715 221.567 44.09058
v -75.42044 225.053 34.51428
v -64.57715 225.053 34.51428
v -75.42044 221.567 44.09058
v -75.42044 225.053 34.51428
v -86.2637 221.567 44.09058
v -86.2637 225.053 34.51428
v -75.42044 221.567 44.09058
v -64.57715 219.9616 43.50641
v -64.57715 223.4471 33.92957
v -75.42044 223.4471 33.92957
v -75.42044 219.9616 43.50641
v -75.42044 223.4471 33.92957
v -86.2637 223.4471 33.92957
v -86.2637 219.9616 43.50641
v -75.42044 219.9616 43.50641
v -64.57715 215.813 54.90387
v -64.57715 219.2984 45.32761
v -75.42044 219.2984 45.32761
v -75.42044 215.813 54.90387
v -75.42044 219.2984 45.32761
v -86.2637 219.2984 45.32761
v -86.2637 215.813 54.90387
v -75.42044 215.813 54.90387
v -85.44247 204.4062 83.01422
v -77.91245 203.2728 90.17096
v -85.44519 204.3866 90.17096
v -77.90973 203.2929 83.01422
v -77.91245 203.2728 90.17096
v -70.37698 202.179 83.01422
v -70.3797 202.1594 90.17096
v -77.90973 203.2929 83.01422
v -85.61795 203.2194 83.01093
v -85.62067 203.1992 90.16766
v -78.08792 202.0859 90.16766
v -78.08521 202.1055 83.01093
v -78.08792 202.0859 90.16766
v -70.55518 200.972 90.16714
v -70.55246 200.9922 83.01041
v -78.08521 202.1055 83.01093
v -14.21298 193.8997 83.01312
v -6.682983 192.7663 90.16931
v -14.21573 193.8801 90.16986
v -6.680237 192.7864 83.01257
v -6.682983 192.7663 90.16931
v 0.8525085 191.6725 83.01257
v 0.849762 191.6529 90.16931
v -6.680237 192.7864 83.01257
v -14.38846 192.7129 83.00931
v -14.39117 192.6932 90.16605
v -6.858429 191.5794 90.16605
v -6.855713 191.5995 83.00931
v -6.858429 191.5794 90.16605
v 0.6743164 190.4655 90.16605
v 0.6770325 190.4857 83.00931
v -6.855713 191.5995 83.00931
v 3.737427 191.2464 83.01257
v 11.26746 190.1124 90.16931
v 3.734711 191.2263 90.16931
v 11.27017 190.1325 83.01257
v 11.26746 190.1124 90.16931
v 18.80292 189.0187 83.01202
v 18.8002 188.9991 90.16876
v 11.27017 190.1325 83.01257
v 3.561951 190.059 83.00931
v 3.559235 190.0394 90.16605
v 11.09198 188.9255 90.16605
v 11.0947 188.9456 83.00931
v 11.09198 188.9255 90.16605
v 18.62473 187.8116 90.1655
v 18.62744 187.8318 83.00876
v 11.0947 188.9456 83.00931
v 21.57068 188.61 83.01202
v 29.10016 187.476 90.16876
v 21.56741 188.5898 90.16876
v 29.10342 187.4961 83.01202
v 29.10016 187.476 90.16876
v 36.63617 186.3822 83.01202
v 36.63345 186.3626 90.16876
v 29.10342 187.4961 83.01202
v 21.39465 187.4225 83.00876
v 21.39194 187.4029 90.1655
v 28.92468 186.2891 90.1655
v 28.92796 186.3092 83.00876
v 28.92468 186.2891 90.1655
v 36.45798 185.1758 90.1655
v 36.46071 185.1954 83.00876
v 28.92796 186.3092 83.00876
v -67.63754 201.7643 83.01367
v -60.10754 200.6309 90.17041
v -67.64029 201.7447 90.17096
v -60.1048 200.651 83.01367
v -60.10754 200.6309 90.17041
v -52.57205 199.5372 83.01367
v -52.5748 199.5175 90.17041
v -60.1048 200.651 83.01367
v -67.81302 200.5775 83.01041
v -67.81577 200.5573 90.16714
v -60.28302 199.444 90.16714
v -60.28027 199.4636 83.01041
v -60.28302 199.444 90.16714
v -52.75027 198.3301 90.16714
v -52.74753 198.3503 83.01041
v -60.28027 199.4636 83.01041
v -49.82611 199.165 83.01367
v -42.29608 198.0315 90.17041
v -49.82883 199.1448 90.17041
v -42.29337 198.0511 83.01367
v -42.29608 198.0315 90.17041
v -34.76062 196.9378 83.01312
v -34.76334 196.9176 90.16986
v -42.29337 198.0511 83.01367
v -50.00156 197.9781 83.01041
v -50.0043 197.9579 90.16714
v -42.47156 196.8441 90.16714
v -42.46881 196.8642 83.01041
v -42.47156 196.8441 90.16714
v -34.93881 195.7307 90.1666
v -34.93607 195.7504 83.00986
v -42.46881 196.8642 83.01041
v -32.01953 196.5323 83.01312
v -24.48953 195.3989 90.16986
v -32.02228 196.5127 90.16986
v -24.48679 195.419 83.01312
v -24.48953 195.3989 90.16986
v -16.95404 194.3052 83.01312
v -16.95679 194.2856 90.16986
v -24.48679 195.419 83.01312
v -32.19501 195.3455 83.00986
v -32.19775 195.3253 90.1666
v -24.66501 194.212 90.1666
v -24.66226 194.2316 83.00986
v -24.66501 194.212 90.1666
v -17.13226 193.0981 90.1666
v -17.12952 193.1183 83.00986
v -24.66226 194.2316 83.00986
vt -1.5 2.5
vt 2.5 -1.5
vt 2.5 2.5
vt -1.5 -1.5
vt -1.5 2.5
vt 2.5 -1.5
vt 2.5 2.5
vt -1.5 -1.5
vt -1.5 2.5
vt 2.5 2.5
vt 2.5 -1.5
vt -1.5 -1.5
vt -1.5 2.5
vt 2.5 2.5
vt 2.5 -1.5
vt -1.5 -1.5
vt -1.5 2.5
vt 2.5 -1.5
vt 2.5 2.5
vt -1.5 -1.5
vt -1.5 2.5
vt 2.5 -1.5
vt 2.5 2.5
vt -1.5 -1.5
vt -1.5 2.5
vt 2.5 -1.5
vt 2.5 2.5
vt -1.5 -1.5
vt -1.5 2.5
vt 2.5 -1.5
vt 2.5 2.5
vt -1.5 -1.5
vt -1.5 2.5
vt 2.5 2.5
vt 2.5 -1.5
vt -1.5 -1.5
vt -1.5 2.5
vt 2.5 2.5
vt 2.5 -1.5
vt -1.5 -1.5
vt -1.5 2.5
vt 2.5 2.5
vt 2.5 -1.5
vt -1.5 -1.5
vt -1.5 2.5
vt 2.5 2.5
vt 2.5 -1.5
vt -1.5 -1.5
vt -1.5 2.5
vt 2.5 -1.5
vt 2.5 2.5
vt -1.5 -1.5
vt -1.5 2.5
vt 2.5 -1.5
vt 2.5 2.5
vt -1.5 -1.5
vt -1.5 2.5
vt 2.5 2.5
vt 2.5 -1.5
vt -1.5 -1.5
vt -1.5 2.5
vt 2.5 2.5
vt 2.5 -1.5
vt -1.5 -1.5
vt -1.5 2.5
vt 2.5 -1.5
vt 2.5 2.5
vt -1.5 -1.5
vt -1.5 2.5
vt 2.5 -1.5
vt 2.5 2.5
vt -1.5 -1.5
vt -1.5 2.5
vt 2.5 2.5
vt 2.5 -1.5
vt -1.5 -1.5
vt -1.5 2.5
vt 2.5 2.5
vt 2.5 -1.5
vt -1.5 -1.5
vt -1.5 2.5
vt 2.5 -1.5
vt 2.5 2.5
vt -1.5 -1.5
vt -1.5 2.5
vt 2.5 -1.5
vt 2.5 2.5
vt -1.5 -1.5
vt -1.5 2.5
vt 2.5 2.5
vt 2.5 -1.5
vt -1.5 -1.5
vt -1.5 2.5
vt 2.5 2.5
vt 2.5 -1.5
vt -1.5 -1.5
vt -1.5 2.5
vt 2.5 -1.5
vt 2.5 2.5
vt -1.5 -1.5
vt -1.5 2.5
vt 2.5 -1.5
vt 2.5 2.5
vt -1.5 -1.5
vt -1.5 2.5
vt 2.5 2.5
vt 2.5 -1.5
vt -1.5 -1.5
vt -1.5 2.5
vt 2.5 2.5
vt 2.5 -1.5
vt -1.5 -1.5
vt -1.5 2.5
vt 2.5 -1.5
vt 2.5 2.5
vt -1.5 -1.5
vt -1.5 2.5
vt 2.5 -1.5
vt 2.5 2.5
vt -1.5 -1.5
vt -1.5 2.5
vt 2.5 2.5
vt 2.5 -1.5
vt -1.5 -1.5
vt -1.5 2.5
vt 2.5 2.5
vt 2.5 -1.5
vt -1.5 -1.5
vt -1.5 2.5
vt 2.5 -1.5
vt 2.5 2.5
vt -1.5 -1.5
vt -1.5 2.5
vt 2.5 -1.5
vt 2.5 2.5
vt -1.5 -1.5
vt -1.5 2.5
vt 2.5 2.5
vt 2.5 -1.5
vt -1.5 -1.5
vt -1.5 2.5
vt 2.5 2.5
vt 2.5 -1.5
vt -1.5 -1.5
vt -1.5 2.5
vt 2.5 -1.5
vt 2.5 2.5
vt -1.5 -1.5
vt -1.5 2.5
vt 2.5 -1.5
vt 2.5 2.5
vt -1.5 -1.5
vt -1.5 2.5
vt 2.5 2.5
vt 2.5 -1.5
vt -1.5 -1.5
vt -1.5 2.5
vt 2.5 2.5
vt 2.5 -1.5
vt -1.5 -1.5
vn 0.0009642839 0.9486324 0.316379
vn 0.0009642839 0.9486324 0.316379
vn 0.0009642839 0.9486324 0.316379
vn 0.0009642839 0.9486324 0.316379
vn 0.0009642839 0.9486324 0.316379
vn 0.0009642839 0.9486324 0.316379
vn 0.0009642839 0.9486324 0.316379
vn 0.0009642839 0.9486324 0.316379
vn 0.0009642839 -0.9486269 -0.3163955
vn 0.0009642839 -0.9486269 -0.3163955
vn 0.0009642839 -0.9486269 -0.3163955
vn 0.0009642839 -0.9486269 -0.3163955
vn 0.0009642839 -0.9486269 -0.3163955
vn 0.0009642839 -0.9486269 -0.3163955
vn 0.0009642839 -0.9486269 -0.3163955
vn 0.0009642839 -0.9486269 -0.3163955
vn 0.0009642839 0.9389623 0.3440186
vn 0.0009642839 0.9389623 0.3440186
vn 0.0009642839 0.9389623 0.3440186
vn 0.0009642839 0.9389623 0.3440186
vn 0.0009642839 0.9389623 0.3440186
vn 0.0009642839 0.9389623 0.3440186
vn 0.0009642839 0.9389623 0.3440186
vn 0.0009642839 0.9389623 0.3440186
vn 0.0009642839 0.9389623 0.3440186
vn 0.0009642839 0.9389623 0.3440186
vn 0.0009642839 0.9389623 0.3440186
vn 0.0009642839 0.9389623 0.3440186
vn 0.0009642839 0.9389623 0.3440186
vn 0.0009642839 0.9389623 0.3440186
vn 0.0009642839 0.9389623 0.3440186
vn 0.0009642839 0.9389623 0.3440186
vn 0.0009642839 -0.9389569 -0.3440336
vn 0.0009642839 -0.9389569 -0.3440336
vn 0.0009642839 -0.9389569 -0.3440336
vn 0.0009642839 -0.9389569 -0.3440336
vn 0.0009642839 -0.9389569 -0.3440336
vn 0.0009642839 -0.9389569 -0.3440336
vn 0.0009642839 -0.9389569 -0.3440336
vn 0.0009642839 -0.9389569 -0.3440336
vn 0.0009642839 -0.9389569 -0.3440336
vn 0.0009642839 -0.9389569 -0.3440336
vn 0.0009642839 -0.9389569 -0.3440336
vn 0.0009642839 -0.9389569 -0.3440336
vn 0.0009642839 -0.9389569 -0.3440336
vn 0.0009642839 -0.9389569 -0.3440336
vn 0.0009642839 -0.9389569 -0.3440336
vn 0.0009642839 -0.9389569 -0.3440336
vn 0.1460147 0.9892465 0.008432576
vn 0.1460147 0.9892465 0.008432576
vn 0.1460147 0.9892465 0.008432576
vn 0.1460147 0.9892465 0.008432576
vn 0.1460147 0.9892465 0.008432576
vn 0.1460147 0.9892465 0.008432576
vn 0.1460147 0.9892465 0.008432576
vn 0.1460147 0.9892465 0.008432576
vn -0.1460202 -0.989241 -0.008963652
vn -0.1460202 -0.989241 -0.008963652
vn -0.1460202 -0.989241 -0.008963652
vn -0.1460202 -0.989241 -0.008963652
vn -0.1460202 -0.989241 -0.008963652
vn -0.1460202 -0.989241 -0.008963652
vn -0.1460202 -0.989241 -0.008963652
vn -0.1460202 -0.989241 -0.008963652
vn 0.1460147 0.9892465 0.008432576
vn 0.1460147 0.9892465 0.008432576
vn 0.1460147 0.9892465 0.008432576
vn 0.1460147 0.9892465 0.008432576
vn 0.1460147 0.9892465 0.008432576
vn 0.1460147 0.9892465 0.008432576
vn 0.1460147 0.9892465 0.008432576
vn 0.1460147 0.9892465 0.008432576
vn -0.1460202 -0.989241 -0.008963652
vn -0.1460202 -0.989241 -0.008963652
vn -0.1460202 -0.989241 -0.008963652
vn -0.1460202 -0.989241 -0.008963652
vn -0.1460202 -0.989241 -0.008963652
vn -0.1460202 -0.989241 -0.008963652
vn -0.1460202 -0.989241 -0.008963652
vn -0.1460202 -0.989241 -0.008963652
vn 0.1460147 0.9892465 0.008432576
vn 0.1460147 0.9892465 0.008432576
vn 0.1460147 0.9892465 0.008432576
vn 0.1460147 0.9892465 0.008432576
vn 0.1460147 0.9892465 0.008432576
vn 0.1460147 0.9892465 0.008432576
vn 0.1460147 0.9892465 0.008432576
vn 0.1460147 0.9892465 0.008432576
vn -0.1460202 -0.989241 -0.008963652
vn -0.1460202 -0.989241 -0.008963652
vn -0.1460202 -0.989241 -0.008963652
vn -0.1460202 -0.989241 -0.008963652
vn -0.1460202 -0.989241 -0.008963652
vn -0.1460202 -0.989241 -0.008963652
vn -0.1460202 -0.989241 -0.008963652
vn -0.1460202 -0.989241 -0.008963652
vn 0.1460147 0.9892465 0.008432576
vn 0.1460147 0.9892465 0.008432576
vn 0.1460147 0.9892465 0.008432576
vn 0.1460147 0.9892465 0.008432576
vn 0.1460147 0.9892465 0.008432576
vn 0.1460147 0.9892465 0.008432576
vn 0.1460147 0.9892465 0.008432576
vn 0.1460147 0.9892465 0.008432576
vn -0.1460202 -0.989241 -0.008963652
vn -0.1460202 -0.989241 -0.008963652
vn -0.1460202 -0.989241 -0.008963652
vn -0.1460202 -0.989241 -0.008963652
vn -0.1460202 -0.989241 -0.008963652
vn -0.1460202 -0.989241 -0.008963652
vn -0.1460202 -0.989241 -0.008963652
vn -0.1460202 -0.989241 -0.008963652
vn 0.1460147 0.9892465 0.008432576
vn 0.1460147 0.9892465 0.008432576
vn 0.1460147 0.9892465 0.008432576
vn 0.1460147 0.9892465 0.008432576
vn 0.1460147 0.9892465 0.008432576
vn 0.1460147 0.9892465 0.008432576
vn 0.1460147 0.9892465 0.008432576
vn 0.1460147 0.9892465 0.008432576
vn -0.1460202 -0.989241 -0.008963652
vn -0.1460202 -0.989241 -0.008963652
vn -0.1460202 -0.989241 -0.008963652
vn -0.1460202 -0.989241 -0.008963652
vn -0.1460202 -0.989241 -0.008963652
vn -0.1460202 -0.989241 -0.008963652
vn -0.1460202 -0.989241 -0.008963652
vn -0.1460202 -0.989241 -0.008963652
vn 0.1460147 0.9892465 0.008432576
vn 0.1460147 0.9892465 0.008432576
vn 0.1460147 0.9892465 0.008432576
vn 0.1460147 0.9892465 0.008432576
vn 0.1460147 0.9892465 0.008432576
vn 0.1460147 0.9892465 0.008432576
vn 0.1460147 0.9892465 0.008432576
vn 0.1460147 0.9892465 0.008432576
vn -0.1460202 -0.989241 -0.008963652
vn -0.1460202 -0.989241 -0.008963652
vn -0.1460202 -0.989241 -0.008963652
vn -0.1460202 -0.989241 -0.008963652
vn -0.1460202 -0.989241 -0.008963652
vn -0.1460202 -0.989241 -0.008963652
vn -0.1460202 -0.989241 -0.008963652
vn -0.1460202 -0.989241 -0.008963652
vn 0.1460147 0.9892465 0.008432576
vn 0.1460147 0.9892465 0.008432576
vn 0.1460147 0.9892465 0.008432576
vn 0.1460147 0.9892465 0.008432576
vn 0.1460147 0.9892465 0.008432576
vn 0.1460147 0.9892465 0.008432576
vn 0.1460147 0.9892465 0.008432576
vn 0.1460147 0.9892465 0.008432576
vn -0.1460202 -0.989241 -0.008963652
vn -0.1460202 -0.989241 -0.008963652
vn -0.1460202 -0.989241 -0.008963652
vn -0.1460202 -0.989241 -0.008963652
vn -0.1460202 -0.989241 -0.008963652
vn -0.1460202 -0.989241 -0.008963652
vn -0.1460202 -0.989241 -0.008963652
vn -0.1460202 -0.989241 -0.008963652
g Combined_M_Cmn_ami01_Prefab_Mesh_0
f 3/3/3 2/2/2 1/1/1
f 4/4/4 1/1/1 2/2/2
f 7/7/7 6/6/6 5/5/5
f 8/8/8 5/5/5 6/6/6
f 11/11/11 10/10/10 9/9/9
f 9/9/9 12/12/12 11/11/11
f 15/15/15 14/14/14 13/13/13
f 13/13/13 16/16/16 15/15/15
f 19/19/19 18/18/18 17/17/17
f 20/20/20 17/17/17 18/18/18
f 23/23/23 22/22/22 21/21/21
f 24/24/24 21/21/21 22/22/22
f 27/27/27 26/26/26 25/25/25
f 28/28/28 25/25/25 26/26/26
f 31/31/31 30/30/30 29/29/29
f 32/32/32 29/29/29 30/30/30
f 35/35/35 34/34/34 33/33/33
f 33/33/33 36/36/36 35/35/35
f 39/39/39 38/38/38 37/37/37
f 37/37/37 40/40/40 39/39/39
f 43/43/43 42/42/42 41/41/41
f 41/41/41 44/44/44 43/43/43
f 47/47/47 46/46/46 45/45/45
f 45/45/45 48/48/48 47/47/47
f 51/51/51 50/50/50 49/49/49
f 52/52/52 49/49/49 50/50/50
f 55/55/55 54/54/54 53/53/53
f 56/56/56 53/53/53 54/54/54
f 59/59/59 58/58/58 57/57/57
f 57/57/57 60/60/60 59/59/59
f 63/63/63 62/62/62 61/61/61
f 61/61/61 64/64/64 63/63/63
f 67/67/67 66/66/66 65/65/65
f 68/68/68 65/65/65 66/66/66
f 71/71/71 70/70/70 69/69/69
f 72/72/72 69/69/69 70/70/70
f 75/75/75 74/74/74 73/73/73
f 73/73/73 76/76/76 75/75/75
f 79/79/79 78/78/78 77/77/77
f 77/77/77 80/80/80 79/79/79
f 83/83/83 82/82/82 81/81/81
f 84/84/84 81/81/81 82/82/82
f 87/87/87 86/86/86 85/85/85
f 88/88/88 85/85/85 86/86/86
f 91/91/91 90/90/90 89/89/89
f 89/89/89 92/92/92 91/91/91
f 95/95/95 94/94/94 93/93/93
f 93/93/93 96/96/96 95/95/95
f 99/99/99 98/98/98 97/97/97
f 100/100/100 97/97/97 98/98/98
f 103/103/103 102/102/102 101/101/101
f 104/104/104 101/101/101 102/102/102
f 107/107/107 106/106/106 105/105/105
f 105/105/105 108/108/108 107/107/107
f 111/111/111 110/110/110 109/109/109
f 109/109/109 112/112/112 111/111/111
f 115/115/115 114/114/114 113/113/113
f 116/116/116 113/113/113 114/114/114
f 119/119/119 118/118/118 117/117/117
f 120/120/120 117/117/117 118/118/118
f 123/123/123 122/122/122 121/121/121
f 121/121/121 124/124/124 123/123/123
f 127/127/127 126/126/126 125/125/125
f 125/125/125 128/128/128 127/127/127
f 131/131/131 130/130/130 129/129/129
f 132/132/132 129/129/129 130/130/130
f 135/135/135 134/134/134 133/133/133
f 136/136/136 133/133/133 134/134/134
f 139/139/139 138/138/138 137/137/137
f 137/137/137 140/140/140 139/139/139
f 143/143/143 142/142/142 141/141/141
f 141/141/141 144/144/144 143/143/143
f 147/147/147 146/146/146 145/145/145
f 148/148/148 145/145/145 146/146/146
f 151/151/151 150/150/150 149/149/149
f 152/152/152 149/149/149 150/150/150
f 155/155/155 154/154/154 153/153/153
f 153/153/153 156/156/156 155/155/155
f 159/159/159 158/158/158 157/157/157
f 157/157/157 160/160/160 159/159/159
