g Combined_M_Cmn_ami01_Prefab_Mesh
v 61.66708 60.99097 61.09052
v 75.75406 64.862 73.75192
v 61.66708 64.862 73.75192
v 75.75406 60.99097 61.09052
v 75.75406 64.862 73.75192
v 89.84103 60.99097 61.09052
v 89.84103 64.862 73.75192
v 75.75406 60.99097 61.09052
v 61.66708 65.59818 76.15994
v 75.75406 69.46921 88.82135
v 61.66708 69.46921 88.82135
v 75.75406 65.59818 76.15994
v 75.75406 69.46921 88.82135
v 89.84103 65.59818 76.15994
v 89.84103 69.46921 88.82135
v 75.75406 65.59818 76.15994
v 61.66708 70.20538 91.22937
v 75.75406 74.07642 103.8908
v 61.66708 74.07642 103.8908
v 75.75406 70.20538 91.22937
v 75.75406 74.07642 103.8908
v 89.84103 70.20538 91.22937
v 89.84103 74.07642 103.8908
v 75.75406 70.20538 91.22937
v 61.66708 63.47495 76.80893
v 61.66708 67.34598 89.47031
v 75.75406 67.34598 89.47031
v 75.75406 63.47495 76.80893
v 75.75406 67.34598 89.47031
v 89.84103 67.34598 89.47031
v 89.84103 63.47495 76.80893
v 75.75406 63.47495 76.80893
v 61.66708 58.86774 61.7395
v 61.66708 62.73877 74.40128
v 75.75406 62.73877 74.40128
v 75.75406 58.86774 61.7395
v 75.75406 62.73877 74.40128
v 89.84103 62.73877 74.40128
v 89.84103 58.86774 61.7395
v 75.75406 58.86774 61.7395
v 61.66708 68.08215 91.87836
v 61.66708 71.95319 104.5397
v 75.75406 71.95319 104.5397
v 75.75406 68.08215 91.87836
v 75.75406 71.95319 104.5397
v 89.84103 71.95319 104.5397
v 89.84103 68.08215 91.87836
v 75.75406 68.08215 91.87836
v -152.1003 74.23734 -196.8335
v -144.4855 75.37735 -189.7681
v -152.1003 75.37735 -189.7681
v -144.4855 74.23734 -196.8335
v -144.4855 75.37735 -189.7681
v -136.871 74.23734 -196.8335
v -136.871 75.37735 -189.7681
v -144.4855 74.23734 -196.8335
v -152.1003 75.59442 -188.4245
v -144.4855 76.73444 -181.3591
v -152.1003 76.73444 -181.3591
v -144.4855 75.59442 -188.4245
v -144.4855 76.73444 -181.3591
v -136.871 75.59442 -188.4245
v -136.871 76.73444 -181.3591
v -144.4855 75.59442 -188.4245
v -152.1003 76.95114 -180.0155
v -144.4855 78.09152 -172.9501
v -152.1003 78.09152 -172.9501
v -144.4855 76.95114 -180.0155
v -144.4855 78.09152 -172.9501
v -136.871 76.95114 -180.0155
v -136.871 78.09152 -172.9501
v -144.4855 76.95114 -180.0155
v -152.1003 78.30823 -171.6064
v -144.4855 79.44861 -164.5411
v -152.1003 79.44861 -164.5411
v -144.4855 78.30823 -171.6064
v -144.4855 79.44861 -164.5411
v -136.871 78.30823 -171.6064
v -136.871 79.44861 -164.5411
v -144.4855 78.30823 -171.6064
v -152.1003 79.66531 -163.1974
v -144.4855 80.80569 -156.1321
v -152.1003 80.80569 -156.1321
v -144.4855 79.66531 -163.1974
v -144.4855 80.80569 -156.1321
v -136.871 79.66531 -163.1974
v -136.871 80.80569 -156.1321
v -144.4855 79.66531 -163.1974
v -152.1003 74.40948 -188.2332
v -152.1003 75.5499 -181.1678
v -144.4855 75.5499 -181.1678
v -144.4855 74.40948 -188.2332
v -144.4855 75.5499 -181.1678
v -136.871 75.5499 -181.1678
v -136.871 74.40948 -188.2332
v -144.4855 74.40948 -188.2332
v -152.1003 73.0524 -196.6422
v -152.1003 74.19281 -189.5768
v -144.4855 74.19281 -189.5768
v -144.4855 73.0524 -196.6422
v -144.4855 74.19281 -189.5768
v -136.871 74.19281 -189.5768
v -136.871 73.0524 -196.6422
v -144.4855 73.0524 -196.6422
v -152.1003 75.76657 -179.8242
v -152.1003 76.90698 -172.7588
v -144.4855 76.90698 -172.7588
v -144.4855 75.76657 -179.8242
v -144.4855 76.90698 -172.7588
v -136.871 76.90698 -172.7588
v -136.871 75.76657 -179.8242
v -144.4855 75.76657 -179.8242
v -152.1003 77.12366 -171.4152
v -152.1003 78.26407 -164.3498
v -144.4855 78.26367 -164.3498
v -144.4855 77.12366 -171.4152
v -144.4855 78.26367 -164.3498
v -136.871 78.26407 -164.3498
v -136.871 77.12366 -171.4152
v -144.4855 77.12366 -171.4152
v -152.1003 78.48077 -163.0062
v -152.1003 79.62076 -155.9408
v -144.4855 79.62076 -155.9408
v -144.4855 78.48077 -163.0062
v -144.4855 79.62076 -155.9408
v -136.871 79.62076 -155.9408
v -136.871 78.48077 -163.0062
v -144.4855 78.48077 -163.0062
v -136.8823 73.87357 -199.6326
v -144.4967 72.73315 -206.698
v -136.8823 72.73315 -206.698
v -144.4967 73.87357 -199.6326
v -144.4967 72.73315 -206.698
v -152.1115 73.87357 -199.6326
v -152.1115 72.73315 -206.698
v -144.4967 73.87357 -199.6326
v -136.8823 72.51645 -208.0416
v -144.4967 71.37646 -215.107
v -136.8823 71.37646 -215.107
v -144.4967 72.51645 -208.0416
v -144.4967 71.37646 -215.107
v -152.1115 72.51645 -208.0416
v -152.1115 71.37646 -215.107
v -144.4967 72.51645 -208.0416
v -136.8823 71.15936 -216.4506
v -144.4967 70.01938 -223.516
v -136.8823 70.01938 -223.516
v -144.4967 71.15936 -216.4506
v -144.4967 70.01938 -223.516
v -152.1115 71.15936 -216.4506
v -152.1115 70.01938 -223.516
v -144.4967 71.15936 -216.4506
v -136.8823 69.80228 -224.8596
v -144.4967 68.66229 -231.925
v -136.8823 68.66229 -231.925
v -144.4967 69.80228 -224.8596
v -144.4967 68.66229 -231.925
v -152.1115 69.80228 -224.8596
v -152.1115 68.66229 -231.925
v -144.4967 69.80228 -224.8596
v -136.8823 68.44559 -233.2686
v -144.4967 67.30518 -240.334
v -136.8823 67.30518 -240.334
v -144.4967 68.44559 -233.2686
v -144.4967 67.30518 -240.334
v -152.1115 68.44559 -233.2686
v -152.1115 67.30518 -240.334
v -144.4967 68.44559 -233.2686
v -136.8823 71.33191 -207.8503
v -136.8823 70.19153 -214.9157
v -144.4967 70.19153 -214.9157
v -144.4967 71.33191 -207.8503
v -144.4967 70.19153 -214.9157
v -152.1115 70.19153 -214.9157
v -152.1115 71.33191 -207.8503
v -144.4967 71.33191 -207.8503
v -136.8823 72.689 -199.4413
v -136.8823 71.54861 -206.5067
v -144.4967 71.54861 -206.5067
v -144.4967 72.689 -199.4413
v -144.4967 71.54861 -206.5067
v -152.1115 71.54861 -206.5067
v -152.1115 72.689 -199.4413
v -144.4967 72.689 -199.4413
v -136.8823 69.97482 -216.2593
v -136.8823 68.83444 -223.3247
v -144.4967 68.83444 -223.3247
v -144.4967 69.97482 -216.2593
v -144.4967 68.83444 -223.3247
v -152.1115 68.83444 -223.3247
v -152.1115 69.97482 -216.2593
v -144.4967 69.97482 -216.2593
v -136.8823 68.61774 -224.6683
v -136.8823 67.47772 -231.7337
v -144.4967 67.47736 -231.7337
v -144.4967 68.61774 -224.6683
v -144.4967 67.47736 -231.7337
v -152.1115 67.47772 -231.7337
v -152.1115 68.61774 -224.6683
v -144.4967 68.61774 -224.6683
v -136.8823 67.26065 -233.0773
v -136.8823 66.12064 -240.1427
v -144.4967 66.12064 -240.1427
v -144.4967 67.26065 -233.0773
v -144.4967 66.12064 -240.1427
v -152.1115 66.12064 -240.1427
v -152.1115 67.26065 -233.0773
v -144.4967 67.26065 -233.0773
vt -1.5 2.5
vt 2.5 -1.5
vt 2.5 2.5
vt -1.5 -1.5
vt -1.5 2.5
vt 2.5 -1.5
vt 2.5 2.5
vt -1.5 -1.5
vt -1.5 2.5
vt 2.5 -1.5
vt 2.5 2.5
vt -1.5 -1.5
vt -1.5 2.5
vt 2.5 -1.5
vt 2.5 2.5
vt -1.5 -1.5
vt -1.5 2.5
vt 2.5 -1.5
vt 2.5 2.5
vt -1.5 -1.5
vt -1.5 2.5
vt 2.5 -1.5
vt 2.5 2.5
vt -1.5 -1.5
vt -1.5 2.5
vt 2.5 2.5
vt 2.5 -1.5
vt -1.5 -1.5
vt -1.5 2.5
vt 2.5 2.5
vt 2.5 -1.5
vt -1.5 -1.5
vt -1.5 2.5
vt 2.5 2.5
vt 2.5 -1.5
vt -1.5 -1.5
vt -1.5 2.5
vt 2.5 2.5
vt 2.5 -1.5
vt -1.5 -1.5
vt -1.5 2.5
vt 2.5 2.5
vt 2.5 -1.5
vt -1.5 -1.5
vt -1.5 2.5
vt 2.5 2.5
vt 2.5 -1.5
vt -1.5 -1.5
vt -1.5 2.5
vt 2.5 -1.5
vt 2.5 2.5
vt -1.5 -1.5
vt -1.5 2.5
vt 2.5 -1.5
vt 2.5 2.5
vt -1.5 -1.5
vt -1.5 2.5
vt 2.5 -1.5
vt 2.5 2.5
vt -1.5 -1.5
vt -1.5 2.5
vt 2.5 -1.5
vt 2.5 2.5
vt -1.5 -1.5
vt -1.5 2.5
vt 2.5 -1.5
vt 2.5 2.5
vt -1.5 -1.5
vt -1.5 2.5
vt 2.5 -1.5
vt 2.5 2.5
vt -1.5 -1.5
vt -1.5 2.5
vt 2.5 -1.5
vt 2.5 2.5
vt -1.5 -1.5
vt -1.5 2.5
vt 2.5 -1.5
vt 2.5 2.5
vt -1.5 -1.5
vt -1.5 2.5
vt 2.5 -1.5
vt 2.5 2.5
vt -1.5 -1.5
vt -1.5 2.5
vt 2.5 -1.5
vt 2.5 2.5
vt -1.5 -1.5
vt -1.5 2.5
vt 2.5 2.5
vt 2.5 -1.5
vt -1.5 -1.5
vt -1.5 2.5
vt 2.5 2.5
vt 2.5 -1.5
vt -1.5 -1.5
vt -1.5 2.5
vt 2.5 2.5
vt 2.5 -1.5
vt -1.5 -1.5
vt -1.5 2.5
vt 2.5 2.5
vt 2.5 -1.5
vt -1.5 -1.5
vt -1.5 2.5
vt 2.5 2.5
vt 2.5 -1.5
vt -1.5 -1.5
vt -1.5 2.5
vt 2.5 2.5
vt 2.5 -1.5
vt -1.5 -1.5
vt -1.5 2.5
vt 2.5 2.5
vt 2.5 -1.5
vt -1.5 -1.5
vt -1.5 2.5
vt 2.5 2.5
vt 2.5 -1.5
vt -1.5 -1.5
vt -1.5 2.5
vt 2.5 2.5
vt 2.5 -1.5
vt -1.5 -1.5
vt -1.5 2.5
vt 2.5 2.5
vt 2.5 -1.5
vt -1.5 -1.5
vt -1.5 2.5
vt 2.5 -1.5
vt 2.5 2.5
vt -1.5 -1.5
vt -1.5 2.5
vt 2.5 -1.5
vt 2.5 2.5
vt -1.5 -1.5
vt -1.5 2.5
vt 2.5 -1.5
vt 2.5 2.5
vt -1.5 -1.5
vt -1.5 2.5
vt 2.5 -1.5
vt 2.5 2.5
vt -1.5 -1.5
vt -1.5 2.5
vt 2.5 -1.5
vt 2.5 2.5
vt -1.5 -1.5
vt -1.5 2.5
vt 2.5 -1.5
vt 2.5 2.5
vt -1.5 -1.5
vt -1.5 2.5
vt 2.5 -1.5
vt 2.5 2.5
vt -1.5 -1.5
vt -1.5 2.5
vt 2.5 -1.5
vt 2.5 2.5
vt -1.5 -1.5
vt -1.5 2.5
vt 2.5 -1.5
vt 2.5 2.5
vt -1.5 -1.5
vt -1.5 2.5
vt 2.5 -1.5
vt 2.5 2.5
vt -1.5 -1.5
vt -1.5 2.5
vt 2.5 2.5
vt 2.5 -1.5
vt -1.5 -1.5
vt -1.5 2.5
vt 2.5 2.5
vt 2.5 -1.5
vt -1.5 -1.5
vt -1.5 2.5
vt 2.5 2.5
vt 2.5 -1.5
vt -1.5 -1.5
vt -1.5 2.5
vt 2.5 2.5
vt 2.5 -1.5
vt -1.5 -1.5
vt -1.5 2.5
vt 2.5 2.5
vt 2.5 -1.5
vt -1.5 -1.5
vt -1.5 2.5
vt 2.5 2.5
vt 2.5 -1.5
vt -1.5 -1.5
vt -1.5 2.5
vt 2.5 2.5
vt 2.5 -1.5
vt -1.5 -1.5
vt -1.5 2.5
vt 2.5 2.5
vt 2.5 -1.5
vt -1.5 -1.5
vt -1.5 2.5
vt 2.5 2.5
vt 2.5 -1.5
vt -1.5 -1.5
vt -1.5 2.5
vt 2.5 2.5
vt 2.5 -1.5
vt -1.5 -1.5
vn -0.0009650588 0.9563459 -0.2922354
vn -0.0009650588 0.9563459 -0.2922354
vn -0.0009650588 0.9563459 -0.2922354
vn -0.0009650588 0.9563459 -0.2922354
vn -0.0009650588 0.9563459 -0.2922354
vn -0.0009650588 0.9563459 -0.2922354
vn -0.0009650588 0.9563459 -0.2922354
vn -0.0009650588 0.9563459 -0.2922354
vn -0.0009650588 0.9563459 -0.2922354
vn -0.0009650588 0.9563459 -0.2922354
vn -0.0009650588 0.9563459 -0.2922354
vn -0.0009650588 0.9563459 -0.2922354
vn -0.0009650588 0.9563459 -0.2922354
vn -0.0009650588 0.9563459 -0.2922354
vn -0.0009650588 0.9563459 -0.2922354
vn -0.0009650588 0.9563459 -0.2922354
vn -0.0009650588 0.9563459 -0.2922354
vn -0.0009650588 0.9563459 -0.2922354
vn -0.0009650588 0.9563459 -0.2922354
vn -0.0009650588 0.9563459 -0.2922354
vn -0.0009650588 0.9563459 -0.2922354
vn -0.0009650588 0.9563459 -0.2922354
vn -0.0009650588 0.9563459 -0.2922354
vn -0.0009650588 0.9563459 -0.2922354
vn -0.0009650588 -0.9563459 0.2922356
vn -0.0009650588 -0.9563459 0.2922356
vn -0.0009650588 -0.9563459 0.2922356
vn -0.0009650588 -0.9563459 0.2922356
vn -0.0009650588 -0.9563459 0.2922356
vn -0.0009650588 -0.9563459 0.2922356
vn -0.0009650588 -0.9563459 0.2922356
vn -0.0009650588 -0.9563459 0.2922356
vn -0.0009650588 -0.9563459 0.2922356
vn -0.0009650588 -0.9563459 0.2922356
vn -0.0009650588 -0.9563459 0.2922356
vn -0.0009650588 -0.9563459 0.2922356
vn -0.0009650588 -0.9563459 0.2922356
vn -0.0009650588 -0.9563459 0.2922356
vn -0.0009650588 -0.9563459 0.2922356
vn -0.0009650588 -0.9563459 0.2922356
vn -0.0009650588 -0.9563459 0.2922356
vn -0.0009650588 -0.9563459 0.2922356
vn -0.0009650588 -0.9563459 0.2922356
vn -0.0009650588 -0.9563459 0.2922356
vn -0.0009650588 -0.9563459 0.2922356
vn -0.0009650588 -0.9563459 0.2922356
vn -0.0009650588 -0.9563459 0.2922356
vn -0.0009650588 -0.9563459 0.2922356
vn -0.0009650588 0.987227 -0.1593172
vn -0.0009650588 0.987227 -0.1593172
vn -0.0009650588 0.987227 -0.1593172
vn -0.0009650588 0.987227 -0.1593172
vn -0.0009650588 0.987227 -0.1593172
vn -0.0009650588 0.987227 -0.1593172
vn -0.0009650588 0.987227 -0.1593172
vn -0.0009650588 0.987227 -0.1593172
vn -0.0009650588 0.987227 -0.1593172
vn -0.0009650588 0.987227 -0.1593172
vn -0.0009650588 0.987227 -0.1593172
vn -0.0009650588 0.987227 -0.1593172
vn -0.0009650588 0.987227 -0.1593172
vn -0.0009650588 0.987227 -0.1593172
vn -0.0009650588 0.987227 -0.1593172
vn -0.0009650588 0.987227 -0.1593172
vn -0.0009650588 0.987227 -0.1593172
vn -0.0009650588 0.987227 -0.1593172
vn -0.0009650588 0.987227 -0.1593172
vn -0.0009650588 0.987227 -0.1593172
vn -0.0009650588 0.987227 -0.1593172
vn -0.0009650588 0.987227 -0.1593172
vn -0.0009650588 0.987227 -0.1593172
vn -0.0009650588 0.987227 -0.1593172
vn -0.0009650588 0.987227 -0.1593172
vn -0.0009650588 0.987227 -0.1593172
vn -0.0009650588 0.987227 -0.1593172
vn -0.0009650588 0.987227 -0.1593172
vn -0.0009650588 0.987227 -0.1593172
vn -0.0009650588 0.987227 -0.1593172
vn -0.0009650588 0.987227 -0.1593172
vn -0.0009650588 0.987227 -0.1593172
vn -0.0009650588 0.987227 -0.1593172
vn -0.0009650588 0.987227 -0.1593172
vn -0.0009650588 0.987227 -0.1593172
vn -0.0009650588 0.987227 -0.1593172
vn -0.0009650588 0.987227 -0.1593172
vn -0.0009650588 0.987227 -0.1593172
vn -0.0009650588 0.987227 -0.1593172
vn -0.0009650588 0.987227 -0.1593172
vn -0.0009650588 -0.9872268 0.159318
vn -0.0009650588 -0.9872268 0.159318
vn -0.0009650588 -0.9872268 0.159318
vn -0.0009650588 -0.9872268 0.159318
vn -0.0009650588 -0.9872268 0.159318
vn -0.0009650588 -0.9872268 0.159318
vn -0.0009650588 -0.9872268 0.159318
vn -0.0009650588 -0.9872268 0.159318
vn -0.0009650588 -0.9872268 0.159318
vn -0.0009650588 -0.9872268 0.159318
vn -0.0009650588 -0.9872268 0.159318
vn -0.0009650588 -0.9872268 0.159318
vn -0.0009650588 -0.9872268 0.159318
vn -0.0009650588 -0.9872268 0.159318
vn -0.0009650588 -0.9872268 0.159318
vn -0.0009650588 -0.9872268 0.159318
vn -0.0009650588 -0.9872268 0.159318
vn -0.0009650588 -0.9872268 0.159318
vn -0.0009650588 -0.9872268 0.159318
vn -0.0009650588 -0.9872268 0.159318
vn -0.0009650588 -0.9872268 0.159318
vn -0.0009650588 -0.9872268 0.159318
vn -0.0009650588 -0.9872268 0.159318
vn -0.0009650588 -0.9872268 0.159318
vn -0.0009650588 -0.9872268 0.159318
vn -0.0009650588 -0.9872268 0.159318
vn -0.0009650588 -0.9872268 0.159318
vn -0.0009650588 -0.9872268 0.159318
vn -0.0009650588 -0.9872268 0.159318
vn -0.0009650588 -0.9872268 0.159318
vn -0.0009650588 -0.9872268 0.159318
vn -0.0009650588 -0.9872268 0.159318
vn -0.0009650588 -0.9872268 0.159318
vn -0.0009650588 -0.9872268 0.159318
vn -0.0009650588 -0.9872268 0.159318
vn -0.0009650588 -0.9872268 0.159318
vn -0.0009650588 -0.9872268 0.159318
vn -0.0009650588 -0.9872268 0.159318
vn -0.0009650588 -0.9872268 0.159318
vn -0.0009650588 -0.9872268 0.159318
vn 0.0009649992 0.987227 -0.1593172
vn 0.0009649992 0.987227 -0.1593172
vn 0.0009649992 0.987227 -0.1593172
vn 0.0009649992 0.987227 -0.1593172
vn 0.0009649992 0.987227 -0.1593172
vn 0.0009649992 0.987227 -0.1593172
vn 0.0009649992 0.987227 -0.1593172
vn 0.0009649992 0.987227 -0.1593172
vn 0.0009649992 0.987227 -0.1593172
vn 0.0009649992 0.987227 -0.1593172
vn 0.0009649992 0.987227 -0.1593172
vn 0.0009649992 0.987227 -0.1593172
vn 0.0009649992 0.987227 -0.1593172
vn 0.0009649992 0.987227 -0.1593172
vn 0.0009649992 0.987227 -0.1593172
vn 0.0009649992 0.987227 -0.1593172
vn 0.0009649992 0.987227 -0.1593172
vn 0.0009649992 0.987227 -0.1593172
vn 0.0009649992 0.987227 -0.1593172
vn 0.0009649992 0.987227 -0.1593172
vn 0.0009649992 0.987227 -0.1593172
vn 0.0009649992 0.987227 -0.1593172
vn 0.0009649992 0.987227 -0.1593172
vn 0.0009649992 0.987227 -0.1593172
vn 0.0009649992 0.987227 -0.1593172
vn 0.0009649992 0.987227 -0.1593172
vn 0.0009649992 0.987227 -0.1593172
vn 0.0009649992 0.987227 -0.1593172
vn 0.0009649992 0.987227 -0.1593172
vn 0.0009649992 0.987227 -0.1593172
vn 0.0009649992 0.987227 -0.1593172
vn 0.0009649992 0.987227 -0.1593172
vn 0.0009649992 0.987227 -0.1593172
vn 0.0009649992 0.987227 -0.1593172
vn 0.0009649992 0.987227 -0.1593172
vn 0.0009649992 0.987227 -0.1593172
vn 0.0009649992 0.987227 -0.1593172
vn 0.0009649992 0.987227 -0.1593172
vn 0.0009649992 0.987227 -0.1593172
vn 0.0009649992 0.987227 -0.1593172
vn 0.0009649992 -0.9872268 0.159318
vn 0.0009649992 -0.9872268 0.159318
vn 0.0009649992 -0.9872268 0.159318
vn 0.0009649992 -0.9872268 0.159318
vn 0.0009649992 -0.9872268 0.159318
vn 0.0009649992 -0.9872268 0.159318
vn 0.0009649992 -0.9872268 0.159318
vn 0.0009649992 -0.9872268 0.159318
vn 0.0009649992 -0.9872268 0.159318
vn 0.0009649992 -0.9872268 0.159318
vn 0.0009649992 -0.9872268 0.159318
vn 0.0009649992 -0.9872268 0.159318
vn 0.0009649992 -0.9872268 0.159318
vn 0.0009649992 -0.9872268 0.159318
vn 0.0009649992 -0.9872268 0.159318
vn 0.0009649992 -0.9872268 0.159318
vn 0.0009649992 -0.9872268 0.159318
vn 0.0009649992 -0.9872268 0.159318
vn 0.0009649992 -0.9872268 0.159318
vn 0.0009649992 -0.9872268 0.159318
vn 0.0009649992 -0.9872268 0.159318
vn 0.0009649992 -0.9872268 0.159318
vn 0.0009649992 -0.9872268 0.159318
vn 0.0009649992 -0.9872268 0.159318
vn 0.0009649992 -0.9872268 0.159318
vn 0.0009649992 -0.9872268 0.159318
vn 0.0009649992 -0.9872268 0.159318
vn 0.0009649992 -0.9872268 0.159318
vn 0.0009649992 -0.9872268 0.159318
vn 0.0009649992 -0.9872268 0.159318
vn 0.0009649992 -0.9872268 0.159318
vn 0.0009649992 -0.9872268 0.159318
vn 0.0009649992 -0.9872268 0.159318
vn 0.0009649992 -0.9872268 0.159318
vn 0.0009649992 -0.9872268 0.159318
vn 0.0009649992 -0.9872268 0.159318
vn 0.0009649992 -0.9872268 0.159318
vn 0.0009649992 -0.9872268 0.159318
vn 0.0009649992 -0.9872268 0.159318
vn 0.0009649992 -0.9872268 0.159318
g Combined_M_Cmn_ami01_Prefab_Mesh_0
f 3/3/3 2/2/2 1/1/1
f 4/4/4 1/1/1 2/2/2
f 7/7/7 6/6/6 5/5/5
f 8/8/8 5/5/5 6/6/6
f 11/11/11 10/10/10 9/9/9
f 12/12/12 9/9/9 10/10/10
f 15/15/15 14/14/14 13/13/13
f 16/16/16 13/13/13 14/14/14
f 19/19/19 18/18/18 17/17/17
f 20/20/20 17/17/17 18/18/18
f 23/23/23 22/22/22 21/21/21
f 24/24/24 21/21/21 22/22/22
f 27/27/27 26/26/26 25/25/25
f 25/25/25 28/28/28 27/27/27
f 31/31/31 30/30/30 29/29/29
f 29/29/29 32/32/32 31/31/31
f 35/35/35 34/34/34 33/33/33
f 33/33/33 36/36/36 35/35/35
f 39/39/39 38/38/38 37/37/37
f 37/37/37 40/40/40 39/39/39
f 43/43/43 42/42/42 41/41/41
f 41/41/41 44/44/44 43/43/43
f 47/47/47 46/46/46 45/45/45
f 45/45/45 48/48/48 47/47/47
f 51/51/51 50/50/50 49/49/49
f 52/52/52 49/49/49 50/50/50
f 55/55/55 54/54/54 53/53/53
f 56/56/56 53/53/53 54/54/54
f 59/59/59 58/58/58 57/57/57
f 60/60/60 57/57/57 58/58/58
f 63/63/63 62/62/62 61/61/61
f 64/64/64 61/61/61 62/62/62
f 67/67/67 66/66/66 65/65/65
f 68/68/68 65/65/65 66/66/66
f 71/71/71 70/70/70 69/69/69
f 72/72/72 69/69/69 70/70/70
f 75/75/75 74/74/74 73/73/73
f 76/76/76 73/73/73 74/74/74
f 79/79/79 78/78/78 77/77/77
f 80/80/80 77/77/77 78/78/78
f 83/83/83 82/82/82 81/81/81
f 84/84/84 81/81/81 82/82/82
f 87/87/87 86/86/86 85/85/85
f 88/88/88 85/85/85 86/86/86
f 91/91/91 90/90/90 89/89/89
f 89/89/89 92/92/92 91/91/91
f 95/95/95 94/94/94 93/93/93
f 93/93/93 96/96/96 95/95/95
f 99/99/99 98/98/98 97/97/97
f 97/97/97 100/100/100 99/99/99
f 103/103/103 102/102/102 101/101/101
f 101/101/101 104/104/104 103/103/103
f 107/107/107 106/106/106 105/105/105
f 105/105/105 108/108/108 107/107/107
f 111/111/111 110/110/110 109/109/109
f 109/109/109 112/112/112 111/111/111
f 115/115/115 114/114/114 113/113/113
f 113/113/113 116/116/116 115/115/115
f 119/119/119 118/118/118 117/117/117
f 117/117/117 120/120/120 119/119/119
f 123/123/123 122/122/122 121/121/121
f 121/121/121 124/124/124 123/123/123
f 127/127/127 126/126/126 125/125/125
f 125/125/125 128/128/128 127/127/127
f 131/131/131 130/130/130 129/129/129
f 132/132/132 129/129/129 130/130/130
f 135/135/135 134/134/134 133/133/133
f 136/136/136 133/133/133 134/134/134
f 139/139/139 138/138/138 137/137/137
f 140/140/140 137/137/137 138/138/138
f 143/143/143 142/142/142 141/141/141
f 144/144/144 141/141/141 142/142/142
f 147/147/147 146/146/146 145/145/145
f 148/148/148 145/145/145 146/146/146
f 151/151/151 150/150/150 149/149/149
f 152/152/152 149/149/149 150/150/150
f 155/155/155 154/154/154 153/153/153
f 156/156/156 153/153/153 154/154/154
f 159/159/159 158/158/158 157/157/157
f 160/160/160 157/157/157 158/158/158
f 163/163/163 162/162/162 161/161/161
f 164/164/164 161/161/161 162/162/162
f 167/167/167 166/166/166 165/165/165
f 168/168/168 165/165/165 166/166/166
f 171/171/171 170/170/170 169/169/169
f 169/169/169 172/172/172 171/171/171
f 175/175/175 174/174/174 173/173/173
f 173/173/173 176/176/176 175/175/175
f 179/179/179 178/178/178 177/177/177
f 177/177/177 180/180/180 179/179/179
f 183/183/183 182/182/182 181/181/181
f 181/181/181 184/184/184 183/183/183
f 187/187/187 186/186/186 185/185/185
f 185/185/185 188/188/188 187/187/187
f 191/191/191 190/190/190 189/189/189
f 189/189/189 192/192/192 191/191/191
f 195/195/195 194/194/194 193/193/193
f 193/193/193 196/196/196 195/195/195
f 199/199/199 198/198/198 197/197/197
f 197/197/197 200/200/200 199/199/199
f 203/203/203 202/202/202 201/201/201
f 201/201/201 204/204/204 203/203/203
f 207/207/207 206/206/206 205/205/205
f 205/205/205 208/208/208 207/207/207
