g Combined_M_Cmn_ami01_Prefab_Mesh
v -8.811951 58.56662 126.2426
v -0.6034088 54.50854 133.4258
v -8.811951 54.50854 133.4258
v -0.6034088 58.56662 126.2426
v -0.6034088 54.50854 133.4258
v 7.605133 58.56662 126.2426
v 7.605133 54.50854 133.4258
v -0.6034088 58.56662 126.2426
v -8.811951 53.73688 134.792
v -0.6034088 49.6788 141.9752
v -8.811951 49.6788 141.9752
v -0.6034088 53.73688 134.792
v -0.6034088 49.6788 141.9752
v 7.605133 53.73688 134.792
v 7.605133 49.6788 141.9752
v -0.6034088 53.73688 134.792
v -8.811951 48.90714 143.3413
v -0.6034088 44.8494 150.5245
v -8.811951 44.8494 150.5245
v -0.6034088 48.90714 143.3413
v -0.6034088 44.8494 150.5245
v 7.605133 48.90714 143.3413
v 7.605133 44.8494 150.5245
v -0.6034088 48.90714 143.3413
v -8.811951 44.07771 151.8903
v -0.6034088 40.01965 159.0735
v -8.811951 40.01965 159.0735
v -0.6034088 44.07771 151.8903
v -0.6034088 40.01965 159.0735
v 7.605133 44.07771 151.8903
v 7.605133 40.01965 159.0735
v -0.6034088 44.07771 151.8903
v -8.811951 39.24797 160.4396
v -0.6034088 35.1899 167.6228
v -8.811951 35.1899 167.6228
v -0.6034088 39.24797 160.4396
v -0.6034088 35.1899 167.6228
v 7.605133 39.24797 160.4396
v 7.605133 35.1899 167.6228
v -0.6034088 39.24797 160.4396
v -8.811951 29.58849 177.5383
v -0.6034088 25.53041 184.7215
v -8.811951 25.53041 184.7215
v -0.6034088 29.58849 177.5383
v -0.6034088 25.53041 184.7215
v 7.605133 29.58849 177.5383
v 7.605133 25.53041 184.7215
v -0.6034088 29.58849 177.5383
v -8.811951 57.42334 125.568
v -8.811951 53.3656 132.7515
v -0.6034088 53.3656 132.7515
v -0.6034088 57.42334 125.568
v -0.6034088 53.3656 132.7515
v 7.605133 53.3656 132.7515
v 7.605133 57.42334 125.568
v -0.6034088 57.42334 125.568
v -8.811951 52.5936 134.1173
v -8.811951 48.53586 141.3005
v -0.6034088 48.53586 141.3005
v -0.6034088 52.5936 134.1173
v -0.6034088 48.53586 141.3005
v 7.605133 48.53586 141.3005
v 7.605133 52.5936 134.1173
v -0.6034088 52.5936 134.1173
v -8.811951 47.76419 142.6667
v -8.811951 43.70612 149.8499
v -0.6034088 43.70612 149.8499
v -0.6034088 47.76419 142.6667
v -0.6034088 43.70612 149.8499
v 7.605133 43.70612 149.8499
v 7.605133 47.76419 142.6667
v -0.6034088 47.76419 142.6667
v -8.811951 42.93445 151.216
v -8.811951 38.87637 158.3992
v -0.6034088 38.87637 158.3992
v -0.6034088 42.93445 151.216
v -0.6034088 38.87637 158.3992
v 7.605133 38.87637 158.3992
v 7.605133 42.93445 151.216
v -0.6034088 42.93445 151.216
v -8.811951 38.10471 159.765
v -8.811951 34.04697 166.9485
v -0.6034088 34.04697 166.9485
v -0.6034088 38.10471 159.765
v -0.6034088 34.04697 166.9485
v 7.605133 34.04697 166.9485
v 7.605133 38.10471 159.765
v -0.6034088 38.10471 159.765
v -8.811951 28.44522 176.8637
v -8.811951 24.38748 184.0469
v -0.6034088 24.38748 184.0469
v -0.6034088 28.44522 176.8637
v -0.6034088 24.38748 184.0469
v 7.605133 24.38748 184.0469
v 7.605133 28.44522 176.8637
v -0.6034088 28.44522 176.8637
v -8.811951 33.27496 168.3144
v -8.811951 29.21722 175.4979
v -0.6034088 29.21722 175.4979
v -0.6034088 33.27496 168.3144
v -0.6034088 29.21722 175.4979
v 7.605133 29.21722 175.4979
v 7.605133 33.27496 168.3144
v -0.6034088 33.27496 168.3144
v -8.811951 34.41823 168.989
v -0.6034088 30.36015 176.1722
v -8.811951 30.36015 176.1722
v -0.6034088 34.41823 168.989
v -0.6034088 30.36015 176.1722
v 7.605133 34.41823 168.989
v 7.605133 30.36015 176.1722
v -0.6034088 34.41823 168.989
v 94.14408 49.16281 55.25339
v 76.37872 49.16281 48.3461
v 89.2587 49.16281 43.14807
v 81.26443 49.16281 60.45142
v 76.37872 49.16281 48.3461
v 68.38479 49.16281 65.64978
v 63.49907 49.16281 53.54445
v 81.26443 49.16281 60.45142
v 88.32938 49.16281 40.84596
v 70.56402 49.16281 33.939
v 83.44399 49.16281 28.74097
v 75.44973 49.16281 46.04433
v 70.56402 49.16281 33.939
v 62.57008 49.16281 51.24236
v 57.68437 49.16281 39.13702
v 75.44973 49.16281 46.04433
v 82.51467 49.16281 26.43887
v 64.74965 49.16281 19.53157
v 77.6293 49.16281 14.33354
v 69.63503 49.16281 31.6369
v 64.74965 49.16281 19.53157
v 56.75539 49.16281 36.83493
v 51.86967 49.16281 24.72993
v 69.63503 49.16281 31.6369
v 88.32938 46.97397 40.84596
v 83.44399 46.97397 28.74097
v 70.56402 46.97397 33.939
v 75.44973 46.97397 46.04433
v 70.56402 46.97397 33.939
v 57.68437 46.97397 39.13702
v 62.57008 46.97397 51.24236
v 75.44973 46.97397 46.04433
v 94.14408 46.97397 55.25339
v 89.2587 46.97397 43.14807
v 76.37872 46.97397 48.3461
v 81.26443 46.97397 60.45142
v 76.37872 46.97397 48.3461
v 63.49907 46.97397 53.54445
v 68.38479 46.97397 65.64978
v 81.26443 46.97397 60.45142
v 82.51467 46.97397 26.43887
v 77.6293 46.97397 14.33354
v 64.74965 46.97397 19.53157
v 69.63503 46.97397 31.6369
v 64.74965 46.97397 19.53157
v 51.86967 46.97397 24.72993
v 56.75539 46.97397 36.83493
v 69.63503 46.97397 31.6369
v 162.2384 48.87434 93.3856
v 148.4447 46.70041 87.86235
v 158.3893 48.87434 83.84866
v 152.2934 46.70041 97.39896
v 148.4447 46.70041 87.86235
v 142.3488 44.52647 101.4127
v 138.4997 44.52647 91.87572
v 152.2934 46.70041 97.39896
v 157.6574 48.87434 82.03506
v 143.8636 46.70041 76.51181
v 153.8083 48.87434 72.49812
v 147.7127 46.70041 86.04875
v 143.8636 46.70041 76.51181
v 137.7678 44.52647 90.06212
v 133.919 44.52647 80.5255
v 147.7127 46.70041 86.04875
v 153.0764 48.87434 70.68452
v 139.2826 46.70041 65.16127
v 149.2273 48.87434 61.14758
v 143.1317 46.70041 74.69821
v 139.2826 46.70041 65.16127
v 133.1867 44.52647 78.71158
v 129.338 44.52647 69.17496
v 143.1317 46.70041 74.69821
v 148.4953 48.87434 59.33398
v 134.7016 46.70041 53.81073
v 144.6466 48.87434 49.79704
v 138.5507 46.70041 63.34767
v 134.7016 46.70041 53.81073
v 128.606 44.52647 67.36104
v 124.757 44.52647 57.82442
v 138.5507 46.70041 63.34767
v 157.975 47.18428 81.90689
v 154.1259 47.18428 72.36995
v 144.1812 45.01035 76.38364
v 148.0303 45.01035 85.92026
v 144.1812 45.01035 76.38364
v 134.2366 42.83641 80.397
v 138.0854 42.83641 89.93394
v 148.0303 45.01035 85.92026
v 162.556 47.18428 93.25711
v 158.7069 47.18428 83.72049
v 148.7623 45.01035 87.73386
v 152.6114 45.01035 97.27078
v 148.7623 45.01035 87.73386
v 138.8176 42.83641 91.74754
v 142.6664 42.83641 101.2845
v 152.6114 45.01035 97.27078
v 153.394 47.18428 70.55635
v 149.5452 47.18428 61.01941
v 139.6002 45.01035 65.0331
v 143.4493 45.01035 74.57004
v 139.6002 45.01035 65.0331
v 129.6556 42.83641 69.04646
v 133.5047 42.83641 78.5834
v 143.4493 45.01035 74.57004
v 148.8129 47.18428 59.20581
v 144.9642 47.18428 49.66887
v 135.0192 45.01035 53.68256
v 138.8683 45.01035 63.2195
v 135.0192 45.01035 53.68256
v 125.0746 42.83641 57.69624
v 128.9237 42.83641 67.23286
v 138.8683 45.01035 63.2195
vt -1.5 2.5
vt 2.5 -1.5
vt 2.5 2.5
vt -1.5 -1.5
vt -1.5 2.5
vt 2.5 -1.5
vt 2.5 2.5
vt -1.5 -1.5
vt -1.5 2.5
vt 2.5 -1.5
vt 2.5 2.5
vt -1.5 -1.5
vt -1.5 2.5
vt 2.5 -1.5
vt 2.5 2.5
vt -1.5 -1.5
vt -1.5 2.5
vt 2.5 -1.5
vt 2.5 2.5
vt -1.5 -1.5
vt -1.5 2.5
vt 2.5 -1.5
vt 2.5 2.5
vt -1.5 -1.5
vt -1.5 2.5
vt 2.5 -1.5
vt 2.5 2.5
vt -1.5 -1.5
vt -1.5 2.5
vt 2.5 -1.5
vt 2.5 2.5
vt -1.5 -1.5
vt -1.5 2.5
vt 2.5 -1.5
vt 2.5 2.5
vt -1.5 -1.5
vt -1.5 2.5
vt 2.5 -1.5
vt 2.5 2.5
vt -1.5 -1.5
vt -1.5 2.5
vt 2.5 -1.5
vt 2.5 2.5
vt -1.5 -1.5
vt -1.5 2.5
vt 2.5 -1.5
vt 2.5 2.5
vt -1.5 -1.5
vt -1.5 2.5
vt 2.5 2.5
vt 2.5 -1.5
vt -1.5 -1.5
vt -1.5 2.5
vt 2.5 2.5
vt 2.5 -1.5
vt -1.5 -1.5
vt -1.5 2.5
vt 2.5 2.5
vt 2.5 -1.5
vt -1.5 -1.5
vt -1.5 2.5
vt 2.5 2.5
vt 2.5 -1.5
vt -1.5 -1.5
vt -1.5 2.5
vt 2.5 2.5
vt 2.5 -1.5
vt -1.5 -1.5
vt -1.5 2.5
vt 2.5 2.5
vt 2.5 -1.5
vt -1.5 -1.5
vt -1.5 2.5
vt 2.5 2.5
vt 2.5 -1.5
vt -1.5 -1.5
vt -1.5 2.5
vt 2.5 2.5
vt 2.5 -1.5
vt -1.5 -1.5
vt -1.5 2.5
vt 2.5 2.5
vt 2.5 -1.5
vt -1.5 -1.5
vt -1.5 2.5
vt 2.5 2.5
vt 2.5 -1.5
vt -1.5 -1.5
vt -1.5 2.5
vt 2.5 2.5
vt 2.5 -1.5
vt -1.5 -1.5
vt -1.5 2.5
vt 2.5 2.5
vt 2.5 -1.5
vt -1.5 -1.5
vt -1.5 2.5
vt 2.5 2.5
vt 2.5 -1.5
vt -1.5 -1.5
vt -1.5 2.5
vt 2.5 2.5
vt 2.5 -1.5
vt -1.5 -1.5
vt -1.5 2.5
vt 2.5 -1.5
vt 2.5 2.5
vt -1.5 -1.5
vt -1.5 2.5
vt 2.5 -1.5
vt 2.5 2.5
vt -1.5 -1.5
vt -1.5 2.5
vt 2.5 -1.5
vt 2.5 2.5
vt -1.5 -1.5
vt -1.5 2.5
vt 2.5 -1.5
vt 2.5 2.5
vt -1.5 -1.5
vt -1.5 2.5
vt 2.5 -1.5
vt 2.5 2.5
vt -1.5 -1.5
vt -1.5 2.5
vt 2.5 -1.5
vt 2.5 2.5
vt -1.5 -1.5
vt -1.5 2.5
vt 2.5 -1.5
vt 2.5 2.5
vt -1.5 -1.5
vt -1.5 2.5
vt 2.5 -1.5
vt 2.5 2.5
vt -1.5 -1.5
vt -1.5 2.5
vt 2.5 2.5
vt 2.5 -1.5
vt -1.5 -1.5
vt -1.5 2.5
vt 2.5 2.5
vt 2.5 -1.5
vt -1.5 -1.5
vt -1.5 2.5
vt 2.5 2.5
vt 2.5 -1.5
vt -1.5 -1.5
vt -1.5 2.5
vt 2.5 2.5
vt 2.5 -1.5
vt -1.5 -1.5
vt -1.5 2.5
vt 2.5 2.5
vt 2.5 -1.5
vt -1.5 -1.5
vt -1.5 2.5
vt 2.5 2.5
vt 2.5 -1.5
vt -1.5 -1.5
vt -1.5 2.5
vt 2.5 -1.5
vt 2.5 2.5
vt -1.5 -1.5
vt -1.5 2.5
vt 2.5 -1.5
vt 2.5 2.5
vt -1.5 -1.5
vt -1.5 2.5
vt 2.5 -1.5
vt 2.5 2.5
vt -1.5 -1.5
vt -1.5 2.5
vt 2.5 -1.5
vt 2.5 2.5
vt -1.5 -1.5
vt -1.5 2.5
vt 2.5 -1.5
vt 2.5 2.5
vt -1.5 -1.5
vt -1.5 2.5
vt 2.5 -1.5
vt 2.5 2.5
vt -1.5 -1.5
vt -1.5 2.5
vt 2.5 -1.5
vt 2.5 2.5
vt -1.5 -1.5
vt -1.5 2.5
vt 2.5 -1.5
vt 2.5 2.5
vt -1.5 -1.5
vt -1.5 2.5
vt 2.5 2.5
vt 2.5 -1.5
vt -1.5 -1.5
vt -1.5 2.5
vt 2.5 2.5
vt 2.5 -1.5
vt -1.5 -1.5
vt -1.5 2.5
vt 2.5 2.5
vt 2.5 -1.5
vt -1.5 -1.5
vt -1.5 2.5
vt 2.5 2.5
vt 2.5 -1.5
vt -1.5 -1.5
vt -1.5 2.5
vt 2.5 2.5
vt 2.5 -1.5
vt -1.5 -1.5
vt -1.5 2.5
vt 2.5 2.5
vt 2.5 -1.5
vt -1.5 -1.5
vt -1.5 2.5
vt 2.5 2.5
vt 2.5 -1.5
vt -1.5 -1.5
vt -1.5 2.5
vt 2.5 2.5
vt 2.5 -1.5
vt -1.5 -1.5
vn 0.0009775162 0.8709673 0.4913401
vn 0.0009775162 0.8709673 0.4913401
vn 0.0009775162 0.8709673 0.4913401
vn 0.0009775162 0.8709673 0.4913401
vn 0.0009775162 0.8709673 0.4913401
vn 0.0009775162 0.8709673 0.4913401
vn 0.0009775162 0.8709673 0.4913401
vn 0.0009775162 0.8709673 0.4913401
vn 0.0009775162 0.8709673 0.4913401
vn 0.0009775162 0.8709673 0.4913401
vn 0.0009775162 0.8709673 0.4913401
vn 0.0009775162 0.8709673 0.4913401
vn 0.0009775162 0.8709673 0.4913401
vn 0.0009775162 0.8709673 0.4913401
vn 0.0009775162 0.8709673 0.4913401
vn 0.0009775162 0.8709673 0.4913401
vn 0.0009775162 0.8709673 0.4913401
vn 0.0009775162 0.8709673 0.4913401
vn 0.0009775162 0.8709673 0.4913401
vn 0.0009775162 0.8709673 0.4913401
vn 0.0009775162 0.8709673 0.4913401
vn 0.0009775162 0.8709673 0.4913401
vn 0.0009775162 0.8709673 0.4913401
vn 0.0009775162 0.8709673 0.4913401
vn 0.0009775162 0.8709673 0.4913401
vn 0.0009775162 0.8709673 0.4913401
vn 0.0009775162 0.8709673 0.4913401
vn 0.0009775162 0.8709673 0.4913401
vn 0.0009775162 0.8709673 0.4913401
vn 0.0009775162 0.8709673 0.4913401
vn 0.0009775162 0.8709673 0.4913401
vn 0.0009775162 0.8709673 0.4913401
vn 0.0009775162 0.8709673 0.4913401
vn 0.0009775162 0.8709673 0.4913401
vn 0.0009775162 0.8709673 0.4913401
vn 0.0009775162 0.8709673 0.4913401
vn 0.0009775162 0.8709673 0.4913401
vn 0.0009775162 0.8709673 0.4913401
vn 0.0009775162 0.8709673 0.4913401
vn 0.0009775162 0.8709673 0.4913401
vn 0.0009775162 0.8709673 0.4913401
vn 0.0009775162 0.8709673 0.4913401
vn 0.0009775162 0.8709673 0.4913401
vn 0.0009775162 0.8709673 0.4913401
vn 0.0009775162 0.8709673 0.4913401
vn 0.0009775162 0.8709673 0.4913401
vn 0.0009775162 0.8709673 0.4913401
vn 0.0009775162 0.8709673 0.4913401
vn 0.0009775162 -0.8709672 -0.4913402
vn 0.0009775162 -0.8709672 -0.4913402
vn 0.0009775162 -0.8709672 -0.4913402
vn 0.0009775162 -0.8709672 -0.4913402
vn 0.0009775162 -0.8709672 -0.4913402
vn 0.0009775162 -0.8709672 -0.4913402
vn 0.0009775162 -0.8709672 -0.4913402
vn 0.0009775162 -0.8709672 -0.4913402
vn 0.0009775162 -0.8709672 -0.4913402
vn 0.0009775162 -0.8709672 -0.4913402
vn 0.0009775162 -0.8709672 -0.4913402
vn 0.0009775162 -0.8709672 -0.4913402
vn 0.0009775162 -0.8709672 -0.4913402
vn 0.0009775162 -0.8709672 -0.4913402
vn 0.0009775162 -0.8709672 -0.4913402
vn 0.0009775162 -0.8709672 -0.4913402
vn 0.0009775162 -0.8709672 -0.4913402
vn 0.0009775162 -0.8709672 -0.4913402
vn 0.0009775162 -0.8709672 -0.4913402
vn 0.0009775162 -0.8709672 -0.4913402
vn 0.0009775162 -0.8709672 -0.4913402
vn 0.0009775162 -0.8709672 -0.4913402
vn 0.0009775162 -0.8709672 -0.4913402
vn 0.0009775162 -0.8709672 -0.4913402
vn 0.0009775162 -0.8709672 -0.4913402
vn 0.0009775162 -0.8709672 -0.4913402
vn 0.0009775162 -0.8709672 -0.4913402
vn 0.0009775162 -0.8709672 -0.4913402
vn 0.0009775162 -0.8709672 -0.4913402
vn 0.0009775162 -0.8709672 -0.4913402
vn 0.0009775162 -0.8709672 -0.4913402
vn 0.0009775162 -0.8709672 -0.4913402
vn 0.0009775162 -0.8709672 -0.4913402
vn 0.0009775162 -0.8709672 -0.4913402
vn 0.0009775162 -0.8709672 -0.4913402
vn 0.0009775162 -0.8709672 -0.4913402
vn 0.0009775162 -0.8709672 -0.4913402
vn 0.0009775162 -0.8709672 -0.4913402
vn 0.0009775162 -0.8709672 -0.4913402
vn 0.0009775162 -0.8709672 -0.4913402
vn 0.0009775162 -0.8709672 -0.4913402
vn 0.0009775162 -0.8709672 -0.4913402
vn 0.0009775162 -0.8709672 -0.4913402
vn 0.0009775162 -0.8709672 -0.4913402
vn 0.0009775162 -0.8709672 -0.4913402
vn 0.0009775162 -0.8709672 -0.4913402
vn 0.0009775162 -0.8709672 -0.4913402
vn 0.0009775162 -0.8709672 -0.4913402
vn 0.0009775162 -0.8709672 -0.4913402
vn 0.0009775162 -0.8709672 -0.4913402
vn 0.0009775162 -0.8709672 -0.4913402
vn 0.0009775162 -0.8709672 -0.4913402
vn 0.0009775162 -0.8709672 -0.4913402
vn 0.0009775162 -0.8709672 -0.4913402
vn 0.0009775162 -0.8709672 -0.4913402
vn 0.0009775162 -0.8709672 -0.4913402
vn 0.0009775162 0.8709673 0.4913401
vn 0.0009775162 0.8709673 0.4913401
vn 0.0009775162 0.8709673 0.4913401
vn 0.0009775162 0.8709673 0.4913401
vn 0.0009775162 0.8709673 0.4913401
vn 0.0009775162 0.8709673 0.4913401
vn 0.0009775162 0.8709673 0.4913401
vn 0.0009775162 0.8709673 0.4913401
vn 0.0009775162 0.9999994 -0.0004882813
vn 0.0009775162 0.9999994 -0.0004882813
vn 0.0009775162 0.9999994 -0.0004882813
vn 0.0009775162 0.9999994 -0.0004882813
vn 0.0009775162 0.9999994 -0.0004882813
vn 0.0009775162 0.9999994 -0.0004882813
vn 0.0009775162 0.9999994 -0.0004882813
vn 0.0009775162 0.9999994 -0.0004882813
vn 0.0009775162 0.9999994 -0.0004882813
vn 0.0009775162 0.9999994 -0.0004882813
vn 0.0009775162 0.9999994 -0.0004882813
vn 0.0009775162 0.9999994 -0.0004882813
vn 0.0009775162 0.9999994 -0.0004882813
vn 0.0009775162 0.9999994 -0.0004882813
vn 0.0009775162 0.9999994 -0.0004882813
vn 0.0009775162 0.9999994 -0.0004882813
vn 0.0009775162 0.9999994 -0.0004882813
vn 0.0009775162 0.9999994 -0.0004882813
vn 0.0009775162 0.9999994 -0.0004882813
vn 0.0009775162 0.9999994 -0.0004882813
vn 0.0009775162 0.9999994 -0.0004882813
vn 0.0009775162 0.9999994 -0.0004882813
vn 0.0009775162 0.9999994 -0.0004882813
vn 0.0009775162 0.9999994 -0.0004882813
vn 0.0009775162 -0.9999994 -0.0004882813
vn 0.0009775162 -0.9999994 -0.0004882813
vn 0.0009775162 -0.9999994 -0.0004882813
vn 0.0009775162 -0.9999994 -0.0004882813
vn 0.0009775162 -0.9999994 -0.0004882813
vn 0.0009775162 -0.9999994 -0.0004882813
vn 0.0009775162 -0.9999994 -0.0004882813
vn 0.0009775162 -0.9999994 -0.0004882813
vn 0.0009775162 -0.9999994 -0.0004882813
vn 0.0009775162 -0.9999994 -0.0004882813
vn 0.0009775162 -0.9999994 -0.0004882813
vn 0.0009775162 -0.9999994 -0.0004882813
vn 0.0009775162 -0.9999994 -0.0004882813
vn 0.0009775162 -0.9999994 -0.0004882813
vn 0.0009775162 -0.9999994 -0.0004882813
vn 0.0009775162 -0.9999994 -0.0004882813
vn 0.0009775162 -0.9999994 -0.0004882813
vn 0.0009775162 -0.9999994 -0.0004882813
vn 0.0009775162 -0.9999994 -0.0004882813
vn 0.0009775162 -0.9999994 -0.0004882813
vn 0.0009775162 -0.9999994 -0.0004882813
vn 0.0009775162 -0.9999994 -0.0004882813
vn 0.0009775162 -0.9999994 -0.0004882813
vn 0.0009775162 -0.9999994 -0.0004882813
vn -0.1827956 0.9804491 0.07283783
vn -0.1827956 0.9804491 0.07283783
vn -0.1827956 0.9804491 0.07283783
vn -0.1827956 0.9804491 0.07283783
vn -0.1827956 0.9804491 0.07283783
vn -0.1827956 0.9804491 0.07283783
vn -0.1827956 0.9804491 0.07283783
vn -0.1827956 0.9804491 0.07283783
vn -0.1827956 0.9804491 0.07283783
vn -0.1827956 0.9804491 0.07283783
vn -0.1827956 0.9804491 0.07283783
vn -0.1827956 0.9804491 0.07283783
vn -0.1827956 0.9804491 0.07283783
vn -0.1827956 0.9804491 0.07283783
vn -0.1827956 0.9804491 0.07283783
vn -0.1827956 0.9804491 0.07283783
vn -0.1827956 0.9804491 0.07283783
vn -0.1827956 0.9804491 0.07283783
vn -0.1827956 0.9804491 0.07283783
vn -0.1827956 0.9804491 0.07283783
vn -0.1827956 0.9804491 0.07283783
vn -0.1827956 0.9804491 0.07283783
vn -0.1827956 0.9804491 0.07283783
vn -0.1827956 0.9804491 0.07283783
vn -0.1827956 0.9804491 0.07283783
vn -0.1827956 0.9804491 0.07283783
vn -0.1827956 0.9804491 0.07283783
vn -0.1827956 0.9804491 0.07283783
vn -0.1827956 0.9804491 0.07283783
vn -0.1827956 0.9804491 0.07283783
vn -0.1827956 0.9804491 0.07283783
vn -0.1827956 0.9804491 0.07283783
vn 0.1847506 -0.9804491 -0.06772604
vn 0.1847506 -0.9804491 -0.06772604
vn 0.1847506 -0.9804491 -0.06772604
vn 0.1847506 -0.9804491 -0.06772604
vn 0.1847506 -0.9804491 -0.06772604
vn 0.1847506 -0.9804491 -0.06772604
vn 0.1847506 -0.9804491 -0.06772604
vn 0.1847506 -0.9804491 -0.06772604
vn 0.1847506 -0.9804491 -0.06772604
vn 0.1847506 -0.9804491 -0.06772604
vn 0.1847506 -0.9804491 -0.06772604
vn 0.1847506 -0.9804491 -0.06772604
vn 0.1847506 -0.9804491 -0.06772604
vn 0.1847506 -0.9804491 -0.06772604
vn 0.1847506 -0.9804491 -0.06772604
vn 0.1847506 -0.9804491 -0.06772604
vn 0.1847506 -0.9804491 -0.06772604
vn 0.1847506 -0.9804491 -0.06772604
vn 0.1847506 -0.9804491 -0.06772604
vn 0.1847506 -0.9804491 -0.06772604
vn 0.1847506 -0.9804491 -0.06772604
vn 0.1847506 -0.9804491 -0.06772604
vn 0.1847506 -0.9804491 -0.06772604
vn 0.1847506 -0.9804491 -0.06772604
vn 0.1847506 -0.9804491 -0.06772604
vn 0.1847506 -0.9804491 -0.06772604
vn 0.1847506 -0.9804491 -0.06772604
vn 0.1847506 -0.9804491 -0.06772604
vn 0.1847506 -0.9804491 -0.06772604
vn 0.1847506 -0.9804491 -0.06772604
vn 0.1847506 -0.9804491 -0.06772604
vn 0.1847506 -0.9804491 -0.06772604
g Combined_M_Cmn_ami01_Prefab_Mesh_0
f 3/3/3 2/2/2 1/1/1
f 4/4/4 1/1/1 2/2/2
f 7/7/7 6/6/6 5/5/5
f 8/8/8 5/5/5 6/6/6
f 11/11/11 10/10/10 9/9/9
f 12/12/12 9/9/9 10/10/10
f 15/15/15 14/14/14 13/13/13
f 16/16/16 13/13/13 14/14/14
f 19/19/19 18/18/18 17/17/17
f 20/20/20 17/17/17 18/18/18
f 23/23/23 22/22/22 21/21/21
f 24/24/24 21/21/21 22/22/22
f 27/27/27 26/26/26 25/25/25
f 28/28/28 25/25/25 26/26/26
f 31/31/31 30/30/30 29/29/29
f 32/32/32 29/29/29 30/30/30
f 35/35/35 34/34/34 33/33/33
f 36/36/36 33/33/33 34/34/34
f 39/39/39 38/38/38 37/37/37
f 40/40/40 37/37/37 38/38/38
f 43/43/43 42/42/42 41/41/41
f 44/44/44 41/41/41 42/42/42
f 47/47/47 46/46/46 45/45/45
f 48/48/48 45/45/45 46/46/46
f 51/51/51 50/50/50 49/49/49
f 49/49/49 52/52/52 51/51/51
f 55/55/55 54/54/54 53/53/53
f 53/53/53 56/56/56 55/55/55
f 59/59/59 58/58/58 57/57/57
f 57/57/57 60/60/60 59/59/59
f 63/63/63 62/62/62 61/61/61
f 61/61/61 64/64/64 63/63/63
f 67/67/67 66/66/66 65/65/65
f 65/65/65 68/68/68 67/67/67
f 71/71/71 70/70/70 69/69/69
f 69/69/69 72/72/72 71/71/71
f 75/75/75 74/74/74 73/73/73
f 73/73/73 76/76/76 75/75/75
f 79/79/79 78/78/78 77/77/77
f 77/77/77 80/80/80 79/79/79
f 83/83/83 82/82/82 81/81/81
f 81/81/81 84/84/84 83/83/83
f 87/87/87 86/86/86 85/85/85
f 85/85/85 88/88/88 87/87/87
f 91/91/91 90/90/90 89/89/89
f 89/89/89 92/92/92 91/91/91
f 95/95/95 94/94/94 93/93/93
f 93/93/93 96/96/96 95/95/95
f 99/99/99 98/98/98 97/97/97
f 97/97/97 100/100/100 99/99/99
f 103/103/103 102/102/102 101/101/101
f 101/101/101 104/104/104 103/103/103
f 107/107/107 106/106/106 105/105/105
f 108/108/108 105/105/105 106/106/106
f 111/111/111 110/110/110 109/109/109
f 112/112/112 109/109/109 110/110/110
f 115/115/115 114/114/114 113/113/113
f 116/116/116 113/113/113 114/114/114
f 119/119/119 118/118/118 117/117/117
f 120/120/120 117/117/117 118/118/118
f 123/123/123 122/122/122 121/121/121
f 124/124/124 121/121/121 122/122/122
f 127/127/127 126/126/126 125/125/125
f 128/128/128 125/125/125 126/126/126
f 131/131/131 130/130/130 129/129/129
f 132/132/132 129/129/129 130/130/130
f 135/135/135 134/134/134 133/133/133
f 136/136/136 133/133/133 134/134/134
f 139/139/139 138/138/138 137/137/137
f 137/137/137 140/140/140 139/139/139
f 143/143/143 142/142/142 141/141/141
f 141/141/141 144/144/144 143/143/143
f 147/147/147 146/146/146 145/145/145
f 145/145/145 148/148/148 147/147/147
f 151/151/151 150/150/150 149/149/149
f 149/149/149 152/152/152 151/151/151
f 155/155/155 154/154/154 153/153/153
f 153/153/153 156/156/156 155/155/155
f 159/159/159 158/158/158 157/157/157
f 157/157/157 160/160/160 159/159/159
f 163/163/163 162/162/162 161/161/161
f 164/164/164 161/161/161 162/162/162
f 167/167/167 166/166/166 165/165/165
f 168/168/168 165/165/165 166/166/166
f 171/171/171 170/170/170 169/169/169
f 172/172/172 169/169/169 170/170/170
f 175/175/175 174/174/174 173/173/173
f 176/176/176 173/173/173 174/174/174
f 179/179/179 178/178/178 177/177/177
f 180/180/180 177/177/177 178/178/178
f 183/183/183 182/182/182 181/181/181
f 184/184/184 181/181/181 182/182/182
f 187/187/187 186/186/186 185/185/185
f 188/188/188 185/185/185 186/186/186
f 191/191/191 190/190/190 189/189/189
f 192/192/192 189/189/189 190/190/190
f 195/195/195 194/194/194 193/193/193
f 193/193/193 196/196/196 195/195/195
f 199/199/199 198/198/198 197/197/197
f 197/197/197 200/200/200 199/199/199
f 203/203/203 202/202/202 201/201/201
f 201/201/201 204/204/204 203/203/203
f 207/207/207 206/206/206 205/205/205
f 205/205/205 208/208/208 207/207/207
f 211/211/211 210/210/210 209/209/209
f 209/209/209 212/212/212 211/211/211
f 215/215/215 214/214/214 213/213/213
f 213/213/213 216/216/216 215/215/215
f 219/219/219 218/218/218 217/217/217
f 217/217/217 220/220/220 219/219/219
f 223/223/223 222/222/222 221/221/221
f 221/221/221 224/224/224 223/223/223
