g Combined_M_Cmn_ami01_Prefab_Mesh
v 117.3503 8.993378 3.244377
v 102.121 16.03352 -9.217934
v 117.3503 16.03352 -9.217934
v 102.121 8.993378 3.244377
v 102.121 16.03352 -9.217934
v 86.89163 8.993378 3.244377
v 86.89163 16.03352 -9.217934
v 102.121 8.993378 3.244377
v 117.3503 17.37254 -11.58793
v 102.121 24.41269 -24.05043
v 117.3503 24.41269 -24.05043
v 102.121 17.37254 -11.58793
v 102.121 24.41269 -24.05043
v 86.89163 17.37254 -11.58793
v 86.89163 24.41269 -24.05043
v 102.121 17.37254 -11.58793
v 117.3503 15.28282 -12.76846
v 117.3503 22.32317 -25.23096
v 102.121 22.32317 -25.23096
v 102.121 15.28282 -12.76846
v 102.121 22.32317 -25.23096
v 86.89163 22.32317 -25.23096
v 86.89163 15.28282 -12.76846
v 102.121 15.28282 -12.76846
v 117.3503 6.903656 2.06385
v 117.3503 13.944 -10.39846
v 102.121 13.944 -10.39846
v 102.121 6.903656 2.06385
v 102.121 13.944 -10.39846
v 86.89163 13.944 -10.39846
v 86.89163 6.903656 2.06385
v 102.121 6.903656 2.06385
v 115.1385 4.530495 77.92848
v 99.9091 11.57083 65.46617
v 115.1385 11.57083 65.46617
v 99.9091 4.530495 77.92848
v 99.9091 11.57083 65.46617
v 84.67975 4.530495 77.92848
v 84.67975 11.57083 65.46617
v 99.9091 4.530495 77.92848
v 115.1385 12.90965 63.09618
v 99.9091 19.95 50.63368
v 115.1385 19.95 50.63368
v 99.9091 12.90965 63.09618
v 99.9091 19.95 50.63368
v 84.67975 12.90965 63.09618
v 84.67975 19.95 50.63368
v 99.9091 12.90965 63.09618
v 115.1385 10.82013 61.91565
v 115.1385 17.86047 49.45314
v 99.9091 17.86047 49.45314
v 99.9091 10.82013 61.91565
v 99.9091 17.86047 49.45314
v 84.67975 17.86047 49.45314
v 84.67975 10.82013 61.91565
v 99.9091 10.82013 61.91565
v 115.1385 2.440971 76.74796
v 115.1385 9.481308 64.28564
v 99.9091 9.481308 64.28564
v 99.9091 2.440971 76.74796
v 99.9091 9.481308 64.28564
v 84.67975 9.481308 64.28564
v 84.67975 2.440971 76.74796
v 99.9091 2.440971 76.74796
vt -1.5 2.5
vt 2.5 -1.5
vt 2.5 2.5
vt -1.5 -1.5
vt -1.5 2.5
vt 2.5 -1.5
vt 2.5 2.5
vt -1.5 -1.5
vt -1.5 2.5
vt 2.5 -1.5
vt 2.5 2.5
vt -1.5 -1.5
vt -1.5 2.5
vt 2.5 -1.5
vt 2.5 2.5
vt -1.5 -1.5
vt -1.5 2.5
vt 2.5 2.5
vt 2.5 -1.5
vt -1.5 -1.5
vt -1.5 2.5
vt 2.5 2.5
vt 2.5 -1.5
vt -1.5 -1.5
vt -1.5 2.5
vt 2.5 2.5
vt 2.5 -1.5
vt -1.5 -1.5
vt -1.5 2.5
vt 2.5 2.5
vt 2.5 -1.5
vt -1.5 -1.5
vt -1.5 2.5
vt 2.5 -1.5
vt 2.5 2.5
vt -1.5 -1.5
vt -1.5 2.5
vt 2.5 -1.5
vt 2.5 2.5
vt -1.5 -1.5
vt -1.5 2.5
vt 2.5 -1.5
vt 2.5 2.5
vt -1.5 -1.5
vt -1.5 2.5
vt 2.5 -1.5
vt 2.5 2.5
vt -1.5 -1.5
vt -1.5 2.5
vt 2.5 2.5
vt 2.5 -1.5
vt -1.5 -1.5
vt -1.5 2.5
vt 2.5 2.5
vt 2.5 -1.5
vt -1.5 -1.5
vt -1.5 2.5
vt 2.5 2.5
vt 2.5 -1.5
vt -1.5 -1.5
vt -1.5 2.5
vt 2.5 2.5
vt 2.5 -1.5
vt -1.5 -1.5
vn 0.0008510947 0.8706724 0.4918627
vn 0.0008510947 0.8706724 0.4918627
vn 0.0008510947 0.8706724 0.4918627
vn 0.0008510947 0.8706724 0.4918627
vn 0.0008510947 0.8706724 0.4918627
vn 0.0008510947 0.8706724 0.4918627
vn 0.0008510947 0.8706724 0.4918627
vn 0.0008510947 0.8706724 0.4918627
vn 0.0008510947 0.8706724 0.4918627
vn 0.0008510947 0.8706724 0.4918627
vn 0.0008510947 0.8706724 0.4918627
vn 0.0008510947 0.8706724 0.4918627
vn 0.0008510947 0.8706724 0.4918627
vn 0.0008510947 0.8706724 0.4918627
vn 0.0008510947 0.8706724 0.4918627
vn 0.0008510947 0.8706724 0.4918627
vn 0.0008510947 -0.8706724 -0.4918627
vn 0.0008510947 -0.8706724 -0.4918627
vn 0.0008510947 -0.8706724 -0.4918627
vn 0.0008510947 -0.8706724 -0.4918627
vn 0.0008510947 -0.8706724 -0.4918627
vn 0.0008510947 -0.8706724 -0.4918627
vn 0.0008510947 -0.8706724 -0.4918627
vn 0.0008510947 -0.8706724 -0.4918627
vn 0.0008510947 -0.8706724 -0.4918627
vn 0.0008510947 -0.8706724 -0.4918627
vn 0.0008510947 -0.8706724 -0.4918627
vn 0.0008510947 -0.8706724 -0.4918627
vn 0.0008510947 -0.8706724 -0.4918627
vn 0.0008510947 -0.8706724 -0.4918627
vn 0.0008510947 -0.8706724 -0.4918627
vn 0.0008510947 -0.8706724 -0.4918627
vn 0.0008510947 0.8706724 0.4918627
vn 0.0008510947 0.8706724 0.4918627
vn 0.0008510947 0.8706724 0.4918627
vn 0.0008510947 0.8706724 0.4918627
vn 0.0008510947 0.8706724 0.4918627
vn 0.0008510947 0.8706724 0.4918627
vn 0.0008510947 0.8706724 0.4918627
vn 0.0008510947 0.8706724 0.4918627
vn 0.0008510947 0.8706724 0.4918627
vn 0.0008510947 0.8706724 0.4918627
vn 0.0008510947 0.8706724 0.4918627
vn 0.0008510947 0.8706724 0.4918627
vn 0.0008510947 0.8706724 0.4918627
vn 0.0008510947 0.8706724 0.4918627
vn 0.0008510947 0.8706724 0.4918627
vn 0.0008510947 0.8706724 0.4918627
vn 0.0008510947 -0.8706724 -0.4918627
vn 0.0008510947 -0.8706724 -0.4918627
vn 0.0008510947 -0.8706724 -0.4918627
vn 0.0008510947 -0.8706724 -0.4918627
vn 0.0008510947 -0.8706724 -0.4918627
vn 0.0008510947 -0.8706724 -0.4918627
vn 0.0008510947 -0.8706724 -0.4918627
vn 0.0008510947 -0.8706724 -0.4918627
vn 0.0008510947 -0.8706724 -0.4918627
vn 0.0008510947 -0.8706724 -0.4918627
vn 0.0008510947 -0.8706724 -0.4918627
vn 0.0008510947 -0.8706724 -0.4918627
vn 0.0008510947 -0.8706724 -0.4918627
vn 0.0008510947 -0.8706724 -0.4918627
vn 0.0008510947 -0.8706724 -0.4918627
vn 0.0008510947 -0.8706724 -0.4918627
g Combined_M_Cmn_ami01_Prefab_Mesh_0
f 3/3/3 2/2/2 1/1/1
f 4/4/4 1/1/1 2/2/2
f 7/7/7 6/6/6 5/5/5
f 8/8/8 5/5/5 6/6/6
f 11/11/11 10/10/10 9/9/9
f 12/12/12 9/9/9 10/10/10
f 15/15/15 14/14/14 13/13/13
f 16/16/16 13/13/13 14/14/14
f 19/19/19 18/18/18 17/17/17
f 17/17/17 20/20/20 19/19/19
f 23/23/23 22/22/22 21/21/21
f 21/21/21 24/24/24 23/23/23
f 27/27/27 26/26/26 25/25/25
f 25/25/25 28/28/28 27/27/27
f 31/31/31 30/30/30 29/29/29
f 29/29/29 32/32/32 31/31/31
f 35/35/35 34/34/34 33/33/33
f 36/36/36 33/33/33 34/34/34
f 39/39/39 38/38/38 37/37/37
f 40/40/40 37/37/37 38/38/38
f 43/43/43 42/42/42 41/41/41
f 44/44/44 41/41/41 42/42/42
f 47/47/47 46/46/46 45/45/45
f 48/48/48 45/45/45 46/46/46
f 51/51/51 50/50/50 49/49/49
f 49/49/49 52/52/52 51/51/51
f 55/55/55 54/54/54 53/53/53
f 53/53/53 56/56/56 55/55/55
f 59/59/59 58/58/58 57/57/57
f 57/57/57 60/60/60 59/59/59
f 63/63/63 62/62/62 61/61/61
f 61/61/61 64/64/64 63/63/63
