g Combined_M_Cmn_ami01_Prefab_Mesh
v -17.94487 40.59997 131.0725
v -4.999972 40.59997 143.239
v -17.94487 40.59997 143.239
v -4.999972 40.59997 131.0725
v -4.999972 40.59997 143.239
v 7.944921 40.59997 131.0725
v 7.944921 40.59997 143.239
v -4.999972 40.59997 131.0725
v -17.94487 40.59997 145.5527
v -4.999972 40.59997 157.7192
v -17.94487 40.59997 157.7192
v -4.999972 40.59997 145.5527
v -4.999972 40.59997 157.7192
v 7.944921 40.59997 145.5527
v 7.944921 40.59997 157.7192
v -4.999972 40.59997 145.5527
v -17.94487 38.08003 145.5527
v -17.94487 38.08003 157.7192
v -4.999972 38.08003 157.7192
v -4.999972 38.08003 145.5527
v -4.999972 38.08003 157.7192
v 7.944921 38.08003 157.7192
v 7.944921 38.08003 145.5527
v -4.999972 38.08003 145.5527
v -17.94487 38.08003 131.0725
v -17.94487 38.08003 143.239
v -4.999972 38.08003 143.239
v -4.999972 38.08003 131.0725
v -4.999972 38.08003 143.239
v 7.944921 38.08003 143.239
v 7.944921 38.08003 131.0725
v -4.999972 38.08003 131.0725
vt -1.5 2.5
vt 2.5 -1.5
vt 2.5 2.5
vt -1.5 -1.5
vt -1.5 2.5
vt 2.5 -1.5
vt 2.5 2.5
vt -1.5 -1.5
vt -1.5 2.5
vt 2.5 -1.5
vt 2.5 2.5
vt -1.5 -1.5
vt -1.5 2.5
vt 2.5 -1.5
vt 2.5 2.5
vt -1.5 -1.5
vt -1.5 2.5
vt 2.5 2.5
vt 2.5 -1.5
vt -1.5 -1.5
vt -1.5 2.5
vt 2.5 2.5
vt 2.5 -1.5
vt -1.5 -1.5
vt -1.5 2.5
vt 2.5 2.5
vt 2.5 -1.5
vt -1.5 -1.5
vt -1.5 2.5
vt 2.5 2.5
vt 2.5 -1.5
vt -1.5 -1.5
vn -0.0009775162 0.9999993 -0.000690534
vn -0.0009775162 0.9999993 -0.000690534
vn -0.0009775162 0.9999993 -0.000690534
vn -0.0009775162 0.9999993 -0.000690534
vn -0.0009775162 0.9999993 -0.000690534
vn -0.0009775162 0.9999993 -0.000690534
vn -0.0009775162 0.9999993 -0.000690534
vn -0.0009775162 0.9999993 -0.000690534
vn -0.0009775162 0.9999993 -0.000690534
vn -0.0009775162 0.9999993 -0.000690534
vn -0.0009775162 0.9999993 -0.000690534
vn -0.0009775162 0.9999993 -0.000690534
vn -0.0009775162 0.9999993 -0.000690534
vn -0.0009775162 0.9999993 -0.000690534
vn -0.0009775162 0.9999993 -0.000690534
vn -0.0009775162 0.9999993 -0.000690534
vn -0.0009775162 -0.9999993 -0.000690534
vn -0.0009775162 -0.9999993 -0.000690534
vn -0.0009775162 -0.9999993 -0.000690534
vn -0.0009775162 -0.9999993 -0.000690534
vn -0.0009775162 -0.9999993 -0.000690534
vn -0.0009775162 -0.9999993 -0.000690534
vn -0.0009775162 -0.9999993 -0.000690534
vn -0.0009775162 -0.9999993 -0.000690534
vn -0.0009775162 -0.9999993 -0.000690534
vn -0.0009775162 -0.9999993 -0.000690534
vn -0.0009775162 -0.9999993 -0.000690534
vn -0.0009775162 -0.9999993 -0.000690534
vn -0.0009775162 -0.9999993 -0.000690534
vn -0.0009775162 -0.9999993 -0.000690534
vn -0.0009775162 -0.9999993 -0.000690534
vn -0.0009775162 -0.9999993 -0.000690534
g Combined_M_Cmn_ami01_Prefab_Mesh_0
f 3/3/3 2/2/2 1/1/1
f 4/4/4 1/1/1 2/2/2
f 7/7/7 6/6/6 5/5/5
f 8/8/8 5/5/5 6/6/6
f 11/11/11 10/10/10 9/9/9
f 12/12/12 9/9/9 10/10/10
f 15/15/15 14/14/14 13/13/13
f 16/16/16 13/13/13 14/14/14
f 19/19/19 18/18/18 17/17/17
f 17/17/17 20/20/20 19/19/19
f 23/23/23 22/22/22 21/21/21
f 21/21/21 24/24/24 23/23/23
f 27/27/27 26/26/26 25/25/25
f 25/25/25 28/28/28 27/27/27
f 31/31/31 30/30/30 29/29/29
f 29/29/29 32/32/32 31/31/31
