g Combined_M_Cmn_Gap_Prefab_Mesh
v -3.927567 12.60065 -171.1142
v -2.342468 12.90764 -169.9236
v -2.388947 12.92133 -169.7902
v -4.034775 12.60065 -171.0378
v -2.412476 12.92307 -169.6604
v -4.058502 12.60065 -170.8986
v -1.314667 12.60065 -171.619
v -1.18663 12.60065 -171.5878
v -2.249527 12.92133 -169.8172
v -1.112961 12.60065 -171.4675
v -2.179535 12.92307 -169.7054
v -2.043396 12.60065 -160.4654
v -0.9768219 12.92307 -162.2275
v -2.285782 12.93791 -169.6304
v -0.8703766 12.93791 -162.3025
v -0.7438812 12.92307 -162.2724
v -0.9066315 12.92133 -162.1156
v -1.969528 12.60065 -160.345
v -0.8138885 12.90764 -162.0092
v -1.841492 12.60065 -160.314
v 0.9021454 12.60065 -161.0342
v 0.8786163 12.60065 -160.895
v -0.7672119 12.92133 -162.1426
v 0.7714081 12.60065 -160.8186
v -2.306229 12.93385 -169.7362
v -0.8499451 12.93385 -162.1966
v -2.043396 12.60065 -160.4654
v -2.043396 12.50075 -160.4654
v -4.058502 12.50075 -170.8986
v -4.058502 12.60065 -170.8986
v -3.927567 12.60065 -171.1142
v -3.927567 12.50075 -171.1142
v -1.314667 12.50075 -171.619
v -1.314667 12.60065 -171.619
v -1.112961 12.60065 -171.4675
v -1.112961 12.50075 -171.4675
v 0.9021454 12.50075 -161.0342
v 0.9021454 12.60065 -161.0342
v 0.7714081 12.60065 -160.8186
v 0.7714081 12.50075 -160.8186
v -1.841492 12.50075 -160.314
v -1.841492 12.60065 -160.314
v -4.034775 12.60065 -171.0378
v -4.034775 12.50075 -171.0378
v -3.927567 12.50075 -171.1142
v -3.927567 12.60065 -171.1142
v -4.058502 12.60065 -170.8986
v -4.058502 12.50075 -170.8986
v -4.034775 12.50075 -171.0378
v -4.034775 12.60065 -171.0378
v -1.314667 12.60065 -171.619
v -1.314667 12.50075 -171.619
v -1.18663 12.50075 -171.5878
v -1.18663 12.60065 -171.5878
v -1.18663 12.60065 -171.5878
v -1.18663 12.50075 -171.5878
v -1.112961 12.50075 -171.4675
v -1.112961 12.60065 -171.4675
v -1.841492 12.60065 -160.314
v -1.841492 12.50075 -160.314
v -1.969528 12.50075 -160.345
v -1.969528 12.60065 -160.345
v -1.969528 12.60065 -160.345
v -1.969528 12.50075 -160.345
v -2.043396 12.50075 -160.4654
v -2.043396 12.60065 -160.4654
v 0.9021454 12.60065 -161.0342
v 0.9021454 12.50075 -161.0342
v 0.8786163 12.50075 -160.895
v 0.8786163 12.60065 -160.895
v 0.8786163 12.60065 -160.895
v 0.8786163 12.50075 -160.895
v 0.7714081 12.50075 -160.8186
v 0.7714081 12.60065 -160.8186
v 35.62009 12.60007 -179.7121
v 37.20518 12.90686 -178.5215
v 37.15871 12.92055 -178.3881
v 35.51288 12.60007 -179.6355
v 37.13518 12.92229 -178.2583
v 35.48915 12.60007 -179.4963
v 38.23299 12.60007 -180.2167
v 38.36102 12.60007 -180.1857
v 37.29813 12.92055 -178.4149
v 38.43488 12.60007 -180.0652
v 37.36832 12.92229 -178.3032
v 37.50427 12.60007 -169.0632
v 38.57103 12.92229 -170.8251
v 37.26187 12.93713 -178.2282
v 38.67728 12.93713 -170.9002
v 38.80397 12.92229 -170.8701
v 38.64102 12.92055 -170.7135
v 37.57813 12.60007 -168.9427
v 38.73396 12.90686 -170.6069
v 37.70616 12.60007 -168.9117
v 40.45 12.60007 -169.6321
v 40.42627 12.60007 -169.4929
v 38.78044 12.92055 -170.7403
v 40.31906 12.60007 -169.4163
v 37.24144 12.93309 -178.3341
v 38.69771 12.93309 -170.7943
v 37.50427 12.60007 -169.0632
v 37.50427 12.49998 -169.0632
v 35.48915 12.49998 -179.4963
v 35.48915 12.60007 -179.4963
v 35.62009 12.60007 -179.7121
v 35.62009 12.49998 -179.7121
v 38.23299 12.49998 -180.2167
v 38.23299 12.60007 -180.2167
v 38.43488 12.60007 -180.0652
v 38.43488 12.49998 -180.0652
v 40.45 12.49998 -169.6321
v 40.45 12.60007 -169.6321
v 40.31906 12.60007 -169.4163
v 40.31906 12.49998 -169.4163
v 37.70616 12.49998 -168.9117
v 37.70616 12.60007 -168.9117
v 35.51288 12.60007 -179.6355
v 35.51288 12.49998 -179.6355
v 35.62009 12.49998 -179.7121
v 35.62009 12.60007 -179.7121
v 35.48915 12.60007 -179.4963
v 35.48915 12.49998 -179.4963
v 35.51288 12.49998 -179.6355
v 35.51288 12.60007 -179.6355
v 38.23299 12.60007 -180.2167
v 38.23299 12.49998 -180.2167
v 38.36102 12.49998 -180.1857
v 38.36102 12.60007 -180.1857
v 38.36102 12.60007 -180.1857
v 38.36102 12.49998 -180.1857
v 38.43488 12.49998 -180.0652
v 38.43488 12.60007 -180.0652
v 37.70616 12.60007 -168.9117
v 37.70616 12.49998 -168.9117
v 37.57813 12.49998 -168.9427
v 37.57813 12.60007 -168.9427
v 37.57813 12.60007 -168.9427
v 37.57813 12.49998 -168.9427
v 37.50427 12.49998 -169.0632
v 37.50427 12.60007 -169.0632
v 40.45 12.60007 -169.6321
v 40.45 12.49998 -169.6321
v 40.42627 12.49998 -169.4929
v 40.42627 12.60007 -169.4929
v 40.42627 12.60007 -169.4929
v 40.42627 12.49998 -169.4929
v 40.31906 12.49998 -169.4163
v 40.31906 12.60007 -169.4163
v 78.9764 12.60007 -188.8628
v 80.54124 12.90686 -187.4221
v 80.49169 12.92055 -187.2752
v 78.86726 12.60007 -188.7837
v 80.46546 12.92229 -187.1308
v 78.84064 12.60007 -188.6285
v 81.60742 12.60007 -189.2625
v 81.73508 12.60007 -189.2193
v 80.63207 12.92055 -187.2964
v 81.80662 12.60007 -189.0792
v 80.70014 12.92229 -187.1662
v 80.64307 12.60007 -176.7669
v 81.74954 12.92229 -178.68
v 80.59177 12.93713 -187.0887
v 81.85772 12.93713 -178.7576
v 81.98422 12.92229 -178.7155
v 81.81761 12.92055 -178.5499
v 80.71441 12.60007 -176.6269
v 81.90844 12.90686 -178.4241
v 80.84226 12.60007 -176.5837
v 83.60904 12.60007 -177.2178
v 83.58243 12.60007 -177.0625
v 81.9578 12.92055 -178.5713
v 83.47328 12.60007 -176.9835
v 80.57364 12.93309 -187.2092
v 81.87604 12.93309 -178.637
v 80.64307 12.60007 -176.7669
v 80.64307 12.49998 -176.7669
v 78.84064 12.49998 -188.6285
v 78.84064 12.60007 -188.6285
v 78.9764 12.60007 -188.8628
v 78.9764 12.49998 -188.8628
v 81.60742 12.49998 -189.2625
v 81.60742 12.60007 -189.2625
v 81.80662 12.60007 -189.0792
v 81.80662 12.49998 -189.0792
v 83.60904 12.49998 -177.2178
v 83.60904 12.60007 -177.2178
v 83.47328 12.60007 -176.9835
v 83.47328 12.49998 -176.9835
v 80.84226 12.49998 -176.5837
v 80.84226 12.60007 -176.5837
v 78.86726 12.60007 -188.7837
v 78.86726 12.49998 -188.7837
v 78.9764 12.49998 -188.8628
v 78.9764 12.60007 -188.8628
v 78.84064 12.60007 -188.6285
v 78.84064 12.49998 -188.6285
v 78.86726 12.49998 -188.7837
v 78.86726 12.60007 -188.7837
v 81.60742 12.60007 -189.2625
v 81.60742 12.49998 -189.2625
v 81.73508 12.49998 -189.2193
v 81.73508 12.60007 -189.2193
v 81.73508 12.60007 -189.2193
v 81.73508 12.49998 -189.2193
v 81.80662 12.49998 -189.0792
v 81.80662 12.60007 -189.0792
v 80.84226 12.60007 -176.5837
v 80.84226 12.49998 -176.5837
v 80.71441 12.49998 -176.6269
v 80.71441 12.60007 -176.6269
v 80.71441 12.60007 -176.6269
v 80.71441 12.49998 -176.6269
v 80.64307 12.49998 -176.7669
v 80.64307 12.60007 -176.7669
v 83.60904 12.60007 -177.2178
v 83.60904 12.49998 -177.2178
v 83.58243 12.49998 -177.0625
v 83.58243 12.60007 -177.0625
v 83.58243 12.60007 -177.0625
v 83.58243 12.49998 -177.0625
v 83.47328 12.49998 -176.9835
v 83.47328 12.60007 -176.9835
vt 0.1808347 0.998001
vt 0.3133593 0.8649424
vt 0.3062944 0.8538796
vt 0.1689021 0.9930419
vt 0.3015488 0.8427405
vt 0.1639582 0.9810788
vt 0.4458991 0.998001
vt 0.4578164 0.9930419
vt 0.3204242 0.8538796
vt 0.4627604 0.9810788
vt 0.3251697 0.8427405
vt 0.1639582 0.01892119
vt 0.3015488 0.1572595
vt 0.3133593 0.8378881
vt 0.3133593 0.1621118
vt 0.3251697 0.1572595
vt 0.3062944 0.1461204
vt 0.1689021 0.006958114
vt 0.3133593 0.1350576
vt 0.1808347 0.001998932
vt 0.4627604 0.01892119
vt 0.4578164 0.006958114
vt 0.3204242 0.1461204
vt 0.4458991 0.001998932
vt 0.3133593 0.8476539
vt 0.3133593 0.1523461
vt 0 0
vt 0 1
vt 1 1
vt 1 0
vt 0 0
vt 0 1
vt 1 1
vt 1 0
vt 0 0
vt 0 1
vt 1 1
vt 1 0
vt 0 0
vt 0 1
vt 1 1
vt 1 0
vt 0 0
vt 0 1
vt 1 1
vt 1 0
vt 0 0
vt 0 1
vt 1 1
vt 1 0
vt 0 0
vt 0 1
vt 1 1
vt 1 0
vt 0 0
vt 0 1
vt 1 1
vt 1 0
vt 0 0
vt 0 1
vt 1 1
vt 1 0
vt 0 0
vt 0 1
vt 1 1
vt 1 0
vt 0 0
vt 0 1
vt 1 1
vt 1 0
vt 0 0
vt 0 1
vt 1 1
vt 1 0
vt 0.1808347 0.998001
vt 0.3133593 0.8649424
vt 0.3062944 0.8538796
vt 0.1689021 0.9930419
vt 0.3015488 0.8427405
vt 0.1639582 0.9810788
vt 0.4458991 0.998001
vt 0.4578164 0.9930419
vt 0.3204242 0.8538796
vt 0.4627604 0.9810788
vt 0.3251697 0.8427405
vt 0.1639582 0.01892119
vt 0.3015488 0.1572595
vt 0.3133593 0.8378881
vt 0.3133593 0.1621118
vt 0.3251697 0.1572595
vt 0.3062944 0.1461204
vt 0.1689021 0.006958114
vt 0.3133593 0.1350576
vt 0.1808347 0.001998932
vt 0.4627604 0.01892119
vt 0.4578164 0.006958114
vt 0.3204242 0.1461204
vt 0.4458991 0.001998932
vt 0.3133593 0.8476539
vt 0.3133593 0.1523461
vt 0 0
vt 0 1
vt 1 1
vt 1 0
vt 0 0
vt 0 1
vt 1 1
vt 1 0
vt 0 0
vt 0 1
vt 1 1
vt 1 0
vt 0 0
vt 0 1
vt 1 1
vt 1 0
vt 0 0
vt 0 1
vt 1 1
vt 1 0
vt 0 0
vt 0 1
vt 1 1
vt 1 0
vt 0 0
vt 0 1
vt 1 1
vt 1 0
vt 0 0
vt 0 1
vt 1 1
vt 1 0
vt 0 0
vt 0 1
vt 1 1
vt 1 0
vt 0 0
vt 0 1
vt 1 1
vt 1 0
vt 0 0
vt 0 1
vt 1 1
vt 1 0
vt 0 0
vt 0 1
vt 1 1
vt 1 0
vt 0.1808347 0.998001
vt 0.3133593 0.8649424
vt 0.3062944 0.8538796
vt 0.1689021 0.9930419
vt 0.3015488 0.8427405
vt 0.1639582 0.9810788
vt 0.4458991 0.998001
vt 0.4578164 0.9930419
vt 0.3204242 0.8538796
vt 0.4627604 0.9810788
vt 0.3251697 0.8427405
vt 0.1639582 0.01892119
vt 0.3015488 0.1572595
vt 0.3133593 0.8378881
vt 0.3133593 0.1621118
vt 0.3251697 0.1572595
vt 0.3062944 0.1461204
vt 0.1689021 0.006958114
vt 0.3133593 0.1350576
vt 0.1808347 0.001998932
vt 0.4627604 0.01892119
vt 0.4578164 0.006958114
vt 0.3204242 0.1461204
vt 0.4458991 0.001998932
vt 0.3133593 0.8476539
vt 0.3133593 0.1523461
vt 0 0
vt 0 1
vt 1 1
vt 1 0
vt 0 0
vt 0 1
vt 1 1
vt 1 0
vt 0 0
vt 0 1
vt 1 1
vt 1 0
vt 0 0
vt 0 1
vt 1 1
vt 1 0
vt 0 0
vt 0 1
vt 1 1
vt 1 0
vt 0 0
vt 0 1
vt 1 1
vt 1 0
vt 0 0
vt 0 1
vt 1 1
vt 1 0
vt 0 0
vt 0 1
vt 1 1
vt 1 0
vt 0 0
vt 0 1
vt 1 1
vt 1 0
vt 0 0
vt 0 1
vt 1 1
vt 1 0
vt 0 0
vt 0 1
vt 1 1
vt 1 0
vt 0 0
vt 0 1
vt 1 1
vt 1 0
vn -0.07636142 0.928053 -0.364536
vn -0.03552687 0.9824991 -0.1828476
vn -0.1385854 0.9883326 -0.06318763
vn -0.17942 0.9766656 -0.1180371
vn -0.2202545 0.9747211 0.03750718
vn -0.3583142 0.9319421 0.05563193
vn -0.06663895 0.928053 -0.3664381
vn 0.1219777 0.9766656 -0.1767646
vn 0.1005882 0.9883326 -0.1143704
vn 0.3553179 0.9319421 -0.07234023
vn 0.2192028 0.9747211 -0.04323151
vn -0.3563696 0.9319421 0.06696711
vn -0.2202545 0.9747211 0.03750718
vn -0.0005258918 0.9999996 -0.0006459354
vn -0.0005258918 0.9999996 0.0006459354
vn 0.2192028 0.9747211 -0.04323151
vn -0.10164 0.9863881 0.1292588
vn -0.1230295 0.9766656 0.1760342
vn 0.03641969 0.9824991 0.182672
vn 0.05780917 0.928053 0.3679343
vn 0.3572624 0.9319421 -0.06202806
vn 0.1783683 0.9766656 0.1196204
vn 0.1394783 0.9863881 0.08708808
vn 0.08308768 0.928053 0.363062
vn 0.02086365 0.9961107 -0.08560498
vn 0.04808664 0.9961107 0.07383226
vn -0.3563696 0.9319421 0.06696711
vn -0.9805546 -0.00141865 0.1962414
vn -0.9824991 -0.00141865 0.1862617
vn -0.3583142 0.9319421 0.05563193
vn -0.07636142 0.928053 -0.364536
vn -0.1891425 -0.00141865 -0.9819486
vn -0.1891425 -0.00141865 -0.9819486
vn -0.06663895 0.928053 -0.3664381
vn 0.3553179 0.9319421 -0.07234023
vn 0.9814474 -0.00141865 -0.1917263
vn 0.9833919 -0.00141865 -0.1814893
vn 0.3572624 0.9319421 -0.06202806
vn 0.08308768 0.928053 0.363062
vn 0.2094803 -0.00141865 0.9778118
vn 0.1705903 -0.00141865 0.985341
vn 0.05780917 0.928053 0.3679343
vn -0.17942 0.9766656 -0.1180371
vn -0.854162 -0.00141865 -0.5200051
vn -0.1891425 -0.00141865 -0.9819486
vn -0.07636142 0.928053 -0.364536
vn -0.3583142 0.9319421 0.05563193
vn -0.9824991 -0.00141865 0.1862617
vn -0.854162 -0.00141865 -0.5200051
vn -0.17942 0.9766656 -0.1180371
vn -0.06663895 0.928053 -0.3664381
vn -0.1891425 -0.00141865 -0.9819486
vn 0.5983806 -0.00141865 -0.8012108
vn 0.1219777 0.9766656 -0.1767646
vn 0.1219777 0.9766656 -0.1767646
vn 0.5983806 -0.00141865 -0.8012108
vn 0.9814474 -0.00141865 -0.1917263
vn 0.3553179 0.9319421 -0.07234023
vn 0.05780917 0.928053 0.3679343
vn 0.1705903 -0.00141865 0.985341
vn -0.5994323 -0.00141865 0.8004242
vn -0.1230295 0.9766656 0.1760342
vn -0.1230295 0.9766656 0.1760342
vn -0.5994323 -0.00141865 0.8004242
vn -0.9805546 -0.00141865 0.1962414
vn -0.3563696 0.9319421 0.06696711
vn 0.3572624 0.9319421 -0.06202806
vn 0.9833919 -0.00141865 -0.1814893
vn 0.8550548 -0.00141865 0.5185357
vn 0.1783683 0.9766656 0.1196204
vn 0.1783683 0.9766656 0.1196204
vn 0.8550548 -0.00141865 0.5185357
vn 0.2094803 -0.00141865 0.9778118
vn 0.08308768 0.928053 0.363062
vn -0.07636142 0.928053 -0.364536
vn -0.03552687 0.9824991 -0.1828476
vn -0.1385854 0.9883326 -0.06318763
vn -0.17942 0.9766656 -0.1180371
vn -0.2202545 0.9747211 0.03750718
vn -0.3583142 0.9319421 0.05563193
vn -0.06663895 0.928053 -0.3664381
vn 0.1219777 0.9766656 -0.1767646
vn 0.1005882 0.9883326 -0.1143704
vn 0.3553179 0.9319421 -0.07234023
vn 0.2192028 0.9747211 -0.04323151
vn -0.3563696 0.9319421 0.06696711
vn -0.2202545 0.9747211 0.03750718
vn -0.0005258918 0.9999996 -0.0006459354
vn -0.0005258918 0.9999996 0.0006459354
vn 0.2192028 0.9747211 -0.04323151
vn -0.10164 0.9863881 0.1292588
vn -0.1230295 0.9766656 0.1760342
vn 0.03641969 0.9824991 0.182672
vn 0.05780917 0.928053 0.3679343
vn 0.3572624 0.9319421 -0.06202806
vn 0.1783683 0.9766656 0.1196204
vn 0.1394783 0.9863881 0.08708808
vn 0.08308768 0.928053 0.363062
vn 0.02086365 0.9961107 -0.08560498
vn 0.04808664 0.9961107 0.07383226
vn -0.3563696 0.9319421 0.06696711
vn -0.9805546 -0.00141865 0.1962414
vn -0.9824991 -0.00141865 0.1862617
vn -0.3583142 0.9319421 0.05563193
vn -0.07636142 0.928053 -0.364536
vn -0.1891425 -0.00141865 -0.9819486
vn -0.1891425 -0.00141865 -0.9819486
vn -0.06663895 0.928053 -0.3664381
vn 0.3553179 0.9319421 -0.07234023
vn 0.9814474 -0.00141865 -0.1917263
vn 0.9833919 -0.00141865 -0.1814893
vn 0.3572624 0.9319421 -0.06202806
vn 0.08308768 0.928053 0.363062
vn 0.2094803 -0.00141865 0.9778118
vn 0.1705903 -0.00141865 0.985341
vn 0.05780917 0.928053 0.3679343
vn -0.17942 0.9766656 -0.1180371
vn -0.854162 -0.00141865 -0.5200051
vn -0.1891425 -0.00141865 -0.9819486
vn -0.07636142 0.928053 -0.364536
vn -0.3583142 0.9319421 0.05563193
vn -0.9824991 -0.00141865 0.1862617
vn -0.854162 -0.00141865 -0.5200051
vn -0.17942 0.9766656 -0.1180371
vn -0.06663895 0.928053 -0.3664381
vn -0.1891425 -0.00141865 -0.9819486
vn 0.5983806 -0.00141865 -0.8012108
vn 0.1219777 0.9766656 -0.1767646
vn 0.1219777 0.9766656 -0.1767646
vn 0.5983806 -0.00141865 -0.8012108
vn 0.9814474 -0.00141865 -0.1917263
vn 0.3553179 0.9319421 -0.07234023
vn 0.05780917 0.928053 0.3679343
vn 0.1705903 -0.00141865 0.985341
vn -0.5994323 -0.00141865 0.8004242
vn -0.1230295 0.9766656 0.1760342
vn -0.1230295 0.9766656 0.1760342
vn -0.5994323 -0.00141865 0.8004242
vn -0.9805546 -0.00141865 0.1962414
vn -0.3563696 0.9319421 0.06696711
vn 0.3572624 0.9319421 -0.06202806
vn 0.9833919 -0.00141865 -0.1814893
vn 0.8550548 -0.00141865 0.5185357
vn 0.1783683 0.9766656 0.1196204
vn 0.1783683 0.9766656 0.1196204
vn 0.8550548 -0.00141865 0.5185357
vn 0.2094803 -0.00141865 0.9778118
vn 0.08308768 0.928053 0.363062
vn -0.05497193 0.9416646 -0.332033
vn -0.0258044 0.9863881 -0.1623967
vn -0.1346965 0.9883326 -0.07110195
vn -0.1716419 0.9786102 -0.1134072
vn -0.2221991 0.9747211 0.02337511
vn -0.3602586 0.9319421 0.04120266
vn -0.04524934 0.9416646 -0.3334972
vn 0.1317002 0.9786102 -0.1580418
vn 0.1083662 0.9883326 -0.1070297
vn 0.3592069 0.9319421 -0.0495407
vn 0.2211473 0.9747211 -0.03182268
vn -0.3583142 0.9319421 0.05563193
vn -0.2221991 0.9747211 0.02337511
vn -0.0005258918 0.9999996 -0.0006459354
vn -0.0005258918 0.9999996 0.0006459354
vn 0.2211473 0.9747211 -0.03182268
vn -0.1074735 0.9883326 0.1079262
vn -0.1327519 0.9786102 0.1571594
vn 0.02475268 0.9863881 0.1625603
vn 0.03836417 0.9416646 0.3343591
vn 0.3592069 0.9319421 -0.0495407
vn 0.1725348 0.9786102 0.1120443
vn 0.1355892 0.9883326 0.06938406
vn 0.06364268 0.9416646 0.3304807
vn 0.02475268 0.9980551 -0.05721335
vn 0.04419768 0.9980551 0.04396158
vn -0.3583142 0.9319421 0.05563193
vn -0.9883326 -0.00141865 0.1523043
vn -0.9883326 -0.00141865 0.1523043
vn -0.3602586 0.9319421 0.04120266
vn -0.05497193 0.9416646 -0.332033
vn -0.1502525 -0.00141865 -0.9886466
vn -0.1502525 -0.00141865 -0.9886466
vn -0.04524934 0.9416646 -0.3334972
vn 0.3592069 0.9319421 -0.0495407
vn 0.9872809 -0.00141865 -0.1589793
vn 0.9892254 -0.00141865 -0.1463937
vn 0.3592069 0.9319421 -0.0495407
vn 0.06364268 0.9416646 0.3304807
vn 0.1725348 -0.00141865 0.9850024
vn 0.1278113 -0.00141865 0.9917975
vn 0.03836417 0.9416646 0.3343591
vn -0.1716419 0.9786102 -0.1134072
vn -0.8638846 -0.00141865 -0.5036879
vn -0.1502525 -0.00141865 -0.9886466
vn -0.05497193 0.9416646 -0.332033
vn -0.3602586 0.9319421 0.04120266
vn -0.9883326 -0.00141865 0.1523043
vn -0.8638846 -0.00141865 -0.5036879
vn -0.1716419 0.9786102 -0.1134072
vn -0.04524934 0.9416646 -0.3334972
vn -0.1502525 -0.00141865 -0.9886466
vn 0.6761607 -0.00141865 -0.7367528
vn 0.1317002 0.9786102 -0.1580418
vn 0.1317002 0.9786102 -0.1580418
vn 0.6761607 -0.00141865 -0.7367528
vn 0.9872809 -0.00141865 -0.1589793
vn 0.3592069 0.9319421 -0.0495407
vn 0.03836417 0.9416646 0.3343591
vn 0.1278113 -0.00141865 0.9917975
vn -0.6772124 -0.00141865 0.7357862
vn -0.1327519 0.9786102 0.1571594
vn -0.1327519 0.9786102 0.1571594
vn -0.6772124 -0.00141865 0.7357862
vn -0.9883326 -0.00141865 0.1523043
vn -0.3583142 0.9319421 0.05563193
vn 0.3592069 0.9319421 -0.0495407
vn 0.9892254 -0.00141865 -0.1463937
vn 0.8647773 -0.00141865 0.5021536
vn 0.1725348 0.9786102 0.1120443
vn 0.1725348 0.9786102 0.1120443
vn 0.8647773 -0.00141865 0.5021536
vn 0.1725348 -0.00141865 0.9850024
vn 0.06364268 0.9416646 0.3304807
g Combined_M_Cmn_Gap_Prefab_Mesh_0
f 3/3/3 2/2/2 1/1/1
f 4/4/4 3/3/3 1/1/1
f 5/5/5 3/3/3 4/4/4
f 6/6/6 5/5/5 4/4/4
f 7/7/7 1/1/1 2/2/2
f 8/8/8 7/7/7 2/2/2
f 9/9/9 8/8/8 2/2/2
f 2/2/2 3/3/3 9/9/9
f 10/10/10 8/8/8 9/9/9
f 11/11/11 10/10/10 9/9/9
f 6/6/6 12/12/12 5/5/5
f 12/12/12 13/13/13 5/5/5
f 5/5/5 13/13/13 14/14/14
f 5/5/5 14/14/14 3/3/3
f 11/11/11 9/9/9 14/14/14
f 14/14/14 15/15/15 11/11/11
f 13/13/13 15/15/15 14/14/14
f 15/15/15 16/16/16 11/11/11
f 10/10/10 11/11/11 16/16/16
f 13/13/13 12/12/12 17/17/17
f 13/13/13 17/17/17 15/15/15
f 12/12/12 18/18/18 17/17/17
f 17/17/17 18/18/18 19/19/19
f 18/18/18 20/20/20 19/19/19
f 21/21/21 10/10/10 16/16/16
f 22/22/22 21/21/21 16/16/16
f 23/23/23 22/22/22 16/16/16
f 19/19/19 23/23/23 17/17/17
f 16/16/16 15/15/15 23/23/23
f 24/24/24 22/22/22 23/23/23
f 19/19/19 24/24/24 23/23/23
f 20/20/20 24/24/24 19/19/19
f 9/9/9 25/25/25 14/14/14
f 14/14/14 25/25/25 3/3/3
f 3/3/3 25/25/25 9/9/9
f 17/17/17 26/26/26 15/15/15
f 23/23/23 26/26/26 17/17/17
f 15/15/15 26/26/26 23/23/23
f 29/29/29 28/28/28 27/27/27
f 30/30/30 29/29/29 27/27/27
f 33/33/33 32/32/32 31/31/31
f 34/34/34 33/33/33 31/31/31
f 37/37/37 36/36/36 35/35/35
f 38/38/38 37/37/37 35/35/35
f 41/41/41 40/40/40 39/39/39
f 42/42/42 41/41/41 39/39/39
f 45/45/45 44/44/44 43/43/43
f 46/46/46 45/45/45 43/43/43
f 49/49/49 48/48/48 47/47/47
f 50/50/50 49/49/49 47/47/47
f 53/53/53 52/52/52 51/51/51
f 54/54/54 53/53/53 51/51/51
f 57/57/57 56/56/56 55/55/55
f 58/58/58 57/57/57 55/55/55
f 61/61/61 60/60/60 59/59/59
f 62/62/62 61/61/61 59/59/59
f 65/65/65 64/64/64 63/63/63
f 66/66/66 65/65/65 63/63/63
f 69/69/69 68/68/68 67/67/67
f 70/70/70 69/69/69 67/67/67
f 73/73/73 72/72/72 71/71/71
f 74/74/74 73/73/73 71/71/71
f 77/77/77 76/76/76 75/75/75
f 78/78/78 77/77/77 75/75/75
f 79/79/79 77/77/77 78/78/78
f 80/80/80 79/79/79 78/78/78
f 81/81/81 75/75/75 76/76/76
f 82/82/82 81/81/81 76/76/76
f 83/83/83 82/82/82 76/76/76
f 76/76/76 77/77/77 83/83/83
f 84/84/84 82/82/82 83/83/83
f 85/85/85 84/84/84 83/83/83
f 80/80/80 86/86/86 79/79/79
f 86/86/86 87/87/87 79/79/79
f 79/79/79 87/87/87 88/88/88
f 79/79/79 88/88/88 77/77/77
f 85/85/85 83/83/83 88/88/88
f 88/88/88 89/89/89 85/85/85
f 87/87/87 89/89/89 88/88/88
f 89/89/89 90/90/90 85/85/85
f 84/84/84 85/85/85 90/90/90
f 87/87/87 86/86/86 91/91/91
f 87/87/87 91/91/91 89/89/89
f 86/86/86 92/92/92 91/91/91
f 91/91/91 92/92/92 93/93/93
f 92/92/92 94/94/94 93/93/93
f 95/95/95 84/84/84 90/90/90
f 96/96/96 95/95/95 90/90/90
f 97/97/97 96/96/96 90/90/90
f 93/93/93 97/97/97 91/91/91
f 90/90/90 89/89/89 97/97/97
f 98/98/98 96/96/96 97/97/97
f 93/93/93 98/98/98 97/97/97
f 94/94/94 98/98/98 93/93/93
f 83/83/83 99/99/99 88/88/88
f 88/88/88 99/99/99 77/77/77
f 77/77/77 99/99/99 83/83/83
f 91/91/91 100/100/100 89/89/89
f 97/97/97 100/100/100 91/91/91
f 89/89/89 100/100/100 97/97/97
f 103/103/103 102/102/102 101/101/101
f 104/104/104 103/103/103 101/101/101
f 107/107/107 106/106/106 105/105/105
f 108/108/108 107/107/107 105/105/105
f 111/111/111 110/110/110 109/109/109
f 112/112/112 111/111/111 109/109/109
f 115/115/115 114/114/114 113/113/113
f 116/116/116 115/115/115 113/113/113
f 119/119/119 118/118/118 117/117/117
f 120/120/120 119/119/119 117/117/117
f 123/123/123 122/122/122 121/121/121
f 124/124/124 123/123/123 121/121/121
f 127/127/127 126/126/126 125/125/125
f 128/128/128 127/127/127 125/125/125
f 131/131/131 130/130/130 129/129/129
f 132/132/132 131/131/131 129/129/129
f 135/135/135 134/134/134 133/133/133
f 136/136/136 135/135/135 133/133/133
f 139/139/139 138/138/138 137/137/137
f 140/140/140 139/139/139 137/137/137
f 143/143/143 142/142/142 141/141/141
f 144/144/144 143/143/143 141/141/141
f 147/147/147 146/146/146 145/145/145
f 148/148/148 147/147/147 145/145/145
f 151/151/151 150/150/150 149/149/149
f 152/152/152 151/151/151 149/149/149
f 153/153/153 151/151/151 152/152/152
f 154/154/154 153/153/153 152/152/152
f 155/155/155 149/149/149 150/150/150
f 156/156/156 155/155/155 150/150/150
f 157/157/157 156/156/156 150/150/150
f 150/150/150 151/151/151 157/157/157
f 158/158/158 156/156/156 157/157/157
f 159/159/159 158/158/158 157/157/157
f 154/154/154 160/160/160 153/153/153
f 160/160/160 161/161/161 153/153/153
f 153/153/153 161/161/161 162/162/162
f 153/153/153 162/162/162 151/151/151
f 159/159/159 157/157/157 162/162/162
f 162/162/162 163/163/163 159/159/159
f 161/161/161 163/163/163 162/162/162
f 163/163/163 164/164/164 159/159/159
f 158/158/158 159/159/159 164/164/164
f 161/161/161 160/160/160 165/165/165
f 161/161/161 165/165/165 163/163/163
f 160/160/160 166/166/166 165/165/165
f 165/165/165 166/166/166 167/167/167
f 166/166/166 168/168/168 167/167/167
f 169/169/169 158/158/158 164/164/164
f 170/170/170 169/169/169 164/164/164
f 171/171/171 170/170/170 164/164/164
f 167/167/167 171/171/171 165/165/165
f 164/164/164 163/163/163 171/171/171
f 172/172/172 170/170/170 171/171/171
f 167/167/167 172/172/172 171/171/171
f 168/168/168 172/172/172 167/167/167
f 157/157/157 173/173/173 162/162/162
f 162/162/162 173/173/173 151/151/151
f 151/151/151 173/173/173 157/157/157
f 165/165/165 174/174/174 163/163/163
f 171/171/171 174/174/174 165/165/165
f 163/163/163 174/174/174 171/171/171
f 177/177/177 176/176/176 175/175/175
f 178/178/178 177/177/177 175/175/175
f 181/181/181 180/180/180 179/179/179
f 182/182/182 181/181/181 179/179/179
f 185/185/185 184/184/184 183/183/183
f 186/186/186 185/185/185 183/183/183
f 189/189/189 188/188/188 187/187/187
f 190/190/190 189/189/189 187/187/187
f 193/193/193 192/192/192 191/191/191
f 194/194/194 193/193/193 191/191/191
f 197/197/197 196/196/196 195/195/195
f 198/198/198 197/197/197 195/195/195
f 201/201/201 200/200/200 199/199/199
f 202/202/202 201/201/201 199/199/199
f 205/205/205 204/204/204 203/203/203
f 206/206/206 205/205/205 203/203/203
f 209/209/209 208/208/208 207/207/207
f 210/210/210 209/209/209 207/207/207
f 213/213/213 212/212/212 211/211/211
f 214/214/214 213/213/213 211/211/211
f 217/217/217 216/216/216 215/215/215
f 218/218/218 217/217/217 215/215/215
f 221/221/221 220/220/220 219/219/219
f 222/222/222 221/221/221 219/219/219
