g Combined_ShadowCollisionPrefab_Mesh
v -47.04349 150.5858 -139.2257
v -48.9158 151.6878 -141.0018
v -39.43269 151.746 -150.9619
v -37.56038 150.6441 -149.1858
v -17.35963 138.754 -130.022
v -15.48732 137.6521 -128.2458
v -24.97014 137.5938 -118.2858
v -26.84245 138.6957 -120.0619
v -15.24461 139.1404 -132.5394
v -12.98653 137.8112 -130.397
v -15.25015 137.7971 -128.0194
v -17.50853 139.1264 -130.1616
v -39.52185 152.0832 -151.045
v -37.25822 152.0971 -153.4225
v -34.99985 150.7679 -151.2804
v -37.26376 150.7542 -148.9025
v -35.26761 150.5255 -151.1484
v -15.51237 138.8979 -132.4074
v -17.38936 138.8863 -130.436
v -37.14459 150.5141 -149.177
v -49.30798 150.5718 -136.8473
v -60.66341 151.6155 -128.6634
v -51.1803 151.6738 -138.6234
v -58.79109 150.5135 -126.8872
v -38.59006 138.6235 -107.7234
v -27.23463 137.5798 -115.9073
v -36.71774 137.5215 -105.9473
v -29.10696 138.6818 -117.6835
v -41.00287 138.9818 -105.4854
v -38.73895 138.9958 -107.863
v -36.48087 137.6666 -105.7209
v -38.74478 137.6526 -103.343
v -60.75256 151.9526 -128.7461
v -58.49419 150.6237 -126.604
v -60.7581 150.6097 -124.2264
v -63.01619 151.9386 -126.3686
v -60.63806 150.3696 -124.5018
v -58.76108 150.3813 -126.4732
v -39.00584 138.7534 -107.7322
v -40.88283 138.7418 -105.7608
v -61.05472 150.4996 -124.5096
v -72.41014 151.5432 -116.3257
v -62.92703 151.6015 -126.2858
v -70.53783 150.4413 -114.5496
v -50.33679 138.5512 -95.3858
v -38.98166 137.5075 -103.5697
v -48.46448 137.4493 -93.60963
v -40.85397 138.6095 -105.3459
v -52.7496 138.9096 -93.14781
v -50.48569 138.9236 -95.52536
v -48.2276 137.5944 -93.38324
v -50.49152 137.5807 -91.0054
v -72.4993 151.8804 -116.4085
v -70.24121 150.5515 -114.2663
v -72.50484 150.5374 -111.8888
v -74.76292 151.8664 -114.0309
v -72.3848 150.2974 -112.1641
v -70.5081 150.309 -114.1355
v -50.75258 138.6812 -95.39425
v -52.62956 138.6695 -93.42287
v -26.99135 139.0681 -120.2015
v -24.73326 137.7389 -118.0594
v -26.99689 137.7249 -115.6818
v -29.25526 139.0541 -117.8239
v -47.01434 150.4536 -138.8108
v -27.25911 138.8257 -120.0698
v -29.13609 138.814 -118.0984
v -48.89133 150.4419 -136.8394
v -51.26859 152.0109 -138.707
v -49.00496 152.0249 -141.0849
v -46.74658 150.6957 -138.9428
v -49.0105 150.682 -136.5649
v -47.04349 150.5858 -139.2257
v -48.9158 151.6878 -141.0018
v -39.43269 151.746 -150.9619
v -37.56038 150.6441 -149.1858
v -17.35963 138.754 -130.022
v -15.48732 137.6521 -128.2458
v -24.97014 137.5938 -118.2858
v -26.84245 138.6957 -120.0619
v -15.24461 139.1404 -132.5394
v -12.98653 137.8112 -130.397
v -15.25015 137.7971 -128.0194
v -17.50853 139.1264 -130.1616
v -39.52185 152.0832 -151.045
v -37.25822 152.0971 -153.4225
v -34.99985 150.7679 -151.2804
v -37.26376 150.7542 -148.9025
v -35.26761 150.5255 -151.1484
v -15.51237 138.8979 -132.4074
v -17.38936 138.8863 -130.436
v -37.14459 150.5141 -149.177
v -49.30798 150.5718 -136.8473
v -60.66341 151.6155 -128.6634
v -51.1803 151.6738 -138.6234
v -58.79109 150.5135 -126.8872
v -38.59006 138.6235 -107.7234
v -27.23463 137.5798 -115.9073
v -36.71774 137.5215 -105.9473
v -29.10696 138.6818 -117.6835
v -41.00287 138.9818 -105.4854
v -38.73895 138.9958 -107.863
v -36.48087 137.6666 -105.7209
v -38.74478 137.6526 -103.343
v -60.75256 151.9526 -128.7461
v -58.49419 150.6237 -126.604
v -60.7581 150.6097 -124.2264
v -63.01619 151.9386 -126.3686
v -60.63806 150.3696 -124.5018
v -58.76108 150.3813 -126.4732
v -39.00584 138.7534 -107.7322
v -40.88283 138.7418 -105.7608
v -61.05472 150.4996 -124.5096
v -72.41014 151.5432 -116.3257
v -62.92703 151.6015 -126.2858
v -70.53783 150.4413 -114.5496
v -50.33679 138.5512 -95.3858
v -38.98166 137.5075 -103.5697
v -48.46448 137.4493 -93.60963
v -40.85397 138.6095 -105.3459
v -52.7496 138.9096 -93.14781
v -50.48569 138.9236 -95.52536
v -48.2276 137.5944 -93.38324
v -50.49152 137.5807 -91.0054
v -72.4993 151.8804 -116.4085
v -70.24121 150.5515 -114.2663
v -72.50484 150.5374 -111.8888
v -74.76292 151.8664 -114.0309
v -72.3848 150.2974 -112.1641
v -70.5081 150.309 -114.1355
v -50.75258 138.6812 -95.39425
v -52.62956 138.6695 -93.42287
v -26.99135 139.0681 -120.2015
v -24.73326 137.7389 -118.0594
v -26.99689 137.7249 -115.6818
v -29.25526 139.0541 -117.8239
v -47.01434 150.4536 -138.8108
v -27.25911 138.8257 -120.0698
v -29.13609 138.814 -118.0984
v -48.89133 150.4419 -136.8394
v -51.26859 152.0109 -138.707
v -49.00496 152.0249 -141.0849
v -46.74658 150.6957 -138.9428
v -49.0105 150.682 -136.5649
vt 0.3430644 0.1985162
vt 0.2532105 0.1985162
vt 0.2532105 0.8010898
vt 0.3430644 0.8010898
vt 0.3430644 0.8010898
vt 0.2532105 0.8010898
vt 0.2532105 0.1985162
vt 0.3430644 0.1985162
vt 0.4972139 0.6657805
vt 0.4972139 0.8264971
vt 0.3457968 0.8264971
vt 0.3457968 0.6657805
vt 0.3457968 0.8264971
vt 0.4972139 0.8264971
vt 0.4972139 0.6657805
vt 0.3457968 0.6657805
vt 0.3422643 0.9944749
vt 0.3422643 0.005131
vt 0.25392 0.005131
vt 0.25392 0.9944749
vt 0.3430644 0.1985162
vt 0.2532105 0.8010898
vt 0.2532105 0.1985162
vt 0.3430644 0.8010898
vt 0.3430644 0.8010898
vt 0.2532105 0.1985162
vt 0.2532105 0.8010898
vt 0.3430644 0.1985162
vt 0.4972139 0.6657805
vt 0.3457968 0.6657805
vt 0.3457968 0.8264971
vt 0.4972139 0.8264971
vt 0.3457968 0.8264971
vt 0.3457968 0.6657805
vt 0.4972139 0.6657805
vt 0.4972139 0.8264971
vt 0.3422643 0.9944749
vt 0.25392 0.9944749
vt 0.25392 0.005131
vt 0.3422643 0.005131
vt 0.3430644 0.1985162
vt 0.2532105 0.8010898
vt 0.2532105 0.1985162
vt 0.3430644 0.8010898
vt 0.3430644 0.8010898
vt 0.2532105 0.1985162
vt 0.2532105 0.8010898
vt 0.3430644 0.1985162
vt 0.4972139 0.6657805
vt 0.3457968 0.6657805
vt 0.3457968 0.8264971
vt 0.4972139 0.8264971
vt 0.3457968 0.8264971
vt 0.3457968 0.6657805
vt 0.4972139 0.6657805
vt 0.4972139 0.8264971
vt 0.3422643 0.9944749
vt 0.25392 0.9944749
vt 0.25392 0.005131
vt 0.3422643 0.005131
vt 0.4972139 0.6657805
vt 0.4972139 0.8264971
vt 0.3457968 0.8264971
vt 0.3457968 0.6657805
vt 0.3422643 0.9944749
vt 0.3422643 0.005131
vt 0.25392 0.005131
vt 0.25392 0.9944749
vt 0.3457968 0.8264971
vt 0.4972139 0.8264971
vt 0.4972139 0.6657805
vt 0.3457968 0.6657805
vt 0.3430644 0.1985162
vt 0.2532105 0.1985162
vt 0.2532105 0.8010898
vt 0.3430644 0.8010898
vt 0.3430644 0.8010898
vt 0.2532105 0.8010898
vt 0.2532105 0.1985162
vt 0.3430644 0.1985162
vt 0.4972139 0.6657805
vt 0.4972139 0.8264971
vt 0.3457968 0.8264971
vt 0.3457968 0.6657805
vt 0.3457968 0.8264971
vt 0.4972139 0.8264971
vt 0.4972139 0.6657805
vt 0.3457968 0.6657805
vt 0.3422643 0.9944749
vt 0.3422643 0.005131
vt 0.25392 0.005131
vt 0.25392 0.9944749
vt 0.3430644 0.1985162
vt 0.2532105 0.8010898
vt 0.2532105 0.1985162
vt 0.3430644 0.8010898
vt 0.3430644 0.8010898
vt 0.2532105 0.1985162
vt 0.2532105 0.8010898
vt 0.3430644 0.1985162
vt 0.4972139 0.6657805
vt 0.3457968 0.6657805
vt 0.3457968 0.8264971
vt 0.4972139 0.8264971
vt 0.3457968 0.8264971
vt 0.3457968 0.6657805
vt 0.4972139 0.6657805
vt 0.4972139 0.8264971
vt 0.3422643 0.9944749
vt 0.25392 0.9944749
vt 0.25392 0.005131
vt 0.3422643 0.005131
vt 0.3430644 0.1985162
vt 0.2532105 0.8010898
vt 0.2532105 0.1985162
vt 0.3430644 0.8010898
vt 0.3430644 0.8010898
vt 0.2532105 0.1985162
vt 0.2532105 0.8010898
vt 0.3430644 0.1985162
vt 0.4972139 0.6657805
vt 0.3457968 0.6657805
vt 0.3457968 0.8264971
vt 0.4972139 0.8264971
vt 0.3457968 0.8264971
vt 0.3457968 0.6657805
vt 0.4972139 0.6657805
vt 0.4972139 0.8264971
vt 0.3422643 0.9944749
vt 0.25392 0.9944749
vt 0.25392 0.005131
vt 0.3422643 0.005131
vt 0.4972139 0.6657805
vt 0.4972139 0.8264971
vt 0.3457968 0.8264971
vt 0.3457968 0.6657805
vt 0.3422643 0.9944749
vt 0.3422643 0.005131
vt 0.25392 0.005131
vt 0.25392 0.9944749
vt 0.3457968 0.8264971
vt 0.4972139 0.8264971
vt 0.4972139 0.6657805
vt 0.3457968 0.6657805
vn 0.2817275 0.9196537 0.2736179
vn 0.2817275 0.9196537 0.2736179
vn 0.2817275 0.9196537 0.2736179
vn 0.2817275 0.9196537 0.2736179
vn 0.2817275 0.9196537 0.2736179
vn 0.2817275 0.9196537 0.2736179
vn 0.2817275 0.9196537 0.2736179
vn 0.2817275 0.9196537 0.2736179
vn 0.2817275 0.9196537 0.2736179
vn 0.2817275 0.9196537 0.2736179
vn 0.2817275 0.9196537 0.2736179
vn 0.2817275 0.9196537 0.2736179
vn 0.2817275 0.9196537 0.2736179
vn 0.2817275 0.9196537 0.2736179
vn 0.2817275 0.9196537 0.2736179
vn 0.2817275 0.9196537 0.2736179
vn 0.2817275 0.9196537 0.2736179
vn 0.2817275 0.9196537 0.2736179
vn 0.2817275 0.9196537 0.2736179
vn 0.2817275 0.9196537 0.2736179
vn 0.2817275 0.9196537 0.2736179
vn 0.2817275 0.9196537 0.2736179
vn 0.2817275 0.9196537 0.2736179
vn 0.2817275 0.9196537 0.2736179
vn 0.2817275 0.9196537 0.2736179
vn 0.2817275 0.9196537 0.2736179
vn 0.2817275 0.9196537 0.2736179
vn 0.2817275 0.9196537 0.2736179
vn 0.2817275 0.9196537 0.2736179
vn 0.2817275 0.9196537 0.2736179
vn 0.2817275 0.9196537 0.2736179
vn 0.2817275 0.9196537 0.2736179
vn 0.2817275 0.9196537 0.2736179
vn 0.2817275 0.9196537 0.2736179
vn 0.2817275 0.9196537 0.2736179
vn 0.2817275 0.9196537 0.2736179
vn 0.2817275 0.9196537 0.2736179
vn 0.2817275 0.9196537 0.2736179
vn 0.2817275 0.9196537 0.2736179
vn 0.2817275 0.9196537 0.2736179
vn 0.2817275 0.9196537 0.2736179
vn 0.2817275 0.9196537 0.2736179
vn 0.2817275 0.9196537 0.2736179
vn 0.2817275 0.9196537 0.2736179
vn 0.2817275 0.9196537 0.2736179
vn 0.2817275 0.9196537 0.2736179
vn 0.2817275 0.9196537 0.2736179
vn 0.2817275 0.9196537 0.2736179
vn 0.2817275 0.9196537 0.2736179
vn 0.2817275 0.9196537 0.2736179
vn 0.2817275 0.9196537 0.2736179
vn 0.2817275 0.9196537 0.2736179
vn 0.2817275 0.9196537 0.2736179
vn 0.2817275 0.9196537 0.2736179
vn 0.2817275 0.9196537 0.2736179
vn 0.2817275 0.9196537 0.2736179
vn 0.2817275 0.9196537 0.2736179
vn 0.2817275 0.9196537 0.2736179
vn 0.2817275 0.9196537 0.2736179
vn 0.2817275 0.9196537 0.2736179
vn 0.2817275 0.9196537 0.2736179
vn 0.2817275 0.9196537 0.2736179
vn 0.2817275 0.9196537 0.2736179
vn 0.2817275 0.9196537 0.2736179
vn 0.2817275 0.9196537 0.2736179
vn 0.2817275 0.9196537 0.2736179
vn 0.2817275 0.9196537 0.2736179
vn 0.2817275 0.9196537 0.2736179
vn 0.2817275 0.9196537 0.2736179
vn 0.2817275 0.9196537 0.2736179
vn 0.2817275 0.9196537 0.2736179
vn 0.2817275 0.9196537 0.2736179
vn 0.2817275 0.9196537 0.2736179
vn 0.2817275 0.9196537 0.2736179
vn 0.2817275 0.9196537 0.2736179
vn 0.2817275 0.9196537 0.2736179
vn 0.2817275 0.9196537 0.2736179
vn 0.2817275 0.9196537 0.2736179
vn 0.2817275 0.9196537 0.2736179
vn 0.2817275 0.9196537 0.2736179
vn 0.2817275 0.9196537 0.2736179
vn 0.2817275 0.9196537 0.2736179
vn 0.2817275 0.9196537 0.2736179
vn 0.2817275 0.9196537 0.2736179
vn 0.2817275 0.9196537 0.2736179
vn 0.2817275 0.9196537 0.2736179
vn 0.2817275 0.9196537 0.2736179
vn 0.2817275 0.9196537 0.2736179
vn 0.2817275 0.9196537 0.2736179
vn 0.2817275 0.9196537 0.2736179
vn 0.2817275 0.9196537 0.2736179
vn 0.2817275 0.9196537 0.2736179
vn 0.2817275 0.9196537 0.2736179
vn 0.2817275 0.9196537 0.2736179
vn 0.2817275 0.9196537 0.2736179
vn 0.2817275 0.9196537 0.2736179
vn 0.2817275 0.9196537 0.2736179
vn 0.2817275 0.9196537 0.2736179
vn 0.2817275 0.9196537 0.2736179
vn 0.2817275 0.9196537 0.2736179
vn 0.2817275 0.9196537 0.2736179
vn 0.2817275 0.9196537 0.2736179
vn 0.2817275 0.9196537 0.2736179
vn 0.2817275 0.9196537 0.2736179
vn 0.2817275 0.9196537 0.2736179
vn 0.2817275 0.9196537 0.2736179
vn 0.2817275 0.9196537 0.2736179
vn 0.2817275 0.9196537 0.2736179
vn 0.2817275 0.9196537 0.2736179
vn 0.2817275 0.9196537 0.2736179
vn 0.2817275 0.9196537 0.2736179
vn 0.2817275 0.9196537 0.2736179
vn 0.2817275 0.9196537 0.2736179
vn 0.2817275 0.9196537 0.2736179
vn 0.2817275 0.9196537 0.2736179
vn 0.2817275 0.9196537 0.2736179
vn 0.2817275 0.9196537 0.2736179
vn 0.2817275 0.9196537 0.2736179
vn 0.2817275 0.9196537 0.2736179
vn 0.2817275 0.9196537 0.2736179
vn 0.2817275 0.9196537 0.2736179
vn 0.2817275 0.9196537 0.2736179
vn 0.2817275 0.9196537 0.2736179
vn 0.2817275 0.9196537 0.2736179
vn 0.2817275 0.9196537 0.2736179
vn 0.2817275 0.9196537 0.2736179
vn 0.2817275 0.9196537 0.2736179
vn 0.2817275 0.9196537 0.2736179
vn 0.2817275 0.9196537 0.2736179
vn 0.2817275 0.9196537 0.2736179
vn 0.2817275 0.9196537 0.2736179
vn 0.2817275 0.9196537 0.2736179
vn 0.2817275 0.9196537 0.2736179
vn 0.2817275 0.9196537 0.2736179
vn 0.2817275 0.9196537 0.2736179
vn 0.2817275 0.9196537 0.2736179
vn 0.2817275 0.9196537 0.2736179
vn 0.2817275 0.9196537 0.2736179
vn 0.2817275 0.9196537 0.2736179
vn 0.2817275 0.9196537 0.2736179
vn 0.2817275 0.9196537 0.2736179
vn 0.2817275 0.9196537 0.2736179
vn 0.2817275 0.9196537 0.2736179
vn 0.2817275 0.9196537 0.2736179
g Combined_ShadowCollisionPrefab_Mesh_0
f 3/3/3 2/2/2 1/1/1
f 1/1/1 4/4/4 3/3/3
f 7/7/7 6/6/6 5/5/5
f 5/5/5 8/8/8 7/7/7
f 11/11/11 10/10/10 9/9/9
f 12/12/12 11/11/11 9/9/9
f 15/15/15 14/14/14 13/13/13
f 16/16/16 15/15/15 13/13/13
f 19/19/19 18/18/18 17/17/17
f 20/20/20 19/19/19 17/17/17
f 23/23/23 22/22/22 21/21/21
f 24/24/24 21/21/21 22/22/22
f 27/27/27 26/26/26 25/25/25
f 28/28/28 25/25/25 26/26/26
f 31/31/31 30/30/30 29/29/29
f 32/32/32 31/31/31 29/29/29
f 35/35/35 34/34/34 33/33/33
f 36/36/36 35/35/35 33/33/33
f 39/39/39 38/38/38 37/37/37
f 40/40/40 39/39/39 37/37/37
f 43/43/43 42/42/42 41/41/41
f 44/44/44 41/41/41 42/42/42
f 47/47/47 46/46/46 45/45/45
f 48/48/48 45/45/45 46/46/46
f 51/51/51 50/50/50 49/49/49
f 52/52/52 51/51/51 49/49/49
f 55/55/55 54/54/54 53/53/53
f 56/56/56 55/55/55 53/53/53
f 59/59/59 58/58/58 57/57/57
f 60/60/60 59/59/59 57/57/57
f 63/63/63 62/62/62 61/61/61
f 64/64/64 63/63/63 61/61/61
f 67/67/67 66/66/66 65/65/65
f 68/68/68 67/67/67 65/65/65
f 71/71/71 70/70/70 69/69/69
f 72/72/72 71/71/71 69/69/69
f 75/75/75 74/74/74 73/73/73
f 73/73/73 76/76/76 75/75/75
f 79/79/79 78/78/78 77/77/77
f 77/77/77 80/80/80 79/79/79
f 83/83/83 82/82/82 81/81/81
f 84/84/84 83/83/83 81/81/81
f 87/87/87 86/86/86 85/85/85
f 88/88/88 87/87/87 85/85/85
f 91/91/91 90/90/90 89/89/89
f 92/92/92 91/91/91 89/89/89
f 95/95/95 94/94/94 93/93/93
f 96/96/96 93/93/93 94/94/94
f 99/99/99 98/98/98 97/97/97
f 100/100/100 97/97/97 98/98/98
f 103/103/103 102/102/102 101/101/101
f 104/104/104 103/103/103 101/101/101
f 107/107/107 106/106/106 105/105/105
f 108/108/108 107/107/107 105/105/105
f 111/111/111 110/110/110 109/109/109
f 112/112/112 111/111/111 109/109/109
f 115/115/115 114/114/114 113/113/113
f 116/116/116 113/113/113 114/114/114
f 119/119/119 118/118/118 117/117/117
f 120/120/120 117/117/117 118/118/118
f 123/123/123 122/122/122 121/121/121
f 124/124/124 123/123/123 121/121/121
f 127/127/127 126/126/126 125/125/125
f 128/128/128 127/127/127 125/125/125
f 131/131/131 130/130/130 129/129/129
f 132/132/132 131/131/131 129/129/129
f 135/135/135 134/134/134 133/133/133
f 136/136/136 135/135/135 133/133/133
f 139/139/139 138/138/138 137/137/137
f 140/140/140 139/139/139 137/137/137
f 143/143/143 142/142/142 141/141/141
f 144/144/144 143/143/143 141/141/141
