g DsLightBeam02
v -6.151329 4.577637E-05 66.65812
v -2.352417 4.577637E-05 4.577637E-05
v -1.082352 4.577637E-05 4.577637E-05
v -0.8684235 4.577637E-05 66.65812
v 3.633224 4.577637E-05 66.65812
v -4.577637E-05 4.577637E-05 4.577637E-05
v 8.033314 4.577637E-05 66.65812
v 1.057892 4.577637E-05 4.577637E-05
v 13.41777 4.577637E-05 66.65812
v 2.352325 4.577637E-05 4.577637E-05
v -7.385284 4.577637E-05 88.31106
v -0.798912 4.577637E-05 88.31106
v -8.577721 4.577637E-05 109.2328
v -0.7316666 4.577637E-05 109.2328
v -9.72818 4.577637E-05 129.4189
v -0.6671219 4.577637E-05 129.4189
v -11.14719 4.577637E-05 154.3188
v -0.5872345 4.577637E-05 154.3188
v -0.2988281 4.577637E-05 253.9457
v -16.89317 4.577637E-05 253.9457
v -26.23225 4.577637E-05 403.088
v -0.2058563 4.577637E-05 403.088
v 21.97063 4.577637E-05 403.088
v 13.84158 4.577637E-05 253.9457
v 43.64793 4.577637E-05 403.088
v 27.66335 4.577637E-05 253.9457
v 8.411083 4.577637E-05 154.3188
v 17.20676 4.577637E-05 154.3188
v 44.57633 4.577637E-05 253.9457
v 70.1735 4.577637E-05 403.088
v 27.96981 4.577637E-05 154.3188
v 7.053913 4.577637E-05 129.4189
v 14.60118 4.577637E-05 129.4189
v 23.83646 4.577637E-05 129.4189
v 5.954002 4.577637E-05 109.2328
v 12.48892 4.577637E-05 109.2328
v 20.48527 4.577637E-05 109.2328
v 4.813469 4.577637E-05 88.31106
v 10.29948 4.577637E-05 88.31106
v 17.01223 4.577637E-05 88.31106
vt 0.9964951 0.6725533
vt 0.9964951 0.6084316
vt 0.9453887 0.6084316
vt 0.9453887 0.6725533
vt 0.8996611 0.6725533
vt 0.8996611 0.6084316
vt 0.8549638 0.6725533
vt 0.8549638 0.6084316
vt 0.8036301 0.6725533
vt 0.8036301 0.6084316
vt 0.9964951 0.6936595
vt 0.9453887 0.6936595
vt 0.9964951 0.7140536
vt 0.9453887 0.7140536
vt 0.9964951 0.7337204
vt 0.9453887 0.7337204
vt 0.9964951 0.7579933
vt 0.9453887 0.7579933
vt 0.9453887 0.855085
vt 0.9964951 0.855085
vt 0.9964951 0.9976466
vt 0.9453887 0.9976466
vt 0.8996611 0.9976466
vt 0.8996611 0.855085
vt 0.8549638 0.9976466
vt 0.8549638 0.855085
vt 0.8996611 0.7579933
vt 0.8549638 0.7579933
vt 0.8036301 0.855085
vt 0.8036301 0.9976466
vt 0.8036301 0.7579933
vt 0.8996611 0.7337204
vt 0.8549638 0.7337204
vt 0.8036301 0.7337204
vt 0.8996611 0.7140536
vt 0.8549638 0.7140536
vt 0.8036301 0.7140536
vt 0.8996611 0.6936595
vt 0.8549638 0.6936595
vt 0.8036301 0.6936595
vn 0 1 0
vn 0 1 0
vn 0 1 0
vn 0 1 0
vn 0 1 0
vn 0 1 0
vn 0 1 0
vn 0 1 0
vn 0 1 0
vn 0 1 0
vn 0 1 0
vn 0 1 0
vn 0 1 0
vn 0 1 0
vn 0 1 0
vn 0 1 0
vn 0 1 0
vn 0 1 0
vn 0 1 0
vn 0 1 0
vn 0 1 0
vn 0 1 0
vn 0 1 0
vn 0 1 0
vn 0 1 0
vn 0 1 0
vn 0 1 0
vn 0 1 0
vn 0 1 0
vn 0 1 0
vn 0 1 0
vn 0 1 0
vn 0 1 0
vn 0 1 0
vn 0 1 0
vn 0 1 0
vn 0 1 0
vn 0 1 0
vn 0 1 0
vn 0 1 0
g DsLightBeam02_0
f 3/3/3 2/2/2 1/1/1
f 4/4/4 3/3/3 1/1/1
f 4/4/4 5/5/5 3/3/3
f 5/5/5 6/6/6 3/3/3
f 5/5/5 7/7/7 6/6/6
f 7/7/7 8/8/8 6/6/6
f 7/7/7 9/9/9 8/8/8
f 9/9/9 10/10/10 8/8/8
f 4/4/4 1/1/1 11/11/11
f 12/12/12 4/4/4 11/11/11
f 4/4/4 12/12/12 5/5/5
f 12/12/12 11/11/11 13/13/13
f 14/14/14 12/12/12 13/13/13
f 14/14/14 13/13/13 15/15/15
f 16/16/16 14/14/14 15/15/15
f 16/16/16 15/15/15 17/17/17
f 18/18/18 16/16/16 17/17/17
f 18/18/18 17/17/17 19/19/19
f 17/17/17 20/20/20 19/19/19
f 19/19/19 20/20/20 21/21/21
f 22/22/22 19/19/19 21/21/21
f 22/22/22 23/23/23 19/19/19
f 23/23/23 24/24/24 19/19/19
f 18/18/18 19/19/19 24/24/24
f 24/24/24 23/23/23 25/25/25
f 26/26/26 24/24/24 25/25/25
f 27/27/27 24/24/24 26/26/26
f 27/27/27 18/18/18 24/24/24
f 28/28/28 27/27/27 26/26/26
f 26/26/26 25/25/25 29/29/29
f 28/28/28 26/26/26 29/29/29
f 25/25/25 30/30/30 29/29/29
f 31/31/31 28/28/28 29/29/29
f 18/18/18 27/27/27 32/32/32
f 16/16/16 18/18/18 32/32/32
f 27/27/27 28/28/28 33/33/33
f 32/32/32 27/27/27 33/33/33
f 28/28/28 31/31/31 34/34/34
f 33/33/33 28/28/28 34/34/34
f 16/16/16 32/32/32 35/35/35
f 14/14/14 16/16/16 35/35/35
f 32/32/32 33/33/33 36/36/36
f 35/35/35 32/32/32 36/36/36
f 33/33/33 34/34/34 37/37/37
f 36/36/36 33/33/33 37/37/37
f 14/14/14 35/35/35 38/38/38
f 12/12/12 14/14/14 38/38/38
f 35/35/35 36/36/36 39/39/39
f 38/38/38 35/35/35 39/39/39
f 36/36/36 37/37/37 40/40/40
f 39/39/39 36/36/36 40/40/40
f 12/12/12 38/38/38 5/5/5
f 38/38/38 39/39/39 7/7/7
f 5/5/5 38/38/38 7/7/7
f 39/39/39 40/40/40 9/9/9
f 7/7/7 39/39/39 9/9/9
