g moonlight
v 119.5696 86.87729 0.004516602
v 239.1437 173.7501 0.004516602
v 281.1277 91.34271 0.004516602
v 140.5616 45.6691 0.004516602
v 86.87727 119.5696 0.004516602
v 173.75 239.1437 0.004516602
v 45.66908 140.5616 0.004516602
v 91.3427 281.1277 0.004516602
v -0.004516602 147.7965 0.004516602
v -0.004516602 295.5974 0.004516602
v -45.6691 140.5616 0.004516602
v -91.34271 281.1277 0.004516602
v -86.87729 119.5696 0.004516602
v -173.7501 239.1437 0.004516602
v -119.5696 86.87729 0.004516602
v -239.1437 173.7501 0.004516602
v -140.5616 45.6691 0.004516602
v -281.1277 91.34271 0.004516602
v -147.7965 -0.004516602 0.004516602
v -295.5974 -0.004516602 0.004516602
v -140.5616 -45.66908 0.004516602
v -281.1277 -91.3427 0.004516602
v -119.5696 -86.87727 0.004516602
v -239.1437 -173.75 0.004516602
v -86.87729 -119.5696 0.004516602
v -173.7501 -239.1437 0.004516602
v -45.6691 -140.5616 0.004516602
v -91.34271 -281.1277 0.004516602
v -0.004516602 -147.7965 0.004516602
v -0.004516602 -295.5974 0.004516602
v 45.66908 -140.5616 0.004516602
v 91.3427 -281.1277 0.004516602
v 86.87727 -119.5696 0.004516602
v 173.75 -239.1437 0.004516602
v 119.5696 -86.87727 0.004516602
v 239.1437 -173.75 0.004516602
v 140.5616 -45.66908 0.004516602
v 281.1277 -91.3427 0.004516602
v 147.7965 -0.004516602 0.004516602
v 295.5974 -0.004516602 0.004516602
v -0.004516602 -73.89597 0.004516602
v 22.83679 -70.27853 0.004516602
v 43.44089 -59.78705 0.004516602
v 59.78705 -43.44089 0.004516602
v 70.27853 -22.83679 0.004516602
v 73.89597 -0.004516602 0.004516602
v 70.27853 22.83682 0.004516602
v 59.78705 43.44089 0.004516602
v 43.44089 59.78705 0.004516602
v 22.83679 70.27853 0.004516602
v -0.004516602 73.896 0.004516602
v -22.83682 70.27853 0.004516602
v -43.44089 59.78705 0.004516602
v -59.78705 43.44089 0.004516602
v -70.27853 22.83682 0.004516602
v -73.896 -0.004516602 0.004516602
v -70.27853 -22.83679 0.004516602
v -59.78705 -43.44089 0.004516602
v -43.44089 -59.78705 0.004516602
v -22.83682 -70.27853 0.004516602
v -0.004516602 -0.004516602 0.004516602
vt 0.5631415 0.8896627
vt 0.6266495 0.9358504
vt 0.6484604 0.8922287
vt 0.5740469 0.8678519
vt 0.5458211 0.9069831
vt 0.5920088 0.9698497
vt 0.5240102 0.9178885
vt 0.5483871 0.9923021
vt 0.5002749 0.9217376
vt 0.5002749 1
vt 0.4758981 0.9178885
vt 0.4515212 0.9923021
vt 0.4540872 0.9069831
vt 0.4078995 0.9698497
vt 0.4367668 0.8896627
vt 0.3739003 0.9358504
vt 0.4258614 0.8678519
vt 0.3514479 0.8922287
vt 0.4220124 0.843475
vt 0.34375 0.843475
vt 0.4258614 0.8197397
vt 0.3514479 0.7953628
vt 0.4367668 0.7979288
vt 0.3739003 0.7517412
vt 0.4540872 0.7806085
vt 0.4078995 0.7171004
vt 0.4758981 0.769703
vt 0.4515212 0.6952896
vt 0.5002749 0.7658541
vt 0.5002749 0.6875916
vt 0.5240102 0.769703
vt 0.5483871 0.6952896
vt 0.5458211 0.7806085
vt 0.5920088 0.7171004
vt 0.5631415 0.7979288
vt 0.6266495 0.7517412
vt 0.5740469 0.8197397
vt 0.6484604 0.7953628
vt 0.5778959 0.843475
vt 0.6561583 0.843475
vt 0.5002749 0.8049853
vt 0.5118218 0.8069098
vt 0.5227273 0.8120418
vt 0.5317082 0.8210227
vt 0.5368401 0.8319281
vt 0.5387646 0.843475
vt 0.5368401 0.8556634
vt 0.5317082 0.8665689
vt 0.5227273 0.8755498
vt 0.5118218 0.8806818
vt 0.5002749 0.8826063
vt 0.4880865 0.8806818
vt 0.477181 0.8755498
vt 0.4682001 0.8665689
vt 0.4630682 0.8556634
vt 0.4611437 0.843475
vt 0.4630682 0.8319281
vt 0.4682001 0.8210227
vt 0.477181 0.8120418
vt 0.4880865 0.8069098
vt 0.5002749 0.8377016
vn 4.437425E-09 -4.437425E-09 1
vn 4.437425E-09 -4.437425E-09 1
vn 4.437425E-09 -4.437425E-09 1
vn 4.437425E-09 -4.437425E-09 1
vn 1.64658E-06 -4.437425E-09 1
vn 1.969143E-06 -4.437425E-09 1
vn 4.437425E-09 -4.437425E-09 1
vn 1.969143E-06 -4.437425E-09 1
vn 4.437425E-09 -4.437425E-09 1
vn 4.437425E-09 -4.437425E-09 1
vn 4.437425E-09 -4.437425E-09 1
vn 4.437425E-09 -4.437425E-09 1
vn 4.437425E-09 -4.437425E-09 1
vn 4.437425E-09 -4.437425E-09 1
vn 1.148072E-06 -4.437425E-09 1
vn 4.437425E-09 -4.437425E-09 1
vn 4.437425E-09 -4.437425E-09 1
vn 4.437425E-09 -4.437425E-09 1
vn 4.437425E-09 -4.437425E-09 1
vn 4.437425E-09 -4.437425E-09 1
vn 4.437425E-09 -4.437425E-09 1
vn 4.437425E-09 -4.437425E-09 1
vn 4.437425E-09 -4.437425E-09 1
vn 4.437425E-09 -4.437425E-09 1
vn -1.637705E-06 -4.437425E-09 1
vn -1.989593E-06 -4.437425E-09 1
vn 4.437425E-09 -4.437425E-09 1
vn -1.989593E-06 -4.437425E-09 1
vn 4.437425E-09 -4.437425E-09 1
vn 4.437425E-09 -4.437425E-09 1
vn 4.437425E-09 -4.437425E-09 1
vn 4.437425E-09 -4.437425E-09 1
vn 4.437425E-09 -4.437425E-09 1
vn 4.437425E-09 -4.437425E-09 1
vn 4.437425E-09 -4.437425E-09 1
vn 4.437425E-09 -4.437425E-09 1
vn 4.437425E-09 -4.437425E-09 1
vn 4.437425E-09 -4.437425E-09 1
vn 4.437425E-09 -4.437425E-09 1
vn 4.437425E-09 -4.437425E-09 1
vn 4.437425E-09 -4.437425E-09 1
vn -2.546748E-06 -4.437425E-09 1
vn 1.558608E-06 -4.437425E-09 1
vn 4.437425E-09 -4.437425E-09 1
vn 4.437425E-09 -4.437425E-09 1
vn 4.437425E-09 -4.437425E-09 1
vn 1.411988E-06 -4.437425E-09 1
vn 1.411988E-06 -4.437425E-09 1
vn 4.437425E-09 -4.437425E-09 1
vn -3.103904E-06 -4.437425E-09 1
vn 4.437425E-09 -4.437425E-09 1
vn 3.112778E-06 -4.437425E-09 1
vn 3.112778E-06 -4.437425E-09 1
vn 1.558608E-06 -4.437425E-09 1
vn -1.549733E-06 -4.437425E-09 1
vn 4.437425E-09 -4.437425E-09 1
vn 4.437425E-09 -4.437425E-09 1
vn 4.437425E-09 -4.437425E-09 1
vn -1.256494E-06 -4.437425E-09 1
vn 4.373709E-06 -4.437425E-09 1
vn 4.437425E-09 -4.437425E-09 1
g moonlight_0
f 3/3/3 2/2/2 1/1/1
f 4/4/4 3/3/3 1/1/1
f 1/1/1 2/2/2 5/5/5
f 2/2/2 6/6/6 5/5/5
f 5/5/5 6/6/6 7/7/7
f 6/6/6 8/8/8 7/7/7
f 7/7/7 8/8/8 9/9/9
f 8/8/8 10/10/10 9/9/9
f 9/9/9 10/10/10 11/11/11
f 10/10/10 12/12/12 11/11/11
f 11/11/11 12/12/12 13/13/13
f 12/12/12 14/14/14 13/13/13
f 13/13/13 14/14/14 15/15/15
f 14/14/14 16/16/16 15/15/15
f 15/15/15 16/16/16 17/17/17
f 16/16/16 18/18/18 17/17/17
f 17/17/17 18/18/18 19/19/19
f 18/18/18 20/20/20 19/19/19
f 19/19/19 20/20/20 21/21/21
f 20/20/20 22/22/22 21/21/21
f 21/21/21 22/22/22 23/23/23
f 22/22/22 24/24/24 23/23/23
f 23/23/23 24/24/24 25/25/25
f 24/24/24 26/26/26 25/25/25
f 25/25/25 26/26/26 27/27/27
f 26/26/26 28/28/28 27/27/27
f 27/27/27 28/28/28 29/29/29
f 28/28/28 30/30/30 29/29/29
f 29/29/29 30/30/30 31/31/31
f 30/30/30 32/32/32 31/31/31
f 31/31/31 32/32/32 33/33/33
f 32/32/32 34/34/34 33/33/33
f 33/33/33 34/34/34 35/35/35
f 34/34/34 36/36/36 35/35/35
f 35/35/35 36/36/36 37/37/37
f 36/36/36 38/38/38 37/37/37
f 37/37/37 38/38/38 39/39/39
f 38/38/38 40/40/40 39/39/39
f 39/39/39 40/40/40 4/4/4
f 40/40/40 3/3/3 4/4/4
f 29/29/29 41/41/41 27/27/27
f 42/42/42 41/41/41 29/29/29
f 31/31/31 42/42/42 29/29/29
f 43/43/43 42/42/42 31/31/31
f 33/33/33 43/43/43 31/31/31
f 44/44/44 43/43/43 33/33/33
f 35/35/35 44/44/44 33/33/33
f 45/45/45 44/44/44 35/35/35
f 37/37/37 45/45/45 35/35/35
f 46/46/46 45/45/45 37/37/37
f 39/39/39 46/46/46 37/37/37
f 47/47/47 46/46/46 39/39/39
f 4/4/4 47/47/47 39/39/39
f 48/48/48 47/47/47 4/4/4
f 1/1/1 48/48/48 4/4/4
f 49/49/49 48/48/48 1/1/1
f 5/5/5 49/49/49 1/1/1
f 50/50/50 49/49/49 5/5/5
f 7/7/7 50/50/50 5/5/5
f 51/51/51 50/50/50 7/7/7
f 9/9/9 51/51/51 7/7/7
f 52/52/52 51/51/51 9/9/9
f 11/11/11 52/52/52 9/9/9
f 53/53/53 52/52/52 11/11/11
f 13/13/13 53/53/53 11/11/11
f 54/54/54 53/53/53 13/13/13
f 15/15/15 54/54/54 13/13/13
f 55/55/55 54/54/54 15/15/15
f 17/17/17 55/55/55 15/15/15
f 56/56/56 55/55/55 17/17/17
f 19/19/19 56/56/56 17/17/17
f 57/57/57 56/56/56 19/19/19
f 21/21/21 57/57/57 19/19/19
f 58/58/58 57/57/57 21/21/21
f 23/23/23 58/58/58 21/21/21
f 59/59/59 58/58/58 23/23/23
f 25/25/25 59/59/59 23/23/23
f 60/60/60 59/59/59 25/25/25
f 27/27/27 60/60/60 25/25/25
f 41/41/41 60/60/60 27/27/27
f 55/55/55 61/61/61 54/54/54
f 56/56/56 61/61/61 55/55/55
f 57/57/57 61/61/61 56/56/56
f 58/58/58 61/61/61 57/57/57
f 59/59/59 61/61/61 58/58/58
f 60/60/60 61/61/61 59/59/59
f 41/41/41 61/61/61 60/60/60
f 54/54/54 61/61/61 53/53/53
f 53/53/53 61/61/61 52/52/52
f 52/52/52 61/61/61 51/51/51
f 51/51/51 61/61/61 50/50/50
f 50/50/50 61/61/61 49/49/49
f 49/49/49 61/61/61 48/48/48
f 48/48/48 61/61/61 47/47/47
f 42/42/42 61/61/61 41/41/41
f 43/43/43 61/61/61 42/42/42
f 44/44/44 61/61/61 43/43/43
f 45/45/45 61/61/61 44/44/44
f 46/46/46 61/61/61 45/45/45
f 47/47/47 61/61/61 46/46/46
