g Propella3
v 4.989075 -3.434967 -3.734329
v 4.989075 2.756813 -3.734329
v 0.8871765 2.756813 -6.168472
v 0.8871765 -3.434967 -6.168472
v -3.734329 2.756813 -4.989075
v -3.734329 -3.434967 -4.989075
v -6.168472 2.756813 -0.8871765
v -6.168472 -3.434967 -0.8871765
v -4.989075 -3.434967 3.734329
v -4.989075 2.756813 3.734329
v -0.8871765 2.756813 6.168472
v -0.8871765 -3.434967 6.168472
v 3.734329 2.756813 4.989075
v 3.734329 -3.434967 4.989075
v 6.168472 2.756813 0.8873291
v 6.168472 -3.434967 0.8873291
v 4.989075 2.756813 -3.734329
v 4.989075 -3.434967 -3.734329
v 7.051018 -3.568405 -52.45608
v -20.82841 5.164268 -48.06643
v -21.77705 4.338234 -60.85171
v 4.056458 -2.71553 -64.91924
v -22.3089 3.982674 -47.87554
v -23.11766 3.083336 -60.82706
v -22.83416 1.419807 -60.68515
v -22.06809 2.292778 -47.87114
v 7.547707 -4.62677 -52.57585
v 4.509499 -3.734802 -65.19348
v 3.464951 -4.348595 -64.82614
v 6.356224 -5.176987 -52.34666
v 7.554924 -3.641243 -39.60094
v -17.46951 5.235382 -35.66057
v 5.078712 -2.370018 -16.46201
v -8.310471 4.035736 -14.35375
v 1.952919 -0.8998947 -6.744118
v -2.830597 2.58963 -5.990768
v -0.1892395 0.849968 -4.749214
v -18.91137 4.071213 -35.3317
v -9.779655 3.091499 -13.82065
v -18.83382 2.392616 -35.44582
v -9.916229 1.591393 -14.10086
v -3.981575 0.3521881 -5.809456
v -3.858978 1.680244 -5.225807
v -1.279472 -1.205849 -4.577477
v -0.6041412 -0.1771545 -3.821297
v 0.9744568 -2.801712 -6.589806
v 2.097656 -2.056992 -6.157173
v 3.913918 -4.143265 -16.27865
v 5.251396 -3.533554 -16.17002
v 6.789642 -5.235382 -39.48038
v 7.962761 -4.697098 -39.54505
v -20.67661 3.607491 -69.46759
v -17.32728 2.279594 -78.43746
v -6.71225 -0.3457489 -80.10867
v -0.1589432 -1.840988 -72.69794
v -12.45397 0.9868546 -81.52055
v -21.98458 2.424332 -69.66507
v -18.40605 1.115898 -78.88799
v -18.16776 -0.3063507 -78.30481
v -13.19932 -1.342735 -81.40329
v -12.96307 -0.1769943 -82.30295
v -6.600487 -1.498932 -80.76548
v -7.381302 -2.403923 -80.00318
v 0.1975632 -2.947075 -73.17532
v -0.8071136 -3.6819 -72.5959
v -21.65319 0.8626862 -69.31359
v -13.19932 -1.342735 -81.40329
v -18.16776 -0.3063507 -78.30481
v -7.381302 -2.403923 -80.00318
v -21.65319 0.8626862 -69.31359
v -0.8071136 -3.6819 -72.5959
v 3.464951 -4.348595 -64.82614
v -22.83416 1.419807 -60.68515
v -22.06809 2.292778 -47.87114
v 6.356224 -5.176987 -52.34666
v -18.83382 2.392616 -35.44582
v 6.789642 -5.235382 -39.48038
v 3.913918 -4.143265 -16.27865
v -9.916229 1.591393 -14.10086
v 0.9744568 -2.801712 -6.589806
v -3.981575 0.3521881 -5.809456
v -1.279472 -1.205849 -4.577477
v -7.554924 -3.641243 39.60094
v 17.46951 5.235382 35.66057
v 20.82826 5.164268 48.06642
v -7.051018 -3.568405 52.45607
v -5.078712 -2.370018 16.46201
v 8.310471 4.035736 14.35375
v -1.952919 -0.8998947 6.744118
v 2.830437 2.58963 5.990768
v 0.1892395 0.849968 4.749214
v -7.962761 -4.697098 39.54505
v -7.547707 -4.62677 52.57585
v -6.356224 -5.176987 52.34682
v -6.789642 -5.235382 39.48038
v -5.251389 -3.533554 16.17002
v -3.914078 -4.143265 16.27865
v -2.097809 -2.056992 6.157173
v -0.974617 -2.801712 6.589806
v 0.6041412 -0.1771545 3.821297
v 1.279312 -1.205849 4.577477
v 3.858978 1.680244 5.225807
v 3.981575 0.3521881 5.809456
v 9.779495 3.091499 13.82065
v 9.916069 1.591393 14.10101
v 18.83366 2.392616 35.44598
v 18.91121 4.071213 35.3317
v 22.06809 2.292778 47.87131
v 22.3089 3.982674 47.87553
v 21.77689 4.338234 60.85172
v -4.056458 -2.71553 64.91924
v 23.11766 3.083336 60.82706
v 22.83416 1.419807 60.68515
v -4.509659 -3.734802 65.19363
v -3.464951 -4.348595 64.82614
v 0.1589432 -1.840988 72.69794
v 20.67662 3.607491 69.46759
v 6.712257 -0.3457489 80.10867
v 17.32728 2.279594 78.43745
v 12.45382 0.9868546 81.52055
v 21.98458 2.424332 69.66507
v 18.40589 1.115898 78.88799
v 18.16776 -0.3063507 78.30481
v 13.19917 -1.342735 81.40329
v 12.96307 -0.1769943 82.30295
v 6.600487 -1.498932 80.76547
v 7.381302 -2.403923 80.00319
v -0.1975632 -2.947075 73.17531
v 0.8071136 -3.6819 72.5959
v 21.65319 0.8626862 69.31358
v 13.19917 -1.342735 81.40329
v 18.16776 -0.3063507 78.30481
v 7.381302 -2.403923 80.00319
v 21.65319 0.8626862 69.31358
v 0.8071136 -3.6819 72.5959
v -3.464951 -4.348595 64.82614
v 22.83416 1.419807 60.68515
v -6.356224 -5.176987 52.34682
v 22.06809 2.292778 47.87131
v 18.83366 2.392616 35.44598
v -6.789642 -5.235382 39.48038
v -3.914078 -4.143265 16.27865
v 9.916069 1.591393 14.10101
v -0.974617 -2.801712 6.589806
v 3.981575 0.3521881 5.809456
v 1.279312 -1.205849 4.577477
vt 8.877265 2.3135
vt 9.148698 2.3135
vt 9.148698 2.034559
vt 8.877265 2.034559
vt 9.148698 1.755629
vt 8.877265 1.755629
vt 9.148698 1.476689
vt 8.877265 1.476689
vt 8.877265 1.197748
vt 9.148698 1.197748
vt 9.148698 0.9188071
vt 8.877265 0.9188071
vt 9.148698 0.6398667
vt 8.877265 0.6398667
vt 9.148698 0.3609363
vt 8.877265 0.3609363
vt 9.148698 0.07357109
vt 8.877265 0.07357109
vt 1.888611 0.7610458
vt 0.5032493 0.7967218
vt 0.5240945 1.464103
vt 1.893503 1.392751
vt 0.4101659 0.8100077
vt 0.434853 1.495649
vt 0.3547157 1.522663
vt 0.3272892 0.8220061
vt 1.945987 0.7644342
vt 1.950591 1.40823
vt 2.009862 1.422752
vt 2.007864 0.7671221
vt 1.883729 0.1293406
vt 0.4824039 0.1293406
vt 1.580328 -1.012602
vt 0.7997292 -1.018339
vt 1.325611 -1.454968
vt 1.048597 -1.463908
vt 1.179127 -1.530049
vt 0.3854688 0.1243559
vt 0.7112702 -1.050863
vt 0.2998627 0.1213486
vt 0.6365606 -1.073995
vt 0.9549776 -1.570174
vt 0.9997374 -1.52457
vt 1.181959 -1.650672
vt 1.181444 -1.594851
vt 1.408725 -1.559257
vt 1.364902 -1.50874
vt 1.702074 -1.077414
vt 1.635171 -1.043582
vt 2.005866 0.1115026
vt 1.941373 0.1206483
vt 0.7513131 1.863842
vt 0.9785317 2.26358
vt 1.500963 2.254064
vt 1.697233 1.823407
vt 1.242343 2.368456
vt 0.6805996 1.912525
vt 0.9263359 2.329391
vt 0.8760866 2.379702
vt 1.238748 2.501654
vt 1.243661 2.4416
vt 1.546547 2.304385
vt 1.593562 2.348527
vt 1.748574 1.856303
vt 1.801707 1.885635
vt 0.6153959 1.951178
vt 3.75253 2.498152
vt 3.474125 2.614285
vt 4.038175 2.614151
vt 3.282696 3.037371
vt 4.255651 3.037238
vt 4.473137 3.460334
vt 3.091267 3.460458
vt 3.084943 4.109054
vt 4.461653 4.108992
vt 3.078609 4.757659
vt 4.45017 4.757659
vt 4.124708 5.899458
vt 3.35722 5.898315
vt 3.891176 6.361938
vt 3.590556 6.364194
vt 3.739656 6.446134
vt 1.883729 1.864439
vt 0.4824039 1.864439
vt 0.5032493 2.53182
vt 1.888611 2.496144
vt 1.580328 0.7224962
vt 0.7997292 0.7167596
vt 1.325611 0.2801297
vt 1.048597 0.27119
vt 1.179127 0.2050493
vt 1.941373 1.855736
vt 1.945987 2.499532
vt 2.007864 2.50222
vt 2.005866 1.846601
vt 1.635171 0.6915063
vt 1.702074 0.657684
vt 1.364902 0.2263478
vt 1.408725 0.1758308
vt 1.181444 0.1402475
vt 1.181959 0.0844264
vt 0.9997374 0.2105285
vt 0.9549776 0.164924
vt 0.7112702 0.6842352
vt 0.6365606 0.6611034
vt 0.2998627 1.856437
vt 0.3854688 1.859444
vt 0.3272892 2.557094
vt 0.4101659 2.545095
vt 0.5240945 3.199201
vt 1.893503 3.127849
vt 0.434853 3.230747
vt 0.3547157 3.257751
vt 1.950591 3.143318
vt 2.009862 3.15785
vt 1.697233 3.558506
vt 0.7513131 3.598939
vt 1.500963 3.989151
vt 0.9785317 3.998678
vt 1.242343 4.103554
vt 0.6805996 3.647613
vt 0.9263359 4.064479
vt 0.8760866 4.1148
vt 1.238748 4.236742
vt 1.243661 4.176688
vt 1.546547 4.039483
vt 1.593562 4.083625
vt 1.748574 3.591401
vt 1.801707 3.620732
vt 0.6153959 3.686276
vt 1.579412 1.272921
vt 1.301006 1.389053
vt 1.865057 1.388919
vt 1.109577 1.81214
vt 2.082532 1.812006
vt 2.300018 2.235093
vt 0.9181482 2.235227
vt 2.288535 2.88376
vt 0.9118141 2.883822
vt 0.9054905 3.532428
vt 2.277041 3.532428
vt 1.95159 4.674227
vt 1.184101 4.673083
vt 1.718058 5.136707
vt 1.417438 5.138963
vt 1.566527 5.220902
vn 0.8001732 0.0009672046 -0.5997683
vn 0.8001732 0.0009672046 -0.5997683
vn 0.1422318 0.0009672046 -0.9898329
vn 0.1422318 0.0009672046 -0.9898329
vn -0.5989197 0.0009672046 -0.8008084
vn -0.5989197 0.0009672046 -0.8008084
vn -0.9898144 0.0009672046 -0.1423604
vn -0.9898144 0.0009672046 -0.1423604
vn -0.8001724 0.0009672046 0.5997692
vn -0.8001724 0.0009672046 0.5997692
vn -0.1422311 0.0009672046 0.989833
vn -0.1422311 0.0009672046 0.989833
vn 0.5989205 0.0009672046 0.8008079
vn 0.5989205 0.0009672046 0.8008079
vn 0.9898151 0.0009672046 0.1423556
vn 0.9898151 0.0009672046 0.1423556
vn 0.8001732 0.0009672046 -0.5997683
vn 0.8001732 0.0009672046 -0.5997683
vn 0.3241333 0.9453065 -0.0365127
vn 0.2351177 0.9704632 -0.05404559
vn 0.2099611 0.9762685 -0.05306676
vn 0.3009118 0.9511119 -0.06955738
vn -0.9104744 0.3937969 0.126334
vn -0.937566 0.3454188 -0.04069072
vn -0.2815598 -0.9588532 0.03639497
vn -0.3028462 -0.9511127 0.06057099
vn 0.90854 -0.3937976 -0.1395653
vn 0.875643 -0.3396142 -0.3433826
vn -0.1905327 -0.9816809 0
vn -0.2157657 -0.9762692 0.0185338
vn 0.3744464 0.9259554 -0.0489537
vn 0.2717822 0.9623587 0
vn 0.4170191 0.9085393 -0.02552408
vn 0.2987709 0.9543248 0
vn 0.5969854 0.8001724 0.05772777
vn 0.256404 0.9627227 0.08615155
vn 0.5157103 0.7072866 0.4835168
vn -0.8330696 0.4518505 0.3191022
vn -0.7672753 0.4866828 0.4176463
vn -0.3492891 -0.9336966 0.07879012
vn -0.3899267 -0.9162805 0.0915817
vn -0.6569735 -0.6260122 0.4201126
vn -0.5989197 0.4421749 0.6676649
vn -0.3396134 -0.7092224 0.6177914
vn 0.1441669 0.006772578 0.9895302
vn -0.2467276 -0.9588532 0.1404494
vn 0.765341 -0.4383054 0.4713189
vn -0.2699491 -0.9607883 0.06335061
vn 0.8485512 -0.4924888 0.193431
vn -0.2486627 -0.9685287 0.01090464
vn 0.8872536 -0.4557216 0.07140602
vn 0.1751289 0.9820739 -0.06971914
vn 0.1519074 0.9820739 -0.1116019
vn 0.2912362 0.9491768 -0.1193521
vn 0.2951064 0.953047 -0.06792289
vn 0.1248157 0.8601612 -0.4945136
vn -0.9143447 0.3009111 -0.2709729
vn -0.7827563 0.2273765 -0.5793034
vn -0.2931706 -0.9549829 -0.04537142
vn -0.2641437 -0.8620971 -0.4324543
vn -0.1712579 0.004837453 -0.9852144
vn 0.5253859 -0.2157664 -0.8230519
vn -0.1538419 -0.98788 -0.0206353
vn 0.7576005 -0.2912362 -0.5841429
vn -0.1654525 -0.9859449 -0.02319978
vn -0.2834949 -0.9588532 0.01520547
vn -0.2641437 -0.8620971 -0.4324543
vn -0.2931706 -0.9549829 -0.04537142
vn -0.1538419 -0.98788 -0.0206353
vn -0.2834949 -0.9588532 0.01520547
vn -0.1654525 -0.9859449 -0.02319978
vn -0.1905327 -0.9816809 0
vn -0.2815598 -0.9588532 0.03639497
vn -0.3028462 -0.9511127 0.06057099
vn -0.2157657 -0.9762692 0.0185338
vn -0.3492891 -0.9336966 0.07879012
vn -0.2486627 -0.9685287 0.01090464
vn -0.2699491 -0.9607883 0.06335061
vn -0.3899267 -0.9162805 0.0915817
vn -0.2467276 -0.9588532 0.1404494
vn -0.6569735 -0.6260122 0.4201126
vn -0.3396134 -0.7092224 0.6177914
vn -0.3744457 0.9259554 0.04895917
vn -0.2717815 0.962359 0
vn -0.235117 0.9704632 0.0540489
vn -0.3241326 0.9453065 0.03651923
vn -0.4170183 0.9085393 0.02553692
vn -0.2987702 0.9543251 0
vn -0.5969846 0.8001724 -0.05773551
vn -0.2564032 0.9627227 -0.08615363
vn -0.5157095 0.7072866 -0.4835177
vn -0.8872529 -0.4557216 -0.0714152
vn -0.9085393 -0.3937976 0.13957
vn 0.2157664 -0.9762692 -0.01852575
vn 0.2486635 -0.9685287 -0.01088823
vn -0.8485504 -0.4924888 -0.1934346
vn 0.2699499 -0.9607883 -0.06334732
vn -0.7653402 -0.4383054 -0.4713202
vn 0.2467284 -0.9588532 -0.1404481
vn -0.1441662 0.006772578 -0.9895303
vn 0.3396142 -0.7092224 -0.6177911
vn 0.5989205 0.4421749 -0.6676643
vn 0.6569742 -0.6260122 -0.4201114
vn 0.7672761 0.4866828 -0.4176449
vn 0.3899274 -0.9162805 -0.09157877
vn 0.3492898 -0.9336966 -0.07878672
vn 0.8330703 0.4518505 -0.3191003
vn 0.3028469 -0.9511127 -0.06056754
vn 0.9104751 0.3937969 -0.1263291
vn -0.2099603 0.9762685 0.05306957
vn -0.3009111 0.9511119 0.0695608
vn 0.9375668 0.3454188 0.04067314
vn 0.2815606 -0.9588532 -0.03638924
vn -0.8756422 -0.3396142 0.3433846
vn 0.1905334 -0.9816808 0
vn -0.2951057 0.953047 0.06792596
vn -0.1751281 0.9820739 0.06972085
vn -0.2912354 0.9491768 0.1193538
vn -0.1519067 0.9820739 0.111603
vn -0.124815 0.8601612 0.4945138
vn 0.9143454 0.3009111 0.2709705
vn 0.7827571 0.2273765 0.5793024
vn 0.2931713 -0.9549829 0.04536682
vn 0.2641445 -0.8620971 0.4324538
vn 0.1712586 0.004837453 0.9852142
vn -0.5253851 -0.2157664 0.8230524
vn 0.1538426 -0.98788 0.02063097
vn -0.7575997 -0.2912362 0.5841439
vn 0.1654533 -0.9859449 0.02319336
vn 0.2834957 -0.9588532 -0.01518979
vn 0.2641445 -0.8620971 0.4324538
vn 0.2931713 -0.9549829 0.04536682
vn 0.1538426 -0.98788 0.02063097
vn 0.2834957 -0.9588532 -0.01518979
vn 0.1654533 -0.9859449 0.02319336
vn 0.1905334 -0.9816808 0
vn 0.2815606 -0.9588532 -0.03638924
vn 0.2157664 -0.9762692 -0.01852575
vn 0.3028469 -0.9511127 -0.06056754
vn 0.3492898 -0.9336966 -0.07878672
vn 0.2486635 -0.9685287 -0.01088823
vn 0.2699499 -0.9607883 -0.06334732
vn 0.3899274 -0.9162805 -0.09157877
vn 0.2467284 -0.9588532 -0.1404481
vn 0.6569742 -0.6260122 -0.4201114
vn 0.3396142 -0.7092224 -0.6177911
g Propella3_0
f 3/3/3 2/2/2 1/1/1
f 4/4/4 3/3/3 1/1/1
f 5/5/5 3/3/3 4/4/4
f 6/6/6 5/5/5 4/4/4
f 7/7/7 5/5/5 6/6/6
f 8/8/8 7/7/7 6/6/6
f 8/8/8 9/9/9 7/7/7
f 9/9/9 10/10/10 7/7/7
f 11/11/11 10/10/10 9/9/9
f 12/12/12 11/11/11 9/9/9
f 13/13/13 11/11/11 12/12/12
f 14/14/14 13/13/13 12/12/12
f 15/15/15 13/13/13 14/14/14
f 16/16/16 15/15/15 14/14/14
f 17/17/17 15/15/15 16/16/16
f 18/18/18 17/17/17 16/16/16
f 21/21/21 20/20/20 19/19/19
f 22/22/22 21/21/21 19/19/19
f 20/20/20 21/21/21 23/23/23
f 21/21/21 24/24/24 23/23/23
f 24/24/24 25/25/25 23/23/23
f 25/25/25 26/26/26 23/23/23
f 22/22/22 19/19/19 27/27/27
f 28/28/28 22/22/22 27/27/27
f 28/28/28 27/27/27 29/29/29
f 27/27/27 30/30/30 29/29/29
f 19/19/19 20/20/20 31/31/31
f 20/20/20 32/32/32 31/31/31
f 20/20/20 23/23/23 32/32/32
f 31/31/31 32/32/32 33/33/33
f 32/32/32 34/34/34 33/33/33
f 34/34/34 35/35/35 33/33/33
f 34/34/34 36/36/36 35/35/35
f 36/36/36 37/37/37 35/35/35
f 32/32/32 38/38/38 34/34/34
f 23/23/23 26/26/26 38/38/38
f 23/23/23 38/38/38 32/32/32
f 38/38/38 39/39/39 34/34/34
f 36/36/36 34/34/34 39/39/39
f 38/38/38 40/40/40 39/39/39
f 26/26/26 40/40/40 38/38/38
f 40/40/40 41/41/41 39/39/39
f 39/39/39 41/41/41 42/42/42
f 43/43/43 39/39/39 42/42/42
f 43/43/43 36/36/36 39/39/39
f 42/42/42 44/44/44 43/43/43
f 44/44/44 45/45/45 43/43/43
f 35/35/35 37/37/37 45/45/45
f 45/45/45 37/37/37 36/36/36
f 43/43/43 45/45/45 36/36/36
f 45/45/45 44/44/44 46/46/46
f 47/47/47 45/45/45 46/46/46
f 33/33/33 35/35/35 47/47/47
f 47/47/47 35/35/35 45/45/45
f 47/47/47 46/46/46 48/48/48
f 49/49/49 47/47/47 48/48/48
f 49/49/49 48/48/48 50/50/50
f 51/51/51 49/49/49 50/50/50
f 51/51/51 31/31/31 49/49/49
f 31/31/31 33/33/33 49/49/49
f 49/49/49 33/33/33 47/47/47
f 19/19/19 31/31/31 51/51/51
f 27/27/27 19/19/19 51/51/51
f 51/51/51 50/50/50 30/30/30
f 27/27/27 51/51/51 30/30/30
f 54/54/54 53/53/53 52/52/52
f 55/55/55 54/54/54 52/52/52
f 53/53/53 54/54/54 56/56/56
f 52/52/52 53/53/53 57/57/57
f 53/53/53 58/58/58 57/57/57
f 58/58/58 59/59/59 57/57/57
f 60/60/60 59/59/59 58/58/58
f 61/61/61 60/60/60 58/58/58
f 61/61/61 58/58/58 53/53/53
f 56/56/56 61/61/61 53/53/53
f 61/61/61 62/62/62 60/60/60
f 56/56/56 54/54/54 62/62/62
f 61/61/61 56/56/56 62/62/62
f 62/62/62 63/63/63 60/60/60
f 62/62/62 64/64/64 63/63/63
f 54/54/54 55/55/55 64/64/64
f 62/62/62 54/54/54 64/64/64
f 64/64/64 65/65/65 63/63/63
f 59/59/59 66/66/66 57/57/57
f 55/55/55 52/52/52 21/21/21
f 52/52/52 57/57/57 21/21/21
f 22/22/22 55/55/55 21/21/21
f 55/55/55 22/22/22 28/28/28
f 64/64/64 55/55/55 28/28/28
f 64/64/64 28/28/28 65/65/65
f 28/28/28 29/29/29 65/65/65
f 57/57/57 66/66/66 24/24/24
f 57/57/57 24/24/24 21/21/21
f 66/66/66 25/25/25 24/24/24
f 69/69/69 68/68/68 67/67/67
f 70/70/70 68/68/68 69/69/69
f 71/71/71 70/70/70 69/69/69
f 71/71/71 72/72/72 70/70/70
f 72/72/72 73/73/73 70/70/70
f 73/73/73 72/72/72 74/74/74
f 72/72/72 75/75/75 74/74/74
f 74/74/74 75/75/75 76/76/76
f 75/75/75 77/77/77 76/76/76
f 77/77/77 78/78/78 76/76/76
f 78/78/78 79/79/79 76/76/76
f 80/80/80 79/79/79 78/78/78
f 80/80/80 81/81/81 79/79/79
f 82/82/82 81/81/81 80/80/80
f 85/85/85 84/84/84 83/83/83
f 86/86/86 85/85/85 83/83/83
f 83/83/83 84/84/84 87/87/87
f 84/84/84 88/88/88 87/87/87
f 88/88/88 89/89/89 87/87/87
f 88/88/88 90/90/90 89/89/89
f 90/90/90 91/91/91 89/89/89
f 86/86/86 83/83/83 92/92/92
f 93/93/93 86/86/86 92/92/92
f 93/93/93 92/92/92 94/94/94
f 92/92/92 95/95/95 94/94/94
f 92/92/92 96/96/96 95/95/95
f 83/83/83 87/87/87 96/96/96
f 92/92/92 83/83/83 96/96/96
f 96/96/96 97/97/97 95/95/95
f 96/96/96 98/98/98 97/97/97
f 87/87/87 89/89/89 98/98/98
f 96/96/96 87/87/87 98/98/98
f 98/98/98 99/99/99 97/97/97
f 98/98/98 100/100/100 99/99/99
f 89/89/89 91/91/91 100/100/100
f 98/98/98 89/89/89 100/100/100
f 100/100/100 91/91/91 90/90/90
f 100/100/100 101/101/101 99/99/99
f 101/101/101 100/100/100 102/102/102
f 102/102/102 100/100/100 90/90/90
f 103/103/103 101/101/101 102/102/102
f 102/102/102 104/104/104 103/103/103
f 102/102/102 90/90/90 104/104/104
f 104/104/104 105/105/105 103/103/103
f 106/106/106 105/105/105 104/104/104
f 107/107/107 106/106/106 104/104/104
f 108/108/108 106/106/106 107/107/107
f 109/109/109 108/108/108 107/107/107
f 107/107/107 104/104/104 88/88/88
f 90/90/90 88/88/88 104/104/104
f 84/84/84 107/107/107 88/88/88
f 109/109/109 107/107/107 84/84/84
f 85/85/85 109/109/109 84/84/84
f 85/85/85 110/110/110 109/109/109
f 110/110/110 85/85/85 86/86/86
f 111/111/111 110/110/110 86/86/86
f 110/110/110 112/112/112 109/109/109
f 109/109/109 112/112/112 108/108/108
f 112/112/112 113/113/113 108/108/108
f 114/114/114 111/111/111 86/86/86
f 93/93/93 114/114/114 86/86/86
f 114/114/114 93/93/93 115/115/115
f 93/93/93 94/94/94 115/115/115
f 111/111/111 116/116/116 110/110/110
f 116/116/116 111/111/111 114/114/114
f 116/116/116 117/117/117 110/110/110
f 116/116/116 118/118/118 117/117/117
f 118/118/118 119/119/119 117/117/117
f 119/119/119 118/118/118 120/120/120
f 117/117/117 119/119/119 121/121/121
f 121/121/121 112/112/112 110/110/110
f 117/117/117 121/121/121 110/110/110
f 119/119/119 122/122/122 121/121/121
f 122/122/122 123/123/123 121/121/121
f 124/124/124 123/123/123 122/122/122
f 125/125/125 124/124/124 122/122/122
f 125/125/125 122/122/122 119/119/119
f 120/120/120 125/125/125 119/119/119
f 125/125/125 126/126/126 124/124/124
f 120/120/120 118/118/118 126/126/126
f 125/125/125 120/120/120 126/126/126
f 126/126/126 127/127/127 124/124/124
f 126/126/126 128/128/128 127/127/127
f 118/118/118 116/116/116 128/128/128
f 126/126/126 118/118/118 128/128/128
f 128/128/128 129/129/129 127/127/127
f 123/123/123 130/130/130 121/121/121
f 128/128/128 116/116/116 114/114/114
f 128/128/128 114/114/114 129/129/129
f 114/114/114 115/115/115 129/129/129
f 121/121/121 130/130/130 112/112/112
f 130/130/130 113/113/113 112/112/112
f 133/133/133 132/132/132 131/131/131
f 134/134/134 132/132/132 133/133/133
f 135/135/135 134/134/134 133/133/133
f 135/135/135 136/136/136 134/134/134
f 136/136/136 137/137/137 134/134/134
f 137/137/137 136/136/136 138/138/138
f 139/139/139 137/137/137 138/138/138
f 139/139/139 138/138/138 140/140/140
f 138/138/138 141/141/141 140/140/140
f 141/141/141 142/142/142 140/140/140
f 142/142/142 143/143/143 140/140/140
f 144/144/144 143/143/143 142/142/142
f 144/144/144 145/145/145 143/143/143
f 146/146/146 145/145/145 144/144/144
