g Propella53
v 2.687153 -3.434891 -6.169521
v 2.687153 2.756813 -6.169521
v -2.462677 2.756813 -6.262718
v -2.462677 -3.434891 -6.262718
v -6.169632 2.756813 -2.687279
v -6.169632 -3.434891 -2.687279
v -6.262955 2.756813 2.462296
v -6.262955 -3.434891 2.462296
v -2.687134 -3.434891 6.169502
v -2.687134 2.756813 6.169502
v 2.462692 2.756813 6.262703
v 2.462692 -3.434891 6.262703
v 6.169647 2.756813 2.687134
v 6.169647 -3.434891 2.687134
v 6.26297 2.756813 -2.462311
v 6.26297 -3.434891 -2.462311
v 2.687153 2.756813 -6.169521
v 2.687153 -3.434891 -6.169521
v -13.02435 -3.64127 -38.15336
v -32.82306 5.235497 -22.34967
v -41.87914 5.164299 -31.46961
v -19.82166 -3.568428 -49.07607
v -3.729774 -2.369999 -16.81895
v -14.32306 4.035675 -8.363293
v -1.638939 -0.8999405 -6.827221
v -5.423409 2.589638 -3.806168
v -2.513763 0.8500977 -4.033791
v -20.37124 -5.17696 -48.63739
v -13.6297 -5.235512 -37.67004
v -33.9025 2.392616 -21.48825
v -42.86006 2.292847 -30.68671
v -4.65126 -4.143177 -16.08348
v -15.59344 1.591385 -7.349361
v -2.412979 -2.801723 -6.209103
v -6.334152 0.3522339 -3.07917
v -3.376328 -1.205833 -3.34536
v -49.02824 4.33828 -42.11184
v -28.58929 -2.715477 -58.42616
v -45.46217 -0.3458023 -66.29974
v -53.86067 2.279564 -59.59626
v -51.15044 0.9868011 -64.6864
v -45.99126 -2.403889 -65.87712
v -51.74024 -1.342667 -64.21585
v -29.0573 -4.348541 -58.0526
v -54.52545 -0.3063507 -59.06514
v -49.86463 1.419914 -41.44402
v -51.74024 -1.342667 -64.21585
v -54.52545 -0.3063507 -59.06514
v -45.99126 -2.403889 -65.87712
v -29.0573 -4.348541 -58.0526
v -49.86463 1.419914 -41.44402
v -20.37124 -5.17696 -48.63739
v -42.86006 2.292847 -30.68671
v -33.9025 2.392616 -21.48825
v -13.6297 -5.235512 -37.67004
v -4.65126 -4.143177 -16.08348
v -15.59344 1.591385 -7.349361
v -2.412979 -2.801723 -6.209103
v -6.334152 0.3522339 -3.07917
v -3.376328 -1.205833 -3.34536
v 19.82154 -3.568428 49.07605
v 41.87915 5.164299 31.46959
v 49.02827 4.33828 42.11182
v 28.58918 -2.715477 58.42614
v 45.46206 -0.3458023 66.29972
v 53.86056 2.279564 59.59624
v 51.15034 0.9868011 64.68638
v 45.99128 -2.403889 65.8771
v 51.74013 -1.342667 64.21584
v 29.05732 -4.348541 58.05258
v 54.52534 -0.3063507 59.06512
v 49.86465 1.419914 41.444
v 20.37125 -5.17696 48.63737
v 42.86008 2.292847 30.6867
v 13.02424 -3.64127 38.15334
v 32.82307 5.235497 22.34966
v 3.729664 -2.369999 16.81894
v 14.32295 4.035675 8.363274
v 1.638954 -0.8999405 6.827202
v 5.423424 2.589638 3.806152
v 2.513779 0.8500977 4.033775
v 4.651279 -4.143177 16.08347
v 13.62971 -5.235512 37.67002
v 33.90239 2.392616 21.48823
v 15.59333 1.591385 7.349342
v 2.412994 -2.801723 6.209084
v 6.334167 0.3522339 3.079155
v 3.376343 -1.205833 3.345345
v 51.74013 -1.342667 64.21584
v 54.52534 -0.3063507 59.06512
v 45.99128 -2.403889 65.8771
v 29.05732 -4.348541 58.05258
v 49.86465 1.419914 41.444
v 42.86008 2.292847 30.6867
v 20.37125 -5.17696 48.63737
v 33.90239 2.392616 21.48823
v 13.62971 -5.235512 37.67002
v 4.651279 -4.143177 16.08347
v 15.59333 1.591385 7.349342
v 2.412994 -2.801723 6.209084
v 6.334167 0.3522339 3.079155
v 3.376343 -1.205833 3.345345
vt 8.877266 2.3135
vt 9.148699 2.3135
vt 9.148699 2.03456
vt 8.877266 2.03456
vt 9.148699 1.755629
vt 8.877266 1.755629
vt 9.148699 1.476689
vt 8.877266 1.476689
vt 8.877266 1.197748
vt 9.148699 1.197748
vt 9.148699 0.9188075
vt 8.877266 0.9188075
vt 9.148699 0.6398671
vt 8.877266 0.6398671
vt 9.148699 0.3609366
vt 8.877266 0.3609366
vt 9.148699 0.07357144
vt 8.877266 0.07357144
vt 1.883729 0.129341
vt 0.4824042 0.129341
vt 0.5032496 0.7967222
vt 1.888611 0.7610462
vt 1.580328 -1.012602
vt 0.7997296 -1.018338
vt 1.325611 -1.454968
vt 1.048597 -1.463908
vt 1.179127 -1.530048
vt 2.007864 0.7671225
vt 2.005866 0.111503
vt 0.2998631 0.121349
vt 0.3272896 0.8220065
vt 1.702074 -1.077414
vt 0.6365609 -1.073994
vt 1.408725 -1.559257
vt 0.9549677 -1.570174
vt 1.18196 -1.650671
vt 0.5240948 1.464103
vt 1.893503 1.392751
vt 1.500964 2.254064
vt 0.9785321 2.263581
vt 1.242343 2.368456
vt 1.593563 2.348527
vt 1.238749 2.501654
vt 2.009862 1.422752
vt 0.876087 2.379703
vt 0.3547161 1.522664
vt 3.752531 2.498153
vt 3.474125 2.614285
vt 4.038176 2.614151
vt 4.473137 3.460335
vt 3.091267 3.460459
vt 4.461654 4.108992
vt 3.084943 4.109065
vt 3.078609 4.75766
vt 4.450171 4.75766
vt 4.124709 5.899458
vt 3.357221 5.898315
vt 3.891177 6.361939
vt 3.590557 6.364194
vt 3.739656 6.446134
vt 1.888611 2.496144
vt 0.5032496 2.53182
vt 0.5240948 3.199202
vt 1.893503 3.12785
vt 1.500964 3.989152
vt 0.9785321 3.998669
vt 1.242343 4.103554
vt 1.593563 4.083626
vt 1.238749 4.236742
vt 2.009862 3.15784
vt 0.876087 4.114801
vt 0.3547161 3.257752
vt 2.007864 2.502221
vt 0.3272896 2.557095
vt 1.883729 1.864439
vt 0.4824042 1.864439
vt 1.580328 0.7224965
vt 0.7997296 0.7167599
vt 1.325611 0.28013
vt 1.048597 0.2711904
vt 1.179127 0.2050496
vt 1.702074 0.6576843
vt 2.005866 1.846601
vt 0.2998631 1.856437
vt 0.6365609 0.6611037
vt 1.408725 0.1758312
vt 0.954978 0.1649244
vt 1.18196 0.08442676
vt 1.579412 1.272921
vt 1.301007 1.389054
vt 1.865057 1.38892
vt 2.300019 2.235104
vt 0.9181485 2.235227
vt 0.9118145 2.883833
vt 2.288535 2.883761
vt 0.9054909 3.532429
vt 2.277041 3.532429
vt 1.95158 4.674227
vt 1.184102 4.673084
vt 1.718048 5.136708
vt 1.417438 5.138963
vt 1.566528 5.220903
vn 0.3999006 -0.0009140372 -0.9165581
vn 0.3999006 -0.0009140372 -0.9165581
vn -0.3651464 -0.0009140372 -0.9309497
vn -0.3651464 -0.0009140372 -0.9309497
vn -0.9171424 -0.0009140372 -0.3985586
vn -0.9171424 -0.0009140372 -0.3985586
vn -0.9307002 -0.0009140372 0.3657818
vn -0.9307002 -0.0009140372 0.3657818
vn -0.4000094 -0.0009140372 0.9165106
vn -0.4000094 -0.0009140372 0.9165106
vn 0.3650376 -0.0009140372 0.9309923
vn 0.3650376 -0.0009140372 0.9309923
vn 0.9170336 -0.0009140372 0.398809
vn 0.9170336 -0.0009140372 0.398809
vn 0.9305913 -0.0009140372 -0.3660586
vn 0.9305913 -0.0009140372 -0.3660586
vn 0.3999006 -0.0009140372 -0.9165581
vn 0.3999006 -0.0009140372 -0.9165581
vn 0.337922 0.9093951 -0.2425063
vn 0.1791022 0.9771841 -0.1141652
vn 0.1423025 0.9829946 -0.1160678
vn 0.2798172 0.9345738 -0.2197139
vn 0.3921532 0.8822794 -0.2603822
vn 0.2100914 0.9713736 -0.1108829
vn 0.7078562 0.6653547 -0.2371554
vn 0.1403656 0.9539421 0.2651265
vn 0.721414 0.3787042 0.5797801
vn -0.1462849 -0.9828857 0.1119661
vn -0.1540322 -0.9770752 0.1469629
vn -0.3128521 -0.9073494 0.2807856
vn -0.2837996 -0.9325282 0.2232687
vn -0.1598427 -0.9732016 0.1653147
vn -0.3399677 -0.8802338 0.3310746
vn 0.01253498 -0.9732016 0.2296118
vn -0.3632096 -0.281754 0.8880841
vn 0.3824691 -0.3650376 0.8488021
vn 0.07645029 0.9907418 -0.1121871
vn 0.2585121 0.9345738 -0.2444245
vn 0.2217124 0.9384475 -0.2648773
vn 0.04352421 0.9888049 -0.142725
vn -0.4058198 0.560766 -0.7217007
vn -0.1365998 -0.9906264 0
vn -0.6285551 -0.5548468 -0.5450354
vn -0.1230429 -0.990633 0.05921706
vn -0.3147889 -0.9383386 0.1429284
vn -0.3031679 -0.934465 0.1867202
vn -0.6285551 -0.5548468 -0.5450354
vn -0.3147889 -0.9383386 0.1429284
vn -0.1365998 -0.9906264 0
vn -0.1230429 -0.990633 0.05921706
vn -0.3031679 -0.934465 0.1867202
vn -0.1462849 -0.9828857 0.1119661
vn -0.2837996 -0.9325282 0.2232687
vn -0.3128521 -0.9073494 0.2807856
vn -0.1540322 -0.9770752 0.1469629
vn -0.1598427 -0.9732016 0.1653147
vn -0.3399677 -0.8802338 0.3310746
vn 0.01253498 -0.9732016 0.2296118
vn -0.3632096 -0.281754 0.8880841
vn 0.3824691 -0.3650376 0.8488021
vn -0.2799261 0.9345738 0.2195753
vn -0.1424112 0.9829946 0.1159342
vn -0.07462227 0.9907418 0.1134111
vn -0.2586209 0.9345738 0.2443095
vn -0.2218212 0.9384475 0.2647861
vn -0.04363298 0.9888049 0.1426918
vn 0.405711 0.560766 0.7217618
vn 0.136492 -0.990633 -0.00402647
vn 0.6284462 -0.5548468 0.5451609
vn 0.124871 -0.990633 -0.05525836
vn 0.3146801 -0.9383386 -0.1431678
vn 0.3030592 -0.934465 -0.1868966
vn 0.1461761 -0.9828857 -0.1121081
vn 0.2836909 -0.9325282 -0.223407
vn -0.3380308 0.9093951 0.2423546
vn -0.179211 0.9771841 0.1139943
vn -0.392262 0.8822794 0.2602184
vn -0.2102002 0.9713736 0.1106768
vn -0.7079649 0.6653547 0.2368308
vn -0.1404744 0.9539421 -0.2650688
vn -0.7215227 0.3787042 -0.5796448
vn 0.1597339 -0.9732016 -0.16542
vn 0.1539234 -0.9770752 -0.1470768
vn 0.3127433 -0.9073494 -0.2809069
vn 0.3398589 -0.8802338 -0.3311863
vn -0.01264381 -0.9732016 -0.2296058
vn 0.3631008 -0.281754 -0.8881286
vn -0.3825779 -0.3650376 -0.848753
vn 0.6284462 -0.5548468 0.5451609
vn 0.3146801 -0.9383386 -0.1431678
vn 0.136492 -0.990633 -0.00402647
vn 0.124871 -0.990633 -0.05525836
vn 0.3030592 -0.934465 -0.1868966
vn 0.2836909 -0.9325282 -0.223407
vn 0.1461761 -0.9828857 -0.1121081
vn 0.3127433 -0.9073494 -0.2809069
vn 0.1539234 -0.9770752 -0.1470768
vn 0.1597339 -0.9732016 -0.16542
vn 0.3398589 -0.8802338 -0.3311863
vn -0.01264381 -0.9732016 -0.2296058
vn 0.3631008 -0.281754 -0.8881286
vn -0.3825779 -0.3650376 -0.848753
g Propella53_0
f 3/3/3 2/2/2 1/1/1
f 4/4/4 3/3/3 1/1/1
f 5/5/5 3/3/3 4/4/4
f 6/6/6 5/5/5 4/4/4
f 7/7/7 5/5/5 6/6/6
f 8/8/8 7/7/7 6/6/6
f 8/8/8 9/9/9 7/7/7
f 9/9/9 10/10/10 7/7/7
f 11/11/11 10/10/10 9/9/9
f 12/12/12 11/11/11 9/9/9
f 13/13/13 11/11/11 12/12/12
f 14/14/14 13/13/13 12/12/12
f 15/15/15 13/13/13 14/14/14
f 16/16/16 15/15/15 14/14/14
f 17/17/17 15/15/15 16/16/16
f 18/18/18 17/17/17 16/16/16
f 21/21/21 20/20/20 19/19/19
f 22/22/22 21/21/21 19/19/19
f 19/19/19 20/20/20 23/23/23
f 20/20/20 24/24/24 23/23/23
f 24/24/24 25/25/25 23/23/23
f 24/24/24 26/26/26 25/25/25
f 26/26/26 27/27/27 25/25/25
f 28/28/28 22/22/22 19/19/19
f 29/29/29 28/28/28 19/19/19
f 30/30/30 20/20/20 21/21/21
f 24/24/24 20/20/20 30/30/30
f 31/31/31 30/30/30 21/21/21
f 19/19/19 23/23/23 32/32/32
f 29/29/29 19/19/19 32/32/32
f 33/33/33 24/24/24 30/30/30
f 23/23/23 25/25/25 34/34/34
f 32/32/32 23/23/23 34/34/34
f 35/35/35 26/26/26 24/24/24
f 33/33/33 35/35/35 24/24/24
f 27/27/27 26/26/26 35/35/35
f 25/25/25 27/27/27 36/36/36
f 34/34/34 25/25/25 36/36/36
f 36/36/36 27/27/27 35/35/35
f 37/37/37 21/21/21 22/22/22
f 38/38/38 37/37/37 22/22/22
f 37/37/37 38/38/38 39/39/39
f 40/40/40 37/37/37 39/39/39
f 40/40/40 39/39/39 41/41/41
f 41/41/41 39/39/39 42/42/42
f 39/39/39 38/38/38 42/42/42
f 43/43/43 41/41/41 42/42/42
f 40/40/40 41/41/41 43/43/43
f 38/38/38 44/44/44 42/42/42
f 45/45/45 40/40/40 43/43/43
f 40/40/40 45/45/45 37/37/37
f 45/45/45 46/46/46 37/37/37
f 46/46/46 31/31/31 37/37/37
f 31/31/31 21/21/21 37/37/37
f 44/44/44 38/38/38 28/28/28
f 38/38/38 22/22/22 28/28/28
f 49/49/49 48/48/48 47/47/47
f 49/49/49 50/50/50 48/48/48
f 50/50/50 51/51/51 48/48/48
f 51/51/51 50/50/50 52/52/52
f 53/53/53 51/51/51 52/52/52
f 53/53/53 52/52/52 54/54/54
f 52/52/52 55/55/55 54/54/54
f 55/55/55 56/56/56 54/54/54
f 56/56/56 57/57/57 54/54/54
f 58/58/58 57/57/57 56/56/56
f 58/58/58 59/59/59 57/57/57
f 60/60/60 59/59/59 58/58/58
f 63/63/63 62/62/62 61/61/61
f 64/64/64 63/63/63 61/61/61
f 64/64/64 65/65/65 63/63/63
f 65/65/65 66/66/66 63/63/63
f 66/66/66 65/65/65 67/67/67
f 67/67/67 65/65/65 68/68/68
f 69/69/69 67/67/67 68/68/68
f 66/66/66 67/67/67 69/69/69
f 70/70/70 68/68/68 65/65/65
f 64/64/64 70/70/70 65/65/65
f 70/70/70 64/64/64 61/61/61
f 71/71/71 66/66/66 69/69/69
f 66/66/66 71/71/71 72/72/72
f 63/63/63 66/66/66 72/72/72
f 73/73/73 70/70/70 61/61/61
f 74/74/74 62/62/62 63/63/63
f 72/72/72 74/74/74 63/63/63
f 61/61/61 62/62/62 75/75/75
f 73/73/73 61/61/61 75/75/75
f 62/62/62 76/76/76 75/75/75
f 76/76/76 62/62/62 74/74/74
f 75/75/75 76/76/76 77/77/77
f 76/76/76 78/78/78 77/77/77
f 78/78/78 79/79/79 77/77/77
f 78/78/78 80/80/80 79/79/79
f 80/80/80 81/81/81 79/79/79
f 75/75/75 77/77/77 82/82/82
f 83/83/83 75/75/75 82/82/82
f 83/83/83 73/73/73 75/75/75
f 78/78/78 76/76/76 84/84/84
f 84/84/84 76/76/76 74/74/74
f 85/85/85 78/78/78 84/84/84
f 80/80/80 78/78/78 85/85/85
f 77/77/77 79/79/79 86/86/86
f 82/82/82 77/77/77 86/86/86
f 87/87/87 80/80/80 85/85/85
f 81/81/81 80/80/80 87/87/87
f 79/79/79 81/81/81 88/88/88
f 86/86/86 79/79/79 88/88/88
f 88/88/88 81/81/81 87/87/87
f 91/91/91 90/90/90 89/89/89
f 90/90/90 91/91/91 92/92/92
f 93/93/93 90/90/90 92/92/92
f 93/93/93 92/92/92 94/94/94
f 92/92/92 95/95/95 94/94/94
f 94/94/94 95/95/95 96/96/96
f 95/95/95 97/97/97 96/96/96
f 97/97/97 98/98/98 96/96/96
f 98/98/98 99/99/99 96/96/96
f 100/100/100 99/99/99 98/98/98
f 100/100/100 101/101/101 99/99/99
f 102/102/102 101/101/101 100/100/100
