g Propella49
v 6.195957 -3.434959 0.6689301
v 6.195957 2.756821 0.6689301
v 4.854263 2.756821 -3.908058
v 4.854263 -3.434959 -3.908058
v 0.6690445 2.756691 -6.195957
v 0.6690445 -3.434959 -6.195957
v -3.908081 2.756821 -4.854263
v -3.908081 -3.434959 -4.854263
v -6.195847 -3.434959 -0.6689072
v -6.195847 2.756691 -0.6689072
v -4.854149 2.756821 3.908081
v -4.854149 -3.434959 3.908081
v -0.6689301 2.756821 6.195976
v -0.6689301 -3.434959 6.195976
v 3.908058 2.756821 4.854279
v 3.908058 -3.434959 4.854279
v 6.195957 2.756821 0.6689301
v 6.195957 -3.434959 0.6689301
v 40.91867 -3.568382 -33.57111
v 17.52913 5.164322 -49.36526
v 25.55112 4.338257 -59.3659
v 47.22421 -2.715469 -44.73072
v 49.70042 -0.3457108 -63.18487
v 40.79494 2.279465 -69.19857
v 46.4622 0.9868088 -68.13197
v 49.13907 -2.403969 -63.56375
v 45.83707 -1.342682 -68.5543
v 46.72785 -4.348473 -45.06588
v 40.08968 -0.3063736 -69.67446
v 24.66405 1.419914 -59.96486
v 40.3358 -5.176926 -33.96474
v 16.48897 2.292892 -50.0676
v 32.52378 -3.641342 -23.82244
v 11.52924 5.23542 -37.99913
v 14.9381 -2.369949 -8.581665
v 3.705002 4.03566 -16.16683
v 6.026386 -0.8998795 -3.602806
v 2.01313 2.589638 -6.312504
v 3.099136 0.8500671 -3.60347
v 13.96093 -4.14315 -9.241482
v 31.88177 -5.235405 -24.25594
v 10.3849 2.392563 -38.77204
v 2.357986 1.591347 -17.07649
v 5.205368 -2.80172 -4.156837
v 1.047394 0.3522415 -6.964615
v 2.184563 -1.205933 -4.221161
v 45.83707 -1.342682 -68.5543
v 40.08968 -0.3063736 -69.67446
v 49.13907 -2.403969 -63.56375
v 46.72785 -4.348473 -45.06588
v 24.66405 1.419914 -59.96486
v 16.48897 2.292892 -50.0676
v 40.3358 -5.176926 -33.96474
v 10.3849 2.392563 -38.77204
v 31.88177 -5.235405 -24.25594
v 13.96093 -4.14315 -9.241482
v 2.357986 1.591347 -17.07649
v 5.205368 -2.80172 -4.156837
v 1.047394 0.3522415 -6.964615
v 2.184563 -1.205933 -4.221161
v -40.91856 -3.568382 33.57114
v -17.52901 5.164322 49.36528
v -25.551 4.338257 59.36593
v -47.2241 -2.715469 44.73074
v -49.70043 -0.3457108 63.18488
v -40.79497 2.279465 69.19859
v -46.46221 0.9868088 68.13198
v -49.13896 -2.403969 63.56376
v -45.83695 -1.342682 68.55431
v -46.72787 -4.348473 45.0659
v -40.08957 -0.3063736 69.67448
v -24.66407 1.419914 59.96487
v -40.33582 -5.176926 33.96477
v -16.48898 2.292892 50.06762
v -32.5238 -3.641342 23.82246
v -31.88179 -5.235405 24.25596
v -13.96095 -4.14315 9.241501
v -14.93799 -2.369949 8.58168
v -11.52927 5.23542 37.99915
v -3.705017 4.03566 16.16685
v -6.026268 -0.8998795 3.602821
v -2.013145 2.589638 6.312523
v -3.099159 0.8500671 3.603485
v -10.38478 2.392563 38.77206
v -2.358009 1.591347 17.07651
v -5.205383 -2.80172 4.156853
v -1.047409 0.3522415 6.96463
v -2.184578 -1.205933 4.221176
v -45.83695 -1.342682 68.55431
v -40.08957 -0.3063736 69.67448
v -49.13896 -2.403969 63.56376
v -46.72787 -4.348473 45.0659
v -24.66407 1.419914 59.96487
v -16.48898 2.292892 50.06762
v -40.33582 -5.176926 33.96477
v -10.38478 2.392563 38.77206
v -31.88179 -5.235405 24.25596
v -13.96095 -4.14315 9.241501
v -2.358009 1.591347 17.07651
v -5.205383 -2.80172 4.156853
v -1.047409 0.3522415 6.96463
v -2.184578 -1.205933 4.221176
vt 8.877266 2.3135
vt 9.148699 2.3135
vt 9.148699 2.034559
vt 8.877266 2.034559
vt 9.148699 1.755629
vt 8.877266 1.755629
vt 9.148699 1.476689
vt 8.877266 1.476689
vt 8.877266 1.197748
vt 9.148699 1.197748
vt 9.148699 0.9188071
vt 8.877266 0.9188071
vt 9.148699 0.639877
vt 8.877266 0.639877
vt 9.148699 0.3609363
vt 8.877266 0.3609363
vt 9.148699 0.07357097
vt 8.877266 0.07357097
vt 1.888611 0.7610458
vt 0.503249 0.7967218
vt 0.5240945 1.464103
vt 1.893503 1.392751
vt 1.500963 2.254064
vt 0.9785317 2.26358
vt 1.242343 2.368456
vt 1.593562 2.348527
vt 1.238748 2.501654
vt 2.009862 1.422752
vt 0.8760866 2.379703
vt 0.3547157 1.522663
vt 2.007864 0.7671221
vt 0.3272891 0.8220061
vt 1.883729 0.1293406
vt 0.4824039 0.1293406
vt 1.580328 -1.012602
vt 0.799729 -1.018339
vt 1.325611 -1.454969
vt 1.048596 -1.463908
vt 1.179127 -1.530049
vt 1.702074 -1.077414
vt 2.005866 0.1115025
vt 0.2998626 0.1213485
vt 0.6365606 -1.073995
vt 1.408725 -1.559257
vt 0.9549776 -1.570174
vt 1.181959 -1.650672
vt 3.752531 2.498153
vt 3.474125 2.614285
vt 4.038176 2.614151
vt 4.473137 3.460335
vt 3.091267 3.460458
vt 3.084943 4.109054
vt 4.461654 4.108992
vt 3.078609 4.75766
vt 4.450171 4.75766
vt 4.124709 5.899458
vt 3.35722 5.898315
vt 3.891177 6.361939
vt 3.590557 6.364195
vt 3.739656 6.446135
vt 1.888611 2.496144
vt 0.503249 2.53182
vt 0.5240945 3.199202
vt 1.893503 3.127849
vt 1.500963 3.989152
vt 0.9785317 3.998679
vt 1.242343 4.103554
vt 1.593562 4.083626
vt 1.238748 4.236742
vt 2.009862 3.157851
vt 0.8760866 4.114801
vt 0.3547157 3.257752
vt 2.007864 2.502221
vt 0.3272891 2.557094
vt 1.883729 1.864439
vt 2.005866 1.846601
vt 1.702074 0.657684
vt 1.580328 0.7224962
vt 0.4824039 1.864439
vt 0.799729 0.7167596
vt 1.325611 0.2801296
vt 1.048596 0.27119
vt 1.179127 0.2050493
vt 0.2998626 1.856437
vt 0.6365606 0.6611034
vt 1.408725 0.1758307
vt 0.9549776 0.1649239
vt 1.181959 0.08442628
vt 1.579412 1.272921
vt 1.301006 1.389053
vt 1.865057 1.388919
vt 2.300018 2.235093
vt 0.9181482 2.235227
vt 0.9118141 2.883822
vt 2.288535 2.883761
vt 0.9054905 3.532429
vt 2.277041 3.532429
vt 1.95159 4.674227
vt 1.184101 4.673084
vt 1.718058 5.136708
vt 1.417438 5.138963
vt 1.566527 5.220903
vn 0.9942212 -0.0009716153 0.1073464
vn 0.9942212 -0.0009716153 0.1073464
vn 0.7784664 -0.0009716153 -0.6276855
vn 0.7784664 -0.0009716153 -0.6276855
vn 0.1078771 -0.0009716153 -0.9941638
vn 0.1078771 -0.0009716153 -0.9941638
vn -0.6268554 -0.0009716153 -0.779135
vn -0.6268554 -0.0009716153 -0.779135
vn -0.9942217 -0.0009716153 -0.107342
vn -0.9942217 -0.0009716153 -0.107342
vn -0.7784669 -0.0009716153 0.6276848
vn -0.7784669 -0.0009716153 0.6276848
vn -0.1078776 -0.0009716153 0.9941637
vn -0.1078776 -0.0009716153 0.9941637
vn 0.6268549 -0.0009716153 0.7791354
vn 0.6268549 -0.0009716153 0.7791354
vn 0.9942212 -0.0009716153 0.1073464
vn 0.9942212 -0.0009716153 0.1073464
vn 0.2964196 0.9339659 0.1996073
vn 0.1506394 0.9825593 0.1090183
vn 0.1292583 0.9903343 0.05030245
vn 0.3100258 0.9339659 0.1777404
vn 0.3197445 0.9378533 0.1348874
vn 0.1525681 0.988293 0
vn 0.5665991 0.5607684 -0.6037419
vn -0.05928421 -0.9903337 -0.1253971
vn 0.3333507 -0.5549366 -0.7621828
vn -0.09232771 -0.9903337 -0.1035116
vn -0.2283894 -0.9378529 -0.2612859
vn -0.2711515 -0.9339654 -0.2327778
vn -0.1525836 -0.9825588 -0.1062848
vn -0.2983639 -0.9320216 -0.2057052
vn 0.3352944 0.9086972 0.2486906
vn 0.1584143 0.9767281 0.1445931
vn 0.3644505 0.881485 0.3002667
vn 0.1623018 0.9728407 0.165043
vn 0.4363687 0.6657301 0.6052981
vn -0.2128395 0.9534032 0.2138261
vn -0.3372387 0.3800008 0.8613184
vn -0.2070082 -0.9728401 -0.1035841
vn -0.1836834 -0.9767276 -0.1107411
vn -0.3605635 -0.9067531 -0.2186156
vn -0.4188756 -0.8795407 -0.225724
vn -0.2147832 -0.9728401 0.08631467
vn -0.9553469 -0.2808697 -0.09178466
vn -0.6968299 -0.3644505 0.617741
vn 0.3333507 -0.5549366 -0.7621828
vn -0.2283894 -0.9378529 -0.2612859
vn -0.05928421 -0.9903337 -0.1253971
vn -0.09232771 -0.9903337 -0.1035116
vn -0.2711515 -0.9339654 -0.2327778
vn -0.2983639 -0.9320216 -0.2057052
vn -0.1525836 -0.9825588 -0.1062848
vn -0.3605635 -0.9067531 -0.2186156
vn -0.1836834 -0.9767276 -0.1107411
vn -0.2070082 -0.9728401 -0.1035841
vn -0.4188756 -0.8795407 -0.225724
vn -0.2147832 -0.9728401 0.08631467
vn -0.9553469 -0.2808697 -0.09178466
vn -0.6968299 -0.3644505 0.617741
vn -0.2964201 0.9339659 -0.1996066
vn -0.1506399 0.9825593 -0.1090175
vn -0.1292588 0.9903343 -0.05030126
vn -0.3100263 0.9339659 -0.1777396
vn -0.3197449 0.9378533 -0.1348863
vn -0.1525685 0.9882929 0
vn -0.5665996 0.5607684 0.6037414
vn 0.05928373 -0.9903337 0.1253973
vn -0.3333511 -0.5549366 0.7621827
vn 0.09232724 -0.9903337 0.1035122
vn 0.2283888 -0.9378529 0.2612864
vn 0.2711511 -0.9339654 0.2327783
vn 0.1525831 -0.9825588 0.1062853
vn 0.2983634 -0.9320216 0.205706
vn -0.3352948 0.9086972 -0.2486899
vn 0.1836829 -0.9767276 0.1107419
vn 0.2070077 -0.9728401 0.1035853
vn -0.3644509 0.881485 -0.3002661
vn -0.1584148 0.9767281 -0.1445925
vn -0.1623023 0.9728407 -0.1650425
vn -0.4363692 0.6657301 -0.6052977
vn 0.2128389 0.9534032 -0.2138266
vn 0.3372381 0.3800008 -0.8613186
vn 0.360563 -0.9067531 0.2186166
vn 0.418875 -0.8795407 0.225725
vn 0.2147827 -0.9728401 -0.08631606
vn 0.9553465 -0.2808697 0.09178953
vn 0.6968294 -0.3644505 -0.6177415
vn -0.3333511 -0.5549366 0.7621827
vn 0.2283888 -0.9378529 0.2612864
vn 0.05928373 -0.9903337 0.1253973
vn 0.09232724 -0.9903337 0.1035122
vn 0.2711511 -0.9339654 0.2327783
vn 0.2983634 -0.9320216 0.205706
vn 0.1525831 -0.9825588 0.1062853
vn 0.360563 -0.9067531 0.2186166
vn 0.1836829 -0.9767276 0.1107419
vn 0.2070077 -0.9728401 0.1035853
vn 0.418875 -0.8795407 0.225725
vn 0.2147827 -0.9728401 -0.08631606
vn 0.9553465 -0.2808697 0.09178953
vn 0.6968294 -0.3644505 -0.6177415
g Propella49_0
f 3/3/3 2/2/2 1/1/1
f 4/4/4 3/3/3 1/1/1
f 5/5/5 3/3/3 4/4/4
f 6/6/6 5/5/5 4/4/4
f 7/7/7 5/5/5 6/6/6
f 8/8/8 7/7/7 6/6/6
f 8/8/8 9/9/9 7/7/7
f 9/9/9 10/10/10 7/7/7
f 11/11/11 10/10/10 9/9/9
f 12/12/12 11/11/11 9/9/9
f 13/13/13 11/11/11 12/12/12
f 14/14/14 13/13/13 12/12/12
f 15/15/15 13/13/13 14/14/14
f 16/16/16 15/15/15 14/14/14
f 17/17/17 15/15/15 16/16/16
f 18/18/18 17/17/17 16/16/16
f 21/21/21 20/20/20 19/19/19
f 22/22/22 21/21/21 19/19/19
f 22/22/22 23/23/23 21/21/21
f 23/23/23 24/24/24 21/21/21
f 24/24/24 23/23/23 25/25/25
f 25/25/25 23/23/23 26/26/26
f 27/27/27 25/25/25 26/26/26
f 24/24/24 25/25/25 27/27/27
f 28/28/28 26/26/26 23/23/23
f 22/22/22 28/28/28 23/23/23
f 28/28/28 22/22/22 19/19/19
f 29/29/29 24/24/24 27/27/27
f 24/24/24 29/29/29 30/30/30
f 21/21/21 24/24/24 30/30/30
f 31/31/31 28/28/28 19/19/19
f 32/32/32 20/20/20 21/21/21
f 30/30/30 32/32/32 21/21/21
f 19/19/19 20/20/20 33/33/33
f 31/31/31 19/19/19 33/33/33
f 20/20/20 34/34/34 33/33/33
f 34/34/34 20/20/20 32/32/32
f 33/33/33 34/34/34 35/35/35
f 34/34/34 36/36/36 35/35/35
f 36/36/36 37/37/37 35/35/35
f 36/36/36 38/38/38 37/37/37
f 38/38/38 39/39/39 37/37/37
f 33/33/33 35/35/35 40/40/40
f 41/41/41 33/33/33 40/40/40
f 41/41/41 31/31/31 33/33/33
f 36/36/36 34/34/34 42/42/42
f 42/42/42 34/34/34 32/32/32
f 43/43/43 36/36/36 42/42/42
f 35/35/35 37/37/37 44/44/44
f 40/40/40 35/35/35 44/44/44
f 45/45/45 38/38/38 36/36/36
f 43/43/43 45/45/45 36/36/36
f 39/39/39 38/38/38 45/45/45
f 37/37/37 39/39/39 46/46/46
f 44/44/44 37/37/37 46/46/46
f 46/46/46 39/39/39 45/45/45
f 49/49/49 48/48/48 47/47/47
f 48/48/48 49/49/49 50/50/50
f 51/51/51 48/48/48 50/50/50
f 51/51/51 50/50/50 52/52/52
f 50/50/50 53/53/53 52/52/52
f 52/52/52 53/53/53 54/54/54
f 53/53/53 55/55/55 54/54/54
f 55/55/55 56/56/56 54/54/54
f 56/56/56 57/57/57 54/54/54
f 58/58/58 57/57/57 56/56/56
f 58/58/58 59/59/59 57/57/57
f 60/60/60 59/59/59 58/58/58
f 63/63/63 62/62/62 61/61/61
f 64/64/64 63/63/63 61/61/61
f 63/63/63 64/64/64 65/65/65
f 66/66/66 63/63/63 65/65/65
f 66/66/66 65/65/65 67/67/67
f 67/67/67 65/65/65 68/68/68
f 65/65/65 64/64/64 68/68/68
f 69/69/69 67/67/67 68/68/68
f 66/66/66 67/67/67 69/69/69
f 64/64/64 70/70/70 68/68/68
f 71/71/71 66/66/66 69/69/69
f 66/66/66 71/71/71 63/63/63
f 71/71/71 72/72/72 63/63/63
f 64/64/64 61/61/61 73/73/73
f 70/70/70 64/64/64 73/73/73
f 74/74/74 62/62/62 63/63/63
f 72/72/72 74/74/74 63/63/63
f 73/73/73 61/61/61 75/75/75
f 61/61/61 62/62/62 75/75/75
f 76/76/76 73/73/73 75/75/75
f 76/76/76 75/75/75 77/77/77
f 75/75/75 78/78/78 77/77/77
f 75/75/75 79/79/79 78/78/78
f 79/79/79 80/80/80 78/78/78
f 80/80/80 81/81/81 78/78/78
f 80/80/80 82/82/82 81/81/81
f 82/82/82 83/83/83 81/81/81
f 80/80/80 79/79/79 84/84/84
f 84/84/84 79/79/79 74/74/74
f 85/85/85 80/80/80 84/84/84
f 82/82/82 80/80/80 85/85/85
f 78/78/78 81/81/81 86/86/86
f 77/77/77 78/78/78 86/86/86
f 87/87/87 82/82/82 85/85/85
f 83/83/83 82/82/82 87/87/87
f 81/81/81 83/83/83 88/88/88
f 86/86/86 81/81/81 88/88/88
f 88/88/88 83/83/83 87/87/87
f 79/79/79 62/62/62 74/74/74
f 62/62/62 79/79/79 75/75/75
f 91/91/91 90/90/90 89/89/89
f 91/91/91 92/92/92 90/90/90
f 92/92/92 93/93/93 90/90/90
f 93/93/93 92/92/92 94/94/94
f 92/92/92 95/95/95 94/94/94
f 94/94/94 95/95/95 96/96/96
f 95/95/95 97/97/97 96/96/96
f 97/97/97 98/98/98 96/96/96
f 98/98/98 99/99/99 96/96/96
f 100/100/100 99/99/99 98/98/98
f 100/100/100 101/101/101 99/99/99
f 102/102/102 101/101/101 100/100/100
