g Propella32
v 41.19258 -3.568359 38.98718
v 54.42473 5.164307 14.05863
v 65.21751 4.338249 20.97811
v 52.95634 -2.715508 44.0772
v 55.16122 3.982658 12.76018
v 66.003 3.083321 19.89121
v 65.71921 1.419815 20.03274
v 55.01304 2.292793 12.95011
v 40.98991 -4.626831 39.45632
v 52.90363 -3.734901 44.60437
v 53.23717 -4.348518 43.54826
v 41.52226 -5.176949 38.36601
v 30.61076 -3.641342 31.67036
v 42.48777 5.235512 9.294441
v 13.59562 -2.36998 15.79498
v 19.95049 4.03566 3.822777
v 7.702339 -0.8998108 7.459793
v 9.972366 2.589615 3.18251
v 7.393532 0.8500137 4.548912
v 43.09058 4.07119 7.944031
v 20.40644 3.091469 2.328033
v 43.13529 2.392578 8.0746
v 20.71259 1.591393 2.3871
v 10.51878 0.3521576 2.153198
v 9.978439 1.680359 1.900787
v 7.910927 -1.205956 3.574074
v 6.900856 -0.1770859 3.659935
v 8.166588 -2.801811 6.584885
v 7.146156 -2.05703 7.223083
v 14.14854 -4.143188 14.75352
v 13.25868 -3.533569 15.75767
v 30.9739 -5.23542 30.98613
v 30.3212 -4.697151 31.96304
v 71.44846 3.608864 27.02728
v 76.60717 2.279472 35.09657
v 71.56882 -0.3458481 44.58809
v 61.71017 -1.839706 45.37344
v 76.14573 0.9868011 40.84492
v 72.39176 2.425591 26.10011
v 77.61517 1.115891 34.50471
v 77.00569 -0.3063202 34.34499
v 76.49969 -1.342743 40.17845
v 77.07704 -0.1770859 40.90769
v 72.02699 -1.499069 45.07188
v 71.88621 -2.403885 43.98986
v 61.87775 -2.945557 45.94501
v 62.01779 -3.680573 44.79371
v 71.91182 0.8640747 26.15399
v 76.49969 -1.342743 40.17845
v 77.00569 -0.3063202 34.34499
v 71.88621 -2.403885 43.98986
v 71.91182 0.8640747 26.15399
v 62.01779 -3.680573 44.79371
v 53.23717 -4.348518 43.54826
v 65.71921 1.419815 20.03274
v 55.01304 2.292793 12.95011
v 41.52226 -5.176949 38.36601
v 43.13529 2.392578 8.0746
v 30.9739 -5.23542 30.98613
v 14.14854 -4.143188 14.75352
v 20.71259 1.591393 2.3871
v 8.166588 -2.801811 6.584885
v 10.51878 0.3521576 2.153198
v 7.910927 -1.205956 3.574074
v -30.61026 -3.641342 -31.67013
v -42.48727 5.235512 -9.294205
v -54.42423 5.164307 -14.05839
v -41.19208 -3.568359 -38.98695
v -13.59512 -2.36998 -15.79474
v -19.94998 4.03566 -3.82254
v -7.701843 -0.8998108 -7.459557
v -9.972015 2.589615 -3.182274
v -7.393028 0.8500137 -4.548668
v -30.32069 -4.697151 -31.9628
v -40.98941 -4.626831 -39.45608
v -41.52176 -5.176949 -38.36578
v -30.9734 -5.23542 -30.98589
v -13.25818 -3.533569 -15.75758
v -14.14804 -4.143188 -14.75328
v -7.14566 -2.05703 -7.222847
v -8.166092 -2.801811 -6.584648
v -6.90036 -0.1770859 -3.659698
v -7.910423 -1.205956 -3.573982
v -9.977936 1.680359 -1.900551
v -10.51828 0.3521576 -2.152954
v -20.40594 3.091469 -2.327789
v -20.71209 1.591393 -2.386856
v -43.13479 2.392578 -8.074509
v -43.09008 4.07119 -7.943939
v -55.01254 2.292793 -12.94987
v -55.16073 3.982658 -12.75994
v -65.217 4.338249 -20.97787
v -52.95583 -2.715508 -44.07711
v -61.70966 -1.839706 -45.3732
v -71.44796 3.608864 -27.02703
v -72.39126 2.425591 -26.09987
v -66.00249 3.083321 -19.89097
v -71.91132 0.8640747 -26.15376
v -65.71871 1.419815 -20.0325
v -52.90313 -3.734901 -44.60413
v -61.87725 -2.945557 -45.94477
v -62.0173 -3.680573 -44.79347
v -53.23666 -4.348518 -43.54817
v -71.56832 -0.3458481 -44.58785
v -76.60667 2.279472 -35.09649
v -76.14523 0.9868011 -40.84468
v -77.07655 -0.1770859 -40.90746
v -77.61466 1.115891 -34.50448
v -76.4992 -1.342743 -40.17836
v -72.0265 -1.499069 -45.07164
v -71.8857 -2.403885 -43.98962
v -77.0052 -0.3063202 -34.34475
v -76.4992 -1.342743 -40.17836
v -77.0052 -0.3063202 -34.34475
v -71.8857 -2.403885 -43.98962
v -71.91132 0.8640747 -26.15376
v -62.0173 -3.680573 -44.79347
v -65.71871 1.419815 -20.0325
v -53.23666 -4.348518 -43.54817
v -41.52176 -5.176949 -38.36578
v -55.01254 2.292793 -12.94987
v -43.13479 2.392578 -8.074509
v -30.9734 -5.23542 -30.98589
v -14.14804 -4.143188 -14.75328
v -20.71209 1.591393 -2.386856
v -8.166092 -2.801811 -6.584648
v -10.51828 0.3521576 -2.152954
v -7.910423 -1.205956 -3.573982
vt 1.889466 0.7613907
vt 0.5034764 0.7970889
vt 0.5243344 1.464772
vt 1.894356 1.393384
vt 0.4103489 0.8103685
vt 0.4350541 1.49633
vt 0.3548818 1.523353
vt 0.3274341 0.8223736
vt 1.946865 0.764782
vt 1.951477 1.408865
vt 2.010768 1.423396
vt 2.008775 0.7674704
vt 1.884584 0.129398
vt 0.4826183 0.129398
vt 1.581044 -1.013062
vt 0.8000941 -1.018794
vt 1.326205 -1.455632
vt 1.049078 -1.46457
vt 1.179657 -1.530737
vt 0.3856435 0.1244074
vt 0.7115862 -1.051341
vt 0.299994 0.1214024
vt 0.6368446 -1.074478
vt 0.9554019 -1.570885
vt 1.000193 -1.52526
vt 1.182492 -1.65142
vt 1.181983 -1.595575
vt 1.409359 -1.559969
vt 1.365526 -1.509423
vt 1.70284 -1.0779
vt 1.635909 -1.044056
vt 2.006774 0.1115527
vt 1.942253 0.1206993
vt 0.751657 1.864684
vt 0.9789715 2.264603
vt 1.501645 2.255086
vt 1.698004 1.824234
vt 1.242904 2.369535
vt 0.6809015 1.913391
vt 0.9267569 2.330445
vt 0.8764811 2.380783
vt 1.239311 2.502787
vt 1.244225 2.4427
vt 1.547254 2.305431
vt 1.594285 2.349588
vt 1.749362 1.857144
vt 1.802527 1.886492
vt 0.6156776 1.952064
vt 3.754235 2.499288
vt 3.475702 2.615475
vt 4.040006 2.615336
vt 3.284186 3.038748
vt 4.257586 3.038616
vt 4.475168 3.461897
vt 3.09267 3.462028
vt 3.086335 4.110924
vt 4.463673 4.110854
vt 3.080008 4.759819
vt 4.452186 4.759819
vt 4.126575 5.902132
vt 3.358742 5.900989
vt 3.892941 6.364826
vt 3.592191 6.367083
vt 3.741349 6.449055
vt 1.884584 1.865279
vt 0.4826183 1.865279
vt 0.5034764 2.53297
vt 1.889466 2.497271
vt 1.581044 0.7228186
vt 0.8000941 0.7170866
vt 1.326205 0.280256
vt 1.049078 0.2713103
vt 1.179657 0.2051437
vt 1.942253 1.85658
vt 1.946865 2.500663
vt 2.008775 2.503359
vt 2.006774 1.847433
vt 1.635909 0.6918252
vt 1.70284 0.6579809
vt 1.365526 0.2264576
vt 1.409359 0.1759115
vt 1.181983 0.1403136
vt 1.182492 0.08446038
vt 1.000193 0.2106286
vt 0.9554019 0.1650035
vt 0.7115862 0.6845403
vt 0.6368446 0.6614032
vt 0.299994 1.857283
vt 0.3856435 1.860288
vt 0.3274341 2.558254
vt 0.4103489 2.546249
vt 0.5243344 3.200653
vt 1.894356 3.129264
vt 1.698004 3.560115
vt 0.7516491 3.600572
vt 0.6809015 3.649272
vt 0.4350541 3.232218
vt 0.6156776 3.687952
vt 0.3548818 3.259233
vt 1.951477 3.144746
vt 1.749362 3.593033
vt 1.802527 3.622373
vt 2.010768 3.159277
vt 1.501645 3.990966
vt 0.9789715 4.000484
vt 1.242904 4.105415
vt 1.244225 4.178589
vt 0.9267569 4.066326
vt 1.239311 4.238667
vt 1.547254 4.041311
vt 1.594285 4.085477
vt 0.8764811 4.116663
vt 1.580125 1.273503
vt 1.3016 1.389683
vt 1.865897 1.389552
vt 1.110076 1.812963
vt 2.083477 1.812832
vt 0.9185603 2.236244
vt 2.301059 2.236113
vt 2.289571 2.88507
vt 0.9122334 2.885132
vt 0.9058986 3.534027
vt 2.278076 3.534027
vt 1.952466 4.67634
vt 1.18464 4.675197
vt 1.718832 5.139035
vt 1.418081 5.141291
vt 1.56724 5.22327
vn -0.1566585 0.9442209 0.2896636
vn -0.1123703 0.971179 0.2102005
vn -0.09118879 0.9769558 0.192982
vn -0.1393284 0.9519233 0.2728182
vn 0.4402713 0.393505 -0.8070409
vn 0.5943178 0.3453654 -0.7262982
vn 0.1418064 -0.9582524 -0.2482806
vn 0.143732 -0.9524757 -0.2685727
vn -0.4339421 -0.3940574 0.8101932
vn -0.2529376 -0.3382156 0.9064396
vn 0.09751803 -0.9813594 -0.165602
vn 0.1052204 -0.9755827 -0.1927878
vn -0.1874678 0.9249651 0.3305983
vn -0.1393284 0.9615511 0.2366583
vn -0.2202027 0.9076349 0.357365
vn -0.1624353 0.9538488 0.2525612
vn -0.4012072 0.7998024 0.446485
vn -0.2182771 0.9634767 0.1551381
vn -0.695821 0.7073746 0.1243153
vn 0.2477133 0.453198 -0.8563
vn 0.1244761 0.4878584 -0.8640022
vn 0.1552855 -0.9351454 -0.318417
vn 0.1649134 -0.9158897 -0.3659914
vn 0.05900645 -0.6251271 -0.7782894
vn -0.1759144 0.4416444 -0.8797751
vn -0.2895236 -0.7098526 -0.6420946
vn -0.8768256 0.006463289 -0.4807652
vn 0.03975064 -0.960178 -0.2765467
vn -0.8383139 -0.4383457 0.3241647
vn 0.1186994 -0.9621036 -0.2454936
vn -0.6611606 -0.4941876 0.5644868
vn 0.1129227 -0.9678803 -0.2246245
vn -0.5879885 -0.455676 0.668303
vn -0.05652833 0.9827325 0.1761855
vn -0.006463289 0.9827325 0.1849189
vn -0.08541214 0.9499977 0.3003484
vn -0.1200725 0.9538488 0.2752362
vn 0.3208854 0.8594954 0.3978697
vn 0.7656944 0.3010771 -0.5683878
vn 0.9332199 0.227905 -0.277777
vn 0.2034249 -0.9563268 -0.2098982
vn 0.5057411 -0.8619734 0.03504077
vn 0.8908571 0.004537702 0.454261
vn 0.3420667 -0.2149785 0.9147539
vn 0.1283273 -0.9871361 -0.09536434
vn 0.01279253 -0.2900761 0.9569181
vn 0.09944361 -0.9871361 -0.125193
vn 0.1610622 -0.9582524 -0.2362441
vn 0.5057411 -0.8619734 0.03504077
vn 0.2034249 -0.9563268 -0.2098982
vn 0.1283273 -0.9871361 -0.09536434
vn 0.1610622 -0.9582524 -0.2362441
vn 0.09944361 -0.9871361 -0.125193
vn 0.09751803 -0.9813594 -0.165602
vn 0.1418064 -0.9582524 -0.2482806
vn 0.143732 -0.9524757 -0.2685727
vn 0.1052204 -0.9755827 -0.1927878
vn 0.1552855 -0.9351454 -0.318417
vn 0.1129227 -0.9678803 -0.2246245
vn 0.1186994 -0.9621036 -0.2454936
vn 0.1649134 -0.9158897 -0.3659914
vn 0.03975064 -0.960178 -0.2765467
vn 0.05900645 -0.6251271 -0.7782894
vn -0.2895236 -0.7098526 -0.6420946
vn 0.1880203 0.9249651 -0.3302844
vn 0.1398808 0.9615511 -0.2363322
vn 0.1109971 0.971179 -0.2109289
vn 0.1552855 0.9442209 -0.290402
vn 0.2188296 0.9076349 -0.3582075
vn 0.1629878 0.9538488 -0.2522051
vn 0.3998342 0.7998024 -0.447715
vn 0.2188296 0.9634767 -0.1543579
vn 0.6963735 0.7073746 -0.1211826
vn 0.588541 -0.455676 -0.6678165
vn 0.4344946 -0.3940574 -0.809897
vn -0.1046679 -0.9755827 0.1930882
vn -0.1123703 -0.9678803 0.2249014
vn 0.6617131 -0.4941876 -0.5638391
vn -0.1181469 -0.9621036 0.24576
vn 0.8369409 -0.4383457 -0.3276934
vn -0.03919816 -0.960178 0.2766255
vn 0.877378 0.006463289 0.4797561
vn 0.2900761 -0.7098526 0.6418452
vn 0.1745412 0.4416444 0.8800486
vn -0.05845392 -0.6251271 0.7783311
vn -0.1258492 0.4878584 0.8638033
vn -0.1643609 -0.9158897 0.3662398
vn -0.1566585 -0.9351454 0.3177437
vn -0.2471608 0.453198 0.8564597
vn -0.1451051 -0.9524757 0.2678332
vn -0.4397188 0.393505 0.8073421
vn 0.09174132 0.9769558 -0.1927199
vn 0.1379552 0.9519233 -0.2735151
vn 0.1186994 0.9538488 -0.2758312
vn 0.05708086 0.9827325 -0.1760073
vn -0.765142 0.3010771 0.5691312
vn -0.5937653 0.3453654 0.72675
vn -0.1605097 -0.9582524 0.2366198
vn -0.1431795 -0.9582524 0.2474913
vn 0.2515644 -0.3382156 -0.9068217
vn -0.01224005 -0.2900761 -0.9569253
vn -0.09889114 -0.9871361 0.1256298
vn -0.09889114 -0.9813594 0.1647857
vn 0.08403897 0.9499977 -0.3007356
vn 0.007015765 0.9827325 -0.1848988
vn -0.3203329 0.8594954 -0.3983146
vn -0.8903047 0.004537702 -0.4553427
vn -0.9326674 0.227905 0.2796263
vn -0.5051886 -0.8619734 -0.04226525
vn -0.3415142 -0.2149785 -0.9149603
vn -0.1277748 -0.9871361 0.09610338
vn -0.2028725 -0.9563268 0.2104322
vn -0.5051886 -0.8619734 -0.04226525
vn -0.2028725 -0.9563268 0.2104322
vn -0.1277748 -0.9871361 0.09610338
vn -0.1605097 -0.9582524 0.2366198
vn -0.09889114 -0.9871361 0.1256298
vn -0.1431795 -0.9582524 0.2474913
vn -0.09889114 -0.9813594 0.1647857
vn -0.1046679 -0.9755827 0.1930882
vn -0.1451051 -0.9524757 0.2678332
vn -0.1566585 -0.9351454 0.3177437
vn -0.1123703 -0.9678803 0.2249014
vn -0.1181469 -0.9621036 0.24576
vn -0.1643609 -0.9158897 0.3662398
vn -0.03919816 -0.960178 0.2766255
vn -0.05845392 -0.6251271 0.7783311
vn 0.2900761 -0.7098526 0.6418452
g Propella32_0
f 3/3/3 2/2/2 1/1/1
f 4/4/4 3/3/3 1/1/1
f 2/2/2 3/3/3 5/5/5
f 3/3/3 6/6/6 5/5/5
f 6/6/6 7/7/7 5/5/5
f 7/7/7 8/8/8 5/5/5
f 4/4/4 1/1/1 9/9/9
f 10/10/10 4/4/4 9/9/9
f 10/10/10 9/9/9 11/11/11
f 9/9/9 12/12/12 11/11/11
f 1/1/1 2/2/2 13/13/13
f 2/2/2 14/14/14 13/13/13
f 2/2/2 5/5/5 14/14/14
f 13/13/13 14/14/14 15/15/15
f 14/14/14 16/16/16 15/15/15
f 16/16/16 17/17/17 15/15/15
f 16/16/16 18/18/18 17/17/17
f 18/18/18 19/19/19 17/17/17
f 14/14/14 20/20/20 16/16/16
f 5/5/5 8/8/8 20/20/20
f 5/5/5 20/20/20 14/14/14
f 20/20/20 21/21/21 16/16/16
f 18/18/18 16/16/16 21/21/21
f 20/20/20 22/22/22 21/21/21
f 8/8/8 22/22/22 20/20/20
f 22/22/22 23/23/23 21/21/21
f 21/21/21 23/23/23 24/24/24
f 25/25/25 21/21/21 24/24/24
f 25/25/25 18/18/18 21/21/21
f 24/24/24 26/26/26 25/25/25
f 26/26/26 27/27/27 25/25/25
f 17/17/17 19/19/19 27/27/27
f 27/27/27 19/19/19 18/18/18
f 25/25/25 27/27/27 18/18/18
f 27/27/27 26/26/26 28/28/28
f 29/29/29 27/27/27 28/28/28
f 15/15/15 17/17/17 29/29/29
f 29/29/29 17/17/17 27/27/27
f 29/29/29 28/28/28 30/30/30
f 31/31/31 29/29/29 30/30/30
f 31/31/31 30/30/30 32/32/32
f 33/33/33 31/31/31 32/32/32
f 33/33/33 13/13/13 31/31/31
f 13/13/13 15/15/15 31/31/31
f 31/31/31 15/15/15 29/29/29
f 1/1/1 13/13/13 33/33/33
f 9/9/9 1/1/1 33/33/33
f 33/33/33 32/32/32 12/12/12
f 9/9/9 33/33/33 12/12/12
f 36/36/36 35/35/35 34/34/34
f 37/37/37 36/36/36 34/34/34
f 35/35/35 36/36/36 38/38/38
f 34/34/34 35/35/35 39/39/39
f 35/35/35 40/40/40 39/39/39
f 40/40/40 41/41/41 39/39/39
f 42/42/42 41/41/41 40/40/40
f 43/43/43 42/42/42 40/40/40
f 43/43/43 40/40/40 35/35/35
f 38/38/38 43/43/43 35/35/35
f 43/43/43 44/44/44 42/42/42
f 38/38/38 36/36/36 44/44/44
f 43/43/43 38/38/38 44/44/44
f 44/44/44 45/45/45 42/42/42
f 44/44/44 46/46/46 45/45/45
f 36/36/36 37/37/37 46/46/46
f 44/44/44 36/36/36 46/46/46
f 46/46/46 47/47/47 45/45/45
f 41/41/41 48/48/48 39/39/39
f 37/37/37 34/34/34 3/3/3
f 34/34/34 39/39/39 3/3/3
f 4/4/4 37/37/37 3/3/3
f 37/37/37 4/4/4 10/10/10
f 46/46/46 37/37/37 10/10/10
f 46/46/46 10/10/10 47/47/47
f 10/10/10 11/11/11 47/47/47
f 39/39/39 48/48/48 6/6/6
f 39/39/39 6/6/6 3/3/3
f 48/48/48 7/7/7 6/6/6
f 51/51/51 50/50/50 49/49/49
f 52/52/52 50/50/50 51/51/51
f 53/53/53 52/52/52 51/51/51
f 53/53/53 54/54/54 52/52/52
f 54/54/54 55/55/55 52/52/52
f 55/55/55 54/54/54 56/56/56
f 54/54/54 57/57/57 56/56/56
f 56/56/56 57/57/57 58/58/58
f 57/57/57 59/59/59 58/58/58
f 59/59/59 60/60/60 58/58/58
f 60/60/60 61/61/61 58/58/58
f 62/62/62 61/61/61 60/60/60
f 62/62/62 63/63/63 61/61/61
f 64/64/64 63/63/63 62/62/62
f 67/67/67 66/66/66 65/65/65
f 68/68/68 67/67/67 65/65/65
f 65/65/65 66/66/66 69/69/69
f 66/66/66 70/70/70 69/69/69
f 70/70/70 71/71/71 69/69/69
f 70/70/70 72/72/72 71/71/71
f 72/72/72 73/73/73 71/71/71
f 68/68/68 65/65/65 74/74/74
f 75/75/75 68/68/68 74/74/74
f 75/75/75 74/74/74 76/76/76
f 74/74/74 77/77/77 76/76/76
f 74/74/74 78/78/78 77/77/77
f 65/65/65 69/69/69 78/78/78
f 74/74/74 65/65/65 78/78/78
f 78/78/78 79/79/79 77/77/77
f 78/78/78 80/80/80 79/79/79
f 69/69/69 71/71/71 80/80/80
f 78/78/78 69/69/69 80/80/80
f 80/80/80 81/81/81 79/79/79
f 80/80/80 82/82/82 81/81/81
f 71/71/71 73/73/73 82/82/82
f 80/80/80 71/71/71 82/82/82
f 82/82/82 73/73/73 72/72/72
f 82/82/82 83/83/83 81/81/81
f 83/83/83 82/82/82 84/84/84
f 84/84/84 82/82/82 72/72/72
f 85/85/85 83/83/83 84/84/84
f 84/84/84 86/86/86 85/85/85
f 84/84/84 72/72/72 86/86/86
f 86/86/86 87/87/87 85/85/85
f 88/88/88 87/87/87 86/86/86
f 89/89/89 88/88/88 86/86/86
f 90/90/90 88/88/88 89/89/89
f 91/91/91 90/90/90 89/89/89
f 89/89/89 86/86/86 70/70/70
f 72/72/72 70/70/70 86/86/86
f 66/66/66 89/89/89 70/70/70
f 91/91/91 89/89/89 66/66/66
f 67/67/67 91/91/91 66/66/66
f 67/67/67 92/92/92 91/91/91
f 92/92/92 67/67/67 68/68/68
f 93/93/93 92/92/92 68/68/68
f 93/93/93 94/94/94 92/92/92
f 94/94/94 95/95/95 92/92/92
f 95/95/95 96/96/96 92/92/92
f 96/96/96 97/97/97 92/92/92
f 92/92/92 97/97/97 91/91/91
f 91/91/91 97/97/97 90/90/90
f 96/96/96 98/98/98 97/97/97
f 98/98/98 99/99/99 97/97/97
f 97/97/97 99/99/99 90/90/90
f 94/94/94 93/93/93 100/100/100
f 100/100/100 93/93/93 68/68/68
f 101/101/101 94/94/94 100/100/100
f 101/101/101 100/100/100 102/102/102
f 100/100/100 103/103/103 102/102/102
f 100/100/100 75/75/75 103/103/103
f 75/75/75 100/100/100 68/68/68
f 75/75/75 76/76/76 103/103/103
f 94/94/94 104/104/104 95/95/95
f 104/104/104 105/105/105 95/95/95
f 95/95/95 105/105/105 96/96/96
f 105/105/105 104/104/104 106/106/106
f 106/106/106 107/107/107 105/105/105
f 107/107/107 108/108/108 105/105/105
f 105/105/105 108/108/108 96/96/96
f 96/96/96 108/108/108 98/98/98
f 107/107/107 109/109/109 108/108/108
f 107/107/107 110/110/110 109/109/109
f 106/106/106 104/104/104 110/110/110
f 107/107/107 106/106/106 110/110/110
f 110/110/110 111/111/111 109/109/109
f 101/101/101 102/102/102 111/111/111
f 110/110/110 101/101/101 111/111/111
f 109/109/109 112/112/112 108/108/108
f 108/108/108 112/112/112 98/98/98
f 110/110/110 104/104/104 94/94/94
f 101/101/101 110/110/110 94/94/94
f 115/115/115 114/114/114 113/113/113
f 116/116/116 114/114/114 115/115/115
f 117/117/117 116/116/116 115/115/115
f 118/118/118 116/116/116 117/117/117
f 119/119/119 118/118/118 117/117/117
f 118/118/118 119/119/119 120/120/120
f 121/121/121 118/118/118 120/120/120
f 121/121/121 120/120/120 122/122/122
f 120/120/120 123/123/123 122/122/122
f 123/123/123 124/124/124 122/122/122
f 124/124/124 125/125/125 122/122/122
f 126/126/126 125/125/125 124/124/124
f 126/126/126 127/127/127 125/125/125
f 128/128/128 127/127/127 126/126/126
