g Propella31
v 52.06577 -3.56839 -22.49051
v 34.37042 5.164375 -44.47682
v 44.98361 4.338272 -51.6687
v 61.38029 -2.715393 -31.29572
v 33.46735 3.98275 -45.6655
v 44.29426 3.083282 -52.8189
v 44.3125 1.419899 -52.50253
v 33.58347 2.292862 -45.45458
v 52.41704 -4.626846 -22.11941
v 61.84394 -3.734833 -31.03965
v 61.0048 -4.348549 -31.76229
v 51.62476 -5.176918 -23.03831
v 41.17056 -3.641228 -15.64909
v 25.28705 5.235481 -35.384
v 19.87387 -2.369987 -6.268528
v 11.37545 4.035744 -16.82753
v 9.890633 -0.8998108 -4.137497
v 6.854279 2.589539 -7.909672
v 7.093693 0.8499908 -5.000885
v 24.28359 4.071159 -36.47015
v 10.18145 3.091537 -17.83578
v 24.42127 2.392601 -36.4599
v 10.35641 1.5914 -18.09384
v 6.123653 0.3521194 -8.817398
v 5.67878 1.680351 -8.420326
v 6.401684 -1.20594 -5.860672
v 6.082508 -0.1771774 -4.898483
v 9.269463 -2.801811 -4.908875
v 9.453884 -2.056938 -3.719521
v 19.13458 -4.143227 -7.187035
v 19.70676 -3.533638 -5.973454
v 40.6848 -5.235504 -16.25256
v 41.32528 -4.697151 -15.2676
v 52.99906 3.608849 -55.01105
v 62.44834 2.279549 -56.57164
v 69.18576 -0.3457489 -48.20026
v 66.02171 -1.83963 -38.83021
v 67.54955 0.9868698 -53.88202
v 52.51863 2.425621 -56.24354
v 62.30173 1.115898 -57.73142
v 61.91465 -0.3063354 -57.23422
v 67.07657 -1.34269 -54.4699
v 67.97431 -0.1770401 -54.71331
v 69.81093 -1.499016 -48.43062
v 68.76099 -2.403946 -48.72782
v 66.61319 -2.945618 -38.75883
v 65.61026 -3.680511 -39.34126
v 52.37896 0.8641052 -55.78109
v 67.07657 -1.34269 -54.4699
v 61.91465 -0.3063354 -57.23422
v 68.76099 -2.403946 -48.72782
v 52.37896 0.8641052 -55.78109
v 65.61026 -3.680511 -39.34126
v 61.0048 -4.348549 -31.76229
v 44.3125 1.419899 -52.50253
v 33.58347 2.292862 -45.45458
v 51.62476 -5.176918 -23.03831
v 24.42127 2.392601 -36.4599
v 40.6848 -5.235504 -16.25256
v 19.13458 -4.143227 -7.187035
v 10.35641 1.5914 -18.09384
v 9.269463 -2.801811 -4.908875
v 6.123653 0.3521194 -8.817398
v 6.401684 -1.20594 -5.860672
v -41.17266 -3.641228 15.6508
v -25.28916 5.235481 35.38557
v -34.37252 5.164375 44.47839
v -52.06774 -3.56839 22.49209
v -19.87597 -2.369987 6.270096
v -11.37756 4.035744 16.82923
v -9.892738 -0.8998108 4.139069
v -6.856384 2.589539 7.911247
v -7.095802 0.8499908 5.002586
v -41.32738 -4.697151 15.26931
v -52.41914 -4.626846 22.12098
v -51.62686 -5.176918 23.03989
v -40.6869 -5.235504 16.25413
v -19.70886 -3.533638 5.975029
v -19.13669 -4.143227 7.188744
v -9.455986 -2.056938 3.721092
v -9.271431 -2.801811 4.910576
v -6.08448 -0.1771774 4.900192
v -6.403786 -1.20594 5.862373
v -5.680748 1.680351 8.422035
v -6.125755 0.3521194 8.819107
v -10.18356 3.091537 17.83749
v -10.35852 1.5914 18.09541
v -24.42338 2.392601 36.46147
v -24.2857 4.071159 36.47186
v -33.58557 2.292862 45.45615
v -33.46946 3.98275 45.66708
v -44.98572 4.338272 51.67041
v -61.3824 -2.715393 31.29742
v -66.02382 -1.83963 38.83178
v -53.00104 3.608849 55.01262
v -52.52074 2.425621 56.24511
v -44.29636 3.083282 52.82061
v -52.38106 0.8641052 55.78266
v -44.31461 1.419899 52.5041
v -61.84605 -3.734833 31.04123
v -66.61516 -2.945618 38.76054
v -65.61237 -3.680511 39.34296
v -61.0069 -4.348549 31.764
v -69.18787 -0.3457489 48.20183
v -62.45044 2.279549 56.57334
v -67.55151 0.9868698 53.88359
v -67.97641 -0.1770401 54.71488
v -62.30371 1.115898 57.73299
v -67.07854 -1.34269 54.47147
v -69.81303 -1.499016 48.43219
v -68.76297 -2.403946 48.72939
v -61.91675 -0.3063354 57.23592
v -67.07854 -1.34269 54.47147
v -61.91675 -0.3063354 57.23592
v -68.76297 -2.403946 48.72939
v -52.38106 0.8641052 55.78266
v -65.61237 -3.680511 39.34296
v -44.31461 1.419899 52.5041
v -61.0069 -4.348549 31.764
v -51.62686 -5.176918 23.03989
v -33.58557 2.292862 45.45615
v -24.42338 2.392601 36.46147
v -40.6869 -5.235504 16.25413
v -19.13669 -4.143227 7.188744
v -10.35852 1.5914 18.09541
v -9.271431 -2.801811 4.910576
v -6.125755 0.3521194 8.819107
v -6.403786 -1.20594 5.862373
vt 1.889466 0.7613907
vt 0.5034764 0.7970889
vt 0.5243344 1.464772
vt 1.894356 1.393384
vt 0.4103489 0.8103685
vt 0.4350541 1.49633
vt 0.3548818 1.523353
vt 0.3274341 0.8223736
vt 1.946865 0.764782
vt 1.951477 1.408865
vt 2.010768 1.423396
vt 2.008775 0.7674704
vt 1.884584 0.129398
vt 0.4826183 0.129398
vt 1.581044 -1.013062
vt 0.8000941 -1.018794
vt 1.326205 -1.455632
vt 1.049078 -1.46457
vt 1.179657 -1.530737
vt 0.3856435 0.1244074
vt 0.7115862 -1.051341
vt 0.299994 0.1214024
vt 0.6368446 -1.074478
vt 0.9554019 -1.570885
vt 1.000193 -1.52526
vt 1.182492 -1.65142
vt 1.181983 -1.595575
vt 1.409359 -1.559969
vt 1.365526 -1.509423
vt 1.70284 -1.0779
vt 1.635909 -1.044056
vt 2.006774 0.1115527
vt 1.942253 0.1206993
vt 0.751657 1.864684
vt 0.9789715 2.264603
vt 1.501645 2.255086
vt 1.698004 1.824234
vt 1.242904 2.369535
vt 0.6809015 1.913391
vt 0.9267569 2.330445
vt 0.8764811 2.380783
vt 1.239311 2.502787
vt 1.244225 2.4427
vt 1.547254 2.305431
vt 1.594285 2.349588
vt 1.749362 1.857144
vt 1.802527 1.886492
vt 0.6156776 1.952064
vt 3.754235 2.499288
vt 3.475702 2.615475
vt 4.040006 2.615336
vt 3.284186 3.038748
vt 4.257586 3.038616
vt 4.475168 3.461897
vt 3.09267 3.462028
vt 3.086335 4.110924
vt 4.463673 4.110854
vt 3.080008 4.759819
vt 4.452186 4.759819
vt 4.126575 5.902132
vt 3.358742 5.900989
vt 3.892941 6.364826
vt 3.592191 6.367083
vt 3.741349 6.449055
vt 1.884584 1.865279
vt 0.4826183 1.865279
vt 0.5034764 2.53297
vt 1.889466 2.497271
vt 1.581044 0.7228186
vt 0.8000941 0.7170866
vt 1.326205 0.280256
vt 1.049078 0.2713103
vt 1.179657 0.2051437
vt 1.942253 1.85658
vt 1.946865 2.500663
vt 2.008775 2.503359
vt 2.006774 1.847433
vt 1.635909 0.6918252
vt 1.70284 0.6579809
vt 1.365526 0.2264576
vt 1.409359 0.1759115
vt 1.181983 0.1403136
vt 1.182492 0.08446038
vt 1.000193 0.2106286
vt 0.9554019 0.1650035
vt 0.7115862 0.6845403
vt 0.6368446 0.6614032
vt 0.299994 1.857283
vt 0.3856435 1.860288
vt 0.3274341 2.558254
vt 0.4103489 2.546249
vt 0.5243344 3.200653
vt 1.894356 3.129264
vt 1.698004 3.560115
vt 0.7516491 3.600572
vt 0.6809015 3.649272
vt 0.4350541 3.232218
vt 0.6156776 3.687952
vt 0.3548818 3.259233
vt 1.951477 3.144746
vt 1.749362 3.593033
vt 1.802527 3.622373
vt 2.010768 3.159277
vt 1.501645 3.990966
vt 0.9789715 4.000484
vt 1.242904 4.105415
vt 1.244225 4.178589
vt 0.9267569 4.066326
vt 1.239311 4.238667
vt 1.547254 4.041311
vt 1.594285 4.085477
vt 0.8764811 4.116663
vt 1.580125 1.273503
vt 1.3016 1.389683
vt 1.865897 1.389552
vt 1.110076 1.812963
vt 2.083477 1.812832
vt 0.9185603 2.236244
vt 2.301059 2.236113
vt 2.289571 2.88507
vt 0.9122334 2.885132
vt 0.9058986 3.534027
vt 2.278076 3.534027
vt 1.952466 4.67634
vt 1.18464 4.675197
vt 1.718832 5.139035
vt 1.418081 5.141291
vt 1.56724 5.22327
vn 0.2034249 0.9442209 0.2589695
vn 0.1495087 0.971179 0.1856299
vn 0.1418064 0.9769558 0.1595255
vn 0.1957226 0.9519233 0.2356582
vn -0.5687327 0.393505 -0.7222859
vn -0.4339421 0.3453654 -0.832116
vn -0.1682121 -0.9582524 -0.2312077
vn -0.191319 -0.9524757 -0.2370383
vn 0.5731363 -0.3940574 0.7184939
vn 0.7329595 -0.3382156 0.5902377
vn -0.1142958 -0.9813594 -0.1544999
vn -0.1354772 -0.9755827 -0.172871
vn 0.2284575 0.9249651 0.3037213
vn 0.1610622 0.9615511 0.2224377
vn 0.2419366 0.9076349 0.3430243
vn 0.1668389 0.9538488 0.2496741
vn 0.2515644 0.7998024 0.5450059
vn 0.05900645 0.9634767 0.2612106
vn -0.1624353 0.7073746 0.6879215
vn -0.6900443 0.453198 -0.5643142
vn -0.7458861 0.4878584 -0.4534844
vn -0.2336818 -0.9351454 -0.2662627
vn -0.2702678 -0.9158897 -0.2968188
vn -0.6919699 -0.6251271 -0.3611009
vn -0.8768256 0.4416444 -0.1900713
vn -0.7049033 -0.7093035 0
vn -0.7863233 0.006463289 0.6177814
vn -0.241384 -0.960178 -0.1406839
vn -0.02957022 -0.4383457 0.8983198
vn -0.1816911 -0.9621036 -0.2033349
vn 0.2573412 -0.4941876 0.830394
vn -0.1624353 -0.9678803 -0.1918917
vn 0.3825039 -0.455676 0.8037724
vn 0.1398808 0.9827325 0.1211203
vn 0.1668389 0.9827325 0.08000962
vn 0.2438622 0.9499977 0.1950274
vn 0.2092017 0.9538488 0.2154229
vn 0.4903364 0.8594954 -0.1443532
vn -0.2202027 0.3010771 -0.9278272
vn 0.1129227 0.227905 -0.9671131
vn -0.1162214 -0.9563268 -0.2682005
vn 0.2457877 -0.8619734 -0.443385
vn 0.7695456 0.004537702 -0.6385758
vn 0.9755827 -0.2149785 0.04497467
vn -0.03727257 -0.9871361 -0.1554767
vn 0.8850804 -0.2900761 0.3639897
vn -0.08156097 -0.9871361 -0.137514
vn -0.1508818 -0.9582524 -0.2428724
vn 0.2457877 -0.8619734 -0.443385
vn -0.1162214 -0.9563268 -0.2682005
vn -0.03727257 -0.9871361 -0.1554767
vn -0.1508818 -0.9582524 -0.2428724
vn -0.08156097 -0.9871361 -0.137514
vn -0.1142958 -0.9813594 -0.1544999
vn -0.1682121 -0.9582524 -0.2312077
vn -0.191319 -0.9524757 -0.2370383
vn -0.1354772 -0.9755827 -0.172871
vn -0.2336818 -0.9351454 -0.2662627
vn -0.1624353 -0.9678803 -0.1918917
vn -0.1816911 -0.9621036 -0.2033349
vn -0.2702678 -0.9158897 -0.2968188
vn -0.241384 -0.960178 -0.1406839
vn -0.6919699 -0.6251271 -0.3611009
vn -0.7049033 -0.7093035 0
vn -0.227905 0.9249651 -0.3041361
vn -0.1605097 0.9615511 -0.2228366
vn -0.1489562 0.971179 -0.1860736
vn -0.2028725 0.9442209 -0.2594025
vn -0.241384 0.9076349 -0.3434134
vn -0.1682121 0.9538488 -0.2487511
vn -0.2529376 0.7998024 -0.54437
vn -0.05845392 0.9634767 -0.2613348
vn 0.1610622 0.7073746 -0.6882443
vn -0.3819515 -0.455676 -0.8040351
vn -0.5745095 -0.3940574 -0.7173964
vn 0.1341041 -0.9755827 0.1739383
vn 0.1629878 -0.9678803 0.1914228
vn -0.2587143 -0.4941876 -0.8299672
vn 0.1822436 -0.9621036 0.2028397
vn 0.03012276 -0.4383457 -0.8983015
vn 0.2419366 -0.960178 0.1397314
vn 0.7868758 0.006463289 -0.6170775
vn 0.7040758 -0.7098526 -0.01966052
vn 0.877378 0.4416444 0.1875045
vn 0.6925223 -0.6251271 0.3600402
vn 0.744513 0.4878584 0.4557351
vn 0.2708203 -0.9158897 0.2963148
vn 0.2342342 -0.9351454 0.2657769
vn 0.6886712 0.453198 0.5659891
vn 0.1918715 -0.9524757 0.2365913
vn 0.5692852 0.393505 0.7218506
vn -0.1431795 0.9769558 -0.1582943
vn -0.1970958 0.9519233 -0.234511
vn -0.2086493 0.9538488 -0.2159581
vn -0.1393284 0.9827325 -0.1217555
vn 0.2207552 0.3010771 0.9276959
vn 0.4344946 0.3453654 0.8318276
vn 0.1514343 -0.9582524 0.2425282
vn 0.1687645 -0.9582524 0.2308047
vn -0.7343327 -0.3382156 -0.5885285
vn -0.8845279 -0.2900761 -0.3653303
vn 0.08211339 -0.9871361 0.1371849
vn 0.1129227 -0.9813594 0.1555065
vn -0.2433096 0.9499977 -0.1957163
vn -0.1662865 0.9827325 -0.08115169
vn -0.4917095 0.8594954 0.1396047
vn -0.7689931 0.004537702 0.6392409
vn -0.1123703 0.227905 0.9671775
vn -0.2452352 -0.8619734 0.4436908
vn -0.9750302 -0.2149785 -0.05568153
vn 0.03589946 -0.9871361 0.1557996
vn 0.1167738 -0.9563268 0.2679605
vn -0.2452352 -0.8619734 0.4436908
vn 0.1167738 -0.9563268 0.2679605
vn 0.03589946 -0.9871361 0.1557996
vn 0.1514343 -0.9582524 0.2425282
vn 0.08211339 -0.9871361 0.1371849
vn 0.1687645 -0.9582524 0.2308047
vn 0.1129227 -0.9813594 0.1555065
vn 0.1341041 -0.9755827 0.1739383
vn 0.1918715 -0.9524757 0.2365913
vn 0.2342342 -0.9351454 0.2657769
vn 0.1629878 -0.9678803 0.1914228
vn 0.1822436 -0.9621036 0.2028397
vn 0.2708203 -0.9158897 0.2963148
vn 0.2419366 -0.960178 0.1397314
vn 0.6925223 -0.6251271 0.3600402
vn 0.7040758 -0.7098526 -0.01966052
g Propella31_0
f 3/3/3 2/2/2 1/1/1
f 4/4/4 3/3/3 1/1/1
f 2/2/2 3/3/3 5/5/5
f 3/3/3 6/6/6 5/5/5
f 6/6/6 7/7/7 5/5/5
f 7/7/7 8/8/8 5/5/5
f 4/4/4 1/1/1 9/9/9
f 10/10/10 4/4/4 9/9/9
f 10/10/10 9/9/9 11/11/11
f 9/9/9 12/12/12 11/11/11
f 1/1/1 2/2/2 13/13/13
f 2/2/2 14/14/14 13/13/13
f 2/2/2 5/5/5 14/14/14
f 13/13/13 14/14/14 15/15/15
f 14/14/14 16/16/16 15/15/15
f 16/16/16 17/17/17 15/15/15
f 16/16/16 18/18/18 17/17/17
f 18/18/18 19/19/19 17/17/17
f 14/14/14 20/20/20 16/16/16
f 5/5/5 8/8/8 20/20/20
f 5/5/5 20/20/20 14/14/14
f 20/20/20 21/21/21 16/16/16
f 18/18/18 16/16/16 21/21/21
f 20/20/20 22/22/22 21/21/21
f 8/8/8 22/22/22 20/20/20
f 22/22/22 23/23/23 21/21/21
f 21/21/21 23/23/23 24/24/24
f 25/25/25 21/21/21 24/24/24
f 25/25/25 18/18/18 21/21/21
f 24/24/24 26/26/26 25/25/25
f 26/26/26 27/27/27 25/25/25
f 17/17/17 19/19/19 27/27/27
f 27/27/27 19/19/19 18/18/18
f 25/25/25 27/27/27 18/18/18
f 27/27/27 26/26/26 28/28/28
f 29/29/29 27/27/27 28/28/28
f 15/15/15 17/17/17 29/29/29
f 29/29/29 17/17/17 27/27/27
f 29/29/29 28/28/28 30/30/30
f 31/31/31 29/29/29 30/30/30
f 31/31/31 30/30/30 32/32/32
f 33/33/33 31/31/31 32/32/32
f 33/33/33 13/13/13 31/31/31
f 13/13/13 15/15/15 31/31/31
f 31/31/31 15/15/15 29/29/29
f 1/1/1 13/13/13 33/33/33
f 9/9/9 1/1/1 33/33/33
f 33/33/33 32/32/32 12/12/12
f 9/9/9 33/33/33 12/12/12
f 36/36/36 35/35/35 34/34/34
f 37/37/37 36/36/36 34/34/34
f 35/35/35 36/36/36 38/38/38
f 34/34/34 35/35/35 39/39/39
f 35/35/35 40/40/40 39/39/39
f 40/40/40 41/41/41 39/39/39
f 42/42/42 41/41/41 40/40/40
f 43/43/43 42/42/42 40/40/40
f 43/43/43 40/40/40 35/35/35
f 38/38/38 43/43/43 35/35/35
f 43/43/43 44/44/44 42/42/42
f 38/38/38 36/36/36 44/44/44
f 43/43/43 38/38/38 44/44/44
f 44/44/44 45/45/45 42/42/42
f 44/44/44 46/46/46 45/45/45
f 36/36/36 37/37/37 46/46/46
f 44/44/44 36/36/36 46/46/46
f 46/46/46 47/47/47 45/45/45
f 41/41/41 48/48/48 39/39/39
f 37/37/37 34/34/34 3/3/3
f 34/34/34 39/39/39 3/3/3
f 4/4/4 37/37/37 3/3/3
f 37/37/37 4/4/4 10/10/10
f 46/46/46 37/37/37 10/10/10
f 46/46/46 10/10/10 47/47/47
f 10/10/10 11/11/11 47/47/47
f 39/39/39 48/48/48 6/6/6
f 39/39/39 6/6/6 3/3/3
f 48/48/48 7/7/7 6/6/6
f 51/51/51 50/50/50 49/49/49
f 52/52/52 50/50/50 51/51/51
f 53/53/53 52/52/52 51/51/51
f 53/53/53 54/54/54 52/52/52
f 54/54/54 55/55/55 52/52/52
f 55/55/55 54/54/54 56/56/56
f 54/54/54 57/57/57 56/56/56
f 56/56/56 57/57/57 58/58/58
f 57/57/57 59/59/59 58/58/58
f 59/59/59 60/60/60 58/58/58
f 60/60/60 61/61/61 58/58/58
f 62/62/62 61/61/61 60/60/60
f 62/62/62 63/63/63 61/61/61
f 64/64/64 63/63/63 62/62/62
f 67/67/67 66/66/66 65/65/65
f 68/68/68 67/67/67 65/65/65
f 65/65/65 66/66/66 69/69/69
f 66/66/66 70/70/70 69/69/69
f 70/70/70 71/71/71 69/69/69
f 70/70/70 72/72/72 71/71/71
f 72/72/72 73/73/73 71/71/71
f 68/68/68 65/65/65 74/74/74
f 75/75/75 68/68/68 74/74/74
f 75/75/75 74/74/74 76/76/76
f 74/74/74 77/77/77 76/76/76
f 74/74/74 78/78/78 77/77/77
f 65/65/65 69/69/69 78/78/78
f 74/74/74 65/65/65 78/78/78
f 78/78/78 79/79/79 77/77/77
f 78/78/78 80/80/80 79/79/79
f 69/69/69 71/71/71 80/80/80
f 78/78/78 69/69/69 80/80/80
f 80/80/80 81/81/81 79/79/79
f 80/80/80 82/82/82 81/81/81
f 71/71/71 73/73/73 82/82/82
f 80/80/80 71/71/71 82/82/82
f 82/82/82 73/73/73 72/72/72
f 82/82/82 83/83/83 81/81/81
f 83/83/83 82/82/82 84/84/84
f 84/84/84 82/82/82 72/72/72
f 85/85/85 83/83/83 84/84/84
f 84/84/84 86/86/86 85/85/85
f 84/84/84 72/72/72 86/86/86
f 86/86/86 87/87/87 85/85/85
f 88/88/88 87/87/87 86/86/86
f 89/89/89 88/88/88 86/86/86
f 90/90/90 88/88/88 89/89/89
f 91/91/91 90/90/90 89/89/89
f 89/89/89 86/86/86 70/70/70
f 72/72/72 70/70/70 86/86/86
f 66/66/66 89/89/89 70/70/70
f 91/91/91 89/89/89 66/66/66
f 67/67/67 91/91/91 66/66/66
f 67/67/67 92/92/92 91/91/91
f 92/92/92 67/67/67 68/68/68
f 93/93/93 92/92/92 68/68/68
f 93/93/93 94/94/94 92/92/92
f 94/94/94 95/95/95 92/92/92
f 95/95/95 96/96/96 92/92/92
f 96/96/96 97/97/97 92/92/92
f 92/92/92 97/97/97 91/91/91
f 91/91/91 97/97/97 90/90/90
f 96/96/96 98/98/98 97/97/97
f 98/98/98 99/99/99 97/97/97
f 97/97/97 99/99/99 90/90/90
f 94/94/94 93/93/93 100/100/100
f 100/100/100 93/93/93 68/68/68
f 101/101/101 94/94/94 100/100/100
f 101/101/101 100/100/100 102/102/102
f 100/100/100 103/103/103 102/102/102
f 100/100/100 75/75/75 103/103/103
f 75/75/75 100/100/100 68/68/68
f 75/75/75 76/76/76 103/103/103
f 94/94/94 104/104/104 95/95/95
f 104/104/104 105/105/105 95/95/95
f 95/95/95 105/105/105 96/96/96
f 105/105/105 104/104/104 106/106/106
f 106/106/106 107/107/107 105/105/105
f 107/107/107 108/108/108 105/105/105
f 105/105/105 108/108/108 96/96/96
f 96/96/96 108/108/108 98/98/98
f 107/107/107 109/109/109 108/108/108
f 107/107/107 110/110/110 109/109/109
f 106/106/106 104/104/104 110/110/110
f 107/107/107 106/106/106 110/110/110
f 110/110/110 111/111/111 109/109/109
f 101/101/101 102/102/102 111/111/111
f 110/110/110 101/101/101 111/111/111
f 109/109/109 112/112/112 108/108/108
f 108/108/108 112/112/112 98/98/98
f 110/110/110 104/104/104 94/94/94
f 101/101/101 110/110/110 94/94/94
f 115/115/115 114/114/114 113/113/113
f 116/116/116 114/114/114 115/115/115
f 117/117/117 116/116/116 115/115/115
f 118/118/118 116/116/116 117/117/117
f 119/119/119 118/118/118 117/117/117
f 118/118/118 119/119/119 120/120/120
f 121/121/121 118/118/118 120/120/120
f 121/121/121 120/120/120 122/122/122
f 120/120/120 123/123/123 122/122/122
f 123/123/123 124/124/124 122/122/122
f 124/124/124 125/125/125 122/122/122
f 126/126/126 125/125/125 124/124/124
f 126/126/126 127/127/127 125/125/125
f 128/128/128 127/127/127 126/126/126
