g Propella46
v 4.397354 -3.427399 -4.415855
v 4.397354 2.76432 -4.415855
v -0.01301575 2.76432 -6.231964
v -0.01301575 -3.427399 -6.231964
v -4.41571 2.76432 -4.397507
v -4.41571 -3.427399 -4.397507
v -6.231964 2.76432 0.01301575
v -6.231964 -3.427399 0.01301575
v -4.397362 -3.427399 4.415863
v -4.397362 2.76432 4.415863
v 0.01300812 2.76432 6.231964
v 0.01300812 -3.427399 6.231964
v 4.415855 2.76432 4.397362
v 4.415855 -3.427399 4.397362
v 6.231964 2.76432 -0.01300812
v 6.231964 -3.427399 -0.01300812
v 4.397354 2.76432 -4.415855
v 4.397354 -3.427399 -4.415855
v 1.756004 -3.633636 -40.2769
v -22.43701 5.243057 -32.76337
v -27.95227 5.301422 -44.42989
v -0.1864548 -3.694557 -53.05267
v 2.647736 -2.362381 -17.02284
v -10.2965 4.043251 -13.00283
v 0.9584427 -0.8922577 -6.955513
v -3.66613 2.597198 -5.519089
v -0.8731537 0.8576584 -4.672035
v -0.8635254 -5.301422 -52.84252
v 1.016205 -5.227859 -40.04705
v -23.75581 2.400139 -32.35391
v -29.16035 2.433083 -44.05472
v 1.52179 -4.135612 -16.67325
v -11.84876 1.598969 -12.52087
v 0.01255798 -2.794258 -6.661583
v -4.778839 0.3597488 -5.173409
v -1.927048 -1.198372 -4.344704
v -30.33774 4.345764 -57.06831
v -5.362495 -2.707909 -64.82433
v -18.21227 -0.3382339 -78.29928
v -28.4747 2.287018 -75.11234
v -24.09773 0.9944 -78.86699
v -18.85911 -2.396378 -78.09816
v -24.81828 -1.335114 -78.6433
v -5.93457 -4.340942 -64.64683
v -29.28716 -0.2988205 -74.85961
v -31.35974 1.427475 -56.75091
v -24.81828 -1.335114 -78.6433
v -29.28716 -0.2988205 -74.85961
v -18.85911 -2.396378 -78.09816
v -5.93457 -4.340942 -64.64683
v -31.35974 1.427475 -56.75091
v -0.8635254 -5.301422 -52.84252
v -29.16035 2.433083 -44.05472
v -23.75581 2.400139 -32.35391
v 1.016205 -5.227859 -40.04705
v 1.52179 -4.135612 -16.67325
v -11.84876 1.598969 -12.52087
v 0.01255798 -2.794258 -6.661583
v -4.778839 0.3597488 -5.173409
v -1.927048 -1.198372 -4.344704
v -1.755859 -3.633636 40.2769
v 22.43701 5.243057 32.76353
v 27.55258 5.171906 44.55399
v 0.5995255 -3.560829 52.9245
v -2.647743 -2.362381 17.02285
v 10.2965 4.043251 13.00298
v -0.9582977 -0.8922577 6.955521
v 3.66613 2.597198 5.519096
v 0.8731537 0.8576584 4.672035
v 1.271179 -5.16935 52.71587
v -1.016212 -5.227859 40.04705
v 23.75581 2.400139 32.35391
v 28.75103 2.300407 44.18184
v -1.521797 -4.135612 16.67326
v 11.84891 1.598969 12.52087
v -0.01256561 -2.794258 6.661583
v 4.778992 0.3597488 5.173409
v 1.927193 -1.198372 4.344711
v 30.33774 4.345764 57.06831
v 5.362648 -2.707909 64.82433
v 18.21242 -0.3382339 78.29929
v 28.4747 2.287018 75.11234
v 24.09772 0.9944 78.86699
v 18.8591 -2.396378 78.09816
v 24.81827 -1.335114 78.64331
v 5.93457 -4.340942 64.64684
v 29.28716 -0.2988205 74.85962
v 31.35974 1.427475 56.75092
v 24.81827 -1.335114 78.64331
v 29.28716 -0.2988205 74.85962
v 18.8591 -2.396378 78.09816
v 5.93457 -4.340942 64.64684
v 31.35974 1.427475 56.75092
v 1.271179 -5.16935 52.71587
v 28.75103 2.300407 44.18184
v 23.75581 2.400139 32.35391
v -1.016212 -5.227859 40.04705
v -1.521797 -4.135612 16.67326
v 11.84891 1.598969 12.52087
v -0.01256561 -2.794258 6.661583
v 4.778992 0.3597488 5.173409
v 1.927193 -1.198372 4.344711
vt 8.890965 2.317072
vt 9.162815 2.317072
vt 9.162815 2.037701
vt 8.890965 2.037701
vt 9.162815 1.75834
vt 8.890965 1.75834
vt 9.162815 1.478969
vt 8.890965 1.478969
vt 8.890965 1.199598
vt 9.162815 1.199598
vt 9.162815 0.9202275
vt 8.890965 0.9202275
vt 9.162815 0.6408565
vt 8.890965 0.6408565
vt 9.162815 0.361496
vt 8.890965 0.361496
vt 9.162815 0.07368731
vt 8.890965 0.07368731
vt 1.886628 0.1295428
vt 0.4831405 0.1295428
vt 0.5040283 0.7979536
vt 1.891527 0.7622225
vt 1.582759 -1.014162
vt 0.8009655 -1.019907
vt 1.327649 -1.457211
vt 1.050217 -1.466164
vt 1.180938 -1.532407
vt 2.010954 0.7683084
vt 2.008963 0.1116773
vt 0.3003178 0.1215281
vt 0.3277968 0.8232665
vt 1.704692 -1.079074
vt 0.6375351 -1.075649
vt 1.41089 -1.56166
vt 0.9564433 -1.572594
vt 1.183775 -1.653216
vt 0.5249057 1.466364
vt 1.896417 1.394902
vt 1.503282 2.257534
vt 0.9800336 2.267065
vt 1.244252 2.372113
vt 1.596024 2.352143
vt 1.240662 2.505506
vt 2.012955 1.424939
vt 0.8774307 2.383366
vt 0.3552656 1.525005
vt 3.758312 2.502009
vt 3.479487 2.618321
vt 4.044398 2.618187
vt 4.480031 3.465665
vt 3.096028 3.465789
vt 4.468529 4.115324
vt 3.089695 4.115396
vt 3.083362 4.764992
vt 4.457028 4.764992
vt 4.131064 5.908552
vt 3.362392 5.907407
vt 3.897172 6.371747
vt 3.596088 6.374006
vt 3.745418 6.456071
vt 1.886628 1.867308
vt 0.4831405 1.867308
vt 0.5040283 2.535718
vt 1.891527 2.499988
vt 1.582759 0.7236032
vt 0.8009655 0.7178681
vt 1.327649 0.2805542
vt 1.050217 0.2716111
vt 1.180938 0.2053683
vt 2.010954 2.506073
vt 2.008953 1.849442
vt 0.3003178 1.859303
vt 0.3277968 2.561042
vt 1.704692 0.6586912
vt 0.6375351 0.6621261
vt 1.41089 0.1761047
vt 0.9564433 0.1651812
vt 1.183775 0.08454895
vt 0.5249057 3.204129
vt 1.896417 3.132667
vt 1.503282 3.995309
vt 0.9800336 4.00484
vt 1.244252 4.109878
vt 1.596024 4.089918
vt 1.240662 4.243271
vt 2.012955 3.162714
vt 0.8774307 4.121141
vt 0.3552656 3.26278
vt 1.581841 1.274887
vt 1.303016 1.391199
vt 1.867927 1.391065
vt 2.303559 2.238544
vt 0.9195569 2.238668
vt 2.292058 2.888202
vt 0.9132235 2.888274
vt 0.9068902 3.53787
vt 2.280557 3.53787
vt 1.954593 4.68143
vt 1.185921 4.680285
vt 1.720701 5.144625
vt 1.419627 5.146883
vt 1.568947 5.22895
vn 0.7047883 0.0009775162 -0.709417
vn 0.7047883 0.0009775162 -0.709417
vn -0.002932549 0.0009775162 -0.9999952
vn -0.002932549 0.0009775162 -0.9999952
vn -0.7086984 0.0009775162 -0.7055109
vn -0.7086984 0.0009775162 -0.7055109
vn -0.9999979 0.0009775162 0.001826471
vn -0.9999979 0.0009775162 0.001826471
vn -0.7047883 0.0009775162 0.709417
vn -0.7047883 0.0009775162 0.709417
vn 0.002932549 0.0009775162 0.9999952
vn 0.002932549 0.0009775162 0.9999952
vn 0.7086984 0.0009775162 0.7055109
vn 0.7086984 0.0009775162 0.7055109
vn 0.9999979 0.0009775162 -0.001826471
vn 0.9999979 0.0009775162 -0.001826471
vn 0.7047883 0.0009775162 -0.709417
vn 0.7047883 0.0009775162 -0.709417
vn 0.4017587 0.9100665 -0.101828
vn 0.2082107 0.9765375 -0.05498045
vn 0.1730202 0.9843576 -0.03322915
vn 0.3431078 0.9335269 -0.1039454
vn 0.4604096 0.882696 -0.0941845
vn 0.2335577 0.9723429 0
vn 0.7458439 0.6656877 0.0240153
vn 0.03225797 0.9530771 0.3010042
vn 0.4623646 0.3782983 0.801941
vn -0.1769302 -0.9824026 0.05984085
vn -0.1964805 -0.9765375 0.08814728
vn -0.3900285 -0.9081115 0.1523528
vn -0.3470179 -0.9315718 0.1084094
vn -0.2082107 -0.9726275 0.1031704
vn -0.4369493 -0.878786 0.1918608
vn -0.07135856 -0.9726275 0.2211421
vn -0.6617776 -0.2825018 0.6944373
vn 0.04789823 -0.3646131 0.9299263
vn 0.1143693 0.9902227 -0.07986645
vn 0.3274675 0.9354819 -0.1328105
vn 0.3040072 0.9374369 -0.1696811
vn 0.09286392 0.9882677 -0.1212573
vn -0.1163243 0.5620711 -0.818868
vn -0.1339196 -0.9902227 -0.03904571
vn -0.3861184 -0.554251 -0.7373726
vn -0.1397791 -0.9901828 0
vn -0.3448 -0.9386762 0
vn -0.3489728 -0.9354818 0.05560299
vn -0.3861184 -0.554251 -0.7373726
vn -0.3448 -0.9386762 0
vn -0.1339196 -0.9902227 -0.03904571
vn -0.1397791 -0.9901828 0
vn -0.3489728 -0.9354818 0.05560299
vn -0.1769302 -0.9824026 0.05984085
vn -0.3470179 -0.9315718 0.1084094
vn -0.3900285 -0.9081115 0.1523528
vn -0.1964805 -0.9765375 0.08814728
vn -0.2082107 -0.9726275 0.1031704
vn -0.4369493 -0.878786 0.1918608
vn -0.07135856 -0.9726275 0.2211421
vn -0.6617776 -0.2825018 0.6944373
vn 0.04789823 -0.3646131 0.9299263
vn -0.4037137 0.9081115 0.1111253
vn -0.2062557 0.9784925 0.003320672
vn -0.1749752 0.9824026 0.06533716
vn -0.3431078 0.9335269 0.1039451
vn -0.4604095 0.882696 0.09418482
vn -0.2335578 0.9723429 0
vn -0.745844 0.6656877 -0.02401282
vn -0.03225803 0.9530771 -0.3010042
vn -0.4623646 0.3782983 -0.801941
vn 0.1769302 -0.9824026 -0.05984085
vn 0.1964805 -0.9765375 -0.08814728
vn 0.3939385 -0.9081115 -0.1419364
vn 0.3450628 -0.9335268 -0.09725933
vn 0.2082107 -0.9726275 -0.1031704
vn 0.4369492 -0.878786 -0.191861
vn 0.07135862 -0.9726275 -0.2211421
vn 0.6617777 -0.2825018 -0.6944372
vn -0.04789829 -0.3646131 -0.9299263
vn -0.1104592 0.9902227 0.08519249
vn -0.3294226 0.9354819 0.127884
vn -0.3040072 0.9374369 0.1696811
vn -0.09286392 0.9882677 0.1212573
vn 0.1163243 0.5620711 0.818868
vn 0.1339195 -0.9902227 0.03904571
vn 0.3861184 -0.554251 0.7373726
vn 0.1358746 -0.9902227 -0.0315773
vn 0.3447999 -0.9386762 0
vn 0.3509279 -0.9335268 -0.07333002
vn 0.3861184 -0.554251 0.7373726
vn 0.3447999 -0.9386762 0
vn 0.1339195 -0.9902227 0.03904571
vn 0.1358746 -0.9902227 -0.0315773
vn 0.3509279 -0.9335268 -0.07333002
vn 0.1769302 -0.9824026 -0.05984085
vn 0.3450628 -0.9335268 -0.09725933
vn 0.3939385 -0.9081115 -0.1419364
vn 0.1964805 -0.9765375 -0.08814728
vn 0.2082107 -0.9726275 -0.1031704
vn 0.4369492 -0.878786 -0.191861
vn 0.07135862 -0.9726275 -0.2211421
vn 0.6617777 -0.2825018 -0.6944372
vn -0.04789829 -0.3646131 -0.9299263
g Propella46_0
f 3/3/3 2/2/2 1/1/1
f 4/4/4 3/3/3 1/1/1
f 5/5/5 3/3/3 4/4/4
f 6/6/6 5/5/5 4/4/4
f 7/7/7 5/5/5 6/6/6
f 8/8/8 7/7/7 6/6/6
f 8/8/8 9/9/9 7/7/7
f 9/9/9 10/10/10 7/7/7
f 11/11/11 10/10/10 9/9/9
f 12/12/12 11/11/11 9/9/9
f 13/13/13 11/11/11 12/12/12
f 14/14/14 13/13/13 12/12/12
f 15/15/15 13/13/13 14/14/14
f 16/16/16 15/15/15 14/14/14
f 17/17/17 15/15/15 16/16/16
f 18/18/18 17/17/17 16/16/16
f 21/21/21 20/20/20 19/19/19
f 22/22/22 21/21/21 19/19/19
f 19/19/19 20/20/20 23/23/23
f 20/20/20 24/24/24 23/23/23
f 24/24/24 25/25/25 23/23/23
f 24/24/24 26/26/26 25/25/25
f 26/26/26 27/27/27 25/25/25
f 28/28/28 22/22/22 19/19/19
f 29/29/29 28/28/28 19/19/19
f 30/30/30 20/20/20 21/21/21
f 24/24/24 20/20/20 30/30/30
f 31/31/31 30/30/30 21/21/21
f 19/19/19 23/23/23 32/32/32
f 29/29/29 19/19/19 32/32/32
f 33/33/33 24/24/24 30/30/30
f 23/23/23 25/25/25 34/34/34
f 32/32/32 23/23/23 34/34/34
f 35/35/35 26/26/26 24/24/24
f 33/33/33 35/35/35 24/24/24
f 27/27/27 26/26/26 35/35/35
f 25/25/25 27/27/27 36/36/36
f 34/34/34 25/25/25 36/36/36
f 36/36/36 27/27/27 35/35/35
f 37/37/37 21/21/21 22/22/22
f 38/38/38 37/37/37 22/22/22
f 37/37/37 38/38/38 39/39/39
f 40/40/40 37/37/37 39/39/39
f 40/40/40 39/39/39 41/41/41
f 41/41/41 39/39/39 42/42/42
f 39/39/39 38/38/38 42/42/42
f 43/43/43 41/41/41 42/42/42
f 40/40/40 41/41/41 43/43/43
f 38/38/38 44/44/44 42/42/42
f 45/45/45 40/40/40 43/43/43
f 40/40/40 45/45/45 37/37/37
f 45/45/45 46/46/46 37/37/37
f 46/46/46 31/31/31 37/37/37
f 31/31/31 21/21/21 37/37/37
f 44/44/44 38/38/38 28/28/28
f 38/38/38 22/22/22 28/28/28
f 49/49/49 48/48/48 47/47/47
f 49/49/49 50/50/50 48/48/48
f 50/50/50 51/51/51 48/48/48
f 51/51/51 50/50/50 52/52/52
f 53/53/53 51/51/51 52/52/52
f 53/53/53 52/52/52 54/54/54
f 52/52/52 55/55/55 54/54/54
f 55/55/55 56/56/56 54/54/54
f 56/56/56 57/57/57 54/54/54
f 58/58/58 57/57/57 56/56/56
f 58/58/58 59/59/59 57/57/57
f 60/60/60 59/59/59 58/58/58
f 63/63/63 62/62/62 61/61/61
f 64/64/64 63/63/63 61/61/61
f 61/61/61 62/62/62 65/65/65
f 62/62/62 66/66/66 65/65/65
f 66/66/66 67/67/67 65/65/65
f 66/66/66 68/68/68 67/67/67
f 68/68/68 69/69/69 67/67/67
f 70/70/70 64/64/64 61/61/61
f 71/71/71 70/70/70 61/61/61
f 72/72/72 62/62/62 63/63/63
f 66/66/66 62/62/62 72/72/72
f 73/73/73 72/72/72 63/63/63
f 61/61/61 65/65/65 74/74/74
f 71/71/71 61/61/61 74/74/74
f 75/75/75 66/66/66 72/72/72
f 68/68/68 66/66/66 75/75/75
f 65/65/65 67/67/67 76/76/76
f 74/74/74 65/65/65 76/76/76
f 77/77/77 68/68/68 75/75/75
f 69/69/69 68/68/68 77/77/77
f 67/67/67 69/69/69 78/78/78
f 76/76/76 67/67/67 78/78/78
f 78/78/78 69/69/69 77/77/77
f 79/79/79 63/63/63 64/64/64
f 80/80/80 79/79/79 64/64/64
f 80/80/80 81/81/81 79/79/79
f 81/81/81 82/82/82 79/79/79
f 82/82/82 81/81/81 83/83/83
f 83/83/83 81/81/81 84/84/84
f 85/85/85 83/83/83 84/84/84
f 82/82/82 83/83/83 85/85/85
f 86/86/86 84/84/84 81/81/81
f 80/80/80 86/86/86 81/81/81
f 87/87/87 82/82/82 85/85/85
f 82/82/82 87/87/87 88/88/88
f 79/79/79 82/82/82 88/88/88
f 88/88/88 73/73/73 79/79/79
f 73/73/73 63/63/63 79/79/79
f 86/86/86 80/80/80 70/70/70
f 80/80/80 64/64/64 70/70/70
f 91/91/91 90/90/90 89/89/89
f 90/90/90 91/91/91 92/92/92
f 93/93/93 90/90/90 92/92/92
f 93/93/93 92/92/92 94/94/94
f 95/95/95 93/93/93 94/94/94
f 95/95/95 94/94/94 96/96/96
f 94/94/94 97/97/97 96/96/96
f 97/97/97 98/98/98 96/96/96
f 98/98/98 99/99/99 96/96/96
f 100/100/100 99/99/99 98/98/98
f 100/100/100 101/101/101 99/99/99
f 102/102/102 101/101/101 100/100/100
