g ster138
v -0.2476301 -1.017301 -2.094482
v 1.924233 1.839649 -1.120951
v -0.3826475 6.755266 -3.235762
v -2.132639 1.839649 -0.641345
v 0.2476592 1.017045 2.094226
v 0.2476592 1.017045 2.094226
v 2.132668 -1.840132 0.6415439
v 0.3826761 -6.755295 3.235733
v -1.924204 -1.840132 1.12115
v -0.2476301 -1.017301 -2.094482
v -1.924204 -1.840132 1.12115
v -7.448081 -0.0001282692 0.8808913
v 0.2476592 1.017045 2.094226
v -0.2476301 -1.017301 -2.094482
v -2.132639 1.839649 -0.641345
v 0.2476592 1.017045 2.094226
v 7.448109 -0.0001282692 -0.8806934
v 2.132668 -1.840132 0.6415439
v -0.2476301 -1.017301 -2.094482
v 1.924233 1.839649 -1.120951
vt 0.9551296 0.07390583
vt 0.9489734 0.0844594
vt 0.9542502 0.0844594
vt 0.9586475 0.0844594
vt 0.9542502 0.09677191
vt 0.9542502 0.09677191
vt 0.9489734 0.1038076
vt 0.9542502 0.1038076
vt 0.9586475 0.1038076
vt 0.9542502 0.1090844
vt 0.9639243 0.0695085
vt 0.9639243 0.07478529
vt 0.9692011 0.07478529
vt 0.9551296 0.07390583
vt 0.9639243 0.07918262
vt 0.9384198 0.07390583
vt 0.9436966 0.07478529
vt 0.9436966 0.0695085
vt 0.9551296 0.07390583
vt 0.9436966 0.07918262
vn -0.1129513 -0.1440883 -0.9830974
vn 0.915207 0.3154674 -0.2507516
vn -0.05063874 0.8996482 -0.4336689
vn -0.9463828 0.3154674 -0.06956921
vn 0.08956468 0.6815541 0.7262659
vn 0.112932 0.1441076 0.9830968
vn 0.9463634 -0.315448 0.06992077
vn 0.0506193 -0.8996289 0.4337114
vn -0.9152264 -0.315448 0.2507054
vn -0.08958405 -0.6815346 -0.7262818
vn -0.2998893 -0.8451054 0.4425645
vn -0.9931173 0.003904223 0.1170591
vn -0.1986312 0.4167255 0.8870657
vn -0.3933582 -0.416706 -0.8195275
vn -0.3933582 0.8451248 -0.3619854
vn 0.3933388 0.4167255 0.819527
vn 0.9930978 -0.003884852 -0.1172246
vn 0.3933388 -0.8451054 0.3620518
vn 0.1986118 -0.416706 -0.8870792
vn 0.2998698 0.8451248 -0.4425406
g ster138_0
f 3/3/3 2/2/2 1/1/1
f 4/4/4 3/3/3 1/1/1
f 3/3/3 5/5/5 2/2/2
f 4/4/4 5/5/5 3/3/3
f 8/8/8 7/7/7 6/6/6
f 9/9/9 8/8/8 6/6/6
f 8/8/8 10/10/10 7/7/7
f 9/9/9 10/10/10 8/8/8
f 13/13/13 12/12/12 11/11/11
f 11/11/11 12/12/12 14/14/14
f 13/13/13 15/15/15 12/12/12
f 12/12/12 15/15/15 14/14/14
f 18/18/18 17/17/17 16/16/16
f 19/19/19 17/17/17 18/18/18
f 17/17/17 20/20/20 16/16/16
f 19/19/19 20/20/20 17/17/17
