g ster117
v -2.795468 -1.356396 -0.3023491
v -0.883378 2.452919 -2.834913
v -4.319195 9.006881 -0.4674044
v -1.469263 2.452919 2.580351
v 2.795774 1.356091 0.3023472
v 2.795774 1.356091 0.3023472
v 1.469264 -2.45292 -2.580352
v 4.319196 -9.007186 0.4674025
v 0.883379 -2.45292 2.834912
v -2.795468 -1.356396 -0.3023491
v 0.883379 -2.45292 2.834912
v -1.075437 -0.0001525879 9.941991
v 2.795774 1.356091 0.3023472
v -2.795468 -1.356396 -0.3023491
v -1.469263 2.452919 2.580351
v 2.795774 1.356091 0.3023472
v 1.075742 -0.0001525879 -9.941993
v 1.469264 -2.45292 -2.580352
v -2.795468 -1.356396 -0.3023491
v -0.883378 2.452919 -2.834913
vt 0.7229624 0.1022395
vt 0.714131 0.1154866
vt 0.72107 0.1154866
vt 0.7273781 0.1154866
vt 0.72107 0.1325186
vt 0.72107 0.1325186
vt 0.714131 0.1413501
vt 0.72107 0.1413501
vt 0.7273781 0.1413501
vt 0.7217008 0.1489199
vt 0.7336863 0.09593133
vt 0.7336863 0.1022395
vt 0.7412561 0.1009779
vt 0.7229624 0.1022395
vt 0.7336863 0.1091785
vt 0.7002531 0.1016087
vt 0.7078229 0.1022395
vt 0.7078229 0.09593133
vt 0.7229624 0.1022395
vt 0.7078229 0.1091785
vn -0.9835005 -0.1427054 -0.1111839
vn -0.05013806 0.3124052 -0.9486249
vn -0.435825 0.8986494 -0.04985732
vn -0.2506953 0.3124052 0.9162723
vn 0.7289497 0.6826647 0.05100319
vn 0.983503 0.1427029 0.1111649
vn 0.2506978 -0.3124077 -0.9162707
vn 0.4281138 -0.8986519 0.09562088
vn 0.05014056 -0.3124077 0.9486239
vn -0.7289471 -0.6826672 -0.05100582
vn 0.3664039 -0.8446558 0.3902625
vn -0.1041343 -0.003858149 0.9945558
vn 0.8215145 0.4126838 0.393454
vn -0.8832219 -0.4126863 0.2227308
vn -0.4435387 0.8446532 0.2997239
vn 0.8832244 0.4126838 -0.2227256
vn 0.1041368 -0.003858149 -0.9945555
vn 0.4435413 -0.8446558 -0.2997128
vn -0.821512 -0.4126863 -0.3934564
vn -0.3664014 0.8446532 -0.3902704
g ster117_0
f 3/3/3 2/2/2 1/1/1
f 4/4/4 3/3/3 1/1/1
f 3/3/3 5/5/5 2/2/2
f 4/4/4 5/5/5 3/3/3
f 8/8/8 7/7/7 6/6/6
f 9/9/9 8/8/8 6/6/6
f 8/8/8 10/10/10 7/7/7
f 9/9/9 10/10/10 8/8/8
f 13/13/13 12/12/12 11/11/11
f 11/11/11 12/12/12 14/14/14
f 13/13/13 15/15/15 12/12/12
f 12/12/12 15/15/15 14/14/14
f 18/18/18 17/17/17 16/16/16
f 19/19/19 17/17/17 18/18/18
f 17/17/17 20/20/20 16/16/16
f 19/19/19 20/20/20 17/17/17
