g ster177
v 2.133046 -0.5015111 -0.825407
v 1.125419 2.102383 1.62982
v 1.346856 7.314857 -0.9671535
v -0.3918266 1.881169 -2.156485
v -2.132741 0.5018754 0.825325
v -2.132741 0.5018754 0.825325
v 0.3919086 -1.881251 2.156403
v -1.34655 -7.314047 0.9668484
v -1.125337 -2.102242 -1.629902
v 2.133046 -0.5015111 -0.825407
v -1.125337 -2.102242 -1.629902
v -2.785444 -0.4057484 -6.951756
v -2.132741 0.5018754 0.825325
v 2.133046 -0.5015111 -0.825407
v -0.3918266 1.881169 -2.156485
v -2.132741 0.5018754 0.825325
v 2.785526 0.4063363 6.951674
v 0.3919086 -1.881251 2.156403
v 2.133046 -0.5015111 -0.825407
v 1.125419 2.102383 1.62982
vt 0.6376616 0.07365538
vt 0.6312976 0.08320133
vt 0.6360706 0.08320133
vt 0.6408436 0.08320133
vt 0.6360706 0.09592926
vt 0.6360706 0.09592926
vt 0.6312976 0.1030887
vt 0.6360706 0.1030887
vt 0.6408436 0.1030887
vt 0.6368661 0.1086572
vt 0.6456165 0.06888241
vt 0.6456165 0.07365538
vt 0.651185 0.07365538
vt 0.6376616 0.07365538
vt 0.6456165 0.07842836
vt 0.6201607 0.07285989
vt 0.6265246 0.07365538
vt 0.6265246 0.06888241
vt 0.6376616 0.07365538
vt 0.6265246 0.07842836
vn 0.9263921 0.08842033 -0.366032
vn 0.4112979 0.3959393 0.8210153
vn 0.1806588 0.9725373 -0.1467431
vn -0.2883076 0.2883076 -0.9131032
vn -0.8187779 0.4958829 0.2893146
vn -0.9264094 -0.08840305 0.3659925
vn 0.2882904 -0.2882904 0.9131141
vn -0.180676 -0.97252 0.1468367
vn -0.4113153 -0.395922 -0.8210149
vn 0.8187605 -0.4958656 -0.2893933
vn -0.2959957 -0.9340801 -0.1997021
vn -0.3728754 -0.05765116 -0.9260887
vn -0.9802253 0.188364 0.06064174
vn 0.7572567 -0.2190986 -0.6152707
vn 0.0345872 0.8956576 -0.4433973
vn -0.7572741 0.2191159 0.6152432
vn 0.372858 0.05766851 0.9260946
vn -0.03460449 -0.8956403 0.443431
vn 0.980208 -0.1883467 -0.06097415
vn 0.2959783 0.9340975 0.1996466
g ster177_0
f 3/3/3 2/2/2 1/1/1
f 4/4/4 3/3/3 1/1/1
f 3/3/3 5/5/5 2/2/2
f 4/4/4 5/5/5 3/3/3
f 8/8/8 7/7/7 6/6/6
f 9/9/9 8/8/8 6/6/6
f 8/8/8 10/10/10 7/7/7
f 9/9/9 10/10/10 8/8/8
f 13/13/13 12/12/12 11/11/11
f 11/11/11 12/12/12 14/14/14
f 13/13/13 15/15/15 12/12/12
f 12/12/12 15/15/15 14/14/14
f 18/18/18 17/17/17 16/16/16
f 19/19/19 17/17/17 18/18/18
f 17/17/17 20/20/20 16/16/16
f 19/19/19 20/20/20 17/17/17
