g ster214
v -1.529527 -1.2623 -1.244373
v 0.4344277 1.719966 -2.279454
v -3.137467 6.316148 -2.552199
v -2.14325 1.719966 0.8893962
v 1.529647 1.262565 1.244061
v 1.529647 1.262565 1.244061
v 2.143371 -1.719701 -0.8895164
v 3.137395 -6.315883 2.551886
v -0.4345002 -1.719701 2.279527
v -1.529527 -1.2623 -1.244373
v -0.4345002 -1.719701 2.279527
v -4.732687 3.623962E-05 5.818076
v 1.529647 1.262565 1.244061
v -1.529527 -1.2623 -1.244373
v -2.14325 1.719966 0.8893962
v 1.529647 1.262565 1.244061
v 4.732807 3.623962E-05 -5.818196
v 2.143371 -1.719701 -0.8895164
v -1.529527 -1.2623 -1.244373
v 0.4344277 1.719966 -2.279454
vt 0.2784961 0.07140277
vt 0.2704692 0.07942964
vt 0.2752853 0.07942964
vt 0.2801014 0.07942964
vt 0.2752853 0.09227264
vt 0.2752853 0.09227264
vt 0.2704692 0.09949682
vt 0.2752853 0.09949682
vt 0.2801014 0.09949682
vt 0.276088 0.1051156
vt 0.2849175 0.06498127
vt 0.2849175 0.0697974
vt 0.2905363 0.0697974
vt 0.2784961 0.07140277
vt 0.2849175 0.07461352
vt 0.2600342 0.06899471
vt 0.265653 0.0697974
vt 0.265653 0.06498127
vt 0.2784961 0.07140277
vt 0.265653 0.07461352
vn -0.7496752 -0.2609772 -0.608176
vn 0.4459332 0.2938907 -0.8454418
vn -0.4193966 0.8421532 -0.3389461
vn -0.736464 0.2938907 0.609302
vn 0.4987778 0.7628863 0.4113699
vn 0.7497895 0.2608629 0.608084
vn 0.7365783 -0.2940051 -0.6091086
vn 0.419511 -0.8422675 0.3385203
vn -0.4458189 -0.2940051 0.8454623
vn -0.4986634 -0.7630007 -0.4112965
vn 0.1684992 -0.7894229 0.5902706
vn -0.6307749 0.003245592 0.7759591
vn 0.4327221 0.5118746 0.7421159
vn -0.8091253 -0.5119889 -0.2884156
vn -0.6109582 0.7893085 -0.06100878
vn 0.8092396 0.5118746 0.2882979
vn 0.6308892 0.003245592 -0.7758661
vn 0.6110725 -0.7894229 0.05832509
vn -0.4326078 -0.5119889 -0.7421036
vn -0.1683849 0.7893085 -0.5904562
g ster214_0
f 3/3/3 2/2/2 1/1/1
f 4/4/4 3/3/3 1/1/1
f 3/3/3 5/5/5 2/2/2
f 4/4/4 5/5/5 3/3/3
f 8/8/8 7/7/7 6/6/6
f 9/9/9 8/8/8 6/6/6
f 8/8/8 10/10/10 7/7/7
f 9/9/9 10/10/10 8/8/8
f 13/13/13 12/12/12 11/11/11
f 11/11/11 12/12/12 14/14/14
f 13/13/13 15/15/15 12/12/12
f 12/12/12 15/15/15 14/14/14
f 18/18/18 17/17/17 16/16/16
f 19/19/19 17/17/17 18/18/18
f 17/17/17 20/20/20 16/16/16
f 19/19/19 20/20/20 17/17/17
