g ster75
v 0.2159524 -1.017618 2.097744
v -1.940873 1.839554 1.091849
v 0.3338914 6.755193 3.24116
v 2.122783 1.839554 0.6733708
v -0.216187 1.017169 -2.097966
v -0.216187 1.017169 -2.097966
v -2.122562 -1.839775 -0.6735916
v -0.3338981 -6.755414 -3.241381
v 1.940866 -1.839775 -1.09207
v 0.2159524 -1.017618 2.097744
v 1.940866 -1.839775 -1.09207
v 7.460543 0.0001173019 -0.7685347
v -0.216187 1.017169 -2.097966
v 0.2159524 -1.017618 2.097744
v 2.122783 1.839554 0.6733708
v -0.216187 1.017169 -2.097966
v -7.46055 0.0001173019 0.7685418
v -2.122562 -1.839775 -0.6735916
v 0.2159524 -1.017618 2.097744
v -1.940873 1.839554 1.091849
vt 0.7229624 0.1022395
vt 0.714131 0.1154866
vt 0.72107 0.1154866
vt 0.7273781 0.1154866
vt 0.72107 0.1325186
vt 0.72107 0.1325186
vt 0.714131 0.1413501
vt 0.72107 0.1413501
vt 0.7273781 0.1413501
vt 0.7217008 0.1489199
vt 0.7336863 0.09593133
vt 0.7336863 0.1022395
vt 0.7412561 0.1009779
vt 0.7229624 0.1022395
vt 0.7336863 0.1091785
vt 0.7002531 0.1016087
vt 0.7078229 0.1022395
vt 0.7078229 0.09593133
vt 0.7229624 0.1022395
vt 0.7078229 0.1091785
vn 0.09754205 -0.1443543 0.9847068
vn -0.916724 0.3159664 0.2445045
vn 0.04292774 0.9011198 0.4314397
vn 0.947965 0.3159664 0.03908376
vn -0.074103 0.6826626 -0.7269667
vn -0.09750915 0.1443214 -0.9847149
vn -0.9479321 -0.3159993 -0.03961205
vn -0.04289484 -0.9011528 -0.4313742
vn 0.9167569 -0.3159993 -0.2443385
vn 0.0741359 -0.6826955 0.7269324
vn 0.3081973 -0.8465384 -0.4340359
vn 0.9947773 0.003884554 -0.1019949
vn 0.2067707 0.417393 -0.8848892
vn 0.3862177 -0.4174259 0.8225518
vn 0.3940198 0.8465055 0.3580178
vn -0.3861848 0.417393 -0.822584
vn -0.9947444 -0.003917515 0.1023143
vn -0.3939868 -0.8465384 -0.3579763
vn -0.2067378 -0.4174259 0.8848814
vn -0.3081644 0.8465055 0.4341234
g ster75_0
f 3/3/3 2/2/2 1/1/1
f 4/4/4 3/3/3 1/1/1
f 3/3/3 5/5/5 2/2/2
f 4/4/4 5/5/5 3/3/3
f 8/8/8 7/7/7 6/6/6
f 9/9/9 8/8/8 6/6/6
f 8/8/8 10/10/10 7/7/7
f 9/9/9 10/10/10 8/8/8
f 13/13/13 12/12/12 11/11/11
f 11/11/11 12/12/12 14/14/14
f 13/13/13 15/15/15 12/12/12
f 12/12/12 15/15/15 14/14/14
f 18/18/18 17/17/17 16/16/16
f 19/19/19 17/17/17 18/18/18
f 17/17/17 20/20/20 16/16/16
f 19/19/19 20/20/20 17/17/17
