g ster80
v 1.222507 -1.262214 1.547153
v -0.9197435 1.719666 2.130421
v 2.507395 6.316233 3.173213
v 2.285537 1.719666 -0.4021525
v -1.222365 1.26265 -1.547102
v -1.222365 1.26265 -1.547102
v -2.285394 -1.720001 0.4022031
v -2.507252 -6.315797 -3.173354
v 0.9198856 -1.720001 -2.130564
v 1.222507 -1.262214 1.547153
v 0.9198856 -1.720001 -2.130564
v 5.884803 0.0003142357 -4.649645
v -1.222365 1.26265 -1.547102
v 1.222507 -1.262214 1.547153
v 2.285537 1.719666 -0.4021525
v -1.222365 1.26265 -1.547102
v -5.88466 0.0003142357 4.649503
v -2.285394 -1.720001 0.4022031
v 1.222507 -1.262214 1.547153
v -0.9197435 1.719666 2.130421
vt 0.6376616 0.07365538
vt 0.6312976 0.08320133
vt 0.6360706 0.08320133
vt 0.6408436 0.08320133
vt 0.6360706 0.09592926
vt 0.6360706 0.09592926
vt 0.6312976 0.1030887
vt 0.6360706 0.1030887
vt 0.6408436 0.1030887
vt 0.6368661 0.1086572
vt 0.6456165 0.06888241
vt 0.6456165 0.07365538
vt 0.651185 0.07365538
vt 0.6376616 0.07365538
vt 0.6456165 0.07842836
vt 0.6201607 0.07285989
vt 0.6265246 0.07365538
vt 0.6265246 0.06888241
vt 0.6376616 0.07365538
vt 0.6265246 0.07842836
vn 0.5980612 -0.2639451 0.7567402
vn -0.6181214 0.29737 0.7276655
vn 0.3374506 0.8453203 0.4141987
vn 0.8519894 0.29737 -0.430912
vn -0.3976047 0.7651324 -0.5064414
vn -0.5980744 0.2639583 -0.7567251
vn -0.8520026 -0.2973567 0.430895
vn -0.3374639 -0.8453071 -0.4142151
vn 0.6181082 -0.2973567 -0.7276821
vn 0.3975915 -0.7651192 0.5064717
vn -0.03675938 -0.7918485 -0.6096103
vn 0.7851661 -0.003334522 -0.6192762
vn -0.2639583 0.5178865 -0.8137072
vn 0.7317076 -0.5178733 0.4431831
vn 0.5913788 0.7918618 0.1524009
vn -0.7317208 0.5178865 -0.4431458
vn -0.7851794 -0.003334522 0.6192594
vn -0.591392 -0.7918485 -0.1524187
vn 0.2639451 -0.5178733 0.81372
vn 0.03674614 0.7918618 0.6095938
g ster80_0
f 3/3/3 2/2/2 1/1/1
f 4/4/4 3/3/3 1/1/1
f 3/3/3 5/5/5 2/2/2
f 4/4/4 5/5/5 3/3/3
f 8/8/8 7/7/7 6/6/6
f 9/9/9 8/8/8 6/6/6
f 8/8/8 10/10/10 7/7/7
f 9/9/9 10/10/10 8/8/8
f 13/13/13 12/12/12 11/11/11
f 11/11/11 12/12/12 14/14/14
f 13/13/13 15/15/15 12/12/12
f 12/12/12 15/15/15 14/14/14
f 18/18/18 17/17/17 16/16/16
f 19/19/19 17/17/17 18/18/18
f 17/17/17 20/20/20 16/16/16
f 19/19/19 20/20/20 17/17/17
