g ster286
v -1.431401 -1.017682 -1.548728
v 0.8977013 1.8402 -2.037927
v -2.21148 6.755065 -2.39292
v -2.10222 1.8402 0.7346087
v 1.431428 1.01683 1.548702
v 1.431428 1.01683 1.548702
v 2.102452 -1.839403 -0.7346354
v 2.211506 -6.755092 2.392894
v -0.8976746 -1.839403 2.038106
v -1.431401 -1.017682 -1.548728
v -0.8976746 -1.839403 2.038106
v -5.507847 -0.0003223419 5.090595
v 1.431428 1.01683 1.548702
v -1.431401 -1.017682 -1.548728
v -2.10222 1.8402 0.7346087
v 1.431428 1.01683 1.548702
v 5.507874 -0.0003223419 -5.090416
v 2.102452 -1.839403 -0.7346354
v -1.431401 -1.017682 -1.548728
v 0.8977013 1.8402 -2.037927
vt 0.6898637 0.07784157
vt 0.6834468 0.0882692
vt 0.6882595 0.0882692
vt 0.6930723 0.0882692
vt 0.6890616 0.09869684
vt 0.6890616 0.09869684
vt 0.6834468 0.1075202
vt 0.6882595 0.1075202
vt 0.6930723 0.1075202
vt 0.6890616 0.1131351
vt 0.6986871 0.07302882
vt 0.6986871 0.07864369
vt 0.704302 0.07864369
vt 0.6898637 0.07784157
vt 0.6986871 0.08345646
vt 0.6730191 0.07784157
vt 0.678634 0.07864369
vt 0.678634 0.07302882
vt 0.6898637 0.07784157
vt 0.678634 0.08345646
vn -0.6744925 -0.1449189 -0.7239188
vn 0.5828801 0.314234 -0.7493382
vn -0.2930423 0.900537 -0.3211842
vn -0.7945787 0.314234 0.5195206
vn 0.4981135 0.6815563 0.5360634
vn 0.6747108 0.1447006 0.7237591
vn 0.787733 -0.3144523 -0.5297135
vn 0.2932606 -0.9007553 0.3203719
vn -0.5826619 -0.3144523 0.7494164
vn -0.4978952 -0.6817747 -0.5359885
vn 0.01776886 -0.8442442 0.5356641
vn -0.7310036 0.003422797 0.682365
vn 0.3638995 0.4131285 0.8348066
vn -0.8016425 -0.4133468 -0.4318723
vn -0.5332147 0.8440259 -0.05746699
vn 0.8018608 0.4131285 0.4316759
vn 0.7312219 0.003422797 -0.6821311
vn 0.533433 -0.8442442 0.05197157
vn -0.3636812 -0.4133468 -0.8347936
vn -0.01755059 0.8440259 -0.5360152
g ster286_0
f 3/3/3 2/2/2 1/1/1
f 4/4/4 3/3/3 1/1/1
f 3/3/3 5/5/5 2/2/2
f 4/4/4 5/5/5 3/3/3
f 8/8/8 7/7/7 6/6/6
f 9/9/9 8/8/8 6/6/6
f 8/8/8 10/10/10 7/7/7
f 9/9/9 10/10/10 8/8/8
f 13/13/13 12/12/12 11/11/11
f 11/11/11 12/12/12 14/14/14
f 13/13/13 15/15/15 12/12/12
f 12/12/12 15/15/15 14/14/14
f 18/18/18 17/17/17 16/16/16
f 19/19/19 17/17/17 18/18/18
f 17/17/17 20/20/20 16/16/16
f 19/19/19 20/20/20 17/17/17
