g ster218
v -0.6952682 -1.017667 -1.990931
v 1.635897 1.840322 -1.511214
v -1.074288 6.755045 -3.076129
v -2.220855 1.840322 -0.1643329
v 0.6952629 1.016809 1.990936
v 0.6952629 1.016809 1.990936
v 2.22085 -1.839453 0.1645541
v 1.074283 -6.75504 3.076135
v -1.635687 -1.839453 1.511219
v -0.6952682 -1.017667 -1.990931
v -1.635687 -1.839453 1.511219
v -7.080691 -0.0003213882 2.472598
v 0.6952629 1.016809 1.990936
v -0.6952682 -1.017667 -1.990931
v -2.220855 1.840322 -0.1643329
v 0.6952629 1.016809 1.990936
v 7.080686 -0.0003213882 -2.472377
v 2.22085 -1.839453 0.1645541
v -0.6952682 -1.017667 -1.990931
v 1.635897 1.840322 -1.511214
vt 0.9551296 0.07390583
vt 0.9489734 0.0844594
vt 0.9542502 0.0844594
vt 0.9586475 0.0844594
vt 0.9542502 0.09677191
vt 0.9542502 0.09677191
vt 0.9489734 0.1038076
vt 0.9542502 0.1038076
vt 0.9586475 0.1038076
vt 0.9542502 0.1090844
vt 0.9639243 0.0695085
vt 0.9639243 0.07478529
vt 0.9692011 0.07478529
vt 0.9551296 0.07390583
vt 0.9639243 0.07918262
vt 0.9384198 0.07390583
vt 0.9436966 0.07478529
vt 0.9436966 0.0695085
vt 0.9551296 0.07390583
vt 0.9436966 0.07918262
vn -0.3296486 -0.1442317 -0.9330215
vn 0.8328388 0.3148398 -0.4552532
vn -0.1445391 0.8997856 -0.411697
vn -0.9368075 0.3148398 0.1525376
vn 0.2404886 0.6850587 0.6876481
vn 0.3293411 0.1445391 0.9330825
vn 0.9365001 -0.3145323 -0.1550387
vn 0.1442317 -0.8994782 0.4124756
vn -0.8331463 -0.3145323 0.454903
vn -0.240796 -0.6847513 -0.6878466
vn -0.1963697 -0.8402432 0.5054013
vn -0.9442119 0.003855884 0.329316
vn 0.003548503 0.4110966 0.9115849
vn -0.5665886 -0.4181936 -0.709994
vn -0.4629273 0.8405506 -0.2813769
vn 0.5662812 0.4185011 0.7100581
vn 0.9439045 0.003855884 -0.3301961
vn 0.4626199 -0.8402432 0.2827973
vn -0.003855884 -0.4181936 -0.9083498
vn 0.1960623 0.8405506 -0.5050091
g ster218_0
f 3/3/3 2/2/2 1/1/1
f 4/4/4 3/3/3 1/1/1
f 3/3/3 5/5/5 2/2/2
f 4/4/4 5/5/5 3/3/3
f 8/8/8 7/7/7 6/6/6
f 9/9/9 8/8/8 6/6/6
f 8/8/8 10/10/10 7/7/7
f 9/9/9 10/10/10 8/8/8
f 13/13/13 12/12/12 11/11/11
f 11/11/11 12/12/12 14/14/14
f 13/13/13 15/15/15 12/12/12
f 12/12/12 15/15/15 14/14/14
f 18/18/18 17/17/17 16/16/16
f 19/19/19 17/17/17 18/18/18
f 17/17/17 20/20/20 16/16/16
f 19/19/19 20/20/20 17/17/17
