g ster204
v -1.947418 -1.262407 0.3089356
v -1.407813 1.71955 -1.844738
v -3.994165 6.31648 0.6335573
v -0.7676115 1.71955 2.189981
v 1.947596 1.262683 -0.3088865
v 1.947596 1.262683 -0.3088865
v 0.7677884 -1.720179 -2.189706
v 3.994343 -6.316205 -0.6335087
v 1.40799 -1.720179 1.844787
v -1.947418 -1.262407 0.3089356
v 1.40799 -1.720179 1.844787
v 1.175148 0.0001373291 7.407445
v 1.947596 1.262683 -0.3088865
v -1.947418 -1.262407 0.3089356
v -0.7676115 1.71955 2.189981
v 1.947596 1.262683 -0.3088865
v -1.175198 0.0001373291 -7.407396
v 0.7677884 -1.720179 -2.189706
v -1.947418 -1.262407 0.3089356
v -1.407813 1.71955 -1.844738
vt 0.6376616 0.07365538
vt 0.6312976 0.08320133
vt 0.6360706 0.08320133
vt 0.6408436 0.08320133
vt 0.6360706 0.09592926
vt 0.6360706 0.09592926
vt 0.6312976 0.1030887
vt 0.6360706 0.1030887
vt 0.6408436 0.1030887
vt 0.6368661 0.1086572
vt 0.6456165 0.06888241
vt 0.6456165 0.07365538
vt 0.651185 0.07365538
vt 0.6376616 0.07365538
vt 0.6456165 0.07842836
vt 0.6201607 0.07285989
vt 0.6265246 0.07365538
vt 0.6265246 0.06888241
vt 0.6376616 0.07365538
vt 0.6265246 0.07842836
vn -0.9526693 -0.2652573 0.1485256
vn -0.3324981 0.2951384 -0.8957334
vn -0.5342405 0.8405901 0.08941682
vn -0.04109234 0.2951384 0.9545705
vn 0.6388544 0.7658707 -0.07285011
vn 0.9526759 0.2652506 -0.1484947
vn 0.04109901 -0.295145 -0.9545681
vn 0.5342472 -0.8405968 -0.08931377
vn 0.3325047 -0.295145 0.8957288
vn -0.6388477 -0.7658774 0.07283906
vn 0.556663 -0.7882932 0.2621451
vn 0.1606501 -0.003739297 0.9870043
vn 0.8405968 0.5118247 0.177292
vn -0.7434549 -0.5118314 0.4304688
vn -0.4445772 0.7882866 0.4253885
vn 0.7509335 0.5118247 -0.417294
vn -0.1531715 -0.003739297 -0.9881925
vn 0.4445839 -0.7882932 -0.4253691
vn -0.8405901 -0.5118314 -0.1773045
vn -0.5566564 0.7882866 -0.2621793
g ster204_0
f 3/3/3 2/2/2 1/1/1
f 4/4/4 3/3/3 1/1/1
f 3/3/3 5/5/5 2/2/2
f 4/4/4 5/5/5 3/3/3
f 8/8/8 7/7/7 6/6/6
f 9/9/9 8/8/8 6/6/6
f 8/8/8 10/10/10 7/7/7
f 9/9/9 10/10/10 8/8/8
f 13/13/13 12/12/12 11/11/11
f 11/11/11 12/12/12 14/14/14
f 13/13/13 15/15/15 12/12/12
f 12/12/12 15/15/15 14/14/14
f 18/18/18 17/17/17 16/16/16
f 19/19/19 17/17/17 18/18/18
f 17/17/17 20/20/20 16/16/16
f 19/19/19 20/20/20 17/17/17
