g ster27
v -0.7782359 -1.017167 1.959926
v -2.225833 1.839311 0.07071114
v -1.202623 6.754972 3.028234
v 1.570892 1.839311 1.578509
v 0.7782764 1.017127 -1.960179
v 0.7782764 1.017127 -1.960179
v -1.570851 -1.839777 -1.578763
v 1.202664 -6.755437 -3.028274
v 2.225873 -1.839777 -0.07075167
v -0.7782359 -1.017167 1.959926
v 2.225873 -1.839777 -0.07075167
v 6.970503 -0.0001268387 2.76807
v 0.7782764 1.017127 -1.960179
v -0.7782359 -1.017167 1.959926
v 1.570892 1.839311 1.578509
v 0.7782764 1.017127 -1.960179
v -6.970462 -0.0001268387 -2.768111
v -1.570851 -1.839777 -1.578763
v -0.7782359 -1.017167 1.959926
v -2.225833 1.839311 0.07071114
vt 0.6898637 0.07784157
vt 0.6834468 0.0882692
vt 0.6882595 0.0882692
vt 0.6930723 0.0882692
vt 0.6890616 0.09869684
vt 0.6890616 0.09869684
vt 0.6834468 0.1075202
vt 0.6882595 0.1075202
vt 0.6930723 0.1075202
vt 0.6890616 0.1131351
vt 0.6986871 0.07302882
vt 0.6986871 0.07864369
vt 0.704302 0.07864369
vt 0.6898637 0.07784157
vt 0.6986871 0.08345646
vt 0.6730191 0.07784157
vt 0.678634 0.07864369
vt 0.678634 0.07302882
vt 0.6898637 0.07784157
vt 0.678634 0.08345646
vn -0.368071 -0.1494465 0.9177088
vn -0.9293224 0.3170482 -0.1893155
vn -0.1566906 0.9001665 0.4063844
vn 0.8127437 0.3170482 0.4888028
vn 0.2660702 0.6814971 -0.6817392
vn 0.3681159 0.1494017 -0.9176981
vn -0.8126987 -0.317093 -0.4888485
vn 0.1567355 -0.9002114 -0.4062677
vn 0.9293673 -0.317093 0.1890197
vn -0.2660253 -0.681542 0.6817118
vn 0.4774506 -0.8418996 -0.2514877
vn 0.9293673 0.003622055 0.3691386
vn 0.5940742 0.4118049 -0.6910083
vn -0.04006696 -0.4118498 0.9103705
vn 0.1786025 0.8418547 0.5092954
vn 0.04011184 0.4118049 -0.9103888
vn -0.9293224 -0.003666937 -0.3692513
vn -0.1785575 -0.8418996 -0.5092371
vn -0.5940294 -0.4118498 0.6910201
vn -0.4774057 0.8418547 0.2517231
g ster27_0
f 3/3/3 2/2/2 1/1/1
f 4/4/4 3/3/3 1/1/1
f 3/3/3 5/5/5 2/2/2
f 4/4/4 5/5/5 3/3/3
f 8/8/8 7/7/7 6/6/6
f 9/9/9 8/8/8 6/6/6
f 8/8/8 10/10/10 7/7/7
f 9/9/9 10/10/10 8/8/8
f 13/13/13 12/12/12 11/11/11
f 11/11/11 12/12/12 14/14/14
f 13/13/13 15/15/15 12/12/12
f 12/12/12 15/15/15 14/14/14
f 18/18/18 17/17/17 16/16/16
f 19/19/19 17/17/17 18/18/18
f 17/17/17 20/20/20 16/16/16
f 19/19/19 20/20/20 17/17/17
