g ster119
v -2.096601 -1.017298 -0.2267623
v -0.6623049 1.839688 -2.126185
v -3.239394 6.755386 -0.350554
v -1.101946 1.839688 1.935262
v 2.096831 1.017067 0.2267599
v 2.096831 1.017067 0.2267599
v 1.101949 -1.839918 -1.935265
v 3.239625 -6.755162 0.3505511
v 0.6625352 -1.839918 2.126183
v -2.096601 -1.017298 -0.2267623
v 0.6625352 -1.839918 2.126183
v -0.8065767 -0.0001153946 7.456491
v 2.096831 1.017067 0.2267599
v -2.096601 -1.017298 -0.2267623
v -1.101946 1.839688 1.935262
v 2.096831 1.017067 0.2267599
v 0.8068066 -0.0001153946 -7.456494
v 1.101949 -1.839918 -1.935265
v -2.096601 -1.017298 -0.2267623
v -0.6623049 1.839688 -2.126185
vt 0.9551296 0.07390583
vt 0.9489734 0.0844594
vt 0.9542502 0.0844594
vt 0.9586475 0.0844594
vt 0.9542502 0.09677191
vt 0.9542502 0.09677191
vt 0.9489734 0.1038076
vt 0.9542502 0.1038076
vt 0.9586475 0.1038076
vt 0.9542502 0.1090844
vt 0.9639243 0.0695085
vt 0.9639243 0.07478529
vt 0.9692011 0.07478529
vt 0.9551296 0.07390583
vt 0.9639243 0.07918262
vt 0.9384198 0.07390583
vt 0.9436966 0.07478529
vt 0.9436966 0.0695085
vt 0.9551296 0.07390583
vt 0.9436966 0.07918262
vn -0.9834967 -0.1427096 -0.1112129
vn -0.05013394 0.3124012 -0.9486264
vn -0.4358211 0.8986455 -0.04996241
vn -0.2506912 0.3124012 0.9162748
vn 0.728954 0.6826607 0.0509953
vn 0.9835074 0.1426989 0.1111315
vn 0.250702 -0.3124119 -0.9162682
vn 0.4358318 -0.8986562 0.04967527
vn 0.05014467 -0.3124119 0.9486223
vn -0.7289432 -0.6826715 -0.05100378
vn 0.3664081 -0.84466 0.3902492
vn -0.1041301 -0.003862262 0.9945562
vn 0.8215188 0.4126798 0.3934491
vn -0.8832181 -0.4126905 0.2227384
vn -0.4435347 0.8446493 0.2997407
vn 0.8832288 0.4126798 -0.2227158
vn 0.1041409 0.003851473 -0.9945551
vn 0.4435455 -0.84466 -0.2996944
vn -0.821508 -0.4126905 -0.3934603
vn -0.3663974 0.8446493 -0.3902825
g ster119_0
f 3/3/3 2/2/2 1/1/1
f 4/4/4 3/3/3 1/1/1
f 3/3/3 5/5/5 2/2/2
f 4/4/4 5/5/5 3/3/3
f 8/8/8 7/7/7 6/6/6
f 9/9/9 8/8/8 6/6/6
f 8/8/8 10/10/10 7/7/7
f 9/9/9 10/10/10 8/8/8
f 13/13/13 12/12/12 11/11/11
f 11/11/11 12/12/12 14/14/14
f 13/13/13 15/15/15 12/12/12
f 12/12/12 15/15/15 14/14/14
f 18/18/18 17/17/17 16/16/16
f 19/19/19 17/17/17 18/18/18
f 17/17/17 20/20/20 16/16/16
f 19/19/19 20/20/20 17/17/17
