g ster296
v -0.2220478 -1.262374 1.95937
v -2.153594 1.719888 0.8640771
v -0.4556165 6.316434 4.018503
v 1.905313 1.719888 1.324391
v 0.2223463 1.262986 -1.959213
v 0.2223463 1.262986 -1.959213
v -1.905242 -1.719959 -1.324462
v 0.455687 -6.316051 -4.018574
v 2.153664 -1.719959 -0.8641477
v -0.2220478 -1.262374 1.95937
v 2.153664 -1.719959 -0.8641477
v 7.452281 7.820129E-05 0.845201
v 0.2223463 1.262986 -1.959213
v -0.2220478 -1.262374 1.95937
v 1.905313 1.719888 1.324391
v 0.2223463 1.262986 -1.959213
v -7.45221 7.820129E-05 -0.8452711
v -1.905242 -1.719959 -1.324462
v -0.2220478 -1.262374 1.95937
v -2.153594 1.719888 0.8640771
vt 0.6376616 0.07365538
vt 0.6312976 0.08320133
vt 0.6360706 0.08320133
vt 0.6408436 0.08320133
vt 0.6360706 0.09592926
vt 0.6360706 0.09592926
vt 0.6312976 0.1030887
vt 0.6360706 0.1030887
vt 0.6408436 0.1030887
vt 0.6368661 0.1086572
vt 0.6456165 0.06888241
vt 0.6456165 0.07365538
vt 0.651185 0.07365538
vt 0.6376616 0.07365538
vt 0.6456165 0.07842836
vt 0.6201607 0.07285989
vt 0.6265246 0.07365538
vt 0.6265246 0.06888241
vt 0.6376616 0.07365538
vt 0.6265246 0.07842836
vn -0.105211 -0.2610742 0.9595681
vn -0.954681 0.2922503 0.0563374
vn -0.05845118 0.8455747 0.5306476
vn 0.9079183 0.2922503 0.3004566
vn 0.07403493 0.7676418 -0.6365885
vn 0.1052081 0.261077 -0.9595676
vn -0.9079212 -0.2922474 -0.3004506
vn 0.05844831 -0.8455719 -0.5306525
vn 0.9546781 -0.2922474 -0.05640276
vn -0.07403779 -0.7676388 0.6365917
vn 0.4013536 -0.7910187 -0.4617409
vn 0.9936446 -0.003895164 0.1124954
vn 0.385767 0.5182561 -0.7632788
vn 0.206521 -0.5182531 0.8299173
vn 0.2922474 0.7910217 0.537472
vn -0.206524 0.5182561 -0.8299147
vn -0.9936476 0.003898144 -0.1124691
vn -0.2922503 -0.7910187 -0.5374748
vn -0.38577 -0.5182531 0.7632792
vn -0.4013566 0.7910217 0.4617333
g ster296_0
f 3/3/3 2/2/2 1/1/1
f 4/4/4 3/3/3 1/1/1
f 3/3/3 5/5/5 2/2/2
f 4/4/4 5/5/5 3/3/3
f 8/8/8 7/7/7 6/6/6
f 9/9/9 8/8/8 6/6/6
f 8/8/8 10/10/10 7/7/7
f 9/9/9 10/10/10 8/8/8
f 13/13/13 12/12/12 11/11/11
f 11/11/11 12/12/12 14/14/14
f 13/13/13 15/15/15 12/12/12
f 12/12/12 15/15/15 14/14/14
f 18/18/18 17/17/17 16/16/16
f 19/19/19 17/17/17 18/18/18
f 17/17/17 20/20/20 16/16/16
f 19/19/19 20/20/20 17/17/17
