g ster81
v 1.222436 -1.26253 1.547117
v -0.9196882 1.719828 2.130597
v 2.507364 6.316345 3.173227
v 2.285499 1.719828 -0.4020562
v -1.222319 1.262798 -1.547234
v -1.222319 1.262798 -1.547234
v -2.285382 -1.719945 0.4019389
v -2.507246 -6.316077 -3.173151
v 0.9198055 -1.719945 -2.130521
v 1.222436 -1.26253 1.547117
v 0.9198055 -1.719945 -2.130521
v 5.884684 0.0004234314 -4.64968
v -1.222319 1.262798 -1.547234
v 1.222436 -1.26253 1.547117
v 2.285499 1.719828 -0.4020562
v -1.222319 1.262798 -1.547234
v -5.884566 0.0004234314 4.649563
v -2.285382 -1.719945 0.4019389
v 1.222436 -1.26253 1.547117
v -0.9196882 1.719828 2.130597
vt 0.6376616 0.07365538
vt 0.6312976 0.08320133
vt 0.6360706 0.08320133
vt 0.6408436 0.08320133
vt 0.6360706 0.09592926
vt 0.6360706 0.09592926
vt 0.6312976 0.1030887
vt 0.6360706 0.1030887
vt 0.6408436 0.1030887
vt 0.6368661 0.1086572
vt 0.6456165 0.06888241
vt 0.6456165 0.07365538
vt 0.651185 0.07365538
vt 0.6376616 0.07365538
vt 0.6456165 0.07842836
vt 0.6201607 0.07285989
vt 0.6265246 0.07365538
vt 0.6265246 0.06888241
vt 0.6376616 0.07365538
vt 0.6265246 0.07842836
vn 0.5981138 -0.2639711 0.7566896
vn -0.6181653 0.2973885 0.7276206
vn 0.3374825 0.8453824 0.4140461
vn 0.8520622 0.2973885 -0.4307554
vn -0.3976312 0.7651882 -0.5063363
vn -0.5981168 0.2639741 -0.7566862
vn -0.8520651 -0.2973854 0.4307516
vn -0.3374856 -0.8453793 -0.4140499
vn 0.6181623 -0.2973854 -0.7276244
vn 0.3976282 -0.7651851 0.5063432
vn -0.03675717 -0.7919165 -0.6095221
vn 0.7852336 0.003342927 -0.6191906
vn -0.2639741 0.5179226 -0.8136792
vn 0.7317708 -0.5179195 0.4430246
vn 0.584748 0.7919195 0.1758784
vn -0.7317738 0.5179226 -0.4430161
vn -0.7852367 -0.003339887 0.6191868
vn -0.5914339 -0.7919165 -0.1519018
vn 0.2639711 -0.5179195 0.8136821
vn 0.03675419 0.7919195 0.6095183
g ster81_0
f 3/3/3 2/2/2 1/1/1
f 4/4/4 3/3/3 1/1/1
f 3/3/3 5/5/5 2/2/2
f 4/4/4 5/5/5 3/3/3
f 8/8/8 7/7/7 6/6/6
f 9/9/9 8/8/8 6/6/6
f 8/8/8 10/10/10 7/7/7
f 9/9/9 10/10/10 8/8/8
f 13/13/13 12/12/12 11/11/11
f 11/11/11 12/12/12 14/14/14
f 13/13/13 15/15/15 12/12/12
f 12/12/12 15/15/15 14/14/14
f 18/18/18 17/17/17 16/16/16
f 19/19/19 17/17/17 18/18/18
f 17/17/17 20/20/20 16/16/16
f 19/19/19 20/20/20 17/17/17
