g ster135
v -0.2476678 -1.017263 -2.094217
v 1.924196 1.839686 -1.120913
v -0.3826852 6.754849 -3.235724
v -2.132677 1.839686 -0.6413074
v 0.2476215 1.017083 2.094264
v 0.2476215 1.017083 2.094264
v 2.132631 -1.839867 0.6413536
v 0.3826385 -6.755257 3.23577
v -1.924242 -1.839867 1.121187
v -0.2476678 -1.017263 -2.094217
v -1.924242 -1.839867 1.121187
v -7.448118 -9.059906E-05 0.880929
v 0.2476215 1.017083 2.094264
v -0.2476678 -1.017263 -2.094217
v -2.132677 1.839686 -0.6413074
v 0.2476215 1.017083 2.094264
v 7.448071 -9.059906E-05 -0.8806558
v 2.132631 -1.839867 0.6413536
v -0.2476678 -1.017263 -2.094217
v 1.924196 1.839686 -1.120913
vt 0.6898637 0.07784157
vt 0.6834468 0.0882692
vt 0.6882595 0.0882692
vt 0.6930723 0.0882692
vt 0.6890616 0.09869684
vt 0.6890616 0.09869684
vt 0.6834468 0.1075202
vt 0.6882595 0.1075202
vt 0.6930723 0.1075202
vt 0.6890616 0.1131351
vt 0.6986871 0.07302882
vt 0.6986871 0.07864369
vt 0.704302 0.07864369
vt 0.6898637 0.07784157
vt 0.6986871 0.08345646
vt 0.6730191 0.07784157
vt 0.678634 0.07864369
vt 0.678634 0.07302882
vt 0.6898637 0.07784157
vt 0.678634 0.08345646
vn -0.1129407 -0.1440933 -0.983098
vn 0.9151951 0.3154522 -0.2508143
vn -0.05062938 0.8996203 -0.433728
vn -0.9463538 0.3154522 -0.07003156
vn 0.08957094 0.681531 0.7262868
vn 0.1129376 0.1440963 0.9830979
vn 0.9463508 -0.3154492 0.07008585
vn 0.0506264 -0.8996173 0.4337345
vn -0.9151981 -0.3154492 0.2508072
vn -0.08957398 -0.6815279 -0.7262894
vn -0.2998744 -0.8450949 0.4425945
vn -0.9930872 0.003895938 0.1173144
vn -0.1986187 0.4167081 0.8870766
vn -0.3933413 -0.416705 -0.8195362
vn -0.3933413 0.845098 -0.3620662
vn 0.3933383 0.4167081 0.819536
vn 0.9930842 0.003895938 -0.1173398
vn 0.3933383 -0.8450949 0.3620767
vn 0.1986156 -0.416705 -0.8870788
vn 0.2998714 0.845098 -0.4425906
g ster135_0
f 3/3/3 2/2/2 1/1/1
f 4/4/4 3/3/3 1/1/1
f 3/3/3 5/5/5 2/2/2
f 4/4/4 5/5/5 3/3/3
f 8/8/8 7/7/7 6/6/6
f 9/9/9 8/8/8 6/6/6
f 8/8/8 10/10/10 7/7/7
f 9/9/9 10/10/10 8/8/8
f 13/13/13 12/12/12 11/11/11
f 11/11/11 12/12/12 14/14/14
f 13/13/13 15/15/15 12/12/12
f 12/12/12 15/15/15 14/14/14
f 18/18/18 17/17/17 16/16/16
f 19/19/19 17/17/17 18/18/18
f 17/17/17 20/20/20 16/16/16
f 19/19/19 20/20/20 17/17/17
