g ster118
v -2.795518 -1.356649 -0.3022995
v -0.8831244 2.452969 -2.834864
v -4.319244 9.006627 -0.4673548
v -1.469313 2.452969 2.5804
v 2.795724 1.355837 0.3023968
v 2.795724 1.355837 0.3023968
v 1.469214 -2.453174 -2.580303
v 4.319146 -9.006833 0.4671488
v 0.8836336 -2.453174 2.834962
v -2.795518 -1.356649 -0.3022995
v 0.8836336 -2.453174 2.834962
v -1.075486 -0.0004062653 9.94204
v 2.795724 1.355837 0.3023968
v -2.795518 -1.356649 -0.3022995
v -1.469313 2.452969 2.5804
v 2.795724 1.355837 0.3023968
v 1.075692 -0.0004062653 -9.941943
v 1.469214 -2.453174 -2.580303
v -2.795518 -1.356649 -0.3022995
v -0.8831244 2.452969 -2.834864
vt 0.7229626 0.1022395
vt 0.7141311 0.1154866
vt 0.7210701 0.1154866
vt 0.7273782 0.1154866
vt 0.7204393 0.131257
vt 0.7204393 0.131257
vt 0.7141311 0.1413501
vt 0.7210701 0.1413501
vt 0.7273782 0.1413501
vt 0.7217009 0.1489199
vt 0.7336864 0.09593133
vt 0.7336864 0.1022395
vt 0.7412562 0.1035011
vt 0.7229626 0.1022395
vt 0.7336864 0.1091785
vt 0.7002532 0.1016087
vt 0.707823 0.1022395
vt 0.707823 0.09593133
vt 0.7229626 0.1022395
vt 0.707823 0.1091785
vn -0.9834992 -0.1427017 -0.1112003
vn -0.05014092 0.312407 -0.9486241
vn -0.4358261 0.8986484 -0.04986569
vn -0.2506973 0.312407 0.9162711
vn 0.7289432 0.6826647 0.05109485
vn 0.9834955 0.1427054 0.1112282
vn 0.2506936 -0.3124032 -0.9162734
vn 0.4281088 -0.8986448 0.09570997
vn 0.05013722 -0.3124032 0.9486256
vn -0.728947 -0.6826611 -0.0510896
vn 0.3663991 -0.8446488 0.390282
vn -0.1041369 0.003858685 0.9945555
vn 0.8215077 0.4126851 0.3934668
vn -0.8832211 -0.4126813 0.2227434
vn -0.4435399 0.8446526 0.2997239
vn 0.8832174 0.4126851 -0.222751
vn 0.1041332 0.003858685 -0.9945559
vn 0.4435362 -0.8446488 -0.29974
vn -0.8215114 -0.4126813 -0.3934629
vn -0.3664028 0.8446526 -0.3902704
g ster118_0
f 3/3/3 2/2/2 1/1/1
f 4/4/4 3/3/3 1/1/1
f 3/3/3 5/5/5 2/2/2
f 4/4/4 5/5/5 3/3/3
f 8/8/8 7/7/7 6/6/6
f 9/9/9 8/8/8 6/6/6
f 8/8/8 10/10/10 7/7/7
f 9/9/9 10/10/10 8/8/8
f 13/13/13 12/12/12 11/11/11
f 11/11/11 12/12/12 14/14/14
f 13/13/13 15/15/15 12/12/12
f 12/12/12 15/15/15 14/14/14
f 18/18/18 17/17/17 16/16/16
f 19/19/19 17/17/17 18/18/18
f 17/17/17 20/20/20 16/16/16
f 19/19/19 20/20/20 17/17/17
