g ster159
v 2.474494 -1.356569 1.335576
v -0.2525606 2.45295 2.958449
v 3.82304 9.006842 2.06345
v 2.334856 2.45295 -1.83458
v -2.474391 1.356192 -1.335679
v -2.474391 1.356192 -1.335679
v -2.334753 -2.453053 1.834477
v -3.822937 -9.007219 -2.063553
v 0.252388 -2.453053 -2.958552
v 2.474494 -1.356569 1.335576
v 0.252388 -2.453053 -2.958552
v 4.749925 -5.149841E-05 -8.799962
v -2.474391 1.356192 -1.335679
v 2.474494 -1.356569 1.335576
v 2.334856 2.45295 -1.83458
v -2.474391 1.356192 -1.335679
v -4.750097 -5.149841E-05 8.79986
v -2.334753 -2.453053 1.834477
v 2.474494 -1.356569 1.335576
v -0.2525606 2.45295 2.958449
vt 0.6898637 0.07784157
vt 0.6834468 0.0882692
vt 0.6882595 0.0882692
vt 0.6930723 0.0882692
vt 0.6890616 0.09869684
vt 0.6890616 0.09869684
vt 0.6834468 0.1075202
vt 0.6882595 0.1075202
vt 0.6930723 0.1075202
vt 0.6890616 0.1131351
vt 0.6986871 0.07302882
vt 0.6986871 0.07864369
vt 0.704302 0.07864369
vt 0.6898637 0.07784157
vt 0.6986871 0.08345646
vt 0.6730191 0.07784157
vt 0.678634 0.07864369
vt 0.678634 0.07302882
vt 0.6898637 0.07784157
vt 0.678634 0.08345646
vn 0.8724738 -0.1448458 0.4667003
vn -0.3143368 0.3143368 0.8957593
vn 0.3850337 0.9006779 0.2013168
vn 0.5757711 0.3143368 -0.7547715
vn -0.6392969 0.681683 -0.3558197
vn -0.8724204 0.1447925 -0.4668167
vn -0.5757177 -0.3143902 0.7547899
vn -0.3849804 -0.9007311 -0.2011802
vn 0.3073258 -0.3143902 -0.8981702
vn 0.6393502 -0.6817364 0.3556218
vn -0.1942429 -0.8442163 -0.4995683
vn 0.4768702 0.003505528 -0.8789667
vn -0.6181039 0.4132378 -0.6687168
vn 0.9007311 -0.4132911 0.1336932
vn 0.5263207 0.844163 -0.1018593
vn -0.9006779 0.4132378 -0.1342161
vn -0.4768168 -0.003558815 0.8789955
vn -0.5262673 -0.8442163 0.1016927
vn 0.6181571 -0.4132911 0.6686347
vn 0.1942962 0.844163 0.4996377
g ster159_0
f 3/3/3 2/2/2 1/1/1
f 4/4/4 3/3/3 1/1/1
f 3/3/3 5/5/5 2/2/2
f 4/4/4 5/5/5 3/3/3
f 8/8/8 7/7/7 6/6/6
f 9/9/9 8/8/8 6/6/6
f 8/8/8 10/10/10 7/7/7
f 9/9/9 10/10/10 8/8/8
f 13/13/13 12/12/12 11/11/11
f 11/11/11 12/12/12 14/14/14
f 13/13/13 15/15/15 12/12/12
f 12/12/12 15/15/15 14/14/14
f 18/18/18 17/17/17 16/16/16
f 19/19/19 17/17/17 18/18/18
f 17/17/17 20/20/20 16/16/16
f 19/19/19 20/20/20 17/17/17
