g ster30
v -0.2222815 -1.262359 1.959364
v -2.153587 1.720112 0.864079
v -0.4556208 6.316174 4.018484
v 1.905293 1.720112 1.32439
v 0.2223372 1.262758 -1.959194
v 0.2223372 1.262758 -1.959194
v -1.905465 -1.720168 -1.324446
v 0.4559045 -6.315775 -4.01854
v 2.153643 -1.720168 -0.8641348
v -0.2222815 -1.262359 1.959364
v 2.153643 -1.720168 -0.8641348
v 7.452225 8.583069E-05 0.845202
v 0.2223372 1.262758 -1.959194
v -0.2222815 -1.262359 1.959364
v 1.905293 1.720112 1.32439
v 0.2223372 1.262758 -1.959194
v -7.452169 8.583069E-05 -0.8452587
v -1.905465 -1.720168 -1.324446
v -0.2222815 -1.262359 1.959364
v -2.153587 1.720112 0.864079
vt 0.6376616 0.07365538
vt 0.6312976 0.08320133
vt 0.6360706 0.08320133
vt 0.6408436 0.08320133
vt 0.6360706 0.09592926
vt 0.6360706 0.09592926
vt 0.6312976 0.1030887
vt 0.6360706 0.1030887
vt 0.6408436 0.1030887
vt 0.6368661 0.1086572
vt 0.6456165 0.06888241
vt 0.6456165 0.07365538
vt 0.651185 0.07365538
vt 0.6376616 0.07365538
vt 0.6456165 0.07842836
vt 0.6201607 0.07285989
vt 0.6265246 0.07365538
vt 0.6265246 0.06888241
vt 0.6376616 0.07365538
vt 0.6265246 0.07842836
vn -0.1051968 -0.261076 0.9595692
vn -0.9546376 0.2922296 0.05717479
vn -0.05843848 0.8455351 0.5307121
vn 0.9078979 0.2922296 0.3005383
vn 0.0740431 0.7676048 -0.6366322
vn 0.1052153 0.2610574 -0.9595722
vn -0.9078794 -0.2922481 -0.3005762
vn 0.05845702 -0.8455536 -0.5306806
vn 0.9546561 -0.2922481 -0.05676932
vn -0.07402462 -0.7676232 0.6366121
vn 0.4091436 -0.7910024 -0.454881
vn 0.9936213 0.003887236 0.1127014
vn 0.3857645 0.5182276 -0.7632993
vn 0.2065247 -0.5182461 0.8299208
vn 0.2922481 0.7909839 0.5375273
vn -0.2065062 0.5182276 -0.8299369
vn -0.9936028 -0.003905773 -0.1128635
vn -0.2922296 -0.7910024 -0.53751
vn -0.3857459 -0.5182461 0.7632962
vn -0.4091251 0.7909839 0.4549298
g ster30_0
f 3/3/3 2/2/2 1/1/1
f 4/4/4 3/3/3 1/1/1
f 3/3/3 5/5/5 2/2/2
f 4/4/4 5/5/5 3/3/3
f 8/8/8 7/7/7 6/6/6
f 9/9/9 8/8/8 6/6/6
f 8/8/8 10/10/10 7/7/7
f 9/9/9 10/10/10 8/8/8
f 13/13/13 12/12/12 11/11/11
f 11/11/11 12/12/12 14/14/14
f 13/13/13 15/15/15 12/12/12
f 12/12/12 15/15/15 14/14/14
f 18/18/18 17/17/17 16/16/16
f 19/19/19 17/17/17 18/18/18
f 17/17/17 20/20/20 16/16/16
f 19/19/19 20/20/20 17/17/17
