g ster228
v 0.1402955 -1.262189 -1.966969
v 2.115596 1.719939 -0.9535203
v 0.2875528 6.315961 -4.034277
v -1.958975 1.719939 -1.243925
v -0.1402922 1.262871 1.966738
v -0.1402922 1.262871 1.966738
v 1.958979 -1.719943 1.243693
v -0.2875495 -6.316192 4.034045
v -2.115593 -1.719943 0.953289
v 0.1402955 -1.262189 -1.966969
v -2.115593 -1.719943 0.953289
v -7.481005 0.0003409386 -0.5334377
v -0.1402922 1.262871 1.966738
v 0.1402955 -1.262189 -1.966969
v -1.958975 1.719939 -1.243925
v -0.1402922 1.262871 1.966738
v 7.481008 0.0003409386 0.533206
v 1.958979 -1.719943 1.243693
v 0.1402955 -1.262189 -1.966969
v 2.115596 1.719939 -0.9535203
vt 0.6376616 0.07365538
vt 0.6312976 0.08320133
vt 0.6360706 0.08320133
vt 0.6408436 0.08320133
vt 0.6360706 0.09592926
vt 0.6360706 0.09592926
vt 0.6312976 0.1030887
vt 0.6360706 0.1030887
vt 0.6408436 0.1030887
vt 0.6368661 0.1086572
vt 0.6456165 0.06888241
vt 0.6456165 0.07365538
vt 0.651185 0.07365538
vt 0.6376616 0.07365538
vt 0.6456165 0.07842836
vt 0.6201607 0.07285989
vt 0.6265246 0.07365538
vt 0.6265246 0.06888241
vt 0.6376616 0.07365538
vt 0.6265246 0.07842836
vn 0.06647205 -0.2620556 -0.9627608
vn 0.9505097 0.2934017 -0.1022099
vn 0.03517866 0.8410355 -0.5398349
vn -0.919269 0.2934017 -0.2624118
vn -0.04305476 0.7628022 0.645197
vn -0.0665248 0.2621083 0.9627428
vn 0.9192163 -0.293349 0.2626553
vn -0.03523141 -0.8409829 0.5399135
vn -0.9505624 -0.293349 0.1018698
vn 0.04300201 -0.7627494 -0.6452628
vn -0.3872818 -0.7862195 0.4815306
vn -0.9975024 -0.003885329 -0.07052569
vn -0.3559884 0.5124553 0.7814485
vn -0.2386383 -0.5124025 -0.8249214
vn -0.3168717 0.7862722 -0.5304416
vn 0.2385855 0.5124553 0.824904
vn 0.9974497 -0.003885329 0.07126721
vn 0.316819 -0.7862195 0.5305513
vn 0.3559357 -0.5124025 -0.7815071
vn 0.387229 0.7862722 -0.4814869
g ster228_0
f 3/3/3 2/2/2 1/1/1
f 4/4/4 3/3/3 1/1/1
f 3/3/3 5/5/5 2/2/2
f 4/4/4 5/5/5 3/3/3
f 8/8/8 7/7/7 6/6/6
f 9/9/9 8/8/8 6/6/6
f 8/8/8 10/10/10 7/7/7
f 9/9/9 10/10/10 8/8/8
f 13/13/13 12/12/12 11/11/11
f 11/11/11 12/12/12 14/14/14
f 13/13/13 15/15/15 12/12/12
f 12/12/12 15/15/15 14/14/14
f 18/18/18 17/17/17 16/16/16
f 19/19/19 17/17/17 18/18/18
f 17/17/17 20/20/20 16/16/16
f 19/19/19 20/20/20 17/17/17
