g ster273
v 1.222472 -1.262564 1.547188
v -0.9197788 1.720087 2.130456
v 2.50736 6.316268 3.173248
v 2.285309 1.720087 -0.4019246
v -1.2224 1.2623 -1.547067
v -1.2224 1.2623 -1.547067
v -2.285429 -1.720544 0.4020457
v -2.507095 -6.315762 -3.173319
v 0.9198503 -1.720544 -2.130528
v 1.222472 -1.262564 1.547188
v 0.9198503 -1.720544 -2.130528
v 5.884768 -0.000228405 -4.64961
v -1.2224 1.2623 -1.547067
v 1.222472 -1.262564 1.547188
v 2.285309 1.720087 -0.4019246
v -1.2224 1.2623 -1.547067
v -5.884696 -0.000228405 4.649731
v -2.285429 -1.720544 0.4020457
v 1.222472 -1.262564 1.547188
v -0.9197788 1.720087 2.130456
vt 0.6376616 0.07365538
vt 0.6312976 0.08320133
vt 0.6360706 0.08320133
vt 0.6408436 0.08320133
vt 0.6360706 0.09592926
vt 0.6360706 0.09592926
vt 0.6312976 0.1030887
vt 0.6360706 0.1030887
vt 0.6408436 0.1030887
vt 0.6368661 0.1086572
vt 0.6456165 0.06888241
vt 0.6456165 0.07365538
vt 0.651185 0.07365538
vt 0.6376616 0.07365538
vt 0.6456165 0.07842836
vt 0.6201607 0.07285989
vt 0.6265246 0.07365538
vt 0.6265246 0.06888241
vt 0.6376616 0.07365538
vt 0.6265246 0.07842836
vn 0.5980763 -0.2639578 0.7567239
vn -0.6181149 0.2973613 0.7276745
vn 0.3374639 0.8453155 0.4141979
vn 0.8520063 0.2973613 -0.4308846
vn -0.3975967 0.7651271 -0.5064558
vn -0.5980678 0.2639494 -0.7567335
vn -0.8519979 -0.2973697 0.4308955
vn -0.3374554 -0.8453239 -0.4141875
vn 0.6181234 -0.2973697 -0.7276639
vn 0.3976052 -0.7651355 0.5064363
vn -0.03674877 -0.791865 -0.6095895
vn 0.7851826 -0.00334543 -0.6192552
vn -0.2639494 0.5178794 -0.8137147
vn 0.7317237 -0.5178878 0.4431396
vn 0.5913939 0.7918565 0.1523694
vn -0.7317152 0.5178794 -0.4431635
vn -0.7851741 -0.00334543 0.619266
vn -0.5913855 -0.791865 -0.1523582
vn 0.2639578 -0.5178878 0.8137066
vn 0.03675729 0.7918565 0.6095999
g ster273_0
f 3/3/3 2/2/2 1/1/1
f 4/4/4 3/3/3 1/1/1
f 3/3/3 5/5/5 2/2/2
f 4/4/4 5/5/5 3/3/3
f 8/8/8 7/7/7 6/6/6
f 9/9/9 8/8/8 6/6/6
f 8/8/8 10/10/10 7/7/7
f 9/9/9 10/10/10 8/8/8
f 13/13/13 12/12/12 11/11/11
f 11/11/11 12/12/12 14/14/14
f 13/13/13 15/15/15 12/12/12
f 12/12/12 15/15/15 14/14/14
f 18/18/18 17/17/17 16/16/16
f 19/19/19 17/17/17 18/18/18
f 17/17/17 20/20/20 16/16/16
f 19/19/19 20/20/20 17/17/17
