g ster245
v 2.284252 -0.5012827 -0.1132545
v 0.5564876 2.102683 1.901027
v 1.582334 7.314492 -0.4948955
v 0.3057857 1.881637 -2.170422
v -2.284037 0.5019798 0.1132665
v -2.284037 0.5019798 0.1132665
v -0.3055701 -1.881624 2.170434
v -1.582346 -7.31448 0.4949079
v -0.5560436 -2.102671 -1.901014
v 2.284252 -0.5012827 -0.1132545
v -0.5560436 -2.102671 -1.901014
v -0.4597778 -0.4059296 -7.474847
v -2.284037 0.5019798 0.1132665
v 2.284252 -0.5012827 -0.1132545
v 0.3057857 1.881637 -2.170422
v -2.284037 0.5019798 0.1132665
v 0.4599934 0.4066262 7.474859
v -0.3055701 -1.881624 2.170434
v 2.284252 -0.5012827 -0.1132545
v 0.5564876 2.102683 1.901027
vt 0.6376616 0.07365538
vt 0.6312976 0.08320133
vt 0.6360706 0.08320133
vt 0.6408436 0.08320133
vt 0.6360706 0.09592926
vt 0.6360706 0.09592926
vt 0.6312976 0.1030887
vt 0.6360706 0.1030887
vt 0.6408436 0.1030887
vt 0.6368661 0.1086572
vt 0.6456165 0.06888241
vt 0.6456165 0.07365538
vt 0.651185 0.07365538
vt 0.6376616 0.07365538
vt 0.6456165 0.07842836
vt 0.6201607 0.07285989
vt 0.6265246 0.07365538
vt 0.6265246 0.06888241
vt 0.6376616 0.07365538
vt 0.6265246 0.07842836
vn 0.9941116 0.08966416 -0.06084779
vn 0.1286504 0.3937451 0.9101724
vn 0.2140459 0.9768236 0
vn 0.0194931 0.2923848 -0.9561021
vn -0.8689618 0.4948793 0
vn -0.9941102 -0.08966559 0.06086918
vn -0.01949161 -0.2923863 0.9561017
vn -0.2140442 -0.976824 0
vn -0.1286489 -0.3937466 -0.910172
vn 0.8689615 -0.4948797 0
vn -0.2222123 -0.931736 -0.2872103
vn -0.05847639 -0.05068088 -0.9970015
vn -0.9473285 0.1910245 -0.2570571
vn 0.9161421 -0.2222137 -0.3336236
vn 0.175432 0.8927498 -0.4149956
vn -0.9161407 0.2222123 0.3336283
vn 0.05847782 0.0506795 0.9970015
vn -0.1754306 -0.8927513 0.4149931
vn 0.9473299 -0.1910259 0.257051
vn 0.2222137 0.9317346 0.2872136
g ster245_0
f 3/3/3 2/2/2 1/1/1
f 4/4/4 3/3/3 1/1/1
f 3/3/3 5/5/5 2/2/2
f 4/4/4 5/5/5 3/3/3
f 8/8/8 7/7/7 6/6/6
f 9/9/9 8/8/8 6/6/6
f 8/8/8 10/10/10 7/7/7
f 9/9/9 10/10/10 8/8/8
f 13/13/13 12/12/12 11/11/11
f 11/11/11 12/12/12 14/14/14
f 13/13/13 15/15/15 12/12/12
f 12/12/12 15/15/15 14/14/14
f 18/18/18 17/17/17 16/16/16
f 19/19/19 17/17/17 18/18/18
f 17/17/17 20/20/20 16/16/16
f 19/19/19 20/20/20 17/17/17
