g ster178
v 2.132996 -0.5016842 -0.825357
v 1.125369 2.102656 1.62987
v 1.346806 7.314684 -0.9671035
v -0.3918767 1.880996 -2.156658
v -2.132791 0.5021486 0.8253751
v -2.132791 0.5021486 0.8253751
v 0.3920817 -1.880978 2.156453
v -1.346601 -7.31422 0.9668984
v -1.125164 -2.102415 -1.629852
v 2.132996 -0.5016842 -0.825357
v -1.125164 -2.102415 -1.629852
v -2.785494 -0.4059215 -6.951706
v -2.132791 0.5021486 0.8253751
v 2.132996 -0.5016842 -0.825357
v -0.3918767 1.880996 -2.156658
v -2.132791 0.5021486 0.8253751
v 2.785699 0.4063864 6.951501
v 0.3920817 -1.880978 2.156453
v 2.132996 -0.5016842 -0.825357
v 1.125369 2.102656 1.62987
vt 0.6376616 0.07365538
vt 0.6312976 0.08320133
vt 0.6360706 0.08320133
vt 0.6408436 0.08320133
vt 0.6360706 0.09592926
vt 0.6360706 0.09592926
vt 0.6312976 0.1030887
vt 0.6360706 0.1030887
vt 0.6408436 0.1030887
vt 0.6368661 0.1086572
vt 0.6456165 0.06888241
vt 0.6456165 0.07365538
vt 0.651185 0.07365538
vt 0.6376616 0.07365538
vt 0.6456165 0.07842836
vt 0.6201607 0.07285989
vt 0.6265246 0.07365538
vt 0.6265246 0.06888241
vt 0.6376616 0.07365538
vt 0.6265246 0.07842836
vn 0.9264108 0.08842176 -0.3659845
vn 0.4113064 0.3959468 0.8210074
vn 0.1806626 0.9725562 -0.1466135
vn -0.288313 0.288313 -0.9130998
vn -0.8187936 0.4958923 0.2892539
vn -0.9264274 -0.08840513 0.3659464
vn 0.2882964 -0.2882964 0.9131103
vn -0.1806793 -0.9725395 0.1467033
vn -0.411323 -0.3959302 -0.8210071
vn 0.818777 -0.4958758 -0.2893293
vn -0.2960011 -0.9340989 -0.199606
vn -0.3728823 -0.05765265 -0.9260858
vn -0.9802442 0.1883673 0.06032435
vn 0.757272 -0.2191033 -0.6152503
vn 0.03458828 0.8956749 -0.4433623
vn -0.7572886 0.2191198 0.6152239
vn 0.3728658 0.05766922 0.9260914
vn -0.03460485 -0.8956583 0.4433946
vn 0.9802276 -0.1883507 -0.0606445
vn 0.2959845 0.9341155 0.1995531
g ster178_0
f 3/3/3 2/2/2 1/1/1
f 4/4/4 3/3/3 1/1/1
f 3/3/3 5/5/5 2/2/2
f 4/4/4 5/5/5 3/3/3
f 8/8/8 7/7/7 6/6/6
f 9/9/9 8/8/8 6/6/6
f 8/8/8 10/10/10 7/7/7
f 9/9/9 10/10/10 8/8/8
f 13/13/13 12/12/12 11/11/11
f 11/11/11 12/12/12 14/14/14
f 13/13/13 15/15/15 12/12/12
f 12/12/12 15/15/15 14/14/14
f 18/18/18 17/17/17 16/16/16
f 19/19/19 17/17/17 18/18/18
f 17/17/17 20/20/20 16/16/16
f 19/19/19 20/20/20 17/17/17
