g ster106
v -2.385642 -1.695523 -2.581299
v 1.496241 3.06595 -3.396638
v -3.685787 11.25852 -3.987957
v -3.503685 3.06595 1.22465
v 2.385796 1.695369 2.581489
v 2.385796 1.695369 2.581489
v 3.503838 -3.066448 -1.224461
v 3.685941 -11.25867 3.988147
v -1.496087 -3.066448 3.396828
v -2.385642 -1.695523 -2.581299
v -1.496087 -3.066448 3.396828
v -9.179795 9.536743E-05 8.484368
v 2.385796 1.695369 2.581489
v -2.385642 -1.695523 -2.581299
v -3.503685 3.06595 1.22465
v 2.385796 1.695369 2.581489
v 9.179605 9.536743E-05 -8.484179
v 3.503838 -3.066448 -1.224461
v -2.385642 -1.695523 -2.581299
v 1.496241 3.06595 -3.396638
vt 0.6898637 0.07784157
vt 0.6834468 0.0882692
vt 0.6882595 0.0882692
vt 0.6930723 0.0882692
vt 0.6890616 0.09869684
vt 0.6890616 0.09869684
vt 0.6834468 0.1075202
vt 0.6882595 0.1075202
vt 0.6930723 0.1075202
vt 0.6890616 0.1131351
vt 0.6986871 0.07302882
vt 0.6986871 0.07864369
vt 0.704302 0.07864369
vt 0.6898637 0.07784157
vt 0.6986871 0.08345646
vt 0.6730191 0.07784157
vt 0.678634 0.07864369
vt 0.678634 0.07302882
vt 0.6898637 0.07784157
vt 0.678634 0.08345646
vn -0.6746656 -0.1447778 -0.7237856
vn 0.5827562 0.3143931 -0.7493678
vn -0.2932006 0.900719 -0.3205288
vn -0.7876922 0.3143931 0.5298093
vn 0.4979862 0.6817297 0.5359612
vn 0.6745904 0.1448531 0.7238407
vn 0.7946813 -0.3143178 -0.519313
vn 0.2931253 -0.9006438 0.3208089
vn -0.5828314 -0.3143178 0.7493409
vn -0.4980615 -0.6816546 -0.5359868
vn 0.01762283 -0.8441304 0.5358483
vn -0.7311789 -0.003494501 0.6821768
vn 0.363767 0.4132914 0.8347837
vn -0.8018207 -0.4132162 -0.4316664
vn -0.5333822 0.8442057 -0.0531055
vn 0.8017454 0.4132914 0.4317344
vn 0.7311038 -0.003494501 -0.6822573
vn 0.5333071 -0.8441304 0.05502217
vn -0.3638422 -0.4132162 -0.8347881
vn -0.01769805 0.8442057 -0.5357271
g ster106_0
f 3/3/3 2/2/2 1/1/1
f 4/4/4 3/3/3 1/1/1
f 3/3/3 5/5/5 2/2/2
f 4/4/4 5/5/5 3/3/3
f 8/8/8 7/7/7 6/6/6
f 9/9/9 8/8/8 6/6/6
f 8/8/8 10/10/10 7/7/7
f 9/9/9 10/10/10 8/8/8
f 13/13/13 12/12/12 11/11/11
f 11/11/11 12/12/12 14/14/14
f 13/13/13 15/15/15 12/12/12
f 12/12/12 15/15/15 14/14/14
f 18/18/18 17/17/17 16/16/16
f 19/19/19 17/17/17 18/18/18
f 17/17/17 20/20/20 16/16/16
f 19/19/19 20/20/20 17/17/17
