g ster120
v -2.795509 -1.356355 -0.3023081
v -0.883419 2.452656 -2.834872
v -4.318933 9.006922 -0.4673634
v -1.469001 2.452656 2.580392
v 2.478669 1.202303 0.2681036
v 2.478669 1.202303 0.2681036
v 1.469223 -2.453182 -2.580311
v 4.319155 -9.007145 0.4674435
v 0.883338 -2.453182 2.834953
v -2.795509 -1.356355 -0.3023081
v 0.883338 -2.453182 2.834953
v -1.075478 -0.0001115799 9.942032
v 2.478669 1.202303 0.2681036
v -2.795509 -1.356355 -0.3023081
v -1.469001 2.452656 2.580392
v 2.478669 1.202303 0.2681036
v 1.075701 -0.0001115799 -9.941952
v 1.469223 -2.453182 -2.580311
v -2.795509 -1.356355 -0.3023081
v -0.883419 2.452656 -2.834872
vt 0.690336 0.07822117
vt 0.6839348 0.08782297
vt 0.6887357 0.08782297
vt 0.6935366 0.08782297
vt 0.6887357 0.09822492
vt 0.6887357 0.09822492
vt 0.6839348 0.1078267
vt 0.6887357 0.1078267
vt 0.6935366 0.1078267
vt 0.6895359 0.1134278
vt 0.6983375 0.07342027
vt 0.6983375 0.07822117
vt 0.7031384 0.07822117
vt 0.690336 0.07822117
vt 0.6983375 0.08302207
vt 0.6735328 0.07822117
vt 0.6791339 0.07822117
vt 0.6791339 0.07342027
vt 0.690336 0.07822117
vt 0.6791339 0.08302207
vn -0.9835049 -0.147385 -0.1048608
vn -0.04494321 0.3142027 -0.9482915
vn -0.4982277 0.8670462 0
vn -0.2449646 0.3142027 0.9172072
vn 0.747449 0.6603935 0.0721137
vn 0.9782429 0.1757264 0.1102774
vn 0.2550888 -0.3166338 -0.9136043
vn 0.3627202 -0.9318981 0
vn 0.05506748 -0.3166338 0.9469481
vn -0.7286026 -0.6849366 0
vn 0.3704857 -0.8397666 0.3969036
vn -0.1757264 -0.03198808 0.9839192
vn 0.8320735 0.4219065 0.3600677
vn -0.8834943 -0.4166445 0.214115
vn -0.4372928 0.8450286 0.3077362
vn 0.8936185 0.4219065 -0.1531045
vn 0.0396812 -0.03198808 -0.9987003
vn 0.447417 -0.8397666 -0.3075876
vn -0.8219492 -0.4166445 -0.3883384
vn -0.3603615 0.8450286 -0.3950521
g ster120_0
f 3/3/3 2/2/2 1/1/1
f 4/4/4 3/3/3 1/1/1
f 3/3/3 5/5/5 2/2/2
f 4/4/4 5/5/5 3/3/3
f 8/8/8 7/7/7 6/6/6
f 9/9/9 8/8/8 6/6/6
f 8/8/8 10/10/10 7/7/7
f 9/9/9 10/10/10 8/8/8
f 13/13/13 12/12/12 11/11/11
f 11/11/11 12/12/12 14/14/14
f 13/13/13 15/15/15 12/12/12
f 12/12/12 15/15/15 14/14/14
f 18/18/18 17/17/17 16/16/16
f 19/19/19 17/17/17 18/18/18
f 17/17/17 20/20/20 16/16/16
f 19/19/19 20/20/20 17/17/17
