g ster263
v 1.920119 -1.262667 0.4493833
v 0.6069975 1.72016 2.239882
v 3.93794 6.316308 0.921411
v 1.537905 1.72016 -1.737815
v -1.92007 1.262395 -0.4492092
v -1.92007 1.262395 -0.4492092
v -1.537857 -1.720432 1.737767
v -3.937668 -6.315688 -0.9214602
v -0.6069489 -1.720432 -2.239707
v 1.920119 -1.262667 0.4493833
v -0.6069489 -1.720432 -2.239707
v 1.709066 -0.0001358986 -7.302758
v -1.92007 1.262395 -0.4492092
v 1.920119 -1.262667 0.4493833
v 1.537905 1.72016 -1.737815
v -1.92007 1.262395 -0.4492092
v -1.708794 -0.0001358986 7.302709
v -1.537857 -1.720432 1.737767
v 1.920119 -1.262667 0.4493833
v 0.6069975 1.72016 2.239882
vt 0.6376616 0.07365538
vt 0.6312976 0.08320133
vt 0.6360706 0.08320133
vt 0.6408436 0.08320133
vt 0.6360706 0.09592926
vt 0.6360706 0.09592926
vt 0.6312976 0.1030887
vt 0.6360706 0.1030887
vt 0.6408436 0.1030887
vt 0.6368661 0.1086572
vt 0.6456165 0.06888241
vt 0.6456165 0.07365538
vt 0.651185 0.07365538
vt 0.6376616 0.07365538
vt 0.6456165 0.07842836
vt 0.6201607 0.07285989
vt 0.6265246 0.07365538
vt 0.6265246 0.06888241
vt 0.6376616 0.07365538
vt 0.6265246 0.07842836
vn 0.9392166 -0.2615082 0.2224538
vn -0.02578127 0.2983379 0.9541121
vn 0.5266984 0.8434512 0.1057301
vn 0.3941033 0.2983379 -0.8692969
vn -0.6298257 0.7624208 -0.1484389
vn -0.9392143 0.2615059 -0.2224662
vn -0.3941011 -0.2983401 0.8692971
vn -0.5266961 -0.8434534 -0.1057239
vn 0.02578348 -0.2983401 -0.9541113
vn 0.629828 -0.762423 0.1484178
vn -0.4088338 -0.7918887 -0.4536158
vn 0.2246762 0.003682077 -0.9744265
vn -0.7182224 0.5119634 -0.4712218
vn 0.8508198 -0.5119656 -0.1183082
vn 0.5708967 0.7918864 -0.2167783
vn -0.8508176 0.5119634 0.1183337
vn -0.2246739 -0.003684342 0.974427
vn -0.5708945 -0.7918887 0.2167758
vn 0.7182247 -0.5119656 0.4712159
vn 0.4088361 0.7918864 0.4536177
g ster263_0
f 3/3/3 2/2/2 1/1/1
f 4/4/4 3/3/3 1/1/1
f 3/3/3 5/5/5 2/2/2
f 4/4/4 5/5/5 3/3/3
f 8/8/8 7/7/7 6/6/6
f 9/9/9 8/8/8 6/6/6
f 8/8/8 10/10/10 7/7/7
f 9/9/9 10/10/10 8/8/8
f 13/13/13 12/12/12 11/11/11
f 11/11/11 12/12/12 14/14/14
f 13/13/13 15/15/15 12/12/12
f 12/12/12 15/15/15 14/14/14
f 18/18/18 17/17/17 16/16/16
f 19/19/19 17/17/17 18/18/18
f 17/17/17 20/20/20 16/16/16
f 19/19/19 20/20/20 17/17/17
