g ster160
v 1.920063 -1.262393 0.4492002
v 0.6071734 1.720191 2.239687
v 3.938094 6.316086 0.9214482
v 1.538075 1.720191 -1.737761
v -1.919878 1.262653 -0.4493861
v -1.919878 1.262653 -0.4493861
v -1.537889 -1.720154 1.737798
v -3.937685 -6.315826 -0.921411
v -0.606988 -1.720154 -2.239872
v 1.920063 -1.262393 0.4492002
v -0.606988 -1.720154 -2.239872
v 1.709011 0.0001301765 -7.302666
v -1.919878 1.262653 -0.4493861
v 1.920063 -1.262393 0.4492002
v 1.538075 1.720191 -1.737761
v -1.919878 1.262653 -0.4493861
v -1.708826 0.0001301765 7.302703
v -1.537889 -1.720154 1.737798
v 1.920063 -1.262393 0.4492002
v 0.6071734 1.720191 2.239687
vt 0.6376616 0.07365538
vt 0.6312976 0.08320133
vt 0.6360706 0.08320133
vt 0.6408436 0.08320133
vt 0.6360706 0.09592926
vt 0.6360706 0.09592926
vt 0.6312976 0.1030887
vt 0.6360706 0.1030887
vt 0.6408436 0.1030887
vt 0.6368661 0.1086572
vt 0.6456165 0.06888241
vt 0.6456165 0.07365538
vt 0.651185 0.07365538
vt 0.6376616 0.07365538
vt 0.6456165 0.07842836
vt 0.6201607 0.07285989
vt 0.6265246 0.07365538
vt 0.6265246 0.06888241
vt 0.6376616 0.07365538
vt 0.6265246 0.07842836
vn 0.9392134 -0.261511 0.222464
vn -0.02577597 0.2983302 0.9541146
vn 0.5266988 0.8434387 0.105827
vn 0.3941049 0.2983302 -0.8692988
vn -0.6298151 0.7624091 -0.1485441
vn -0.939201 0.2614986 -0.2225309
vn -0.3940926 -0.2983426 0.8693001
vn -0.5266864 -0.8434511 -0.1057907
vn 0.03315467 -0.2983426 -0.9538828
vn 0.6298275 -0.7624215 0.1484277
vn -0.4088252 -0.7918868 -0.4536268
vn 0.2246793 -0.003689349 -0.9744258
vn -0.7182111 0.5119538 -0.4712496
vn 0.8508174 -0.5119662 -0.1183227
vn 0.5708969 0.7918744 -0.2168219
vn -0.850805 0.5119538 0.1184654
vn -0.224667 -0.003689349 0.9744287
vn -0.5708845 -0.7918868 0.2168091
vn 0.7182235 -0.5119662 0.4712172
vn 0.4088376 0.7918744 0.4536373
g ster160_0
f 3/3/3 2/2/2 1/1/1
f 4/4/4 3/3/3 1/1/1
f 3/3/3 5/5/5 2/2/2
f 4/4/4 5/5/5 3/3/3
f 8/8/8 7/7/7 6/6/6
f 9/9/9 8/8/8 6/6/6
f 8/8/8 10/10/10 7/7/7
f 9/9/9 10/10/10 8/8/8
f 13/13/13 12/12/12 11/11/11
f 11/11/11 12/12/12 14/14/14
f 13/13/13 15/15/15 12/12/12
f 12/12/12 15/15/15 14/14/14
f 18/18/18 17/17/17 16/16/16
f 19/19/19 17/17/17 18/18/18
f 17/17/17 20/20/20 16/16/16
f 19/19/19 20/20/20 17/17/17
