g ster199
v -1.431293 -1.017313 -1.548596
v 0.897738 1.839704 -2.037823
v -2.211623 6.755265 -2.392837
v -2.10215 1.839704 0.7346663
v 1.431496 1.016904 1.548807
v 1.431496 1.016904 1.548807
v 2.102352 -1.839287 -0.7346625
v 2.211413 -6.755673 2.392841
v -0.8977418 -1.839287 2.038033
v -1.431293 -1.017313 -1.548596
v -0.8977418 -1.839287 2.038033
v -5.507768 -0.0001010895 5.090493
v 1.431496 1.016904 1.548807
v -1.431293 -1.017313 -1.548596
v -2.10215 1.839704 0.7346663
v 1.431496 1.016904 1.548807
v 5.50797 -0.0001010895 -5.090489
v 2.102352 -1.839287 -0.7346625
v -1.431293 -1.017313 -1.548596
v 0.897738 1.839704 -2.037823
vt 0.6898637 0.07784157
vt 0.6834468 0.0882692
vt 0.6882595 0.0882692
vt 0.6930723 0.0882692
vt 0.6890616 0.09869684
vt 0.6890616 0.09869684
vt 0.6834468 0.1075202
vt 0.6882595 0.1075202
vt 0.6930723 0.1075202
vt 0.6890616 0.1131351
vt 0.6986871 0.07302882
vt 0.6986871 0.07864369
vt 0.704302 0.07864369
vt 0.6898637 0.07784157
vt 0.6986871 0.08345646
vt 0.6730191 0.07784157
vt 0.678634 0.07864369
vt 0.678634 0.07302882
vt 0.6898637 0.07784157
vt 0.678634 0.08345646
vn -0.6745242 -0.1449046 -0.7238921
vn 0.5828751 0.3142581 -0.749332
vn -0.293066 0.9005736 -0.32106
vn -0.794613 0.3142581 0.5194536
vn 0.4981066 0.6815883 0.5360292
vn 0.6747077 0.1447212 0.7237578
vn 0.7877323 -0.3144415 -0.529721
vn 0.2932494 -0.900757 0.3203774
vn -0.5826917 -0.3144415 0.7493978
vn -0.4979233 -0.6817717 -0.5359662
vn 0.01775181 -0.8442446 0.535664
vn -0.7310365 0.00344032 0.6823297
vn 0.3638898 0.4131547 0.8347978
vn -0.801677 -0.4133381 -0.4318166
vn -0.5332434 0.8440613 -0.05667482
vn 0.8018604 0.4131547 0.4316516
vn 0.7312199 0.00344032 -0.6821331
vn 0.5334268 -0.8442446 0.05202774
vn -0.3637065 -0.4133381 -0.834787
vn -0.01756841 0.8440613 -0.5359589
g ster199_0
f 3/3/3 2/2/2 1/1/1
f 4/4/4 3/3/3 1/1/1
f 3/3/3 5/5/5 2/2/2
f 4/4/4 5/5/5 3/3/3
f 8/8/8 7/7/7 6/6/6
f 9/9/9 8/8/8 6/6/6
f 8/8/8 10/10/10 7/7/7
f 9/9/9 10/10/10 8/8/8
f 13/13/13 12/12/12 11/11/11
f 11/11/11 12/12/12 14/14/14
f 13/13/13 15/15/15 12/12/12
f 12/12/12 15/15/15 14/14/14
f 18/18/18 17/17/17 16/16/16
f 19/19/19 17/17/17 18/18/18
f 17/17/17 20/20/20 16/16/16
f 19/19/19 20/20/20 17/17/17
