g ster144
v 0.562809 -1.262368 -1.889975
v 2.271892 1.720136 -0.4728689
v 1.154221 6.31608 -3.876117
v -1.643138 1.720136 -1.638581
v -0.5627594 1.262757 1.889706
v -0.5627594 1.262757 1.889706
v 1.643188 -1.720186 1.638313
v -1.154171 -6.315909 3.876068
v -2.271842 -1.720186 0.4726
v 0.562809 -1.262368 -1.889975
v -2.271842 -1.720186 0.4726
v -7.18806 8.487701E-05 -2.140491
v -0.5627594 1.262757 1.889706
v 0.562809 -1.262368 -1.889975
v -1.643138 1.720136 -1.638581
v -0.5627594 1.262757 1.889706
v 7.18811 8.487701E-05 2.140441
v 1.643188 -1.720186 1.638313
v 0.562809 -1.262368 -1.889975
v 2.271892 1.720136 -0.4728689
vt 0.6376616 0.07365538
vt 0.6312976 0.08320133
vt 0.6360706 0.08320133
vt 0.6408436 0.08320133
vt 0.6360706 0.09592926
vt 0.6360706 0.09592926
vt 0.6312976 0.1030887
vt 0.6360706 0.1030887
vt 0.6408436 0.1030887
vt 0.6368661 0.1086572
vt 0.6456165 0.06888241
vt 0.6456165 0.07365538
vt 0.651185 0.07365538
vt 0.6376616 0.07365538
vt 0.6456165 0.07842836
vt 0.6201607 0.07285989
vt 0.6265246 0.07365538
vt 0.6265246 0.06888241
vt 0.6376616 0.07365538
vt 0.6265246 0.07842836
vn 0.274311 -0.2667942 -0.9238909
vn 0.9508188 0.2969623 0.08807409
vn 0.154043 0.8456852 -0.510967
vn -0.8456852 0.2969623 -0.4434296
vn -0.184211 0.763001 0.6195933
vn -0.274412 0.2668953 0.9238317
vn 0.8455842 -0.2968612 0.4436899
vn -0.1541439 -0.8455842 0.5111037
vn -0.9509197 -0.2968612 -0.08732153
vn 0.1841099 -0.7628999 -0.6197478
vn -0.4773643 -0.7854502 0.3939433
vn -0.9584365 -0.003707886 -0.2852819
vn -0.5149481 0.5149481 0.6853151
vn -0.05642617 -0.514847 -0.855423
vn -0.1917278 0.7855512 -0.5883449
vn 0.05632514 0.5149481 0.8553689
vn 0.9583355 -0.003707886 0.2856209
vn 0.1916267 -0.7854502 0.5885127
vn 0.514847 -0.514847 -0.685467
vn 0.4772633 0.7855512 -0.3938642
g ster144_0
f 3/3/3 2/2/2 1/1/1
f 4/4/4 3/3/3 1/1/1
f 3/3/3 5/5/5 2/2/2
f 4/4/4 5/5/5 3/3/3
f 8/8/8 7/7/7 6/6/6
f 9/9/9 8/8/8 6/6/6
f 8/8/8 10/10/10 7/7/7
f 9/9/9 10/10/10 8/8/8
f 13/13/13 12/12/12 11/11/11
f 11/11/11 12/12/12 14/14/14
f 13/13/13 15/15/15 12/12/12
f 12/12/12 15/15/15 14/14/14
f 18/18/18 17/17/17 16/16/16
f 19/19/19 17/17/17 18/18/18
f 17/17/17 20/20/20 16/16/16
f 19/19/19 20/20/20 17/17/17
