g ster143
v 1.110353 -1.017379 -1.792716
v 2.203576 1.839679 0.3211646
v 1.715615 6.754955 -2.770081
v -1.269257 1.839679 -1.829823
v -1.11052 1.017133 1.792882
v -1.11052 1.017133 1.792882
v 1.269296 -1.839924 1.829783
v -1.715575 -6.755201 2.770041
v -2.203743 -1.839924 -0.3209982
v 1.110353 -1.017379 -1.792716
v -2.203743 -1.839924 -0.3209982
v -6.376255 -0.0002260208 -3.948857
v -1.11052 1.017133 1.792882
v 1.110353 -1.017379 -1.792716
v -1.269257 1.839679 -1.829823
v -1.11052 1.017133 1.792882
v 6.376088 -0.0002260208 3.949023
v 1.269296 -1.839924 1.829783
v 1.110353 -1.017379 -1.792716
v 2.203576 1.839679 0.3211646
vt 0.6898637 0.07784157
vt 0.6834468 0.0882692
vt 0.6882595 0.0882692
vt 0.6930723 0.0882692
vt 0.6890616 0.09869684
vt 0.6890616 0.09869684
vt 0.6834468 0.1075202
vt 0.6882595 0.1075202
vt 0.6930723 0.1075202
vt 0.6890616 0.1131351
vt 0.6986871 0.07302882
vt 0.6986871 0.07864369
vt 0.704302 0.07864369
vt 0.6898637 0.07784157
vt 0.6986871 0.08345646
vt 0.6730191 0.07784157
vt 0.678634 0.07864369
vt 0.678634 0.07302882
vt 0.6898637 0.07784157
vt 0.678634 0.08345646
vn 0.5191123 -0.1447358 -0.8423622
vn 0.8793614 0.3144052 0.3575932
vn 0.2295003 0.9006929 -0.3688928
vn -0.7170366 0.3144052 -0.6220996
vn -0.3850423 0.681718 0.6220956
vn -0.5192528 0.1448762 0.8422514
vn 0.7168961 -0.3142648 0.6223324
vn -0.2296407 -0.9005525 0.3691481
vn -0.8795018 -0.3142648 -0.3573712
vn 0.3849018 -0.6815776 -0.6223364
vn -0.512189 -0.8440428 0.1589155
vn -0.8512471 0.003602087 -0.5247527
vn -0.7029091 0.4132972 0.5788818
vn 0.2012454 -0.4131567 -0.8881451
vn -0.08130288 0.8441833 -0.5298532
vn -0.2013859 0.4132972 0.8880479
vn 0.8511066 -0.003461599 0.5249816
vn 0.08116239 -0.8440428 0.5300984
vn 0.7027687 -0.4131567 -0.5791526
vn 0.5120486 0.8441833 -0.1586213
g ster143_0
f 3/3/3 2/2/2 1/1/1
f 4/4/4 3/3/3 1/1/1
f 3/3/3 5/5/5 2/2/2
f 4/4/4 5/5/5 3/3/3
f 8/8/8 7/7/7 6/6/6
f 9/9/9 8/8/8 6/6/6
f 8/8/8 10/10/10 7/7/7
f 9/9/9 10/10/10 8/8/8
f 13/13/13 12/12/12 11/11/11
f 11/11/11 12/12/12 14/14/14
f 13/13/13 15/15/15 12/12/12
f 12/12/12 15/15/15 14/14/14
f 18/18/18 17/17/17 16/16/16
f 19/19/19 17/17/17 18/18/18
f 17/17/17 20/20/20 16/16/16
f 19/19/19 20/20/20 17/17/17
