g ster255
v 2.284248 -0.5012908 -0.1132646
v 0.5562668 2.10243 1.900775
v 1.582562 7.314661 -0.4949031
v 0.3057947 1.881385 -2.170418
v -2.284011 0.5021935 0.113255
v -2.284011 0.5021935 0.113255
v -0.3055573 -1.881166 2.170408
v -1.582096 -7.314215 0.4946656
v -0.5562572 -2.102211 -1.901013
v 2.284248 -0.5012908 -0.1132646
v -0.5562572 -2.102211 -1.901013
v -0.459764 -0.4061661 -7.474809
v -2.284011 0.5021935 0.113255
v 2.284248 -0.5012908 -0.1132646
v 0.3057947 1.881385 -2.170418
v -2.284011 0.5021935 0.113255
v 0.4600015 0.4063845 7.474799
v -0.3055573 -1.881166 2.170408
v 2.284248 -0.5012908 -0.1132646
v 0.5562668 2.10243 1.900775
vt 0.6376616 0.07365538
vt 0.6312976 0.08320133
vt 0.6360706 0.08320133
vt 0.6408436 0.08320133
vt 0.6360706 0.09592926
vt 0.6360706 0.09592926
vt 0.6312976 0.1030887
vt 0.6360706 0.1030887
vt 0.6408436 0.1030887
vt 0.6368661 0.1086572
vt 0.6456165 0.06888241
vt 0.6456165 0.07365538
vt 0.651185 0.07365538
vt 0.6376616 0.07365538
vt 0.6456165 0.07842836
vt 0.6201607 0.07285989
vt 0.6265246 0.07365538
vt 0.6265246 0.06888241
vt 0.6376616 0.07365538
vt 0.6265246 0.07842836
vn 0.9941129 0.0896644 -0.06082637
vn 0.1286504 0.3937458 0.9101721
vn 0.2140457 0.9768236 0
vn 0.01949298 0.2923854 -0.9561019
vn -0.8689618 0.4948793 0
vn -0.9941117 -0.08966565 0.06084363
vn -0.01949185 -0.2923866 0.9561015
vn -0.2140443 -0.9768239 0
vn -0.1286492 -0.393747 -0.9101717
vn 0.8689616 -0.4948797 0
vn -0.2222127 -0.9317372 -0.2872058
vn -0.05847663 -0.05068082 -0.9970015
vn -0.9473299 0.1910248 -0.2570516
vn 0.9161433 -0.2222139 -0.3336202
vn 0.1754322 0.8927513 -0.4149925
vn -0.9161422 0.2222127 0.3336241
vn 0.05847782 0.05067962 0.9970015
vn -0.175431 -0.8927524 0.4149905
vn 0.9473311 -0.1910261 0.2570463
vn 0.2222139 0.9317361 0.2872088
g ster255_0
f 3/3/3 2/2/2 1/1/1
f 4/4/4 3/3/3 1/1/1
f 3/3/3 5/5/5 2/2/2
f 4/4/4 5/5/5 3/3/3
f 8/8/8 7/7/7 6/6/6
f 9/9/9 8/8/8 6/6/6
f 8/8/8 10/10/10 7/7/7
f 9/9/9 10/10/10 8/8/8
f 13/13/13 12/12/12 11/11/11
f 11/11/11 12/12/12 14/14/14
f 13/13/13 15/15/15 12/12/12
f 12/12/12 15/15/15 14/14/14
f 18/18/18 17/17/17 16/16/16
f 19/19/19 17/17/17 18/18/18
f 17/17/17 20/20/20 16/16/16
f 19/19/19 20/20/20 17/17/17
