g ster161
v 2.474299 -1.356375 1.335495
v -0.2524805 2.45287 2.958369
v 3.822845 9.007036 2.063644
v 2.334661 2.45287 -1.834661
v -2.193936 1.202455 -1.184027
v -2.193936 1.202455 -1.184027
v -2.334948 -2.453134 1.834397
v -3.823132 -9.007025 -2.063633
v 0.2524691 -2.453134 -2.958632
v 2.474299 -1.356375 1.335495
v 0.2524691 -2.453134 -2.958632
v 4.749731 0.0001430511 -8.799767
v -2.193936 1.202455 -1.184027
v 2.474299 -1.356375 1.335495
v 2.334661 2.45287 -1.834661
v -2.193936 1.202455 -1.184027
v -4.750017 0.0001430511 8.79978
v -2.334948 -2.453134 1.834397
v 2.474299 -1.356375 1.335495
v -0.2524805 2.45287 2.958369
vt 0.690336 0.07822117
vt 0.6839348 0.08782297
vt 0.6887357 0.08782297
vt 0.6935366 0.08782297
vt 0.6887357 0.09822492
vt 0.6887357 0.09822492
vt 0.6839348 0.1078267
vt 0.6887357 0.1078267
vt 0.6935366 0.1078267
vt 0.6895359 0.1134278
vt 0.6983375 0.07342027
vt 0.6983375 0.07822117
vt 0.7031384 0.07822117
vt 0.690336 0.07822117
vt 0.6983375 0.08302207
vt 0.6735328 0.07822117
vt 0.6791339 0.07822117
vt 0.6791339 0.07342027
vt 0.690336 0.07822117
vt 0.6791339 0.08302207
vn 0.8729106 -0.1446672 0.4659382
vn -0.3122698 0.3194095 0.8946872
vn 0.4373925 0.8691618 0.2307498
vn 0.5730457 0.3194095 -0.754716
vn -0.6621122 0.6621122 -0.3510196
vn -0.8691618 0.1766167 -0.4619136
vn -0.5835762 -0.3160186 0.7480448
vn -0.3265491 -0.9300277 -0.1685651
vn 0.308879 -0.3160186 -0.8970652
vn 0.6444421 -0.6801403 0.3494332
vn -0.1980356 -0.844352 -0.497847
vn 0.5302078 -0.03043294 -0.8473214
vn -0.6406933 0.4193645 -0.6431528
vn 0.9014692 -0.4159735 0.1196634
vn 0.5230682 0.8477429 -0.08792961
vn -0.8905808 0.4193645 -0.1760664
vn -0.4193645 -0.03043294 0.9073077
vn -0.5264591 -0.844352 0.09955131
vn 0.6158835 -0.4159735 0.6690691
vn 0.1875051 0.8477429 0.496159
g ster161_0
f 3/3/3 2/2/2 1/1/1
f 4/4/4 3/3/3 1/1/1
f 3/3/3 5/5/5 2/2/2
f 4/4/4 5/5/5 3/3/3
f 8/8/8 7/7/7 6/6/6
f 9/9/9 8/8/8 6/6/6
f 8/8/8 10/10/10 7/7/7
f 9/9/9 10/10/10 8/8/8
f 13/13/13 12/12/12 11/11/11
f 11/11/11 12/12/12 14/14/14
f 13/13/13 15/15/15 12/12/12
f 12/12/12 15/15/15 14/14/14
f 18/18/18 17/17/17 16/16/16
f 19/19/19 17/17/17 18/18/18
f 17/17/17 20/20/20 16/16/16
f 19/19/19 20/20/20 17/17/17
