g ster219
v -0.9270067 -1.356331 -2.654593
v 2.180926 2.452882 -2.014682
v -1.432366 9.006997 -4.101523
v -2.961123 2.452882 -0.2191277
v 0.9270353 1.356015 2.654853
v 0.9270353 1.356015 2.654853
v 2.961151 -2.452333 0.2191
v 1.432395 -9.007026 4.101495
v -2.180898 -2.452333 2.014941
v -0.9270067 -1.356331 -2.654593
v -2.180898 -2.452333 2.014941
v -9.440904 -0.0001583099 3.297069
v 0.9270353 1.356015 2.654853
v -0.9270067 -1.356331 -2.654593
v -2.961123 2.452882 -0.2191277
v 0.9270353 1.356015 2.654853
v 9.440932 -0.0001583099 -3.296808
v 2.961151 -2.452333 0.2191
v -0.9270067 -1.356331 -2.654593
v 2.180926 2.452882 -2.014682
vt 0.7229626 0.1022395
vt 0.7141311 0.1154866
vt 0.7210701 0.1154866
vt 0.7273782 0.1154866
vt 0.7204393 0.131257
vt 0.7204393 0.131257
vt 0.7141311 0.1413501
vt 0.7210701 0.1413501
vt 0.7273782 0.1413501
vt 0.7217009 0.1489199
vt 0.7336864 0.09593133
vt 0.7336864 0.1022395
vt 0.7412562 0.1035011
vt 0.7229626 0.1022395
vt 0.7336864 0.1091785
vt 0.7002532 0.1016087
vt 0.707823 0.1022395
vt 0.707823 0.09593133
vt 0.7229626 0.1022395
vt 0.707823 0.1091785
vn -0.3294979 -0.1443904 -0.9330502
vn 0.8330092 0.3146889 -0.4550456
vn -0.1443853 0.8996447 -0.4120587
vn -0.9366673 0.3146889 0.1537054
vn 0.2406489 0.6849141 0.687736
vn 0.329503 0.1443853 0.9330491
vn 0.9366723 -0.314694 -0.1536641
vn 0.1443904 -0.8996498 0.4120457
vn -0.8330042 -0.314694 0.4550514
vn -0.2406438 -0.6849192 -0.6877327
vn -0.1962168 -0.8404138 0.5051768
vn -0.9440717 0.00369972 0.3297194
vn 0.003704786 0.4183519 0.9082775
vn -0.566442 -0.418357 -0.7100148
vn -0.462779 0.8404086 -0.2820442
vn 0.5664471 0.4183519 0.7100136
vn 0.9440768 0.00369972 -0.3297048
vn 0.4627841 -0.8404138 0.2820205
vn -0.00369972 -0.418357 -0.9082751
vn 0.1962219 0.8404086 -0.5051834
g ster219_0
f 3/3/3 2/2/2 1/1/1
f 4/4/4 3/3/3 1/1/1
f 3/3/3 5/5/5 2/2/2
f 4/4/4 5/5/5 3/3/3
f 8/8/8 7/7/7 6/6/6
f 9/9/9 8/8/8 6/6/6
f 8/8/8 10/10/10 7/7/7
f 9/9/9 10/10/10 8/8/8
f 13/13/13 12/12/12 11/11/11
f 11/11/11 12/12/12 14/14/14
f 13/13/13 15/15/15 12/12/12
f 12/12/12 15/15/15 14/14/14
f 18/18/18 17/17/17 16/16/16
f 19/19/19 17/17/17 18/18/18
f 17/17/17 20/20/20 16/16/16
f 19/19/19 20/20/20 17/17/17
