g ster194
v -2.967358 -2.104101 1.412128
v -3.120296 2.866776 -2.284942
v -6.086426 10.52718 2.896399
v -0.1944685 2.866776 3.862604
v 2.967658 2.104489 -1.412085
v 2.967658 2.104489 -1.412085
v 0.1947689 -2.866732 -3.86256
v 6.086382 -10.52679 -2.896355
v 3.120597 -2.866732 2.284986
v -2.967358 -2.104101 1.412128
v 3.120597 -2.866732 2.284986
v 5.371287 0.0001945496 11.28706
v 2.967658 2.104489 -1.412085
v -2.967358 -2.104101 1.412128
v -0.1944685 2.866776 3.862604
v 2.967658 2.104489 -1.412085
v -5.371675 0.0001945496 -11.28701
v 0.1947689 -2.866732 -3.86256
v -2.967358 -2.104101 1.412128
v -3.120296 2.866776 -2.284942
vt 0.2784961 0.07140277
vt 0.2704692 0.07942964
vt 0.2752853 0.07942964
vt 0.2801014 0.07942964
vt 0.2752853 0.09227264
vt 0.2752853 0.09227264
vt 0.2704692 0.09949682
vt 0.2752853 0.09949682
vt 0.2801014 0.09949682
vt 0.276088 0.1051156
vt 0.2849175 0.06498127
vt 0.2849175 0.0697974
vt 0.2905363 0.0697974
vt 0.2784961 0.07140277
vt 0.2849175 0.07461352
vt 0.2600342 0.06899471
vt 0.265653 0.0697974
vt 0.265653 0.06498127
vt 0.2784961 0.07140277
vt 0.265653 0.07461352
vn -0.8709658 -0.2630067 0.4150252
vn -0.5703948 0.2971483 -0.7657367
vn -0.4884208 0.8436412 0.2229678
vn 0.228851 0.2971483 0.9270006
vn 0.5840713 0.7684984 -0.2612871
vn 0.87098 0.2629926 -0.4150045
vn -0.2288368 -0.2971625 -0.9269996
vn 0.4884351 -0.8436554 -0.2228829
vn 0.5704089 -0.2971625 0.7657206
vn -0.5840571 -0.7685126 0.261277
vn 0.6045648 -0.7890061 0.1094112
vn 0.4269546 -0.003422678 0.9042666
vn 0.8568949 0.5154912 0
vn -0.5977194 -0.5157597 0.613778
vn -0.3039795 0.7889919 0.5339365
vn 0.5977336 0.5157455 -0.6137761
vn -0.4269404 -0.003422678 -0.9042733
vn 0.3039937 -0.7890061 -0.5339075
vn -0.8568849 -0.5155079 0
vn -0.6045506 0.7889919 -0.1095914
g ster194_0
f 3/3/3 2/2/2 1/1/1
f 4/4/4 3/3/3 1/1/1
f 3/3/3 5/5/5 2/2/2
f 4/4/4 5/5/5 3/3/3
f 8/8/8 7/7/7 6/6/6
f 9/9/9 8/8/8 6/6/6
f 8/8/8 10/10/10 7/7/7
f 9/9/9 10/10/10 8/8/8
f 13/13/13 12/12/12 11/11/11
f 11/11/11 12/12/12 14/14/14
f 13/13/13 15/15/15 12/12/12
f 12/12/12 15/15/15 14/14/14
f 18/18/18 17/17/17 16/16/16
f 19/19/19 17/17/17 18/18/18
f 17/17/17 20/20/20 16/16/16
f 19/19/19 20/20/20 17/17/17
