g ster148
v 1.850529 -1.695566 -2.988175
v 3.672619 3.065989 0.5350599
v 2.859327 11.2587 -4.616821
v -2.115602 3.065989 -3.049679
v -1.85069 1.695041 2.988337
v -1.85069 1.695041 2.988337
v 2.115441 -3.066172 3.049841
v -2.859488 -11.25888 4.616982
v -3.673124 -3.066172 -0.5348988
v 1.850529 -1.695566 -2.988175
v -3.673124 -3.066172 -0.5348988
v -10.62717 -0.0002632141 -6.581504
v -1.85069 1.695041 2.988337
v 1.850529 -1.695566 -2.988175
v -2.115602 3.065989 -3.049679
v -1.85069 1.695041 2.988337
v 10.62701 -0.0002632141 6.581666
v 2.115441 -3.066172 3.049841
v 1.850529 -1.695566 -2.988175
v 3.672619 3.065989 0.5350599
vt 0.7229624 0.1022395
vt 0.714131 0.1154866
vt 0.72107 0.1154866
vt 0.7273781 0.1154866
vt 0.72107 0.1325186
vt 0.72107 0.1325186
vt 0.714131 0.1413501
vt 0.72107 0.1413501
vt 0.7273781 0.1413501
vt 0.7217008 0.1489199
vt 0.7336863 0.09593133
vt 0.7336863 0.1022395
vt 0.7412561 0.1009779
vt 0.7229624 0.1022395
vt 0.7336863 0.1091785
vt 0.7002531 0.1016087
vt 0.7078229 0.1022395
vt 0.7078229 0.09593133
vt 0.7229624 0.1022395
vt 0.7078229 0.1091785
vn 0.519233 -0.1448207 -0.8422732
vn 0.8795165 0.3143642 0.3572477
vn 0.2295933 0.9007078 -0.3687985
vn -0.717034 0.3143642 -0.6221233
vn -0.385008 0.681712 0.6221234
vn -0.5192312 0.144819 0.8422745
vn 0.7170357 -0.3143659 0.6221206
vn -0.2295916 -0.9007096 0.3687952
vn -0.8795147 -0.3143659 -0.3572506
vn 0.3850097 -0.6817138 -0.6221205
vn -0.5121669 -0.8441946 0.158179
vn -0.8512572 -0.003533065 -0.5247368
vn -0.7029052 0.4132655 0.5789093
vn 0.2013358 -0.4132673 -0.8880732
vn -0.08123952 0.8441929 -0.5298477
vn -0.201334 0.4132655 0.8880745
vn 0.8512589 0.003531337 0.524734
vn 0.08124125 -0.8441946 0.5298446
vn 0.7029069 -0.4132673 -0.5789059
vn 0.5121686 0.8441929 -0.1581826
g ster148_0
f 3/3/3 2/2/2 1/1/1
f 4/4/4 3/3/3 1/1/1
f 3/3/3 5/5/5 2/2/2
f 4/4/4 5/5/5 3/3/3
f 8/8/8 7/7/7 6/6/6
f 9/9/9 8/8/8 6/6/6
f 8/8/8 10/10/10 7/7/7
f 9/9/9 10/10/10 8/8/8
f 13/13/13 12/12/12 11/11/11
f 11/11/11 12/12/12 14/14/14
f 13/13/13 15/15/15 12/12/12
f 12/12/12 15/15/15 14/14/14
f 18/18/18 17/17/17 16/16/16
f 19/19/19 17/17/17 18/18/18
f 17/17/17 20/20/20 16/16/16
f 19/19/19 20/20/20 17/17/17
