g ster223
v -0.4220219 -1.262445 -1.92626
v 1.759468 1.720139 -1.513081
v -0.8656087 6.316092 -3.950572
v -2.231024 1.720139 -0.638875
v 0.4220004 1.26269 1.926058
v 0.4220004 1.26269 1.926058
v 2.231003 -1.719894 0.6386728
v 0.8655872 -6.315847 3.95037
v -1.75949 -1.719894 1.512879
v -0.4220219 -1.262445 -1.92626
v -1.75949 -1.719894 1.512879
v -7.326235 0.0001225471 1.604994
v 0.4220004 1.26269 1.926058
v -0.4220219 -1.262445 -1.92626
v -2.231024 1.720139 -0.638875
v 0.4220004 1.26269 1.926058
v 7.326214 0.0001225471 -1.605196
v 2.231003 -1.719894 0.6386728
v -0.4220219 -1.262445 -1.92626
v 1.759468 1.720139 -1.513081
vt 0.2784961 0.07140277
vt 0.2704692 0.07942964
vt 0.2752853 0.07942964
vt 0.2801014 0.07942964
vt 0.2752853 0.09227264
vt 0.2752853 0.09227264
vt 0.2704692 0.09949682
vt 0.2752853 0.09949682
vt 0.2801014 0.09949682
vt 0.276088 0.1051156
vt 0.2849175 0.06498127
vt 0.2849175 0.0697974
vt 0.2905363 0.0697974
vt 0.2784961 0.07140277
vt 0.2849175 0.07461352
vt 0.2600342 0.06899471
vt 0.265653 0.0697974
vt 0.265653 0.06498127
vt 0.2784961 0.07140277
vt 0.265653 0.07461352
vn -0.2030658 -0.2642766 -0.9428267
vn 0.8771846 0.2950019 -0.3788418
vn -0.1187909 0.8389578 -0.5310729
vn -0.9538781 0.2950019 0.0555916
vn 0.1340336 0.7623443 0.6331399
vn 0.2029858 0.2643566 0.9428215
vn 0.9537981 -0.294922 -0.05735999
vn 0.1187109 -0.8388779 0.5312172
vn -0.8772646 -0.294922 0.3787188
vn -0.1341136 -0.7622644 -0.6332192
vn -0.2337112 -0.7852484 0.5733795
vn -0.9768621 0.003870666 0.2138349
vn -0.1187909 0.5171811 0.8475921
vn -0.4635517 -0.5171012 -0.7195319
vn -0.448229 0.7853283 -0.4270248
vn 0.4634717 0.5171811 0.7195261
vn 0.9767821 0.003870666 -0.2142001
vn 0.448149 -0.7852484 0.4272557
vn 0.1187109 -0.5171012 -0.8476521
vn 0.2336312 0.7853283 -0.5733026
g ster223_0
f 3/3/3 2/2/2 1/1/1
f 4/4/4 3/3/3 1/1/1
f 3/3/3 5/5/5 2/2/2
f 4/4/4 5/5/5 3/3/3
f 8/8/8 7/7/7 6/6/6
f 9/9/9 8/8/8 6/6/6
f 8/8/8 10/10/10 7/7/7
f 9/9/9 10/10/10 8/8/8
f 13/13/13 12/12/12 11/11/11
f 11/11/11 12/12/12 14/14/14
f 13/13/13 15/15/15 12/12/12
f 12/12/12 15/15/15 14/14/14
f 18/18/18 17/17/17 16/16/16
f 19/19/19 17/17/17 18/18/18
f 17/17/17 20/20/20 16/16/16
f 19/19/19 20/20/20 17/17/17
