g ster250
v 2.072342 -1.017447 0.3905811
v 0.4938221 1.83977 2.171534
v 3.201913 6.755271 0.6035848
v 1.250468 1.83977 -1.842919
v -2.072567 1.016996 -0.3905816
v -2.072567 1.016996 -0.3905816
v -1.250468 -1.839545 1.842919
v -3.201913 -6.755271 -0.6035852
v -0.4935966 -1.839545 -2.171534
v 2.072342 -1.017447 0.3905811
v -0.4935966 -1.839545 -2.171534
v 1.389246 -0.0001125336 -7.370215
v -2.072567 1.016996 -0.3905816
v 2.072342 -1.017447 0.3905811
v 1.250468 1.83977 -1.842919
v -2.072567 1.016996 -0.3905816
v -1.389246 -0.0001125336 7.370215
v -1.250468 -1.839545 1.842919
v 2.072342 -1.017447 0.3905811
v 0.4938221 1.83977 2.171534
vt 0.9551296 0.07390583
vt 0.9489734 0.0844594
vt 0.9542502 0.0844594
vt 0.9586475 0.0844594
vt 0.9542502 0.09677191
vt 0.9542502 0.09677191
vt 0.9489734 0.1038076
vt 0.9542502 0.1038076
vt 0.9586475 0.1038076
vt 0.9542502 0.1090844
vt 0.9639243 0.0695085
vt 0.9639243 0.07478529
vt 0.9692011 0.07478529
vt 0.9551296 0.07390583
vt 0.9639243 0.07918262
vt 0.9384198 0.07390583
vt 0.9436966 0.07478529
vt 0.9436966 0.0695085
vt 0.9551296 0.07390583
vt 0.9436966 0.07918262
vn 0.9721243 -0.148685 0.181293
vn -0.02667707 0.3164057 0.9482488
vn 0.4231648 0.9034874 0.06813317
vn 0.3240471 0.3164057 -0.891561
vn -0.7205009 0.6823787 -0.1234414
vn -0.9721074 0.1486681 -0.1813976
vn -0.3240301 -0.3164226 0.8915611
vn -0.4231479 -0.9035044 -0.06801277
vn 0.026694 -0.3164226 -0.9482427
vn 0.7205179 -0.6823956 0.1232485
vn -0.3316546 -0.8425089 -0.4244809
vn 0.1868072 0.00380379 -0.9823892
vn -0.7891209 0.4155234 -0.452359
vn 0.9035044 -0.4155403 -0.10491
vn 0.461287 0.8424919 -0.2782476
vn -0.9034874 0.4155234 0.1051234
vn -0.1867903 0.00380379 0.9823924
vn -0.46127 -0.8425089 0.2782243
vn 0.7891378 -0.4155403 0.4523138
vn 0.3316715 0.8424919 0.4245014
g ster250_0
f 3/3/3 2/2/2 1/1/1
f 4/4/4 3/3/3 1/1/1
f 3/3/3 5/5/5 2/2/2
f 4/4/4 5/5/5 3/3/3
f 8/8/8 7/7/7 6/6/6
f 9/9/9 8/8/8 6/6/6
f 8/8/8 10/10/10 7/7/7
f 9/9/9 10/10/10 8/8/8
f 13/13/13 12/12/12 11/11/11
f 11/11/11 12/12/12 14/14/14
f 13/13/13 15/15/15 12/12/12
f 12/12/12 15/15/15 14/14/14
f 18/18/18 17/17/17 16/16/16
f 19/19/19 17/17/17 18/18/18
f 17/17/17 20/20/20 16/16/16
f 19/19/19 20/20/20 17/17/17
