g ster274
v 1.104244 -1.356557 2.585866
v -2.039983 2.452833 2.157579
v 1.706259 9.006792 3.995337
v 2.969227 2.452833 0.01839352
v -0.9790907 1.202496 -2.292557
v -0.9790907 1.202496 -2.292557
v -2.969247 -2.453094 -0.01865387
v -1.706279 -9.007053 -3.995318
v 2.039963 -2.453094 -2.15784
v 1.104244 -1.356557 2.585866
v 2.039963 -2.453094 -2.15784
v 9.196499 -0.0004110336 -3.927398
v -0.9790907 1.202496 -2.292557
v 1.104244 -1.356557 2.585866
v 2.969227 2.452833 0.01839352
v -0.9790907 1.202496 -2.292557
v -9.196518 -0.0004110336 3.927137
v -2.969247 -2.453094 -0.01865387
v 1.104244 -1.356557 2.585866
v -2.039983 2.452833 2.157579
vt 0.690336 0.07822117
vt 0.6839348 0.08782297
vt 0.6887357 0.08782297
vt 0.6935366 0.08782297
vt 0.6887357 0.09822492
vt 0.6887357 0.09822492
vt 0.6839348 0.1078267
vt 0.6887357 0.1078267
vt 0.6935366 0.1078267
vt 0.6895359 0.1134278
vt 0.6983375 0.07342027
vt 0.6983375 0.07822117
vt 0.7031384 0.07822117
vt 0.690336 0.07822117
vt 0.6983375 0.08302207
vt 0.6735328 0.07822117
vt 0.6791339 0.07822117
vt 0.6791339 0.07342027
vt 0.690336 0.07822117
vt 0.6791339 0.08302207
vn 0.3868806 -0.1454232 0.9105908
vn -0.8057724 0.3155407 0.5011636
vn 0.1966414 0.8643075 0.4629306
vn 0.9210135 0.3155407 -0.2284036
vn -0.2935901 0.6594346 -0.6920627
vn -0.3887097 0.1765199 -0.9042928
vn -0.9228426 -0.3137117 0.2234873
vn -0.1472524 -0.9283304 -0.3413495
vn 0.7966263 -0.3137117 -0.5166928
vn 0.2844441 -0.6795561 0.676236
vn 0.160057 -0.8405277 -0.5175857
vn 0.9429641 -0.02835298 -0.3316847
vn -0.09603411 0.4179773 -0.9033673
vn 0.6137041 -0.4161481 0.6709605
vn 0.4820001 0.8423569 0.2410618
vn -0.5862656 0.4179773 -0.6939651
vn -0.893575 -0.02835298 0.4480177
vn -0.4838292 -0.8405277 -0.2437673
vn 0.06493747 -0.4161481 0.9069752
vn -0.1618862 0.8423569 0.5140309
g ster274_0
f 3/3/3 2/2/2 1/1/1
f 4/4/4 3/3/3 1/1/1
f 3/3/3 5/5/5 2/2/2
f 4/4/4 5/5/5 3/3/3
f 8/8/8 7/7/7 6/6/6
f 9/9/9 8/8/8 6/6/6
f 8/8/8 10/10/10 7/7/7
f 9/9/9 10/10/10 8/8/8
f 13/13/13 12/12/12 11/11/11
f 11/11/11 12/12/12 14/14/14
f 13/13/13 15/15/15 12/12/12
f 12/12/12 15/15/15 14/14/14
f 18/18/18 17/17/17 16/16/16
f 19/19/19 17/17/17 18/18/18
f 17/17/17 20/20/20 16/16/16
f 19/19/19 20/20/20 17/17/17
