g ster70
v 0.3412023 -1.262317 1.941972
v -1.821141 1.720148 1.438358
v 0.6998644 6.316479 3.983259
v 2.202368 1.720148 0.7311778
v -0.3411803 1.26252 -1.941994
v -0.3411803 1.26252 -1.941994
v -2.202346 -1.719718 -0.7311993
v -0.6998429 -6.315825 -3.98328
v 1.821163 -1.719718 -1.438379
v 0.3412023 -1.262317 1.941972
v 1.821163 -1.719718 -1.438379
v 7.386852 0.0001020432 -1.297935
v -0.3411803 1.26252 -1.941994
v 0.3412023 -1.262317 1.941972
v 2.202368 1.720148 0.7311778
v -0.3411803 1.26252 -1.941994
v -7.38683 0.0001020432 1.297914
v -2.202346 -1.719718 -0.7311993
v 0.3412023 -1.262317 1.941972
v -1.821141 1.720148 1.438358
vt 0.2784961 0.07140277
vt 0.2704692 0.07942964
vt 0.2752853 0.07942964
vt 0.2801014 0.07942964
vt 0.2752853 0.09227264
vt 0.2752853 0.09227264
vt 0.2704692 0.09949682
vt 0.2752853 0.09949682
vt 0.2801014 0.09949682
vt 0.276088 0.1051156
vt 0.2849175 0.06498127
vt 0.2849175 0.0697974
vt 0.2905363 0.0697974
vt 0.2784961 0.07140277
vt 0.2849175 0.07461352
vt 0.2600342 0.06899471
vt 0.265653 0.0697974
vt 0.265653 0.06498127
vt 0.2784961 0.07140277
vt 0.265653 0.07461352
vn 0.1660568 -0.2664776 0.9494287
vn -0.8922241 0.2974238 0.3398165
vn 0.09653473 0.845876 0.5245711
vn 0.953974 0.2974238 0.03837495
vn -0.1120316 0.7686293 -0.6298078
vn -0.1661043 0.2665251 -0.949407
vn -0.9540216 -0.2973763 -0.03755225
vn -0.09658229 -0.8458285 -0.524639
vn 0.8921766 -0.2973763 -0.3399828
vn 0.1119841 -0.7685817 0.6298744
vn 0.2587529 -0.7917557 -0.5533261
vn 0.9848727 -0.003838539 -0.173237
vn 0.1506075 0.5137149 -0.8446386
vn 0.4364206 -0.5136673 0.7387035
vn 0.4364206 0.7918032 0.4272994
vn -0.4364681 0.5137149 -0.7386424
vn -0.9849203 -0.003838539 0.1729663
vn -0.4287434 -0.7917557 -0.4350885
vn -0.150655 -0.5136673 0.8446591
vn -0.2588005 0.7918032 0.5532359
g ster70_0
f 3/3/3 2/2/2 1/1/1
f 4/4/4 3/3/3 1/1/1
f 3/3/3 5/5/5 2/2/2
f 4/4/4 5/5/5 3/3/3
f 8/8/8 7/7/7 6/6/6
f 9/9/9 8/8/8 6/6/6
f 8/8/8 10/10/10 7/7/7
f 9/9/9 10/10/10 8/8/8
f 13/13/13 12/12/12 11/11/11
f 11/11/11 12/12/12 14/14/14
f 13/13/13 15/15/15 12/12/12
f 12/12/12 15/15/15 14/14/14
f 18/18/18 17/17/17 16/16/16
f 19/19/19 17/17/17 18/18/18
f 17/17/17 20/20/20 16/16/16
f 19/19/19 20/20/20 17/17/17
