g ster206
v -3.246026 -2.10403 0.5148602
v -2.346313 2.866247 -3.074574
v -6.657251 10.52738 1.055894
v -1.279693 2.866247 3.649918
v 3.245625 2.104807 -0.5148363
v 3.245625 2.104807 -0.5148363
v 1.279669 -2.867354 -3.649894
v 6.657228 -10.5266 -1.05587
v 2.346289 -2.867354 3.074598
v -3.246026 -2.10403 0.5148602
v 2.346289 -2.867354 3.074598
v 1.958598 -0.0001764297 12.34564
v 3.245625 2.104807 -0.5148363
v -3.246026 -2.10403 0.5148602
v -1.279693 2.866247 3.649918
v 3.245625 2.104807 -0.5148363
v -1.958245 -0.0001764297 -12.34562
v 1.279669 -2.867354 -3.649894
v -3.246026 -2.10403 0.5148602
v -2.346313 2.866247 -3.074574
vt 0.6376616 0.07365538
vt 0.6312976 0.08320133
vt 0.6360706 0.08320133
vt 0.6408436 0.08320133
vt 0.6360706 0.09592926
vt 0.6360706 0.09592926
vt 0.6312976 0.1030887
vt 0.6360706 0.1030887
vt 0.6408436 0.1030887
vt 0.6368661 0.1086572
vt 0.6456165 0.06888241
vt 0.6456165 0.07365538
vt 0.651185 0.07365538
vt 0.6376616 0.07365538
vt 0.6456165 0.07842836
vt 0.6201607 0.07285989
vt 0.6265246 0.07365538
vt 0.6265246 0.06888241
vt 0.6376616 0.07365538
vt 0.6265246 0.07842836
vn -0.9526768 -0.2652485 0.1484931
vn -0.3325062 0.2951465 -0.8957278
vn -0.5342485 0.8405977 0.08929709
vn -0.04110074 0.2951465 0.9545676
vn 0.6388453 0.7658784 -0.07284888
vn 0.9526665 0.2652588 -0.1485404
vn 0.04109055 -0.2951363 -0.9545712
vn 0.5342382 -0.8405875 -0.08945514
vn 0.332496 -0.2951363 0.8957349
vn -0.6388555 -0.7658682 0.07286729
vn 0.556654 -0.7882839 0.2621921
vn 0.1606415 -0.003730834 0.9870058
vn 0.8405875 0.5118326 0.1773135
vn -0.7509345 -0.5118224 0.4172951
vn -0.4445852 0.7882942 0.425366
vn 0.7509243 0.5118326 -0.417301
vn -0.1531798 -0.003730834 -0.9881913
vn 0.444575 -0.7882839 -0.4253956
vn -0.8405977 -0.5118224 -0.1772942
vn -0.5566642 0.7882942 -0.2621396
g ster206_0
f 3/3/3 2/2/2 1/1/1
f 4/4/4 3/3/3 1/1/1
f 3/3/3 5/5/5 2/2/2
f 4/4/4 5/5/5 3/3/3
f 8/8/8 7/7/7 6/6/6
f 9/9/9 8/8/8 6/6/6
f 8/8/8 10/10/10 7/7/7
f 9/9/9 10/10/10 8/8/8
f 13/13/13 12/12/12 11/11/11
f 11/11/11 12/12/12 14/14/14
f 13/13/13 15/15/15 12/12/12
f 12/12/12 15/15/15 14/14/14
f 18/18/18 17/17/17 16/16/16
f 19/19/19 17/17/17 18/18/18
f 17/17/17 20/20/20 16/16/16
f 19/19/19 20/20/20 17/17/17
