g ster267
v 2.474363 -1.356164 1.335706
v -0.2524157 2.453356 2.95858
v 3.822909 9.007247 2.063581
v 2.334726 2.453356 -1.834724
v -2.474522 1.356597 -1.335548
v -2.474522 1.356597 -1.335548
v -2.334884 -2.452923 1.834608
v -3.823068 -9.006814 -2.063697
v 0.2522583 -2.452923 -2.958696
v 2.474363 -1.356164 1.335706
v 0.2522583 -2.452923 -2.958696
v 4.749794 0.0003538132 -8.799831
v -2.474522 1.356597 -1.335548
v 2.474363 -1.356164 1.335706
v 2.334726 2.453356 -1.834724
v -2.474522 1.356597 -1.335548
v -4.750228 0.0003538132 8.799714
v -2.334884 -2.452923 1.834608
v 2.474363 -1.356164 1.335706
v -0.2524157 2.453356 2.95858
vt 0.7229624 0.1022395
vt 0.714131 0.1154866
vt 0.72107 0.1154866
vt 0.7273781 0.1154866
vt 0.72107 0.1325186
vt 0.72107 0.1325186
vt 0.714131 0.1413501
vt 0.72107 0.1413501
vt 0.7273781 0.1413501
vt 0.7217008 0.1489199
vt 0.7336863 0.09593133
vt 0.7336863 0.1022395
vt 0.7412561 0.1009779
vt 0.7229624 0.1022395
vt 0.7336863 0.1091785
vt 0.7002531 0.1016087
vt 0.7078229 0.1022395
vt 0.7078229 0.09593133
vt 0.7229624 0.1022395
vt 0.7078229 0.1091785
vn 0.8723729 -0.1447862 0.4669074
vn -0.3073065 0.3143704 0.8981837
vn 0.3849605 0.9006782 0.2014555
vn 0.5756871 0.3143704 -0.7548216
vn -0.639312 0.6816957 -0.3557683
vn -0.8724223 0.1448357 -0.4667996
vn -0.5757365 -0.314321 0.7548045
vn -0.3850099 -0.9006287 -0.2015823
vn 0.314321 -0.314321 -0.8957704
vn 0.6392626 -0.6816463 0.3559519
vn -0.1942834 -0.8441171 -0.4997202
vn 0.4767918 -0.003507257 -0.8790093
vn -0.6181202 0.4132657 -0.6686845
vn 0.9006287 -0.4132163 0.1346117
vn 0.5262394 0.8441665 -0.1022498
vn -0.9006782 0.4132657 -0.1341281
vn -0.4768412 -0.003507257 0.8789825
vn -0.5262889 -0.8441171 0.1024027
vn 0.6180707 -0.4132163 0.6687607
vn 0.1942338 0.8441665 0.499656
g ster267_0
f 3/3/3 2/2/2 1/1/1
f 4/4/4 3/3/3 1/1/1
f 3/3/3 5/5/5 2/2/2
f 4/4/4 5/5/5 3/3/3
f 8/8/8 7/7/7 6/6/6
f 9/9/9 8/8/8 6/6/6
f 8/8/8 10/10/10 7/7/7
f 9/9/9 10/10/10 8/8/8
f 13/13/13 12/12/12 11/11/11
f 11/11/11 12/12/12 14/14/14
f 13/13/13 15/15/15 12/12/12
f 12/12/12 15/15/15 14/14/14
f 18/18/18 17/17/17 16/16/16
f 19/19/19 17/17/17 18/18/18
f 17/17/17 20/20/20 16/16/16
f 19/19/19 20/20/20 17/17/17
