g ster242
v 2.072335 -1.017663 0.3905888
v 0.4935894 1.840228 2.171542
v 3.201906 6.755054 0.6035924
v 1.250236 1.840228 -1.842912
v -2.07235 1.016778 -0.390574
v -2.07235 1.016778 -0.390574
v -1.250475 -1.839538 1.842701
v -3.201921 -6.755039 -0.6035776
v -0.4936042 -1.839538 -2.171526
v 2.072335 -1.017663 0.3905888
v -0.4936042 -1.839538 -2.171526
v 1.389239 -0.0003299713 -7.370207
v -2.07235 1.016778 -0.390574
v 2.072335 -1.017663 0.3905888
v 1.250236 1.840228 -1.842912
v -2.07235 1.016778 -0.390574
v -1.389029 -0.0003299713 7.370223
v -1.250475 -1.839538 1.842701
v 2.072335 -1.017663 0.3905888
v 0.4935894 1.840228 2.171542
vt 0.9551296 0.07390583
vt 0.9489734 0.0844594
vt 0.9542502 0.0844594
vt 0.9586475 0.0844594
vt 0.9542502 0.09677191
vt 0.9542502 0.09677191
vt 0.9489734 0.1038076
vt 0.9542502 0.1038076
vt 0.9586475 0.1038076
vt 0.9542502 0.1090844
vt 0.9639243 0.0695085
vt 0.9639243 0.07478529
vt 0.9692011 0.07478529
vt 0.9551296 0.07390583
vt 0.9639243 0.07918262
vt 0.9384198 0.07390583
vt 0.9436966 0.07478529
vt 0.9436966 0.0695085
vt 0.9551296 0.07390583
vt 0.9436966 0.07918262
vn 0.972118 -0.1486837 0.1813279
vn -0.02667725 0.316404 0.9482493
vn 0.4303868 0.9026445 0
vn 0.3240448 0.316404 -0.8915623
vn -0.7204968 0.6823749 -0.123486
vn -0.9721017 0.1486675 -0.1814281
vn -0.3240284 -0.3164204 0.8915625
vn -0.4231456 -0.9034984 -0.06810605
vn 0.02669352 -0.3164204 -0.9482434
vn 0.7205131 -0.6823911 0.1233015
vn -0.3316528 -0.8425033 -0.4244934
vn 0.1868057 0.003804088 -0.9823895
vn -0.7891163 0.4155212 -0.4523688
vn 0.9034984 -0.4155374 -0.1049727
vn 0.4612838 0.842487 -0.2782676
vn -0.9034821 0.4155212 0.1051769
vn -0.1867895 0.003804088 0.9823926
vn -0.4612675 -0.8425033 0.2782454
vn 0.7891326 -0.4155374 0.4523256
vn 0.3316692 0.842487 0.4245129
g ster242_0
f 3/3/3 2/2/2 1/1/1
f 4/4/4 3/3/3 1/1/1
f 3/3/3 5/5/5 2/2/2
f 4/4/4 5/5/5 3/3/3
f 8/8/8 7/7/7 6/6/6
f 9/9/9 8/8/8 6/6/6
f 8/8/8 10/10/10 7/7/7
f 9/9/9 10/10/10 8/8/8
f 13/13/13 12/12/12 11/11/11
f 11/11/11 12/12/12 14/14/14
f 13/13/13 15/15/15 12/12/12
f 12/12/12 15/15/15 14/14/14
f 18/18/18 17/17/17 16/16/16
f 19/19/19 17/17/17 18/18/18
f 17/17/17 20/20/20 16/16/16
f 19/19/19 20/20/20 17/17/17
