g ster90
v 1.919861 -1.262414 0.4494023
v 0.6069713 1.719948 2.239666
v 3.937892 6.316288 0.9214272
v 1.537873 1.719948 -1.737782
v -1.919857 1.262855 -0.4494071
v -1.919857 1.262855 -0.4494071
v -1.537868 -1.719953 1.737777
v -3.937887 -6.31607 -0.921432
v -0.606967 -1.719953 -2.239671
v 1.919861 -1.262414 0.4494023
v -0.606967 -1.719953 -2.239671
v 1.709032 0.0003318787 -7.302687
v -1.919857 1.262855 -0.4494071
v 1.919861 -1.262414 0.4494023
v 1.537873 1.719948 -1.737782
v -1.919857 1.262855 -0.4494071
v -1.709028 0.0003318787 7.302682
v -1.537868 -1.719953 1.737777
v 1.919861 -1.262414 0.4494023
v 0.6069713 1.719948 2.239666
vt 0.6376616 0.07365538
vt 0.6312976 0.08320133
vt 0.6360706 0.08320133
vt 0.6408436 0.08320133
vt 0.6360706 0.09592926
vt 0.6360706 0.09592926
vt 0.6312976 0.1030887
vt 0.6360706 0.1030887
vt 0.6408436 0.1030887
vt 0.6368661 0.1086572
vt 0.6456165 0.06888241
vt 0.6456165 0.07365538
vt 0.651185 0.07365538
vt 0.6376616 0.07365538
vt 0.6456165 0.07842836
vt 0.6201607 0.07285989
vt 0.6265246 0.07365538
vt 0.6265246 0.06888241
vt 0.6376616 0.07365538
vt 0.6265246 0.07842836
vn 0.9392073 -0.2614976 0.2225054
vn -0.02579248 0.2983496 0.9541081
vn 0.5266883 0.843464 0.1056779
vn 0.3940929 0.2983496 -0.8692976
vn -0.6298381 0.7624335 -0.1483208
vn -0.9392273 0.2615176 -0.2223971
vn -0.3941129 -0.2983296 0.8692954
vn -0.5267084 -0.843444 -0.105738
vn 0.02577239 -0.2983296 -0.9541149
vn 0.6298181 -0.7624134 0.148509
vn -0.4088458 -0.7918791 -0.4536216
vn 0.2246655 0.003693223 -0.974429
vn -0.718235 0.5119755 -0.4711895
vn 0.8508104 -0.5119555 -0.1184198
vn 0.5708868 0.7918991 -0.2167581
vn -0.8508304 0.5119755 0.118189
vn -0.2246855 -0.003673196 0.9744244
vn -0.5709069 -0.7918791 0.2167783
vn 0.718215 -0.5119555 0.4712417
vn 0.4088258 0.7918991 0.4536048
g ster90_0
f 3/3/3 2/2/2 1/1/1
f 4/4/4 3/3/3 1/1/1
f 3/3/3 5/5/5 2/2/2
f 4/4/4 5/5/5 3/3/3
f 8/8/8 7/7/7 6/6/6
f 9/9/9 8/8/8 6/6/6
f 8/8/8 10/10/10 7/7/7
f 9/9/9 10/10/10 8/8/8
f 13/13/13 12/12/12 11/11/11
f 11/11/11 12/12/12 14/14/14
f 13/13/13 15/15/15 12/12/12
f 12/12/12 15/15/15 14/14/14
f 18/18/18 17/17/17 16/16/16
f 19/19/19 17/17/17 18/18/18
f 17/17/17 20/20/20 16/16/16
f 19/19/19 20/20/20 17/17/17
