g ster96
v 2.132999 -0.50142 -0.825325
v 1.125344 2.102543 1.629745
v 1.346787 7.314934 -0.9670753
v -0.3917184 1.881323 -2.156661
v -2.132903 0.5019932 0.8252282
v -2.132903 0.5019932 0.8252282
v 0.3920379 -1.881197 2.156564
v -1.346467 -7.314361 0.9667554
v -1.125247 -2.102193 -1.629841
v 2.132999 -0.50142 -0.825325
v -1.125247 -2.102193 -1.629841
v -2.785623 -0.4058781 -6.951614
v -2.132903 0.5019932 0.8252282
v 2.132999 -0.50142 -0.825325
v -0.3917184 1.881323 -2.156661
v -2.132903 0.5019932 0.8252282
v 2.78572 0.4064512 6.951518
v 0.3920379 -1.881197 2.156564
v 2.132999 -0.50142 -0.825325
v 1.125344 2.102543 1.629745
vt 0.6376616 0.07365538
vt 0.6312976 0.08320133
vt 0.6360706 0.08320133
vt 0.6408436 0.08320133
vt 0.6360706 0.09592926
vt 0.6360706 0.09592926
vt 0.6312976 0.1030887
vt 0.6360706 0.1030887
vt 0.6408436 0.1030887
vt 0.6368661 0.1086572
vt 0.6456165 0.06888241
vt 0.6456165 0.07365538
vt 0.651185 0.07365538
vt 0.6376616 0.07365538
vt 0.6456165 0.07842836
vt 0.6201607 0.07285989
vt 0.6265246 0.07365538
vt 0.6265246 0.06888241
vt 0.6376616 0.07365538
vt 0.6265246 0.07842836
vn 0.9264208 0.08841014 -0.3659619
vn 0.4113172 0.3959347 0.8210078
vn 0.1806738 0.9725432 -0.1466855
vn -0.2883011 0.2883011 -0.9131073
vn -0.8187809 0.4958801 0.2893108
vn -0.9264145 -0.08841646 0.3659764
vn 0.2883074 -0.2883074 0.9131033
vn -0.1806675 -0.9725495 0.1466517
vn -0.4113109 -0.395941 -0.8210079
vn 0.8187872 -0.4958865 -0.2892821
vn -0.2959892 -0.9341089 -0.1995769
vn -0.3728703 -0.05766398 -0.92609
vn -0.9802313 0.1883557 0.0605701
vn 0.7572823 -0.2191144 -0.6152336
vn 0.03459966 0.8956621 -0.4433873
vn -0.7572761 0.2191081 0.6152436
vn 0.3728766 0.05765772 0.9260878
vn -0.03459334 -0.8956684 0.4433751
vn 0.9802376 -0.1883619 -0.06044869
vn 0.2959955 0.9341027 0.1995969
g ster96_0
f 3/3/3 2/2/2 1/1/1
f 4/4/4 3/3/3 1/1/1
f 3/3/3 5/5/5 2/2/2
f 4/4/4 5/5/5 3/3/3
f 8/8/8 7/7/7 6/6/6
f 9/9/9 8/8/8 6/6/6
f 8/8/8 10/10/10 7/7/7
f 9/9/9 10/10/10 8/8/8
f 13/13/13 12/12/12 11/11/11
f 11/11/11 12/12/12 14/14/14
f 13/13/13 15/15/15 12/12/12
f 12/12/12 15/15/15 14/14/14
f 18/18/18 17/17/17 16/16/16
f 19/19/19 17/17/17 18/18/18
f 17/17/17 20/20/20 16/16/16
f 19/19/19 20/20/20 17/17/17
