g ster222
v -0.4220214 -1.262446 -1.926261
v 1.759469 1.719916 -1.513082
v -0.8656087 6.316317 -3.950574
v -2.231024 1.719916 -0.6388755
v 0.132462 2.821505 0.6042409
v 1.624873 2.330071 0.5993223
v -1.225352 2.330071 1.224011
v 1.624873 2.330071 0.5993223
v 2.363364 1.101488 1.243239
v 0.4220009 1.262914 1.926058
v 0.132462 2.821505 0.6042409
v -1.627129 1.101488 2.117445
v -1.225352 2.330071 1.224011
v 0.6037731 -0.6183062 2.755995
v 1.961587 -0.1270962 2.136449
v -0.8886371 -0.1270962 2.760914
v 1.961587 -0.1270962 2.136449
v 2.231004 -1.719895 0.6386728
v 0.8655877 -6.316072 3.95037
v 0.6037731 -0.6183062 2.755995
v -1.75949 -1.719895 1.512879
v -0.8886371 -0.1270962 2.760914
v -0.4220214 -1.262446 -1.926261
v -1.75949 -1.719895 1.512879
v -7.326237 0.0003457069 1.604994
v -1.627129 1.101488 2.117445
v -0.8886371 -0.1270962 2.760914
v -0.4220214 -1.262446 -1.926261
v -1.225352 2.330071 1.224011
v -2.231024 1.719916 -0.6388755
v 1.961587 -0.1270962 2.136449
v 2.363364 1.101488 1.243239
v 7.326216 0.0003457069 -1.605197
v 2.231004 -1.719895 0.6386728
v -0.4220214 -1.262446 -1.926261
v 1.759469 1.719916 -1.513082
v 1.624873 2.330071 0.5993223
vt 0.2736799 0.0697974
vt 0.2704692 0.07942964
vt 0.2752853 0.07942964
vt 0.2801014 0.07942964
vt 0.2752853 0.08424576
vt 0.2704692 0.08424576
vt 0.2801014 0.08424576
vt 0.2704692 0.08424576
vt 0.2704692 0.08906189
vt 0.2752853 0.08906189
vt 0.2752853 0.08424576
vt 0.2801014 0.08906189
vt 0.2801014 0.08424576
vt 0.2752853 0.0946807
vt 0.2704692 0.0946807
vt 0.2801014 0.0946807
vt 0.2704692 0.0946807
vt 0.2704692 0.09949682
vt 0.2752853 0.09949682
vt 0.2752853 0.0946807
vt 0.2801014 0.09949682
vt 0.2801014 0.0946807
vt 0.2744826 0.1051156
vt 0.2849175 0.06498127
vt 0.2849175 0.0697974
vt 0.2897337 0.0697974
vt 0.2897337 0.06498127
vt 0.2736799 0.0697974
vt 0.2897337 0.07461352
vt 0.2849175 0.07461352
vt 0.2600342 0.06498127
vt 0.2600342 0.0697974
vt 0.265653 0.0697974
vt 0.265653 0.06498127
vt 0.2736799 0.0697974
vt 0.265653 0.07461352
vt 0.2600342 0.07461352
vn -0.2064217 -0.2625361 -0.9425842
vn 0.7995685 0.2744963 -0.5341741
vn -0.1459111 0.7434541 -0.652676
vn -0.9476777 0.2744963 -0.1629683
vn 0.09613174 0.8871671 0.4513239
vn 0.7163663 0.6753796 0.1751618
vn -0.5619221 0.6753796 0.4776043
vn 0.2625361 0.6224327 0.7373278
vn 0.2776638 0.5392306 0.795068
vn 0.1793339 0.5392306 0.8228425
vn 0.1642063 0.6224327 0.7652541
vn 0.08100402 0.5392306 0.8382534
vn 0.06587636 0.6224327 0.7798961
vn 0.1944616 0.4484645 0.87239
vn 0.2927915 0.4484645 0.8444837
vn 0.08856785 0.4484645 0.8894017
vn 0.7995685 0.03245348 0.5996974
vn 0.8978984 -0.4365044 -0.0569425
vn 0.08856785 -0.9205899 0.380355
vn 0.2171531 0.0475812 0.9749772
vn -0.8493478 -0.4365044 0.2967696
vn -0.4787198 0.03245348 0.8773677
vn -0.1383473 -0.7693132 -0.6237125
vn -0.335007 -0.8373877 0.4319169
vn -0.9930607 -0.08856785 0.07737027
vn -0.335007 0.4635922 0.820276
vn -0.1761664 -0.1944616 0.9649612
vn -0.4635922 -0.5121427 -0.7230436
vn -0.3274431 0.9022948 0.2804375
vn -0.5392306 0.6678158 -0.5130813
vn 0.5650896 -0.1944616 0.8017845
vn 0.6482918 0.4635922 0.6039867
vn 0.9357176 -0.08856785 -0.3414504
vn 0.4894512 -0.8373877 0.2433503
vn 0.1188232 -0.5121427 -0.8506414
vn 0.2776638 0.6678158 -0.6905975
vn 0.4138129 0.9022948 0.1209258
g ster222_0
f 3/3/3 2/2/2 1/1/1
f 4/4/4 3/3/3 1/1/1
f 3/3/3 5/5/5 2/2/2
f 5/5/5 6/6/6 2/2/2
f 7/7/7 5/5/5 3/3/3
f 4/4/4 7/7/7 3/3/3
f 10/10/10 9/9/9 8/8/8
f 11/11/11 10/10/10 8/8/8
f 12/12/12 10/10/10 11/11/11
f 13/13/13 12/12/12 11/11/11
f 10/10/10 14/14/14 9/9/9
f 14/14/14 15/15/15 9/9/9
f 16/16/16 14/14/14 10/10/10
f 12/12/12 16/16/16 10/10/10
f 19/19/19 18/18/18 17/17/17
f 20/20/20 19/19/19 17/17/17
f 21/21/21 19/19/19 20/20/20
f 22/22/22 21/21/21 20/20/20
f 19/19/19 23/23/23 18/18/18
f 21/21/21 23/23/23 19/19/19
f 26/26/26 25/25/25 24/24/24
f 27/27/27 26/26/26 24/24/24
f 24/24/24 25/25/25 28/28/28
f 26/26/26 29/29/29 25/25/25
f 29/29/29 30/30/30 25/25/25
f 25/25/25 30/30/30 28/28/28
f 33/33/33 32/32/32 31/31/31
f 34/34/34 33/33/33 31/31/31
f 35/35/35 33/33/33 34/34/34
f 33/33/33 36/36/36 32/32/32
f 35/35/35 36/36/36 33/33/33
f 36/36/36 37/37/37 32/32/32
