g ster270
v 1.610342 -1.262413 1.138008
v -0.2792687 1.719945 2.303617
v 3.302761 6.316462 2.334073
v 2.078359 1.719945 -1.032259
v -0.5051818 2.821559 -0.3570266
v -1.60429 2.329833 0.6526418
v 0.07984018 2.329833 -1.730045
v -1.60429 2.329833 0.6526418
v -2.583503 1.101576 0.6751947
v -1.610266 1.262529 -1.138084
v -0.5051818 2.821559 -0.3570266
v -0.2258749 1.101576 -2.660875
v 0.07984018 2.329833 -1.730045
v -2.304195 -0.6185999 -1.628461
v -2.889217 -0.126873 -0.2554431
v -1.205087 -0.126873 -2.638322
v -2.889217 -0.126873 -0.2554431
v -2.078283 -1.719829 1.032183
v -3.302685 -6.31596 -2.33415
v -2.304195 -0.6185999 -1.628461
v 0.2795377 -1.719829 -2.303694
v -1.205087 -0.126873 -2.638322
v 1.610342 -1.262413 1.138008
v 0.2795377 -1.719829 -2.303694
v 4.328814 -3.814697E-05 -6.124937
v -0.2258749 1.101576 -2.660875
v -1.205087 -0.126873 -2.638322
v 1.610342 -1.262413 1.138008
v 0.07984018 2.329833 -1.730045
v 2.078359 1.719945 -1.032259
v -2.889217 -0.126873 -0.2554431
v -2.583503 1.101576 0.6751947
v -4.328737 -3.814697E-05 6.12486
v -2.078283 -1.719829 1.032183
v 1.610342 -1.262413 1.138008
v -0.2792687 1.719945 2.303617
v -1.60429 2.329833 0.6526418
vt 0.2736799 0.0697974
vt 0.2704692 0.07942964
vt 0.2752853 0.07942964
vt 0.2801014 0.07942964
vt 0.2752853 0.08424576
vt 0.2704692 0.08424576
vt 0.2801014 0.08424576
vt 0.2704692 0.08424576
vt 0.2704692 0.08906189
vt 0.2752853 0.08906189
vt 0.2752853 0.08424576
vt 0.2801014 0.08906189
vt 0.2801014 0.08424576
vt 0.2752853 0.0946807
vt 0.2704692 0.0946807
vt 0.2801014 0.0946807
vt 0.2704692 0.0946807
vt 0.2704692 0.09949682
vt 0.2752853 0.09949682
vt 0.2752853 0.0946807
vt 0.2801014 0.09949682
vt 0.2801014 0.0946807
vt 0.2744826 0.1051156
vt 0.2849175 0.06498127
vt 0.2849175 0.0697974
vt 0.2897337 0.0697974
vt 0.2897337 0.06498127
vt 0.2736799 0.0697974
vt 0.2897337 0.07461352
vt 0.2849175 0.07461352
vt 0.2600342 0.06498127
vt 0.2600342 0.0697974
vt 0.265653 0.0697974
vt 0.265653 0.06498127
vt 0.2736799 0.0697974
vt 0.265653 0.07461352
vt 0.2600342 0.07461352
vn 0.78982 -0.2649921 0.5531398
vn -0.2223481 0.2748309 0.93543
vn 0.5424011 0.7471759 0.3840953
vn 0.8048151 0.2748309 -0.5260615
vn -0.372299 0.8896292 -0.2644868
vn -0.6572055 0.6722006 0.3409214
vn 0.09254867 0.6722006 -0.7345619
vn -0.6946932 0.6197177 -0.365173
vn -0.7396784 0.5372448 -0.4052702
vn -0.6871957 0.5372448 -0.4890094
vn -0.6422104 0.6197177 -0.4511273
vn -0.6272153 0.5372448 -0.5638874
vn -0.5747325 0.6197177 -0.5344459
vn -0.7321808 0.4472743 -0.51367
vn -0.7846637 0.4472743 -0.4292419
vn -0.664703 0.4472743 -0.5984276
vn -0.9945948 0.03490955 0.097788
vn -0.5972252 -0.4374355 0.6722888
vn -0.3273137 -0.9172782 -0.2268623
vn -0.8146539 0.0424071 -0.5783949
vn 0.4374355 -0.4374355 -0.7856846
vn -0.2373432 0.03490955 -0.9707984
vn 0.527406 -0.7673274 0.3647624
vn -0.0424071 -0.8348053 -0.5489096
vn 0.6773568 -0.08505112 -0.7307216
vn -0.304821 0.469767 -0.8284945
vn -0.5222497 -0.1975142 -0.8296043
vn 0.8273077 -0.5124109 0.2302108
vn 0.05506092 0.9046243 -0.4226382
vn 0.7423769 0.6699824 0
vn -0.9571071 -0.1975142 -0.2119768
vn -0.8821317 0.469767 -0.03409763
vn -0.4622694 -0.08505112 0.8826513
vn -0.5297472 -0.8348053 0.1498934
vn 0.4824208 -0.5124109 0.7104261
vn 0.2574946 0.6722006 0.6941491
vn -0.3797965 0.9046243 0.1934152
g ster270_0
f 3/3/3 2/2/2 1/1/1
f 4/4/4 3/3/3 1/1/1
f 3/3/3 5/5/5 2/2/2
f 5/5/5 6/6/6 2/2/2
f 7/7/7 5/5/5 3/3/3
f 4/4/4 7/7/7 3/3/3
f 10/10/10 9/9/9 8/8/8
f 11/11/11 10/10/10 8/8/8
f 12/12/12 10/10/10 11/11/11
f 13/13/13 12/12/12 11/11/11
f 10/10/10 14/14/14 9/9/9
f 14/14/14 15/15/15 9/9/9
f 16/16/16 14/14/14 10/10/10
f 12/12/12 16/16/16 10/10/10
f 19/19/19 18/18/18 17/17/17
f 20/20/20 19/19/19 17/17/17
f 21/21/21 19/19/19 20/20/20
f 22/22/22 21/21/21 20/20/20
f 19/19/19 23/23/23 18/18/18
f 21/21/21 23/23/23 19/19/19
f 26/26/26 25/25/25 24/24/24
f 27/27/27 26/26/26 24/24/24
f 24/24/24 25/25/25 28/28/28
f 26/26/26 29/29/29 25/25/25
f 29/29/29 30/30/30 25/25/25
f 25/25/25 30/30/30 28/28/28
f 33/33/33 32/32/32 31/31/31
f 34/34/34 33/33/33 31/31/31
f 35/35/35 33/33/33 34/34/34
f 33/33/33 36/36/36 32/32/32
f 35/35/35 36/36/36 33/33/33
f 36/36/36 37/37/37 32/32/32
