g ster248
v 2.072356 -1.017228 0.3905845
v 0.4935999 1.839783 2.171549
v 3.201934 6.755091 0.6035891
v 1.250251 1.839783 -1.842931
v -2.072356 1.017228 -0.390584
v -2.072356 1.017228 -0.390584
v -1.250477 -1.839782 1.842932
v -3.201935 -6.75554 -0.6035886
v -0.4936004 -1.839782 -2.171548
v 2.072356 -1.017228 0.3905845
v -0.4936004 -1.839782 -2.171548
v 1.389256 0.0001125336 -7.370263
v -2.072356 1.017228 -0.390584
v 2.072356 -1.017228 0.3905845
v 1.250251 1.839783 -1.842931
v -2.072356 1.017228 -0.390584
v -1.38903 0.0001125336 7.370264
v -1.250477 -1.839782 1.842932
v 2.072356 -1.017228 0.3905845
v 0.4935999 1.839783 2.171549
vt 0.6898637 0.07784157
vt 0.6834468 0.0882692
vt 0.6882595 0.0882692
vt 0.6930723 0.0882692
vt 0.6890616 0.09869684
vt 0.6890616 0.09869684
vt 0.6834468 0.1075202
vt 0.6882595 0.1075202
vt 0.6930723 0.1075202
vt 0.6890616 0.1131351
vt 0.6986871 0.07302882
vt 0.6986871 0.07864369
vt 0.704302 0.07864369
vt 0.6898637 0.07784157
vt 0.6986871 0.08345646
vt 0.6730191 0.07784157
vt 0.678634 0.07864369
vt 0.678634 0.07302882
vt 0.6898637 0.07784157
vt 0.678634 0.08345646
vn 0.9721313 -0.1486914 0.1812504
vn -0.02667081 0.3163997 0.948251
vn 0.4231713 0.9034817 0.06816728
vn 0.3240536 0.3163997 -0.8915607
vn -0.7204951 0.6823729 -0.123507
vn -0.9721017 0.1486619 -0.1814331
vn -0.3240241 -0.3164291 0.891561
vn -0.4303592 -0.9026576 0
vn 0.02670032 -0.3164291 -0.9482403
vn 0.7205247 -0.6824024 0.1231714
vn -0.3316485 -0.8425157 -0.4244721
vn 0.1868136 0.003797472 -0.9823881
vn -0.7891151 0.4155174 -0.4523745
vn 0.9035113 -0.4155469 -0.1048244
vn 0.4612936 0.8424863 -0.2782537
vn -0.9034817 0.4155174 0.1051951
vn -0.1867841 -0.003826976 0.9823935
vn -0.461264 -0.8425157 0.2782135
vn 0.7891446 -0.4155469 0.4522958
vn 0.331678 0.8424863 0.4245075
g ster248_0
f 3/3/3 2/2/2 1/1/1
f 4/4/4 3/3/3 1/1/1
f 3/3/3 5/5/5 2/2/2
f 4/4/4 5/5/5 3/3/3
f 8/8/8 7/7/7 6/6/6
f 9/9/9 8/8/8 6/6/6
f 8/8/8 10/10/10 7/7/7
f 9/9/9 10/10/10 8/8/8
f 13/13/13 12/12/12 11/11/11
f 11/11/11 12/12/12 14/14/14
f 13/13/13 15/15/15 12/12/12
f 12/12/12 15/15/15 14/14/14
f 18/18/18 17/17/17 16/16/16
f 19/19/19 17/17/17 18/18/18
f 17/17/17 20/20/20 16/16/16
f 19/19/19 20/20/20 17/17/17
