g ster264
v 2.474355 -1.356455 1.335631
v -0.2523651 2.452707 2.95847
v 3.822873 9.006732 2.06349
v 2.334721 2.452707 -1.834731
v -2.193779 1.202319 -1.184386
v -2.193779 1.202319 -1.184386
v -2.334787 -2.452916 1.834522
v -3.823215 -9.00694 -2.063423
v 0.252573 -2.452916 -2.958403
v 2.474355 -1.356455 1.335631
v 0.252573 -2.452916 -2.958403
v 4.750012 -0.0002412796 -8.799962
v -2.193779 1.202319 -1.184386
v 2.474355 -1.356455 1.335631
v 2.334721 2.452707 -1.834731
v -2.193779 1.202319 -1.184386
v -4.750079 -0.0002412796 8.799754
v -2.334787 -2.452916 1.834522
v 2.474355 -1.356455 1.335631
v -0.2523651 2.452707 2.95847
vt 0.690336 0.07822117
vt 0.6839348 0.08782297
vt 0.6887357 0.08782297
vt 0.6935366 0.08782297
vt 0.6887357 0.09822492
vt 0.6887357 0.09822492
vt 0.6839348 0.1078267
vt 0.6887357 0.1078267
vt 0.6935366 0.1078267
vt 0.6895359 0.1134278
vt 0.6983375 0.07342027
vt 0.6983375 0.07822117
vt 0.7031384 0.07822117
vt 0.690336 0.07822117
vt 0.6983375 0.08302207
vt 0.6735328 0.07822117
vt 0.6791339 0.07822117
vt 0.6791339 0.07342027
vt 0.690336 0.07822117
vt 0.6791339 0.08302207
vn 0.8728352 -0.1446284 0.4660915
vn -0.3122857 0.3194249 0.8946761
vn 0.437339 0.8691497 0.2308969
vn 0.5729854 0.3194249 -0.7547553
vn -0.6621105 0.6621105 -0.3510262
vn -0.8691497 0.1766394 -0.4619277
vn -0.5835784 -0.3159712 0.7480631
vn -0.3265643 -0.9299495 -0.1689668
vn 0.3088319 -0.3159712 -0.8970981
vn 0.6443782 -0.6800746 0.3496789
vn -0.1980571 -0.8442781 -0.4979637
vn 0.5301496 -0.03039986 -0.8473589
vn -0.6335534 0.4193749 -0.6501805
vn 0.9013923 -0.4159212 0.1204218
vn 0.5230104 0.8477319 -0.08837891
vn -0.8905676 0.4193749 -0.176108
vn -0.4193749 -0.03039986 0.907304
vn -0.5264642 -0.8442781 0.1001497
vn 0.615821 -0.4159212 0.6691592
vn 0.1874641 0.8477319 0.4961934
g ster264_0
f 3/3/3 2/2/2 1/1/1
f 4/4/4 3/3/3 1/1/1
f 3/3/3 5/5/5 2/2/2
f 4/4/4 5/5/5 3/3/3
f 8/8/8 7/7/7 6/6/6
f 9/9/9 8/8/8 6/6/6
f 8/8/8 10/10/10 7/7/7
f 9/9/9 10/10/10 8/8/8
f 13/13/13 12/12/12 11/11/11
f 11/11/11 12/12/12 14/14/14
f 13/13/13 15/15/15 12/12/12
f 12/12/12 15/15/15 14/14/14
f 18/18/18 17/17/17 16/16/16
f 19/19/19 17/17/17 18/18/18
f 17/17/17 20/20/20 16/16/16
f 19/19/19 20/20/20 17/17/17
