g ster220
v -0.9270067 -1.356334 -2.654597
v 2.18093 2.452884 -2.014685
v -1.432367 9.007008 -4.101529
v -2.961124 2.452884 -0.2191296
v 0.9270372 1.356015 2.654855
v 0.9270372 1.356015 2.654855
v 2.961155 -2.453202 0.2193871
v 1.432397 -9.007038 4.101787
v -2.181188 -2.453202 2.014943
v -0.9270067 -1.356334 -2.654597
v -2.181188 -2.453202 2.014943
v -9.440914 -0.0001592636 3.296783
v 0.9270372 1.356015 2.654855
v -0.9270067 -1.356334 -2.654597
v -2.961124 2.452884 -0.2191296
v 0.9270372 1.356015 2.654855
v 9.440945 -0.0001592636 -3.296813
v 2.961155 -2.453202 0.2193871
v -0.9270067 -1.356334 -2.654597
v 2.18093 2.452884 -2.014685
vt 0.7229624 0.1022395
vt 0.714131 0.1154866
vt 0.72107 0.1154866
vt 0.7273781 0.1154866
vt 0.72107 0.1325186
vt 0.72107 0.1325186
vt 0.714131 0.1413501
vt 0.72107 0.1413501
vt 0.7273781 0.1413501
vt 0.7217008 0.1489199
vt 0.7336863 0.09593133
vt 0.7336863 0.1022395
vt 0.7412561 0.1009779
vt 0.7229624 0.1022395
vt 0.7336863 0.1091785
vt 0.7002531 0.1016087
vt 0.7078229 0.1022395
vt 0.7078229 0.09593133
vt 0.7229624 0.1022395
vt 0.7078229 0.1091785
vn -0.3295342 -0.1443616 -0.9330418
vn 0.8329915 0.3147249 -0.4550532
vn -0.1444186 0.8996902 -0.4119477
vn -0.9367132 0.3147249 0.1533512
vn 0.2406217 0.6849561 0.6877037
vn 0.3294772 0.1444186 0.9330531
vn 0.9366562 -0.3146679 -0.1538157
vn 0.1443616 -0.899633 0.4120923
vn -0.8330485 -0.3146679 0.4549883
vn -0.2406788 -0.684899 -0.6877405
vn -0.196251 -0.8403961 0.5051929
vn -0.9441178 -0.003673792 0.3295878
vn 0.003673792 0.4183897 0.9082602
vn -0.5664821 -0.4183326 -0.7099971
vn -0.4628174 0.8404531 -0.2818485
vn 0.5664251 0.4183897 0.710009
vn 0.9440608 -0.003673792 -0.329751
vn 0.4627604 -0.8403961 0.2821121
vn -0.003730834 -0.4183326 -0.9082862
vn 0.196194 0.8404531 -0.5051202
g ster220_0
f 3/3/3 2/2/2 1/1/1
f 4/4/4 3/3/3 1/1/1
f 3/3/3 5/5/5 2/2/2
f 4/4/4 5/5/5 3/3/3
f 8/8/8 7/7/7 6/6/6
f 9/9/9 8/8/8 6/6/6
f 8/8/8 10/10/10 7/7/7
f 9/9/9 10/10/10 8/8/8
f 13/13/13 12/12/12 11/11/11
f 11/11/11 12/12/12 14/14/14
f 13/13/13 15/15/15 12/12/12
f 12/12/12 15/15/15 14/14/14
f 18/18/18 17/17/17 16/16/16
f 19/19/19 17/17/17 18/18/18
f 17/17/17 20/20/20 16/16/16
f 19/19/19 20/20/20 17/17/17
