g ster64
v -1.037691 -1.356467 2.613281
v -2.967824 2.452744 0.09432316
v -1.603259 9.006685 4.037693
v 2.094484 2.452744 2.104724
v 1.037946 1.356213 -2.613251
v 1.037946 1.356213 -2.613251
v -2.094514 -2.452998 -2.104695
v 1.603513 -9.00694 -4.037664
v 2.967794 -2.452998 -0.09457684
v -1.037691 -1.356467 2.613281
v 2.967794 -2.452998 -0.09457684
v 9.293978 0.0001564026 3.690808
v 1.037946 1.356213 -2.613251
v -1.037691 -1.356467 2.613281
v 2.094484 2.452744 2.104724
v 1.037946 1.356213 -2.613251
v -9.294008 0.0001564026 -3.690779
v -2.094514 -2.452998 -2.104695
v -1.037691 -1.356467 2.613281
v -2.967824 2.452744 0.09432316
vt 0.7229626 0.1022395
vt 0.7141311 0.1154866
vt 0.7210701 0.1154866
vt 0.7273782 0.1154866
vt 0.7204393 0.131257
vt 0.7204393 0.131257
vt 0.7141311 0.1413501
vt 0.7210701 0.1413501
vt 0.7273782 0.1413501
vt 0.7217009 0.1489199
vt 0.7336864 0.09593133
vt 0.7336864 0.1022395
vt 0.7412562 0.1035011
vt 0.7229626 0.1022395
vt 0.7336864 0.1091785
vt 0.7002532 0.1016087
vt 0.707823 0.1022395
vt 0.707823 0.09593133
vt 0.7229626 0.1022395
vt 0.707823 0.1091785
vn -0.3681092 -0.1494058 0.9177001
vn -0.9293579 0.3170867 -0.1890766
vn -0.1567299 0.9002022 0.4062903
vn 0.8126996 0.3170867 0.488851
vn 0.2660288 0.6815338 -0.6817186
vn 0.3680741 0.1494409 -0.9177085
vn -0.8127348 -0.3170515 -0.4888154
vn 0.1639836 -0.9001669 -0.4034958
vn 0.9293227 -0.3170515 0.1893083
vn -0.266064 -0.6814986 0.6817401
vn 0.4774082 -0.8418554 -0.2517158
vn 0.9293227 -0.003626883 0.3692507
vn 0.5940313 0.4118429 -0.6910226
vn -0.04010677 -0.4118077 0.9103878
vn 0.1785615 0.8418906 0.5092505
vn 0.04007161 0.4118429 -0.9103733
vn -0.9293579 -0.003626883 -0.3691623
vn -0.1785967 -0.8418554 -0.5092963
vn -0.5940665 -0.4118077 0.6910133
vn -0.4774435 0.8418906 0.2515313
g ster64_0
f 3/3/3 2/2/2 1/1/1
f 4/4/4 3/3/3 1/1/1
f 3/3/3 5/5/5 2/2/2
f 4/4/4 5/5/5 3/3/3
f 8/8/8 7/7/7 6/6/6
f 9/9/9 8/8/8 6/6/6
f 8/8/8 10/10/10 7/7/7
f 9/9/9 10/10/10 8/8/8
f 13/13/13 12/12/12 11/11/11
f 11/11/11 12/12/12 14/14/14
f 13/13/13 15/15/15 12/12/12
f 12/12/12 15/15/15 14/14/14
f 18/18/18 17/17/17 16/16/16
f 19/19/19 17/17/17 18/18/18
f 17/17/17 20/20/20 16/16/16
f 19/19/19 20/20/20 17/17/17
