g ster158
v 1.968495 -1.262386 -0.1122732
v 1.215769 1.719954 1.976347
v 4.037692 6.316518 -0.2301869
v 0.9833698 1.719954 -2.101947
v -1.968578 1.262697 0.1123562
v -1.968578 1.262697 0.1123562
v -0.9834523 -1.719872 2.10203
v -4.037775 -6.315979 0.2302694
v -1.215851 -1.719872 -1.976493
v 1.968495 -1.262386 -0.1122732
v -1.215851 -1.719872 -1.976493
v -0.427249 0.0001554489 -7.4878
v -1.968578 1.262697 0.1123562
v 1.968495 -1.262386 -0.1122732
v 0.9833698 1.719954 -2.101947
v -1.968578 1.262697 0.1123562
v 0.427166 0.0001554489 7.487883
v -0.9834523 -1.719872 2.10203
v 1.968495 -1.262386 -0.1122732
v 1.215769 1.719954 1.976347
vt 0.2784961 0.07140277
vt 0.2704692 0.07942964
vt 0.2752853 0.07942964
vt 0.2801014 0.07942964
vt 0.2752853 0.09227264
vt 0.2752853 0.09227264
vt 0.2704692 0.09949682
vt 0.2752853 0.09949682
vt 0.2801014 0.09949682
vt 0.276088 0.1051156
vt 0.2849175 0.06498127
vt 0.2849175 0.0697974
vt 0.2905363 0.0697974
vt 0.2784961 0.07140277
vt 0.2849175 0.07461352
vt 0.2600342 0.06899471
vt 0.265653 0.0697974
vt 0.265653 0.06498127
vt 0.2784961 0.07140277
vt 0.265653 0.07461352
vn 0.9630271 -0.2605896 -0.0683518
vn 0.2454835 0.2983391 0.9223512
vn 0.5398126 0.8417852 0
vn 0.1321871 0.2983391 -0.9452621
vn -0.644251 0.7648141 0
vn -0.9630111 0.2605737 0.06863685
vn -0.1321711 -0.2983551 0.9452593
vn -0.539794 -0.8417972 0
vn -0.2454675 -0.2983551 -0.9223502
vn 0.6442525 -0.7648128 0
vn -0.5249318 -0.789306 -0.3185005
vn -0.05664021 0.003768563 -0.9983876
vn -0.8195023 0.5173787 -0.2464452
vn 0.789306 -0.5173947 -0.3306036
vn 0.4871823 0.78929 -0.3737307
vn -0.78929 0.5173787 0.3306667
vn 0.05665618 -0.003784537 0.9983866
vn -0.4871663 -0.789306 0.3737178
vn 0.8195183 -0.5173947 0.2463583
vn 0.5249478 0.78929 0.3185139
g ster158_0
f 3/3/3 2/2/2 1/1/1
f 4/4/4 3/3/3 1/1/1
f 3/3/3 5/5/5 2/2/2
f 4/4/4 5/5/5 3/3/3
f 8/8/8 7/7/7 6/6/6
f 9/9/9 8/8/8 6/6/6
f 8/8/8 10/10/10 7/7/7
f 9/9/9 10/10/10 8/8/8
f 13/13/13 12/12/12 11/11/11
f 11/11/11 12/12/12 14/14/14
f 13/13/13 15/15/15 12/12/12
f 12/12/12 15/15/15 14/14/14
f 18/18/18 17/17/17 16/16/16
f 19/19/19 17/17/17 18/18/18
f 17/17/17 20/20/20 16/16/16
f 19/19/19 20/20/20 17/17/17
