g ster82
v 1.222381 -1.262475 1.547172
v -0.9197431 1.719883 2.130459
v 2.507309 6.3164 3.173282
v 2.285444 1.719883 -0.4020014
v -1.222373 1.262853 -1.547179
v -1.222373 1.262853 -1.547179
v -2.285437 -1.719891 0.4019938
v -2.507301 -6.316022 -3.173289
v 0.9199433 -1.719891 -2.130466
v 1.222381 -1.262475 1.547172
v 0.9199433 -1.719891 -2.130466
v 5.884821 -0.0001001358 -4.649818
v -1.222373 1.262853 -1.547179
v 1.222381 -1.262475 1.547172
v 2.285444 1.719883 -0.4020014
v -1.222373 1.262853 -1.547179
v -5.884814 -0.0001001358 4.649618
v -2.285437 -1.719891 0.4019938
v 1.222381 -1.262475 1.547172
v -0.9197431 1.719883 2.130459
vt 0.6376616 0.07365538
vt 0.6312976 0.08320133
vt 0.6360706 0.08320133
vt 0.6408436 0.08320133
vt 0.6360706 0.09592926
vt 0.6360706 0.09592926
vt 0.6312976 0.1030887
vt 0.6360706 0.1030887
vt 0.6408436 0.1030887
vt 0.6368661 0.1086572
vt 0.6456165 0.06888241
vt 0.6456165 0.07365538
vt 0.651185 0.07365538
vt 0.6376616 0.07365538
vt 0.6456165 0.07842836
vt 0.6201607 0.07285989
vt 0.6265246 0.07365538
vt 0.6265246 0.06888241
vt 0.6376616 0.07365538
vt 0.6265246 0.07842836
vn 0.5981252 -0.2639987 0.756671
vn -0.6180951 0.2973338 0.7277026
vn 0.330824 0.8453011 0.4195493
vn 0.8520613 0.2973338 -0.4307947
vn -0.3975716 0.7651108 -0.5065001
vn -0.5980476 0.2639211 -0.7567594
vn -0.8519836 -0.2974114 0.4308949
vn -0.3374289 -0.8453788 -0.4140971
vn 0.6181728 -0.2974114 -0.7276049
vn 0.3976493 -0.7651885 0.5063217
vn -0.03671509 -0.7919186 -0.6095219
vn 0.7852361 -0.00338012 -0.6191873
vn -0.2639211 0.5178571 -0.813738
vn 0.7317758 -0.5179349 0.4429984
vn 0.5914427 0.7918409 0.1522616
vn -0.7316981 0.5178571 -0.4432177
vn -0.7851583 0.003302455 0.6192862
vn -0.591365 -0.7919186 -0.152159
vn 0.2639987 -0.5179349 0.8136634
vn 0.03679276 0.7918409 0.6096182
g ster82_0
f 3/3/3 2/2/2 1/1/1
f 4/4/4 3/3/3 1/1/1
f 3/3/3 5/5/5 2/2/2
f 4/4/4 5/5/5 3/3/3
f 8/8/8 7/7/7 6/6/6
f 9/9/9 8/8/8 6/6/6
f 8/8/8 10/10/10 7/7/7
f 9/9/9 10/10/10 8/8/8
f 13/13/13 12/12/12 11/11/11
f 11/11/11 12/12/12 14/14/14
f 13/13/13 15/15/15 12/12/12
f 12/12/12 15/15/15 14/14/14
f 18/18/18 17/17/17 16/16/16
f 19/19/19 17/17/17 18/18/18
f 17/17/17 20/20/20 16/16/16
f 19/19/19 20/20/20 17/17/17
