g ster259
v -1.781656 -1.017347 1.128136
v -1.842473 1.839586 -1.250924
v -2.752865 6.755211 1.743105
v 0.3430052 1.839586 2.200362
v 1.78178 1.017017 -1.12826
v 1.78178 1.017017 -1.12826
v -0.3430877 -1.83971 -2.200486
v 2.752783 -6.755335 -1.743022
v 1.842597 -1.83971 1.251006
v -1.781656 -1.017347 1.128136
v 1.842597 -1.83971 1.251006
v 4.0122 -0.0001649857 6.336711
v 1.78178 1.017017 -1.12826
v -1.781656 -1.017347 1.128136
v 0.3430052 1.839586 2.200362
v 1.78178 1.017017 -1.12826
v -4.012076 -0.0001649857 -6.336628
v -0.3430877 -1.83971 -2.200486
v -1.781656 -1.017347 1.128136
v -1.842473 1.839586 -1.250924
vt 0.6898637 0.07784157
vt 0.6834468 0.0882692
vt 0.6882595 0.0882692
vt 0.6930723 0.0882692
vt 0.6890616 0.09869684
vt 0.6890616 0.09869684
vt 0.6834468 0.1075202
vt 0.6882595 0.1075202
vt 0.6930723 0.1075202
vt 0.6890616 0.1131351
vt 0.6986871 0.07302882
vt 0.6986871 0.07864369
vt 0.704302 0.07864369
vt 0.6898637 0.07784157
vt 0.6986871 0.08345646
vt 0.6730191 0.07784157
vt 0.678634 0.07864369
vt 0.678634 0.07302882
vt 0.6898637 0.07784157
vt 0.678634 0.08345646
vn -0.8371015 -0.1448585 0.5275198
vn -0.6322321 0.3143314 -0.7081514
vn -0.3637826 0.9006816 0.2375601
vn 0.3709213 0.3143314 0.8738496
vn 0.6181774 0.6816833 -0.3913625
vn 0.8371756 0.1447843 -0.5274225
vn -0.3708471 -0.3144056 -0.8738545
vn 0.3638568 -0.9007558 -0.2371651
vn 0.6323063 -0.3144056 0.7080522
vn -0.6181031 -0.6817575 0.3913505
vn 0.5334039 -0.8442401 0.05233558
vn 0.5334039 0.003495097 0.8458535
vn 0.8866268 0.4132338 -0.2076793
vn -0.5686519 -0.413308 0.7112043
vn -0.1589133 0.8441659 0.5119868
vn 0.5687262 0.4132338 -0.711188
vn -0.5333296 0.003495097 -0.8459003
vn 0.1589875 -0.8442401 -0.5118415
vn -0.8865527 -0.413308 0.207848
vn -0.5333296 0.8441659 -0.05425363
g ster259_0
f 3/3/3 2/2/2 1/1/1
f 4/4/4 3/3/3 1/1/1
f 3/3/3 5/5/5 2/2/2
f 4/4/4 5/5/5 3/3/3
f 8/8/8 7/7/7 6/6/6
f 9/9/9 8/8/8 6/6/6
f 8/8/8 10/10/10 7/7/7
f 9/9/9 10/10/10 8/8/8
f 13/13/13 12/12/12 11/11/11
f 11/11/11 12/12/12 14/14/14
f 13/13/13 15/15/15 12/12/12
f 12/12/12 15/15/15 14/14/14
f 18/18/18 17/17/17 16/16/16
f 19/19/19 17/17/17 18/18/18
f 17/17/17 20/20/20 16/16/16
f 19/19/19 20/20/20 17/17/17
