g ster235
v 2.156565 -1.356708 -1.804188
v 2.654621 2.453471 1.329823
v 3.332163 9.006528 -2.78738
v -0.8400135 2.453471 -2.847851
v -2.156892 1.35566 1.80424
v -2.156892 1.35566 1.80424
v 0.839962 -2.452869 2.848177
v -3.332489 -9.006751 2.787706
v -2.654947 -2.452869 -1.329496
v 2.156565 -1.356708 -1.804188
v -2.654947 -2.452869 -1.329496
v -6.416474 -0.0005235672 -7.670083
v -2.156892 1.35566 1.80424
v 2.156565 -1.356708 -1.804188
v -0.8400135 2.453471 -2.847851
v -2.156892 1.35566 1.80424
v 6.416148 -0.0005235672 7.670135
v 0.839962 -2.452869 2.848177
v 2.156565 -1.356708 -1.804188
v 2.654621 2.453471 1.329823
vt 0.7229624 0.1022395
vt 0.714131 0.1154866
vt 0.72107 0.1154866
vt 0.7273781 0.1154866
vt 0.72107 0.1325186
vt 0.72107 0.1325186
vt 0.714131 0.1413501
vt 0.72107 0.1413501
vt 0.7273781 0.1413501
vt 0.7217008 0.1489199
vt 0.7336863 0.09593133
vt 0.7336863 0.1022395
vt 0.7412561 0.1009779
vt 0.7229624 0.1022395
vt 0.7336863 0.1091785
vt 0.7002531 0.1016087
vt 0.7078229 0.1022395
vt 0.7078229 0.09593133
vt 0.7229624 0.1022395
vt 0.7078229 0.1091785
vn 0.7594922 -0.1448988 -0.6341735
vn 0.7171065 0.3142803 0.6220822
vn 0.3356346 0.9006165 -0.2761145
vn -0.4838233 0.3142803 -0.8167882
vn -0.5615305 0.6816235 0.4691194
vn -0.7593307 0.1447372 0.6344036
vn 0.4839848 -0.3144418 0.8166303
vn -0.3354732 -0.9007781 0.2757836
vn -0.7169449 -0.3144418 -0.6221867
vn 0.561692 -0.681785 -0.4686911
vn -0.53906 -0.8422673 0
vn -0.6392378 0.003451407 -0.7690014
vn -0.8511665 0.4131804 0.3237246
vn 0.4698562 -0.4133419 -0.7799895
vn 0.08838439 0.8441021 -0.5288476
vn -0.4696947 0.4131804 0.7801723
vn 0.6393992 0.003451407 0.7688672
vn -0.08822292 -0.8442637 0.5286165
vn 0.851328 -0.4133419 -0.323093
vn 0.5392475 0.8421474 0
g ster235_0
f 3/3/3 2/2/2 1/1/1
f 4/4/4 3/3/3 1/1/1
f 3/3/3 5/5/5 2/2/2
f 4/4/4 5/5/5 3/3/3
f 8/8/8 7/7/7 6/6/6
f 9/9/9 8/8/8 6/6/6
f 8/8/8 10/10/10 7/7/7
f 9/9/9 10/10/10 8/8/8
f 13/13/13 12/12/12 11/11/11
f 11/11/11 12/12/12 14/14/14
f 13/13/13 15/15/15 12/12/12
f 12/12/12 15/15/15 14/14/14
f 18/18/18 17/17/17 16/16/16
f 19/19/19 17/17/17 18/18/18
f 17/17/17 20/20/20 16/16/16
f 19/19/19 20/20/20 17/17/17
