g ster253
v 1.904311 -1.262208 0.5120306
v 0.5332384 1.71998 2.258418
v 3.905551 6.316378 1.050248
v 1.593979 1.71998 -1.686371
v -0.5975704 2.821391 -0.1607962
v -1.280344 2.330033 1.166512
v -0.5226402 2.330033 -1.651227
v -1.280344 2.330033 1.166512
v -2.191667 1.101527 1.525691
v -1.904101 1.262882 -0.5120192
v -0.5975704 2.821391 -0.1607962
v -1.130704 1.101527 -2.419098
v -0.5226402 2.330033 -1.651227
v -2.7248 -0.6183362 -0.7326107
v -2.799952 -0.1269779 0.7580414
v -2.042027 -0.1269779 -2.059918
v -2.799952 -0.1269779 0.7580414
v -1.593991 -1.719969 1.686383
v -3.905562 -6.316145 -1.050236
v -2.7248 -0.6183362 -0.7326107
v -0.5332499 -1.719969 -2.258407
v -2.042027 -0.1269779 -2.059918
v 1.904311 -1.262208 0.5120306
v -0.5332499 -1.719969 -2.258407
v 1.947412 0.0003371239 -7.242719
v -1.130704 1.101527 -2.419098
v -2.042027 -0.1269779 -2.059918
v 1.904311 -1.262208 0.5120306
v -0.5226402 2.330033 -1.651227
v 1.593979 1.71998 -1.686371
v -2.799952 -0.1269779 0.7580414
v -2.191667 1.101527 1.525691
v -1.947424 0.0003371239 7.24273
v -1.593991 -1.719969 1.686383
v 1.904311 -1.262208 0.5120306
v 0.5332384 1.71998 2.258418
v -1.280344 2.330033 1.166512
vt 0.2736799 0.0697974
vt 0.2704692 0.07942964
vt 0.2752853 0.07942964
vt 0.2801014 0.07942964
vt 0.2752853 0.08424576
vt 0.2704692 0.08424576
vt 0.2801014 0.08424576
vt 0.2704692 0.08424576
vt 0.2704692 0.08906189
vt 0.2752853 0.08906189
vt 0.2752853 0.08424576
vt 0.2801014 0.08906189
vt 0.2801014 0.08424576
vt 0.2752853 0.0946807
vt 0.2704692 0.0946807
vt 0.2801014 0.0946807
vt 0.2704692 0.0946807
vt 0.2704692 0.09949682
vt 0.2752853 0.09949682
vt 0.2752853 0.0946807
vt 0.2801014 0.09949682
vt 0.2801014 0.0946807
vt 0.2744826 0.1051156
vt 0.2849175 0.06498127
vt 0.2849175 0.0697974
vt 0.2897337 0.0697974
vt 0.2897337 0.06498127
vt 0.2736799 0.0697974
vt 0.2897337 0.07461352
vt 0.2849175 0.07461352
vt 0.2600342 0.06498127
vt 0.2600342 0.0697974
vt 0.265653 0.0697974
vt 0.265653 0.06498127
vt 0.2736799 0.0697974
vt 0.265653 0.07461352
vt 0.2600342 0.07461352
vn 0.931468 -0.2673745 0.2467352
vn 0.1106783 0.2698697 0.9565148
vn 0.6404607 0.7474201 0.1765594
vn 0.5733052 0.2698697 -0.7736223
vn -0.4414893 0.8891928 -0.1200968
vn -0.5011832 0.6728028 0.5441983
vn -0.1654055 0.6728028 -0.7210945
vn -0.777267 0.6205708 -0.1036723
vn -0.8369608 0.5384917 -0.09758741
vn -0.8145756 0.5384917 -0.2156231
vn -0.7548817 0.6205708 -0.2122392
vn -0.7847286 0.5384917 -0.3069651
vn -0.7250348 0.6205708 -0.2986911
vn -0.8593459 0.448951 -0.2448828
vn -0.8817312 0.448951 -0.1448901
vn -0.829499 0.448951 -0.3322264
vn -0.8966546 0.03109449 0.4416375
vn -0.3295635 -0.4389942 0.835866
vn -0.3817955 -0.9165446 -0.1190726
vn -0.9638101 0.04601794 -0.2625881
vn 0.1405252 -0.4389942 -0.8874327
vn -0.560877 0.03109449 -0.827315
vn 0.6180756 -0.7673101 0.1709319
vn -0.232561 -0.8344656 -0.4995825
vn 0.3867621 -0.08829314 -0.9179431
vn -0.5758004 0.4638745 -0.6732565
vn -0.777267 -0.200219 -0.5964632
vn 0.8568507 -0.5136114 -0.04483388
vn -0.09078825 0.9041163 -0.4175299
vn 0.7001545 0.6728028 -0.2389979
vn -0.9712718 -0.200219 0.1286218
vn -0.8369608 0.4638745 0.2903741
vn -0.1280969 -0.08829314 0.9878236
vn -0.448951 -0.8344656 0.3195469
vn 0.7001545 -0.5136114 0.4959707
vn 0.4837645 0.6728028 0.5597395
vn -0.2922548 0.9041163 0.3117064
g ster253_0
f 3/3/3 2/2/2 1/1/1
f 4/4/4 3/3/3 1/1/1
f 3/3/3 5/5/5 2/2/2
f 5/5/5 6/6/6 2/2/2
f 7/7/7 5/5/5 3/3/3
f 4/4/4 7/7/7 3/3/3
f 10/10/10 9/9/9 8/8/8
f 11/11/11 10/10/10 8/8/8
f 12/12/12 10/10/10 11/11/11
f 13/13/13 12/12/12 11/11/11
f 10/10/10 14/14/14 9/9/9
f 14/14/14 15/15/15 9/9/9
f 16/16/16 14/14/14 10/10/10
f 12/12/12 16/16/16 10/10/10
f 19/19/19 18/18/18 17/17/17
f 20/20/20 19/19/19 17/17/17
f 21/21/21 19/19/19 20/20/20
f 22/22/22 21/21/21 20/20/20
f 19/19/19 23/23/23 18/18/18
f 21/21/21 23/23/23 19/19/19
f 26/26/26 25/25/25 24/24/24
f 27/27/27 26/26/26 24/24/24
f 24/24/24 25/25/25 28/28/28
f 26/26/26 29/29/29 25/25/25
f 29/29/29 30/30/30 25/25/25
f 25/25/25 30/30/30 28/28/28
f 33/33/33 32/32/32 31/31/31
f 34/34/34 33/33/33 31/31/31
f 35/35/35 33/33/33 34/34/34
f 33/33/33 36/36/36 32/32/32
f 35/35/35 36/36/36 33/33/33
f 36/36/36 37/37/37 32/32/32
