g ster137
v -0.3302002 -1.356374 -2.792311
v 2.565616 2.452889 -1.494876
v -0.5102224 9.007041 -4.314319
v -2.843544 2.452889 -0.8547964
v 0.2929077 1.20243 2.475619
v 0.2929077 1.20243 2.475619
v 2.843529 -2.453177 0.855114
v 0.5102081 -9.007026 4.314637
v -2.565631 -2.453177 1.494588
v -0.3302002 -1.356374 -2.792311
v -2.565631 -2.453177 1.494588
v -9.930793 -0.0001440048 1.174245
v 0.2929077 1.20243 2.475619
v -0.3302002 -1.356374 -2.792311
v -2.843544 2.452889 -0.8547964
v 0.2929077 1.20243 2.475619
v 9.930778 -0.0001440048 -1.174533
v 2.843529 -2.453177 0.855114
v -0.3302002 -1.356374 -2.792311
v 2.565616 2.452889 -1.494876
vt 0.690336 0.07822117
vt 0.6839348 0.08782297
vt 0.6887357 0.08782297
vt 0.6935366 0.08782297
vt 0.6887357 0.09822492
vt 0.6887357 0.09822492
vt 0.6839348 0.1078267
vt 0.6887357 0.1078267
vt 0.6935366 0.1078267
vt 0.6895359 0.1134278
vt 0.6983375 0.07342027
vt 0.6983375 0.07822117
vt 0.7031384 0.07822117
vt 0.690336 0.07822117
vt 0.6983375 0.08302207
vt 0.6735328 0.07822117
vt 0.6791339 0.07822117
vt 0.6791339 0.07342027
vt 0.690336 0.07822117
vt 0.6791339 0.08302207
vn -0.1125934 -0.1437495 -0.9831881
vn 0.9127784 0.3145605 -0.2605519
vn -0.05821764 0.8660862 -0.496493
vn -0.943766 0.3145605 -0.1017714
vn 0.08937377 0.6563512 0.7491431
vn 0.1126777 0.1747371 0.9781466
vn 0.9494472 -0.313927 0
vn 0.04276597 -0.9283143 0.3693286
vn -0.9126941 -0.3146449 0.2607453
vn -0.08928955 -0.6797394 -0.7279985
vn -0.2990246 -0.8428667 0.4473926
vn -0.9981418 -0.034998 0.04988138
vn -0.1592011 0.4155442 0.8955323
vn -0.4000082 -0.4156284 -0.8168515
vn -0.3922403 0.8427824 -0.3685992
vn 0.3690206 0.4155442 0.8313524
vn 0.9826901 -0.034998 -0.1819212
vn 0.4000925 -0.8428667 0.3598636
vn 0.1981253 -0.4156284 -0.8876933
vn 0.2991089 0.8427824 -0.4474949
g ster137_0
f 3/3/3 2/2/2 1/1/1
f 4/4/4 3/3/3 1/1/1
f 3/3/3 5/5/5 2/2/2
f 4/4/4 5/5/5 3/3/3
f 8/8/8 7/7/7 6/6/6
f 9/9/9 8/8/8 6/6/6
f 8/8/8 10/10/10 7/7/7
f 9/9/9 10/10/10 8/8/8
f 13/13/13 12/12/12 11/11/11
f 11/11/11 12/12/12 14/14/14
f 13/13/13 15/15/15 12/12/12
f 12/12/12 15/15/15 14/14/14
f 18/18/18 17/17/17 16/16/16
f 19/19/19 17/17/17 18/18/18
f 17/17/17 20/20/20 16/16/16
f 19/19/19 20/20/20 17/17/17
