g ster232
v -0.69523 -1.017705 -1.990969
v 1.635719 1.840069 -1.511252
v -1.07425 6.755007 -3.075951
v -2.220817 1.840069 -0.164371
v 0.6953011 1.017419 1.991115
v 0.6953011 1.017419 1.991115
v 2.220888 -1.839491 0.164516
v 1.074321 -6.755294 3.076312
v -1.635864 -1.839491 1.510965
v -0.69523 -1.017705 -1.990969
v -1.635864 -1.839491 1.510965
v -7.080653 -0.0005755424 2.472776
v 0.6953011 1.017419 1.991115
v -0.69523 -1.017705 -1.990969
v -2.220817 1.840069 -0.164371
v 0.6953011 1.017419 1.991115
v 7.080724 -0.0005755424 -2.472631
v 2.220888 -1.839491 0.164516
v -0.69523 -1.017705 -1.990969
v 1.635719 1.840069 -1.511252
vt 0.9551296 0.07390583
vt 0.9489734 0.0844594
vt 0.9542502 0.0844594
vt 0.9586475 0.0844594
vt 0.9542502 0.09677191
vt 0.9542502 0.09677191
vt 0.9489734 0.1038076
vt 0.9542502 0.1038076
vt 0.9586475 0.1038076
vt 0.9542502 0.1090844
vt 0.9639243 0.0695085
vt 0.9639243 0.07478529
vt 0.9692011 0.07478529
vt 0.9551296 0.07390583
vt 0.9639243 0.07918262
vt 0.9384198 0.07390583
vt 0.9436966 0.07478529
vt 0.9436966 0.0695085
vt 0.9551296 0.07390583
vt 0.9436966 0.07918262
vn -0.3297235 -0.1442018 -0.9329996
vn 0.8328744 0.3149134 -0.4551371
vn -0.1445965 0.8999149 -0.4113941
vn -0.9369402 0.3149134 0.1515673
vn 0.2404678 0.6851674 0.687547
vn 0.3293288 0.1445965 0.9330779
vn 0.9365456 -0.3145186 -0.1547917
vn 0.1442018 -0.8995202 0.4123946
vn -0.8332691 -0.3145186 0.4546874
vn -0.2408625 -0.6847727 -0.687802
vn -0.196432 -0.8402795 0.5053166
vn -0.9443454 0.003899872 0.3289326
vn 0.00350523 0.4111794 0.9115477
vn -0.5666862 -0.4107847 -0.7142287
vn -0.463015 0.8406742 -0.2808631
vn 0.5662915 0.4111794 0.7143147
vn 0.9439507 -0.00350523 -0.330068
vn 0.4626203 -0.8402795 0.2826885
vn -0.003899872 -0.4181898 -0.9083513
vn 0.1960374 0.8406742 -0.5048131
g ster232_0
f 3/3/3 2/2/2 1/1/1
f 4/4/4 3/3/3 1/1/1
f 3/3/3 5/5/5 2/2/2
f 4/4/4 5/5/5 3/3/3
f 8/8/8 7/7/7 6/6/6
f 9/9/9 8/8/8 6/6/6
f 8/8/8 10/10/10 7/7/7
f 9/9/9 10/10/10 8/8/8
f 13/13/13 12/12/12 11/11/11
f 11/11/11 12/12/12 14/14/14
f 13/13/13 15/15/15 12/12/12
f 12/12/12 15/15/15 14/14/14
f 18/18/18 17/17/17 16/16/16
f 19/19/19 17/17/17 18/18/18
f 17/17/17 20/20/20 16/16/16
f 19/19/19 20/20/20 17/17/17
