g ster185
v -1.781732 -1.017602 1.128231
v -1.842341 1.840279 -1.251173
v -2.752913 6.755144 1.742976
v 0.3428679 1.840279 2.200427
v 1.781807 1.016909 -1.128306
v 1.781807 1.016909 -1.128306
v -0.342999 -1.839324 -2.200295
v 2.752988 -6.755012 -1.743051
v 1.842416 -1.839324 1.250891
v -1.781732 -1.017602 1.128231
v 1.842416 -1.839324 1.250891
v 4.012369 -0.0002436638 6.336655
v 1.781807 1.016909 -1.128306
v -1.781732 -1.017602 1.128231
v 0.3428679 1.840279 2.200427
v 1.781807 1.016909 -1.128306
v -4.012088 -0.0002436638 -6.33673
v -0.342999 -1.839324 -2.200295
v -1.781732 -1.017602 1.128231
v -1.842341 1.840279 -1.251173
vt 0.9551296 0.07390583
vt 0.9489734 0.0844594
vt 0.9542502 0.0844594
vt 0.9586475 0.0844594
vt 0.9542502 0.09677191
vt 0.9542502 0.09677191
vt 0.9489734 0.1038076
vt 0.9542502 0.1038076
vt 0.9586475 0.1038076
vt 0.9542502 0.1090844
vt 0.9639243 0.0695085
vt 0.9639243 0.07478529
vt 0.9692011 0.07478529
vt 0.9551296 0.07390583
vt 0.9639243 0.07918262
vt 0.9384198 0.07390583
vt 0.9436966 0.07478529
vt 0.9436966 0.0695085
vt 0.9551296 0.07390583
vt 0.9436966 0.07918262
vn -0.8370331 -0.1448511 0.5276303
vn -0.6321796 0.3143033 -0.7082107
vn -0.3637508 0.9006084 0.2378864
vn 0.3708965 0.3143033 0.8738703
vn 0.6181335 0.681627 -0.3915298
vn 0.8371149 0.1447694 -0.5275229
vn -0.3708146 -0.3143851 -0.8738756
vn 0.3638325 -0.9006901 -0.2374514
vn 0.6322613 -0.3143851 0.7081015
vn -0.6180517 -0.6817088 0.3915166
vn 0.5333666 -0.8441788 0.05368707
vn 0.5333666 0.003491044 0.8458771
vn 0.8865623 0.4131982 -0.2080254
vn -0.5686043 -0.41328 0.7112586
vn -0.1588972 0.8440971 0.5121053
vn 0.5686861 0.4131982 -0.7112407
vn -0.5332847 0.003491044 -0.8459286
vn 0.158979 -0.8441788 -0.5119451
vn -0.8864805 -0.41328 0.2082113
vn -0.5332847 0.8440971 -0.05574538
g ster185_0
f 3/3/3 2/2/2 1/1/1
f 4/4/4 3/3/3 1/1/1
f 3/3/3 5/5/5 2/2/2
f 4/4/4 5/5/5 3/3/3
f 8/8/8 7/7/7 6/6/6
f 9/9/9 8/8/8 6/6/6
f 8/8/8 10/10/10 7/7/7
f 9/9/9 10/10/10 8/8/8
f 13/13/13 12/12/12 11/11/11
f 11/11/11 12/12/12 14/14/14
f 13/13/13 15/15/15 12/12/12
f 12/12/12 15/15/15 14/14/14
f 18/18/18 17/17/17 16/16/16
f 19/19/19 17/17/17 18/18/18
f 17/17/17 20/20/20 16/16/16
f 19/19/19 20/20/20 17/17/17
