g ster154
v 2.09012 -1.01733 -0.2805095
v 1.151173 1.839664 1.906359
v 3.229378 6.755352 -0.4331818
v 0.6078591 1.839664 -2.142296
v -2.09011 1.017093 0.2804995
v -2.09011 1.017093 0.2804995
v -0.6078491 -1.839674 2.142286
v -3.229368 -6.755362 0.4331717
v -1.151163 -1.839674 -1.906368
v 2.09012 -1.01733 -0.2805095
v -1.151163 -1.839674 -1.906368
v -0.9971294 -0.0001182556 -7.433427
v -2.09011 1.017093 0.2804995
v 2.09012 -1.01733 -0.2805095
v 0.6078591 1.839664 -2.142296
v -2.09011 1.017093 0.2804995
v 0.9971395 -0.0001182556 7.433417
v -0.6078491 -1.839674 2.142286
v 2.09012 -1.01733 -0.2805095
v 1.151173 1.839664 1.906359
vt 0.9551296 0.07390583
vt 0.9489734 0.0844594
vt 0.9542502 0.0844594
vt 0.9586475 0.0844594
vt 0.9542502 0.09677191
vt 0.9542502 0.09677191
vt 0.9489734 0.1038076
vt 0.9542502 0.1038076
vt 0.9586475 0.1038076
vt 0.9542502 0.1090844
vt 0.9639243 0.0695085
vt 0.9639243 0.07478529
vt 0.9692011 0.07478529
vt 0.9551296 0.07390583
vt 0.9639243 0.07918262
vt 0.9384198 0.07390583
vt 0.9436966 0.07478529
vt 0.9436966 0.0695085
vt 0.9551296 0.07390583
vt 0.9436966 0.07918262
vn 0.9804639 -0.149955 -0.1272949
vn 0.2729934 0.3191287 0.9075415
vn 0.4267914 0.9035608 -0.03777558
vn 0.02691674 0.3191287 -0.9473291
vn -0.7266932 0.6805539 0.09361321
vn -0.9804597 0.1499509 0.1273318
vn -0.02691251 -0.3191328 0.9473278
vn -0.4267872 -0.9035649 0.03772427
vn -0.2729892 -0.3191328 -0.9075413
vn 0.7266973 -0.680558 -0.09355143
vn -0.4498569 -0.8420458 -0.2976367
vn -0.1345711 0.00384289 -0.9908965
vn -0.888181 0.4114074 -0.2046421
vn 0.8112862 -0.4114116 -0.4153976
vn 0.3575823 0.8420417 -0.4038573
vn -0.8112821 0.4114074 0.4154098
vn 0.1345752 -0.003847003 0.9908959
vn -0.3575781 -0.8420458 0.4038524
vn 0.8881851 -0.4114116 0.2046159
vn 0.449861 0.8420417 0.2976422
g ster154_0
f 3/3/3 2/2/2 1/1/1
f 4/4/4 3/3/3 1/1/1
f 3/3/3 5/5/5 2/2/2
f 4/4/4 5/5/5 3/3/3
f 8/8/8 7/7/7 6/6/6
f 9/9/9 8/8/8 6/6/6
f 8/8/8 10/10/10 7/7/7
f 9/9/9 10/10/10 8/8/8
f 13/13/13 12/12/12 11/11/11
f 11/11/11 12/12/12 14/14/14
f 13/13/13 15/15/15 12/12/12
f 12/12/12 15/15/15 14/14/14
f 18/18/18 17/17/17 16/16/16
f 19/19/19 17/17/17 18/18/18
f 17/17/17 20/20/20 16/16/16
f 19/19/19 20/20/20 17/17/17
