g ster299
v -0.2223153 -1.26233 1.959404
v -2.153626 1.719696 0.8641148
v -0.455883 6.316227 4.01853
v 1.905494 1.719696 1.324428
v 0.2220774 1.262794 -1.959167
v 0.2220774 1.262794 -1.959167
v -1.905276 -1.72014 -1.324417
v 0.4558725 -6.316216 -4.018519
v 2.153616 -1.72014 -0.8641043
v -0.2223153 -1.26233 1.959404
v 2.153616 -1.72014 -0.8641043
v 7.452215 0.0003461838 0.8452387
v 0.2220774 1.262794 -1.959167
v -0.2223153 -1.26233 1.959404
v 1.905494 1.719696 1.324428
v 0.2220774 1.262794 -1.959167
v -7.452226 0.0003461838 -0.8452282
v -1.905276 -1.72014 -1.324417
v -0.2223153 -1.26233 1.959404
v -2.153626 1.719696 0.8641148
vt 0.6376616 0.07365538
vt 0.6312976 0.08320133
vt 0.6360706 0.08320133
vt 0.6408436 0.08320133
vt 0.6360706 0.09592926
vt 0.6360706 0.09592926
vt 0.6312976 0.1030887
vt 0.6360706 0.1030887
vt 0.6408436 0.1030887
vt 0.6368661 0.1086572
vt 0.6456165 0.06888241
vt 0.6456165 0.07365538
vt 0.651185 0.07365538
vt 0.6376616 0.07365538
vt 0.6456165 0.07842836
vt 0.6201607 0.07285989
vt 0.6265246 0.07365538
vt 0.6265246 0.06888241
vt 0.6376616 0.07365538
vt 0.6265246 0.07842836
vn -0.1051663 -0.2611097 0.9595633
vn -0.9546149 0.2922008 0.05769853
vn -0.05840766 0.8455113 0.5307534
vn 0.9079375 0.2922008 0.3004468
vn 0.07407516 0.7675803 -0.636658
vn 0.1052476 0.2610284 -0.9595765
vn -0.9078562 -0.2922821 -0.3006131
vn 0.05848891 -0.8455926 -0.5306149
vn 0.9546961 -0.2922821 -0.0559152
vn -0.07399392 -0.7676616 0.6365694
vn 0.4013856 -0.7910409 -0.4616751
vn 0.9936616 -0.003937185 0.1123434
vn 0.3857993 0.5182009 -0.7632999
vn 0.2065579 -0.5182822 0.82989
vn 0.2922821 0.7909596 0.5375445
vn -0.2064767 0.5182009 -0.8299609
vn -0.9935803 -0.003937185 -0.1130603
vn -0.2922008 -0.7910409 -0.537469
vn -0.3857181 -0.5182822 0.7632858
vn -0.4013044 0.7909596 0.461885
g ster299_0
f 3/3/3 2/2/2 1/1/1
f 4/4/4 3/3/3 1/1/1
f 3/3/3 5/5/5 2/2/2
f 4/4/4 5/5/5 3/3/3
f 8/8/8 7/7/7 6/6/6
f 9/9/9 8/8/8 6/6/6
f 8/8/8 10/10/10 7/7/7
f 9/9/9 10/10/10 8/8/8
f 13/13/13 12/12/12 11/11/11
f 11/11/11 12/12/12 14/14/14
f 13/13/13 15/15/15 12/12/12
f 12/12/12 15/15/15 14/14/14
f 18/18/18 17/17/17 16/16/16
f 19/19/19 17/17/17 18/18/18
f 17/17/17 20/20/20 16/16/16
f 19/19/19 20/20/20 17/17/17
