g ster101
v -1.908461 -1.356457 -2.065074
v 1.197032 2.452705 -2.717343
v -2.948573 9.00673 -3.190396
v -2.802891 2.452705 0.9796715
v 1.908673 1.356245 2.065138
v 1.908673 1.356245 2.065138
v 2.803103 -2.452918 -0.9793339
v 2.948785 -9.006942 3.190459
v -1.19682 -2.452918 2.717406
v -1.908461 -1.356457 -2.065074
v -1.19682 -2.452918 2.717406
v -7.34376 -0.000243187 6.787421
v 1.908673 1.356245 2.065138
v -1.908461 -1.356457 -2.065074
v -2.802891 2.452705 0.9796715
v 1.908673 1.356245 2.065138
v 7.343972 -0.000243187 -6.787084
v 2.803103 -2.452918 -0.9793339
v -1.908461 -1.356457 -2.065074
v 1.197032 2.452705 -2.717343
vt 0.7229624 0.1022395
vt 0.714131 0.1154866
vt 0.72107 0.1154866
vt 0.7273781 0.1154866
vt 0.72107 0.1325186
vt 0.72107 0.1325186
vt 0.714131 0.1413501
vt 0.72107 0.1413501
vt 0.7273781 0.1413501
vt 0.7217008 0.1489199
vt 0.7336863 0.09593133
vt 0.7336863 0.1022395
vt 0.7412561 0.1009779
vt 0.7229624 0.1022395
vt 0.7336863 0.1091785
vt 0.7002531 0.1016087
vt 0.7078229 0.1022395
vt 0.7078229 0.09593133
vt 0.7229624 0.1022395
vt 0.7078229 0.1091785
vn -0.6746668 -0.1447893 -0.7237822
vn 0.5827745 0.3143887 -0.7493555
vn -0.2931959 0.9007238 -0.3205197
vn -0.7876952 0.3143887 0.5298075
vn 0.4980032 0.6817312 0.5359435
vn 0.6746101 0.144846 0.7238237
vn 0.7947028 -0.314332 -0.5192714
vn 0.2931392 -0.900667 0.3207309
vn -0.5828312 -0.314332 0.7493352
vn -0.4980599 -0.6816744 -0.5359629
vn 0.01763237 -0.8441528 0.5358126
vn -0.7311811 0.003560483 0.6821741
vn 0.3637819 0.4132885 0.8347786
vn -0.8018238 -0.4132319 -0.4316457
vn -0.5333813 0.8442095 -0.0530544
vn 0.8017671 0.4132885 0.4316968
vn 0.7311243 -0.003503799 -0.6822352
vn 0.5333246 -0.8441528 0.05450573
vn -0.3638386 -0.4132319 -0.8347819
vn -0.01768905 0.8442095 -0.5357214
g ster101_0
f 3/3/3 2/2/2 1/1/1
f 4/4/4 3/3/3 1/1/1
f 3/3/3 5/5/5 2/2/2
f 4/4/4 5/5/5 3/3/3
f 8/8/8 7/7/7 6/6/6
f 9/9/9 8/8/8 6/6/6
f 8/8/8 10/10/10 7/7/7
f 9/9/9 10/10/10 8/8/8
f 13/13/13 12/12/12 11/11/11
f 11/11/11 12/12/12 14/14/14
f 13/13/13 15/15/15 12/12/12
f 12/12/12 15/15/15 14/14/14
f 18/18/18 17/17/17 16/16/16
f 19/19/19 17/17/17 18/18/18
f 17/17/17 20/20/20 16/16/16
f 19/19/19 20/20/20 17/17/17
