g ster287
v -2.096638 -1.017261 -0.226953
v -0.66257 1.839952 -2.126148
v -3.239204 6.755424 -0.3502889
v -1.101756 1.839952 1.935299
v 2.096566 1.017104 0.2267971
v 2.096566 1.017104 0.2267971
v 1.101912 -1.839881 -1.935227
v 3.23936 -6.755352 0.3505883
v 0.6627254 -1.839881 2.12622
v -2.096638 -1.017261 -0.226953
v 0.6627254 -1.839881 2.12622
v -0.8066139 -7.820129E-05 7.456529
v 2.096566 1.017104 0.2267971
v -2.096638 -1.017261 -0.226953
v -1.101756 1.839952 1.935299
v 2.096566 1.017104 0.2267971
v 0.8067694 -7.820129E-05 -7.456457
v 1.101912 -1.839881 -1.935227
v -2.096638 -1.017261 -0.226953
v -0.66257 1.839952 -2.126148
vt 0.9551296 0.07390583
vt 0.9489734 0.0844594
vt 0.9542502 0.0844594
vt 0.9586475 0.0844594
vt 0.9542502 0.09677191
vt 0.9542502 0.09677191
vt 0.9489734 0.1038076
vt 0.9542502 0.1038076
vt 0.9586475 0.1038076
vt 0.9542502 0.1090844
vt 0.9639243 0.0695085
vt 0.9639243 0.07478529
vt 0.9692011 0.07478529
vt 0.9551296 0.07390583
vt 0.9639243 0.07918262
vt 0.9384198 0.07390583
vt 0.9436966 0.07478529
vt 0.9436966 0.0695085
vt 0.9551296 0.07390583
vt 0.9436966 0.07918262
vn -0.9835122 -0.1427 -0.1110874
vn -0.05014461 0.3124132 -0.9486219
vn -0.4358338 0.8986606 -0.04957858
vn -0.2507029 0.3124132 0.9162675
vn 0.7289474 0.6826747 0.05090113
vn 0.9835022 0.14271 0.1111633
vn 0.2506929 -0.3124031 -0.9162737
vn 0.4281099 -0.8986506 0.09565049
vn 0.05013454 -0.3124031 0.9486257
vn -0.7289575 -0.6826647 -0.05089146
vn 0.3663996 -0.8446541 0.39027
vn -0.1041411 -0.003851891 0.9945551
vn 0.8215128 0.4126924 0.3934485
vn -0.8832331 -0.4126824 0.2226938
vn -0.4435475 0.8446642 0.2996799
vn 0.8832231 0.4126924 -0.2227152
vn 0.104131 0.003861904 -0.9945561
vn 0.4435375 -0.8446541 -0.2997231
vn -0.8215228 -0.4126824 -0.3934382
vn -0.3664097 0.8446642 -0.3902389
g ster287_0
f 3/3/3 2/2/2 1/1/1
f 4/4/4 3/3/3 1/1/1
f 3/3/3 5/5/5 2/2/2
f 4/4/4 5/5/5 3/3/3
f 8/8/8 7/7/7 6/6/6
f 9/9/9 8/8/8 6/6/6
f 8/8/8 10/10/10 7/7/7
f 9/9/9 10/10/10 8/8/8
f 13/13/13 12/12/12 11/11/11
f 11/11/11 12/12/12 14/14/14
f 13/13/13 15/15/15 12/12/12
f 12/12/12 15/15/15 14/14/14
f 18/18/18 17/17/17 16/16/16
f 19/19/19 17/17/17 18/18/18
f 17/17/17 20/20/20 16/16/16
f 19/19/19 20/20/20 17/17/17
