g ster127
v -1.431267 -1.017268 -1.548743
v 0.8976965 1.839665 -2.037955
v -2.211368 6.75529 -2.392959
v -2.10231 1.839665 0.7346601
v 1.431439 1.017096 1.548777
v 1.431439 1.017096 1.548777
v 2.102276 -1.840044 -0.7346258
v 2.21154 -6.755256 2.392787
v -0.8977308 -1.840044 2.03799
v -1.431267 -1.017268 -1.548743
v -0.8977308 -1.840044 2.03799
v -5.50783 -8.583069E-05 5.090567
v 1.431439 1.017096 1.548777
v -1.431267 -1.017268 -1.548743
v -2.10231 1.839665 0.7346601
v 1.431439 1.017096 1.548777
v 5.508001 -8.583069E-05 -5.090532
v 2.102276 -1.840044 -0.7346258
v -1.431267 -1.017268 -1.548743
v 0.8976965 1.839665 -2.037955
vt 0.9551296 0.07390583
vt 0.9489734 0.0844594
vt 0.9542502 0.0844594
vt 0.9586475 0.0844594
vt 0.9542502 0.09677191
vt 0.9542502 0.09677191
vt 0.9489734 0.1038076
vt 0.9542502 0.1038076
vt 0.9586475 0.1038076
vt 0.9542502 0.1090844
vt 0.9639243 0.0695085
vt 0.9639243 0.07478529
vt 0.9692011 0.07478529
vt 0.9551296 0.07390583
vt 0.9639243 0.07918262
vt 0.9384198 0.07390583
vt 0.9436966 0.07478529
vt 0.9436966 0.0695085
vt 0.9551296 0.07390583
vt 0.9436966 0.07918262
vn -0.6746278 -0.1448027 -0.7238159
vn 0.5827742 0.3143609 -0.7493674
vn -0.2931687 0.9006776 -0.3206742
vn -0.7876527 0.3143609 0.5298873
vn 0.4980054 0.6816918 0.5359914
vn 0.6746069 0.1448236 0.7238312
vn 0.7946958 -0.31434 -0.5192773
vn 0.2931479 -0.9006566 0.3207522
vn -0.5827951 -0.31434 0.7493599
vn -0.4980264 -0.6816709 -0.5359986
vn 0.01764965 -0.8441442 0.5358256
vn -0.7311402 -0.003521562 0.6822181
vn 0.3637884 0.4132578 0.834791
vn -0.8017808 -0.4132368 -0.4317209
vn -0.5333467 0.8441651 -0.05409685
vn 0.8017598 0.4132578 0.4317397
vn 0.7311193 0.003542483 -0.6822405
vn 0.5333257 -0.8441442 0.05462752
vn -0.3638093 -0.4132368 -0.8347923
vn -0.01767063 0.8441651 -0.5357919
g ster127_0
f 3/3/3 2/2/2 1/1/1
f 4/4/4 3/3/3 1/1/1
f 3/3/3 5/5/5 2/2/2
f 4/4/4 5/5/5 3/3/3
f 8/8/8 7/7/7 6/6/6
f 9/9/9 8/8/8 6/6/6
f 8/8/8 10/10/10 7/7/7
f 9/9/9 10/10/10 8/8/8
f 13/13/13 12/12/12 11/11/11
f 11/11/11 12/12/12 14/14/14
f 13/13/13 15/15/15 12/12/12
f 12/12/12 15/15/15 14/14/14
f 18/18/18 17/17/17 16/16/16
f 19/19/19 17/17/17 18/18/18
f 17/17/17 20/20/20 16/16/16
f 19/19/19 20/20/20 17/17/17
