g ster128
v -2.385572 -1.69532 -2.581112
v 1.496378 3.065892 -3.396465
v -3.68574 11.2586 -3.988138
v -3.503634 3.065892 1.224561
v 2.115195 1.502873 2.288334
v 2.115195 1.502873 2.288334
v 3.504011 -3.066269 -1.224593
v 3.685773 -11.25898 3.988105
v -1.496001 -3.066269 3.396775
v -2.385572 -1.69532 -2.581112
v -1.496001 -3.066269 3.396775
v -9.179844 -1.621246E-05 8.484062
v 2.115195 1.502873 2.288334
v -2.385572 -1.69532 -2.581112
v -3.503634 3.065892 1.224561
v 2.115195 1.502873 2.288334
v 9.179877 -1.621246E-05 -8.484095
v 3.504011 -3.066269 -1.224593
v -2.385572 -1.69532 -2.581112
v 1.496378 3.065892 -3.396465
vt 0.690336 0.07822117
vt 0.6839348 0.08782297
vt 0.6887357 0.08782297
vt 0.6935366 0.08782297
vt 0.6887357 0.09822492
vt 0.6887357 0.09822492
vt 0.6839348 0.1078267
vt 0.6887357 0.1078267
vt 0.6935366 0.1078267
vt 0.6895359 0.1134278
vt 0.6983375 0.07342027
vt 0.6983375 0.07822117
vt 0.7031384 0.07822117
vt 0.690336 0.07822117
vt 0.6983375 0.08302207
vt 0.6735328 0.07822117
vt 0.6791339 0.07822117
vt 0.6791339 0.07342027
vt 0.690336 0.07822117
vt 0.6791339 0.08302207
vn -0.6693035 -0.1479735 -0.7281048
vn 0.584794 0.3170289 -0.746665
vn -0.3381654 0.8665773 -0.3669986
vn -0.7890769 0.3170289 0.5261657
vn 0.5072936 0.662258 0.5514232
vn 0.6693399 0.1761191 0.7217798
vn 0.7961587 -0.3170653 -0.5153648
vn 0.2466104 -0.9300231 0.2724709
vn -0.5847576 -0.3170653 0.7466781
vn -0.4931662 -0.6834309 -0.5382465
vn 0.02115464 -0.8384317 0.544596
vn -0.7749859 -0.03524566 0.6309949
vn 0.3945657 0.4156659 0.8194753
vn -0.8031678 -0.4157022 -0.4267472
vn -0.5283936 0.8454407 -0.07765361
vn 0.7820678 0.4156659 0.4643187
vn 0.6904764 -0.02820015 -0.7228051
vn 0.5354756 -0.8384317 0.1014797
vn -0.3663474 -0.4157022 -0.8324549
vn -0.01407278 0.8454407 -0.5338838
g ster128_0
f 3/3/3 2/2/2 1/1/1
f 4/4/4 3/3/3 1/1/1
f 3/3/3 5/5/5 2/2/2
f 4/4/4 5/5/5 3/3/3
f 8/8/8 7/7/7 6/6/6
f 9/9/9 8/8/8 6/6/6
f 8/8/8 10/10/10 7/7/7
f 9/9/9 10/10/10 8/8/8
f 13/13/13 12/12/12 11/11/11
f 11/11/11 12/12/12 14/14/14
f 13/13/13 15/15/15 12/12/12
f 12/12/12 15/15/15 14/14/14
f 18/18/18 17/17/17 16/16/16
f 19/19/19 17/17/17 18/18/18
f 17/17/17 20/20/20 16/16/16
f 19/19/19 20/20/20 17/17/17
