g ster182
v -1.9474 -1.262184 0.3089256
v -1.407798 1.719759 -1.844738
v -3.994364 6.316215 0.6335459
v -0.7675991 1.719759 2.189735
v 1.947594 1.262669 -0.3088932
v 1.947594 1.262669 -0.3088932
v 0.7677927 -1.720179 -2.189929
v 3.994331 -6.31573 -0.6335139
v 1.407765 -1.720179 1.844769
v -1.9474 -1.262184 0.3089256
v 1.407765 -1.720179 1.844769
v 1.175151 0.0001292229 7.407401
v 1.947594 1.262669 -0.3088932
v -1.9474 -1.262184 0.3089256
v -0.7675991 1.719759 2.189735
v 1.947594 1.262669 -0.3088932
v -1.174957 0.0001292229 -7.407369
v 0.7677927 -1.720179 -2.189929
v -1.9474 -1.262184 0.3089256
v -1.407798 1.719759 -1.844738
vt 0.6376616 0.07365538
vt 0.6312976 0.08320133
vt 0.6360706 0.08320133
vt 0.6408436 0.08320133
vt 0.6360706 0.09592926
vt 0.6360706 0.09592926
vt 0.6312976 0.1030887
vt 0.6360706 0.1030887
vt 0.6408436 0.1030887
vt 0.6368661 0.1086572
vt 0.6456165 0.06888241
vt 0.6456165 0.07365538
vt 0.651185 0.07365538
vt 0.6376616 0.07365538
vt 0.6456165 0.07842836
vt 0.6201607 0.07285989
vt 0.6265246 0.07365538
vt 0.6265246 0.06888241
vt 0.6376616 0.07365538
vt 0.6265246 0.07842836
vn -0.9526581 -0.2652548 0.1486019
vn -0.3324938 0.2951345 -0.8957363
vn -0.534234 0.8405801 0.08954937
vn -0.04109138 0.2951345 0.9545717
vn 0.6388476 0.7658616 -0.07300417
vn 0.9526657 0.2652471 -0.1485667
vn 0.04109907 -0.2951422 -0.954569
vn 0.5342417 -0.8405879 -0.08943082
vn 0.3325015 -0.2951422 0.8957309
vn -0.63884 -0.7658693 0.07299192
vn 0.5566572 -0.7882848 0.2621827
vn 0.1531769 -0.003739774 0.9881917
vn 0.8405879 0.5118184 0.1773526
vn -0.7509179 -0.5118261 0.4173204
vn -0.4445717 0.7882771 0.4254117
vn 0.7509255 0.5118184 -0.4173161
vn -0.1531693 -0.003739774 -0.9881929
vn 0.4445794 -0.7882848 -0.4253895
vn -0.8405801 -0.5118261 -0.1773672
vn -0.5566496 0.7882771 -0.262222
g ster182_0
f 3/3/3 2/2/2 1/1/1
f 4/4/4 3/3/3 1/1/1
f 3/3/3 5/5/5 2/2/2
f 4/4/4 5/5/5 3/3/3
f 8/8/8 7/7/7 6/6/6
f 9/9/9 8/8/8 6/6/6
f 8/8/8 10/10/10 7/7/7
f 9/9/9 10/10/10 8/8/8
f 13/13/13 12/12/12 11/11/11
f 11/11/11 12/12/12 14/14/14
f 13/13/13 15/15/15 12/12/12
f 12/12/12 15/15/15 14/14/14
f 18/18/18 17/17/17 16/16/16
f 19/19/19 17/17/17 18/18/18
f 17/17/17 20/20/20 16/16/16
f 19/19/19 20/20/20 17/17/17
