g ster126
v -1.908473 -1.356444 -2.064787
v 1.19702 2.452718 -2.717331
v -2.94886 9.006742 -3.190384
v -2.803179 2.452718 0.9796839
v 1.908386 1.355983 2.064875
v 1.908386 1.355983 2.064875
v 2.803091 -2.452905 -0.9795961
v 2.948772 -9.006929 3.190472
v -1.197107 -2.452905 2.717419
v -1.908473 -1.356444 -2.064787
v -1.197107 -2.452905 2.717419
v -7.343773 -0.0002307892 6.787434
v 1.908386 1.355983 2.064875
v -1.908473 -1.356444 -2.064787
v -2.803179 2.452718 0.9796839
v 1.908386 1.355983 2.064875
v 7.34396 -0.0002307892 -6.787071
v 2.803091 -2.452905 -0.9795961
v -1.908473 -1.356444 -2.064787
v 1.19702 2.452718 -2.717331
vt 0.7229626 0.1022395
vt 0.7141311 0.1154866
vt 0.7210701 0.1154866
vt 0.7273782 0.1154866
vt 0.7204393 0.131257
vt 0.7204393 0.131257
vt 0.7141311 0.1413501
vt 0.7210701 0.1413501
vt 0.7273782 0.1413501
vt 0.7217009 0.1489199
vt 0.7336864 0.09593133
vt 0.7336864 0.1022395
vt 0.7412562 0.1035011
vt 0.7229626 0.1022395
vt 0.7336864 0.1091785
vt 0.7002532 0.1016087
vt 0.707823 0.1022395
vt 0.707823 0.09593133
vt 0.7229626 0.1022395
vt 0.707823 0.1091785
vn -0.6746184 -0.1448474 -0.7238158
vn 0.5828377 0.3143361 -0.7493284
vn -0.2931429 0.9006779 -0.3206969
vn -0.7876482 0.3143361 0.5299086
vn 0.4980654 0.6816827 0.5359473
vn 0.6746744 0.1447914 0.7237747
vn 0.7877042 -0.314392 -0.5297922
vn 0.2931989 -0.9007339 0.3204883
vn -0.5827817 -0.314392 0.7493485
vn -0.4980094 -0.6817388 -0.535928
vn 0.01768893 -0.8442191 0.5357063
vn -0.7311333 0.003504157 0.6822256
vn 0.3638425 0.4132371 0.8347777
vn -0.8017769 -0.4132931 -0.4316742
vn -0.5333312 0.8441631 -0.05428273
vn 0.8018329 0.4132371 0.4316238
vn 0.7311893 0.003504157 -0.6821656
vn 0.5333872 -0.8442191 0.05284164
vn -0.3637866 -0.4132931 -0.8347743
vn -0.0176329 0.8441631 -0.5357965
g ster126_0
f 3/3/3 2/2/2 1/1/1
f 4/4/4 3/3/3 1/1/1
f 3/3/3 5/5/5 2/2/2
f 4/4/4 5/5/5 3/3/3
f 8/8/8 7/7/7 6/6/6
f 9/9/9 8/8/8 6/6/6
f 8/8/8 10/10/10 7/7/7
f 9/9/9 10/10/10 8/8/8
f 13/13/13 12/12/12 11/11/11
f 11/11/11 12/12/12 14/14/14
f 13/13/13 15/15/15 12/12/12
f 12/12/12 15/15/15 14/14/14
f 18/18/18 17/17/17 16/16/16
f 19/19/19 17/17/17 18/18/18
f 17/17/17 20/20/20 16/16/16
f 19/19/19 20/20/20 17/17/17
