g ster211
v -2.310336 -1.356523 -1.602537
v 0.5802698 2.452997 -2.912051
v -3.569548 9.006888 -2.476371
v -2.524466 2.452997 1.563496
v 2.310346 1.356238 1.602803
v 2.310346 1.356238 1.602803
v 2.524475 -2.452457 -1.56323
v 3.569557 -9.007173 2.476362
v -0.5799856 -2.452457 2.912042
v -2.310336 -1.356523 -1.602537
v -0.5799856 -2.452457 2.912042
v -5.700119 -4.768372E-06 8.216617
v 2.310346 1.356238 1.602803
v -2.310336 -1.356523 -1.602537
v -2.524466 2.452997 1.563496
v 2.310346 1.356238 1.602803
v 5.700128 -4.768372E-06 -8.216352
v 2.524475 -2.452457 -1.56323
v -2.310336 -1.356523 -1.602537
v 0.5802698 2.452997 -2.912051
vt 0.7229624 0.1022395
vt 0.714131 0.1154866
vt 0.72107 0.1154866
vt 0.7273781 0.1154866
vt 0.72107 0.1325186
vt 0.72107 0.1325186
vt 0.714131 0.1413501
vt 0.72107 0.1413501
vt 0.7273781 0.1413501
vt 0.7217008 0.1489199
vt 0.7336863 0.09593133
vt 0.7336863 0.1022395
vt 0.7412561 0.1009779
vt 0.7229624 0.1022395
vt 0.7336863 0.1091785
vt 0.7002531 0.1016087
vt 0.7078229 0.1022395
vt 0.7078229 0.09593133
vt 0.7229624 0.1022395
vt 0.7078229 0.1091785
vn -0.8159334 -0.1448353 -0.5597101
vn 0.4062209 0.3143557 -0.8580006
vn -0.3567424 0.9007071 -0.2479146
vn -0.6605149 0.3143557 0.6818362
vn 0.5969617 0.6817084 0.422978
vn 0.8159604 0.1448082 0.5596778
vn 0.660542 -0.3143827 -0.6817975
vn 0.3567695 -0.9007341 0.2477772
vn -0.4061938 -0.3143827 0.8580036
vn -0.5969346 -0.6817354 -0.4229727
vn 0.1377708 -0.8442183 0.517991
vn -0.5686768 0.003518701 0.8225536
vn 0.5333814 0.4132583 0.7380528
vn -0.8795137 -0.4132853 -0.2359044
vn -0.5333543 0.8441913 0.05361208
vn 0.8795407 0.4132583 0.2358512
vn 0.5687038 0.003518701 -0.8225349
vn 0.5333814 -0.8442183 -0.05291266
vn -0.5333543 -0.4132853 -0.7380571
vn -0.1377438 0.8441913 -0.5180423
g ster211_0
f 3/3/3 2/2/2 1/1/1
f 4/4/4 3/3/3 1/1/1
f 3/3/3 5/5/5 2/2/2
f 4/4/4 5/5/5 3/3/3
f 8/8/8 7/7/7 6/6/6
f 9/9/9 8/8/8 6/6/6
f 8/8/8 10/10/10 7/7/7
f 9/9/9 10/10/10 8/8/8
f 13/13/13 12/12/12 11/11/11
f 11/11/11 12/12/12 14/14/14
f 13/13/13 15/15/15 12/12/12
f 12/12/12 15/15/15 14/14/14
f 18/18/18 17/17/17 16/16/16
f 19/19/19 17/17/17 18/18/18
f 17/17/17 20/20/20 16/16/16
f 19/19/19 20/20/20 17/17/17
