g ster102
v -1.908424 -1.356565 -2.065197
v 1.196861 2.452955 -2.71748
v -2.948559 9.006846 -3.190543
v -2.802874 2.452955 0.9793396
v 1.908517 1.356196 2.065104
v 1.908517 1.356196 2.065104
v 2.802967 -2.453049 -0.9794331
v 2.948652 -9.007215 3.19045
v -1.197042 -2.453049 2.717387
v -1.908424 -1.356565 -2.065197
v -1.197042 -2.453049 2.717387
v -7.343841 -4.673004E-05 6.787215
v 1.908517 1.356196 2.065104
v -1.908424 -1.356565 -2.065197
v -2.802874 2.452955 0.9793396
v 1.908517 1.356196 2.065104
v 7.343934 -4.673004E-05 -6.787308
v 2.802967 -2.453049 -0.9794331
v -1.908424 -1.356565 -2.065197
v 1.196861 2.452955 -2.71748
vt 0.7229624 0.1022395
vt 0.714131 0.1154866
vt 0.72107 0.1154866
vt 0.7273781 0.1154866
vt 0.72107 0.1325186
vt 0.72107 0.1325186
vt 0.714131 0.1413501
vt 0.72107 0.1413501
vt 0.7273781 0.1413501
vt 0.7217008 0.1489199
vt 0.7336863 0.09593133
vt 0.7336863 0.1022395
vt 0.7412561 0.1009779
vt 0.7229624 0.1022395
vt 0.7336863 0.1091785
vt 0.7002531 0.1016087
vt 0.7078229 0.1022395
vt 0.7078229 0.09593133
vt 0.7229624 0.1022395
vt 0.7078229 0.1091785
vn -0.6746294 -0.1448604 -0.7238029
vn 0.5828637 0.3143365 -0.749308
vn -0.2931428 0.9006957 -0.3206471
vn -0.7876626 0.3143365 0.5298869
vn 0.4980888 0.681694 0.5359111
vn 0.6747031 0.1447868 0.7237489
vn 0.7877361 -0.3144101 -0.529734
vn 0.2932163 -0.9007692 0.3203731
vn -0.5827901 -0.3144101 0.7493343
vn -0.4980153 -0.6817676 -0.5358859
vn 0.01769823 -0.8442527 0.535653
vn -0.731146 0.003495514 0.6822121
vn 0.363862 0.4132404 0.8347675
vn -0.8017917 -0.413314 -0.4316267
vn -0.5333381 0.8441792 -0.05396391
vn 0.8018653 0.4132404 0.4315605
vn 0.7312196 0.003495514 -0.6821332
vn 0.5334117 -0.8442527 0.05205122
vn -0.3637885 -0.413314 -0.8347631
vn -0.01762462 0.8441792 -0.5357714
g ster102_0
f 3/3/3 2/2/2 1/1/1
f 4/4/4 3/3/3 1/1/1
f 3/3/3 5/5/5 2/2/2
f 4/4/4 5/5/5 3/3/3
f 8/8/8 7/7/7 6/6/6
f 9/9/9 8/8/8 6/6/6
f 8/8/8 10/10/10 7/7/7
f 9/9/9 10/10/10 8/8/8
f 13/13/13 12/12/12 11/11/11
f 11/11/11 12/12/12 14/14/14
f 13/13/13 15/15/15 12/12/12
f 12/12/12 15/15/15 14/14/14
f 18/18/18 17/17/17 16/16/16
f 19/19/19 17/17/17 18/18/18
f 17/17/17 20/20/20 16/16/16
f 19/19/19 20/20/20 17/17/17
