g ster266
v 2.474116 -1.356742 1.335678
v -0.252388 2.453603 2.958551
v 3.822938 9.006669 2.063552
v 2.334754 2.453603 -1.834753
v -2.474493 1.356019 -1.335576
v -2.474493 1.356019 -1.335576
v -2.334856 -2.452676 1.834579
v -3.823039 -9.007392 -2.063725
v 0.252286 -2.452676 -2.95845
v 2.474116 -1.356742 1.335678
v 0.252286 -2.452676 -2.95845
v 4.750098 -0.0002241135 -8.79986
v -2.474493 1.356019 -1.335576
v 2.474116 -1.356742 1.335678
v 2.334754 2.453603 -1.834753
v -2.474493 1.356019 -1.335576
v -4.750199 -0.0002241135 8.799687
v -2.334856 -2.452676 1.834579
v 2.474116 -1.356742 1.335678
v -0.252388 2.453603 2.958551
vt 0.7229626 0.1022395
vt 0.7141311 0.1154866
vt 0.7210701 0.1154866
vt 0.7273782 0.1154866
vt 0.7204393 0.131257
vt 0.7204393 0.131257
vt 0.7141311 0.1413501
vt 0.7210701 0.1413501
vt 0.7273782 0.1413501
vt 0.7217009 0.1489199
vt 0.7336864 0.09593133
vt 0.7336864 0.1022395
vt 0.7412562 0.1035011
vt 0.7229626 0.1022395
vt 0.7336864 0.1091785
vt 0.7002532 0.1016087
vt 0.707823 0.1022395
vt 0.707823 0.09593133
vt 0.7229626 0.1022395
vt 0.707823 0.1091785
vn 0.8724994 -0.1449202 0.4666293
vn -0.3142318 0.3142318 0.895833
vn 0.385092 0.9005334 0.2018507
vn 0.5758166 0.3142318 -0.7547805
vn -0.6462339 0.6815532 -0.3433175
vn -0.872278 0.1446987 -0.4671118
vn -0.5755951 -0.3144532 0.7548572
vn -0.3848705 -0.9007549 -0.201284
vn 0.3073893 -0.3144532 -0.8981264
vn 0.6393915 -0.6817747 0.3554738
vn -0.1941458 -0.8442439 -0.4995594
vn 0.4769224 0.003421187 -0.8789388
vn -0.6179785 0.413126 -0.6689018
vn 0.9007549 -0.4133475 0.1333581
vn 0.5263695 0.8440225 -0.1027675
vn -0.9005334 0.413126 -0.1355228
vn -0.4767009 0.003421187 0.8790589
vn -0.5261481 -0.8442439 0.1020803
vn 0.6181999 -0.4133475 0.6685602
vn 0.1943673 0.8440225 0.4998473
g ster266_0
f 3/3/3 2/2/2 1/1/1
f 4/4/4 3/3/3 1/1/1
f 3/3/3 5/5/5 2/2/2
f 4/4/4 5/5/5 3/3/3
f 8/8/8 7/7/7 6/6/6
f 9/9/9 8/8/8 6/6/6
f 8/8/8 10/10/10 7/7/7
f 9/9/9 10/10/10 8/8/8
f 13/13/13 12/12/12 11/11/11
f 11/11/11 12/12/12 14/14/14
f 13/13/13 15/15/15 12/12/12
f 12/12/12 15/15/15 14/14/14
f 18/18/18 17/17/17 16/16/16
f 19/19/19 17/17/17 18/18/18
f 17/17/17 20/20/20 16/16/16
f 19/19/19 20/20/20 17/17/17
