g ster217
v -0.9270382 -1.356588 -2.654561
v 2.180894 2.452913 -2.01465
v -1.43211 9.006741 -4.101491
v -2.961154 2.452913 -0.2190962
v 0.8218403 1.202191 2.353512
v 0.8218403 1.202191 2.353512
v 2.961119 -2.452878 0.2191315
v 1.432364 -9.007282 4.101814
v -2.180929 -2.452878 2.014973
v -0.9270382 -1.356588 -2.654561
v -2.180929 -2.452878 2.014973
v -9.440935 -0.0001268387 3.296812
v 0.8218403 1.202191 2.353512
v -0.9270382 -1.356588 -2.654561
v -2.961154 2.452913 -0.2190962
v 0.8218403 1.202191 2.353512
v 9.440901 -0.0001268387 -3.296777
v 2.961119 -2.452878 0.2191315
v -0.9270382 -1.356588 -2.654561
v 2.180894 2.452913 -2.01465
vt 0.690336 0.07822117
vt 0.6839348 0.08782297
vt 0.6887357 0.08782297
vt 0.6935366 0.08782297
vt 0.6887357 0.09822492
vt 0.6887357 0.09822492
vt 0.6839348 0.1078267
vt 0.6887357 0.1078267
vt 0.6935366 0.1078267
vt 0.6895359 0.1134278
vt 0.6983375 0.07342027
vt 0.6983375 0.07822117
vt 0.7031384 0.07822117
vt 0.690336 0.07822117
vt 0.6983375 0.08302207
vt 0.6735328 0.07822117
vt 0.6791339 0.07822117
vt 0.6791339 0.07342027
vt 0.690336 0.07822117
vt 0.6791339 0.08302207
vn -0.3227994 -0.1463891 -0.935078
vn 0.8390005 0.3153519 -0.4434313
vn -0.1664032 0.8664622 -0.4706945
vn -0.933489 0.3153519 0.1707378
vn 0.2506531 0.657934 0.7101379
vn 0.3251275 0.1812981 0.9281288
vn 0.9358172 -0.3102326 -0.1673377
vn 0.1240467 -0.9283698 0.3503456
vn -0.829225 -0.3102326 0.4649103
vn -0.2408776 -0.6826044 -0.6899487
vn -0.1961929 -0.8390005 0.5075298
vn -0.9632788 -0.03467751 0.2662543
vn 0.03467751 0.419616 0.907039
vn -0.5685647 -0.4144967 -0.710582
vn -0.4643007 0.8441198 -0.2681168
vn 0.5411031 0.419616 0.7287865
vn 0.9209223 -0.03467751 -0.3882003
vn 0.4666288 -0.8390005 0.2798853
vn -0.002559662 -0.4144967 -0.9100472
vn 0.1985211 0.8441198 -0.4980473
g ster217_0
f 3/3/3 2/2/2 1/1/1
f 4/4/4 3/3/3 1/1/1
f 3/3/3 5/5/5 2/2/2
f 4/4/4 5/5/5 3/3/3
f 8/8/8 7/7/7 6/6/6
f 9/9/9 8/8/8 6/6/6
f 8/8/8 10/10/10 7/7/7
f 9/9/9 10/10/10 8/8/8
f 13/13/13 12/12/12 11/11/11
f 11/11/11 12/12/12 14/14/14
f 13/13/13 15/15/15 12/12/12
f 12/12/12 15/15/15 14/14/14
f 18/18/18 17/17/17 16/16/16
f 19/19/19 17/17/17 18/18/18
f 17/17/17 20/20/20 16/16/16
f 19/19/19 20/20/20 17/17/17
