g ster166
v 1.610205 -1.262287 1.138059
v -0.2793469 1.719978 2.303633
v 3.302764 6.31616 2.334088
v 2.078401 1.719978 -1.032333
v -1.610302 1.262577 -1.138155
v -1.610302 1.262577 -1.138155
v -2.078305 -1.719688 1.032238
v -3.302669 -6.31587 -2.334183
v 0.279635 -1.719688 -2.303729
v 1.610205 -1.262287 1.138059
v 0.279635 -1.719688 -2.303729
v 4.328785 0.0002412796 -6.124853
v -1.610302 1.262577 -1.138155
v 1.610205 -1.262287 1.138059
v 2.078401 1.719978 -1.032333
v -1.610302 1.262577 -1.138155
v -4.328691 0.0002412796 6.124757
v -2.078305 -1.719688 1.032238
v 1.610205 -1.262287 1.138059
v -0.2793469 1.719978 2.303633
vt 0.2784961 0.07140277
vt 0.2704692 0.07942964
vt 0.2752853 0.07942964
vt 0.2801014 0.07942964
vt 0.2752853 0.09227264
vt 0.2752853 0.09227264
vt 0.2704692 0.09949682
vt 0.2752853 0.09949682
vt 0.2801014 0.09949682
vt 0.276088 0.1051156
vt 0.2849175 0.06498127
vt 0.2849175 0.0697974
vt 0.2905363 0.0697974
vt 0.2784961 0.07140277
vt 0.2849175 0.07461352
vt 0.2600342 0.06899471
vt 0.265653 0.0697974
vt 0.265653 0.06498127
vt 0.2784961 0.07140277
vt 0.265653 0.07461352
vn 0.7893857 -0.2609204 0.5556895
vn -0.3864496 0.2939682 0.8742079
vn 0.4392774 0.8422509 0.3124879
vn 0.6969043 0.2939682 -0.6541461
vn -0.5251718 0.7629812 -0.376901
vn -0.7894044 0.2609391 -0.5556541
vn -0.696923 -0.2939495 0.6541346
vn -0.4392961 -0.8422322 -0.3125121
vn 0.3864309 -0.2939495 -0.8742225
vn 0.525153 -0.7629625 0.376965
vn -0.2080926 -0.7893857 -0.5775532
vn 0.5779996 0.00331229 -0.8160303
vn -0.4855368 0.5119601 -0.708626
vn 0.8290206 -0.5119414 0.2250351
vn 0.6162091 0.7875826 0
vn -0.8290393 0.5119601 -0.2249235
vn -0.5780183 -0.003293574 0.8160172
vn -0.6162297 -0.7875664 0
vn 0.4855182 -0.5119414 0.7086523
vn 0.2080739 0.7894044 0.5775344
g ster166_0
f 3/3/3 2/2/2 1/1/1
f 4/4/4 3/3/3 1/1/1
f 3/3/3 5/5/5 2/2/2
f 4/4/4 5/5/5 3/3/3
f 8/8/8 7/7/7 6/6/6
f 9/9/9 8/8/8 6/6/6
f 8/8/8 10/10/10 7/7/7
f 9/9/9 10/10/10 8/8/8
f 13/13/13 12/12/12 11/11/11
f 11/11/11 12/12/12 14/14/14
f 13/13/13 15/15/15 12/12/12
f 12/12/12 15/15/15 14/14/14
f 18/18/18 17/17/17 16/16/16
f 19/19/19 17/17/17 18/18/18
f 17/17/17 20/20/20 16/16/16
f 19/19/19 20/20/20 17/17/17
