g ster77
v -0.2223201 -1.262552 1.959182
v -2.153631 1.719928 0.8641195
v -0.4556603 6.316232 4.018535
v 1.905489 1.719928 1.324659
v 0.2223001 1.262799 -1.959389
v 0.2223001 1.262799 -1.959389
v -1.905281 -1.719908 -1.32464
v 0.4556403 -6.316212 -4.018515
v 2.153612 -1.719908 -0.864327
v -0.2223201 -1.262552 1.959182
v 2.153612 -1.719908 -0.864327
v 7.45221 0.0003509521 0.8452435
v 0.2223001 1.262799 -1.959389
v -0.2223201 -1.262552 1.959182
v 1.905489 1.719928 1.324659
v 0.2223001 1.262799 -1.959389
v -7.45223 0.0003509521 -0.8452234
v -1.905281 -1.719908 -1.32464
v -0.2223201 -1.262552 1.959182
v -2.153631 1.719928 0.8641195
vt 0.6376616 0.07365538
vt 0.6312976 0.08320133
vt 0.6360706 0.08320133
vt 0.6408436 0.08320133
vt 0.6360706 0.09592926
vt 0.6360706 0.09592926
vt 0.6312976 0.1030887
vt 0.6360706 0.1030887
vt 0.6408436 0.1030887
vt 0.6368661 0.1086572
vt 0.6456165 0.06888241
vt 0.6456165 0.07365538
vt 0.651185 0.07365538
vt 0.6376616 0.07365538
vt 0.6456165 0.07842836
vt 0.6201607 0.07285989
vt 0.6265246 0.07365538
vt 0.6265246 0.06888241
vt 0.6376616 0.07365538
vt 0.6265246 0.07842836
vn -0.105195 -0.2610886 0.9595659
vn -0.9546611 0.2922335 0.05676046
vn -0.05843544 0.8455554 0.5306801
vn 0.9079297 0.2922335 0.3004384
vn 0.07405013 0.7676227 -0.6366097
vn 0.1052232 0.2610604 -0.9595705
vn -0.9079015 -0.2922617 -0.3004961
vn 0.05846363 -0.8455836 -0.5306321
vn 0.9546893 -0.2922617 -0.05613728
vn -0.07402194 -0.767651 0.6365789
vn 0.4013674 -0.7910308 -0.4617083
vn 0.9936557 -0.00391072 0.1123971
vn 0.3857808 0.5182382 -0.763284
vn 0.2065357 -0.5182664 0.8299054
vn 0.2922617 0.7910025 0.5374925
vn -0.2065074 0.5182382 -0.8299301
vn -0.9936274 0.003882527 -0.1126476
vn -0.2922335 -0.7910308 -0.5374662
vn -0.3857526 -0.5182664 0.7632791
vn -0.4013392 0.7910025 0.4617812
g ster77_0
f 3/3/3 2/2/2 1/1/1
f 4/4/4 3/3/3 1/1/1
f 3/3/3 5/5/5 2/2/2
f 4/4/4 5/5/5 3/3/3
f 8/8/8 7/7/7 6/6/6
f 9/9/9 8/8/8 6/6/6
f 8/8/8 10/10/10 7/7/7
f 9/9/9 10/10/10 8/8/8
f 13/13/13 12/12/12 11/11/11
f 11/11/11 12/12/12 14/14/14
f 13/13/13 15/15/15 12/12/12
f 12/12/12 15/15/15 14/14/14
f 18/18/18 17/17/17 16/16/16
f 19/19/19 17/17/17 18/18/18
f 17/17/17 20/20/20 16/16/16
f 19/19/19 20/20/20 17/17/17
