g ster76
v 0.2161679 -1.017603 2.097749
v -1.940877 1.83956 1.092084
v 0.3338785 6.755182 3.240933
v 2.122765 1.83956 0.6731524
v -0.2161975 1.017177 -2.09772
v -0.2161975 1.017177 -2.09772
v -2.122794 -1.839758 -0.6733503
v -0.3339081 -6.75538 -3.241131
v 1.940848 -1.839758 -1.092055
v 0.2161679 -1.017603 2.097749
v 1.940848 -1.839758 -1.092055
v 7.460507 0.000128746 -0.7685208
v -0.2161975 1.017177 -2.09772
v 0.2161679 -1.017603 2.097749
v 2.122765 1.83956 0.6731524
v -0.2161975 1.017177 -2.09772
v -7.460536 0.000128746 0.7683225
v -2.122794 -1.839758 -0.6733503
v 0.2161679 -1.017603 2.097749
v -1.940877 1.83956 1.092084
vt 0.7229624 0.1022395
vt 0.714131 0.1154866
vt 0.72107 0.1154866
vt 0.7273781 0.1154866
vt 0.72107 0.1325186
vt 0.72107 0.1325186
vt 0.714131 0.1413501
vt 0.72107 0.1413501
vt 0.7273781 0.1413501
vt 0.7217008 0.1489199
vt 0.7336863 0.09593133
vt 0.7336863 0.1022395
vt 0.7412561 0.1009779
vt 0.7229624 0.1022395
vt 0.7336863 0.1091785
vt 0.7002531 0.1016087
vt 0.7078229 0.1022395
vt 0.7078229 0.09593133
vt 0.7229624 0.1022395
vt 0.7078229 0.1091785
vn 0.09753788 -0.1443505 0.9847077
vn -0.9167342 0.315973 0.2444573
vn 0.04292327 0.9011301 0.4314188
vn 0.9479661 0.315973 0.0390038
vn -0.07410812 0.6826714 -0.7269578
vn -0.09751439 0.144327 -0.9847135
vn -0.9479426 -0.3159965 -0.03938248
vn -0.04289973 -0.9011535 -0.4313722
vn 0.9167577 -0.3159965 -0.2443389
vn 0.07413161 -0.6826949 0.7269334
vn 0.3081944 -0.8465388 -0.4340371
vn 0.9947786 0.003889322 -0.1019822
vn 0.2067672 0.4174002 -0.8848866
vn 0.3862153 -0.4174237 0.8225541
vn 0.3940175 0.8465154 0.357997
vn -0.3861918 0.4174002 -0.822577
vn -0.9947551 0.003889322 0.1022108
vn -0.393994 -0.8465388 -0.3579675
vn -0.2067437 -0.4174237 0.8848811
vn -0.3081709 0.8465154 0.4340994
g ster76_0
f 3/3/3 2/2/2 1/1/1
f 4/4/4 3/3/3 1/1/1
f 3/3/3 5/5/5 2/2/2
f 4/4/4 5/5/5 3/3/3
f 8/8/8 7/7/7 6/6/6
f 9/9/9 8/8/8 6/6/6
f 8/8/8 10/10/10 7/7/7
f 9/9/9 10/10/10 8/8/8
f 13/13/13 12/12/12 11/11/11
f 11/11/11 12/12/12 14/14/14
f 13/13/13 15/15/15 12/12/12
f 12/12/12 15/15/15 14/14/14
f 18/18/18 17/17/17 16/16/16
f 19/19/19 17/17/17 18/18/18
f 17/17/17 20/20/20 16/16/16
f 19/19/19 20/20/20 17/17/17
