g ster257
v -1.331414 -1.262263 1.454583
v -2.250457 1.720003 -0.566812
v -2.730604 6.316185 2.98311
v 0.7628412 1.720003 2.191475
v 1.331461 1.262601 -1.454437
v 1.331461 1.262601 -1.454437
v -0.7627945 -1.72005 -2.191522
v 2.730651 -6.315846 -2.983156
v 2.250312 -1.72005 0.5665722
v -1.331414 -1.262263 1.454583
v 2.250312 -1.72005 0.5665722
v 5.532307 0.0002655983 5.064065
v 1.331461 1.262601 -1.454437
v -1.331414 -1.262263 1.454583
v 0.7628412 1.720003 2.191475
v 1.331461 1.262601 -1.454437
v -5.53226 0.0002655983 -5.064112
v -0.7627945 -1.72005 -2.191522
v -1.331414 -1.262263 1.454583
v -2.250457 1.720003 -0.566812
vt 0.6376616 0.07365538
vt 0.6312976 0.08320133
vt 0.6360706 0.08320133
vt 0.6408436 0.08320133
vt 0.6360706 0.09592926
vt 0.6360706 0.09592926
vt 0.6312976 0.1030887
vt 0.6360706 0.1030887
vt 0.6408436 0.1030887
vt 0.6368661 0.1086572
vt 0.6456165 0.06888241
vt 0.6456165 0.07365538
vt 0.651185 0.07365538
vt 0.6376616 0.07365538
vt 0.6456165 0.07842836
vt 0.6201607 0.07285989
vt 0.6265246 0.07365538
vt 0.6265246 0.06888241
vt 0.6376616 0.07365538
vt 0.6265246 0.07842836
vn -0.6506939 -0.2609412 0.7130969
vn -0.8158451 0.2939671 -0.497976
vn -0.3666337 0.8422694 0.3951734
vn 0.5648196 0.2939671 0.7710786
vn 0.4326985 0.7629968 -0.4802165
vn 0.6506982 0.2609369 -0.7130945
vn -0.5648153 -0.2939714 -0.77108
vn 0.366638 -0.8422737 -0.3951601
vn 0.8158495 -0.2939714 0.4979663
vn -0.4326942 -0.7630011 0.4802136
vn 0.5978498 -0.7894253 -0.1392237
vn 0.7365769 -0.003305197 0.6763457
vn 0.7630011 0.5119668 -0.3946128
vn -0.3203913 -0.5119711 0.7970163
vn -0.08257347 0.789421 0.6082731
vn 0.3203956 0.5119668 -0.7970173
vn -0.7365726 -0.003305197 -0.6763504
vn 0.08257782 -0.7894253 -0.6082669
vn -0.7629968 -0.5119711 0.3946156
vn -0.5978454 0.789421 0.1392674
g ster257_0
f 3/3/3 2/2/2 1/1/1
f 4/4/4 3/3/3 1/1/1
f 3/3/3 5/5/5 2/2/2
f 4/4/4 5/5/5 3/3/3
f 8/8/8 7/7/7 6/6/6
f 9/9/9 8/8/8 6/6/6
f 8/8/8 10/10/10 7/7/7
f 9/9/9 10/10/10 8/8/8
f 13/13/13 12/12/12 11/11/11
f 11/11/11 12/12/12 14/14/14
f 13/13/13 15/15/15 12/12/12
f 12/12/12 15/15/15 14/14/14
f 18/18/18 17/17/17 16/16/16
f 19/19/19 17/17/17 18/18/18
f 17/17/17 20/20/20 16/16/16
f 19/19/19 20/20/20 17/17/17
