g ster196
v -1.898825 -1.262238 -0.5313206
v -0.5103908 1.719843 -2.263611
v -3.89452 6.316289 -1.089648
v -1.610954 1.719843 1.670028
v 1.899035 1.262689 0.5313311
v 1.899035 1.262689 0.5313311
v 1.611165 -1.720053 -1.670238
v 3.894729 -6.315837 1.089658
v 0.5103803 -1.720053 2.263622
v -1.898825 -1.262238 -0.5313206
v 0.5103803 -1.720053 2.263622
v -2.020718 0.0001153946 7.222661
v 1.899035 1.262689 0.5313311
v -1.898825 -1.262238 -0.5313206
v -1.610954 1.719843 1.670028
v 1.899035 1.262689 0.5313311
v 2.020928 0.0001153946 -7.222651
v 1.611165 -1.720053 -1.670238
v -1.898825 -1.262238 -0.5313206
v -0.5103908 1.719843 -2.263611
vt 0.2784961 0.07140277
vt 0.2704692 0.07942964
vt 0.2752853 0.07942964
vt 0.2801014 0.07942964
vt 0.2752853 0.09227264
vt 0.2752853 0.09227264
vt 0.2704692 0.09949682
vt 0.2752853 0.09949682
vt 0.2801014 0.09949682
vt 0.276088 0.1051156
vt 0.2849175 0.06498127
vt 0.2849175 0.0697974
vt 0.2905363 0.0697974
vt 0.2784961 0.07140277
vt 0.2849175 0.07461352
vt 0.2600342 0.06899471
vt 0.265653 0.0697974
vt 0.265653 0.06498127
vt 0.2784961 0.07140277
vt 0.265653 0.07461352
vn -0.9289357 -0.2659113 -0.257623
vn 0.06919873 0.2950839 -0.9529622
vn -0.5209392 0.8415079 -0.1431324
vn -0.4335113 0.2950839 0.8514655
vn 0.6229084 0.7686513 0.145466
vn 0.9289058 0.2659413 0.2576999
vn 0.4334814 -0.295054 -0.8514911
vn 0.5209092 -0.8414779 0.1434172
vn -0.06922865 -0.295054 0.9529693
vn -0.6229383 -0.7686214 -0.1454953
vn 0.3897675 -0.7904783 0.4724673
vn -0.2659413 -0.003627837 0.9639824
vn 0.6957649 0.5136535 0.5020671
vn -0.8560792 -0.5136236 0.05761305
vn -0.5792244 0.7905083 0.1989864
vn 0.8560492 0.5136535 -0.05779149
vn 0.273197 -0.003627837 -0.9619513
vn 0.5791944 -0.7904783 -0.199193
vn -0.6957948 -0.5136236 -0.5020562
vn -0.3897974 0.7905083 -0.4723924
g ster196_0
f 3/3/3 2/2/2 1/1/1
f 4/4/4 3/3/3 1/1/1
f 3/3/3 5/5/5 2/2/2
f 4/4/4 5/5/5 3/3/3
f 8/8/8 7/7/7 6/6/6
f 9/9/9 8/8/8 6/6/6
f 8/8/8 10/10/10 7/7/7
f 9/9/9 10/10/10 8/8/8
f 13/13/13 12/12/12 11/11/11
f 11/11/11 12/12/12 14/14/14
f 13/13/13 15/15/15 12/12/12
f 12/12/12 15/15/15 14/14/14
f 18/18/18 17/17/17 16/16/16
f 19/19/19 17/17/17 18/18/18
f 17/17/17 20/20/20 16/16/16
f 19/19/19 20/20/20 17/17/17
