g ster198
v -1.899045 -1.262216 -0.5313039
v -0.51018 1.719844 -2.263803
v -3.894727 6.316258 -1.089627
v -1.610956 1.719844 1.67025
v 1.899009 1.262693 0.5313401
v 1.899009 1.262693 0.5313401
v 1.61092 -1.720028 -1.670213
v 3.89469 -6.316222 1.089664
v 0.5103641 -1.720028 2.26384
v -1.899045 -1.262216 -0.5313039
v 0.5103641 -1.720028 2.26384
v -2.020717 0.0001282692 7.222625
v 1.899009 1.262693 0.5313401
v -1.899045 -1.262216 -0.5313039
v -1.610956 1.719844 1.67025
v 1.899009 1.262693 0.5313401
v 2.02068 0.0001282692 -7.222589
v 1.61092 -1.720028 -1.670213
v -1.899045 -1.262216 -0.5313039
v -0.51018 1.719844 -2.263803
vt 0.2784961 0.07140277
vt 0.2704692 0.07942964
vt 0.2752853 0.07942964
vt 0.2801014 0.07942964
vt 0.2752853 0.09227264
vt 0.2752853 0.09227264
vt 0.2704692 0.09949682
vt 0.2752853 0.09949682
vt 0.2801014 0.09949682
vt 0.276088 0.1051156
vt 0.2849175 0.06498127
vt 0.2849175 0.0697974
vt 0.2905363 0.0697974
vt 0.2784961 0.07140277
vt 0.2849175 0.07461352
vt 0.2600342 0.06899471
vt 0.265653 0.0697974
vt 0.265653 0.06498127
vt 0.2784961 0.07140277
vt 0.265653 0.07461352
vn -0.9289419 -0.2659119 -0.2576002
vn 0.06919813 0.2950866 -0.9529614
vn -0.5209431 0.8415136 -0.1430845
vn -0.4335148 0.2950866 0.8514628
vn 0.6229109 0.7686567 0.1454267
vn 0.9289101 0.2659438 0.2576819
vn 0.4334829 -0.2950547 -0.8514901
vn 0.5209112 -0.8414817 0.1433875
vn -0.06923002 -0.2950547 0.952969
vn -0.6229427 -0.7686248 -0.1454587
vn 0.3897687 -0.7904819 0.4724603
vn -0.2659438 -0.003626883 0.9639817
vn 0.6957679 0.5136574 0.5020589
vn -0.856085 -0.5136255 0.05750898
vn -0.5792286 0.7905138 0.1989527
vn 0.8560531 0.5136574 -0.0576986
vn 0.2731976 -0.003626883 -0.9619511
vn 0.5791968 -0.7904819 -0.1991721
vn -0.6957998 -0.5136255 -0.5020474
vn -0.3898006 0.7905138 -0.4723806
g ster198_0
f 3/3/3 2/2/2 1/1/1
f 4/4/4 3/3/3 1/1/1
f 3/3/3 5/5/5 2/2/2
f 4/4/4 5/5/5 3/3/3
f 8/8/8 7/7/7 6/6/6
f 9/9/9 8/8/8 6/6/6
f 8/8/8 10/10/10 7/7/7
f 9/9/9 10/10/10 8/8/8
f 13/13/13 12/12/12 11/11/11
f 11/11/11 12/12/12 14/14/14
f 13/13/13 15/15/15 12/12/12
f 12/12/12 15/15/15 14/14/14
f 18/18/18 17/17/17 16/16/16
f 19/19/19 17/17/17 18/18/18
f 17/17/17 20/20/20 16/16/16
f 19/19/19 20/20/20 17/17/17
