g ster136
v -0.7364511 -1.262324 -1.829217
v 1.483349 1.720127 -1.78463
v -1.510568 6.316206 -3.75177
v -2.306129 1.720127 -0.2589025
v 0.7364087 1.262579 1.829047
v 0.7364087 1.262579 1.829047
v 2.306087 -1.720085 0.2587323
v 1.510526 -6.315951 3.751388
v -1.483178 -1.720085 1.78446
v -0.7364511 -1.262324 -1.829217
v -1.483178 -1.720085 1.78446
v -6.957198 0.0001273155 2.801258
v 0.7364087 1.262579 1.829047
v -0.7364511 -1.262324 -1.829217
v -2.306129 1.720127 -0.2589025
v 0.7364087 1.262579 1.829047
v 6.957156 0.0001273155 -2.801428
v 2.306087 -1.720085 0.2587323
v -0.7364511 -1.262324 -1.829217
v 1.483349 1.720127 -1.78463
vt 0.6376616 0.07365538
vt 0.6312976 0.08320133
vt 0.6360706 0.08320133
vt 0.6408436 0.08320133
vt 0.6360706 0.09592926
vt 0.6360706 0.09592926
vt 0.6312976 0.1030887
vt 0.6360706 0.1030887
vt 0.6408436 0.1030887
vt 0.6368661 0.1086572
vt 0.6456165 0.06888241
vt 0.6456165 0.07365538
vt 0.651185 0.07365538
vt 0.6376616 0.07365538
vt 0.6456165 0.07842836
vt 0.6201607 0.07285989
vt 0.6265246 0.07365538
vt 0.6265246 0.06888241
vt 0.6376616 0.07365538
vt 0.6265246 0.07842836
vn -0.3573324 -0.2615552 -0.8966061
vn 0.7993979 0.2983907 -0.5214652
vn -0.2026106 0.8436012 -0.4972786
vn -0.9393814 0.2983907 0.168895
vn 0.2394521 0.7625564 0.6009746
vn 0.3573354 0.2615522 0.8966058
vn 0.9393844 -0.2983937 -0.1688731
vn 0.2026135 -0.8436042 0.4972723
vn -0.7993949 -0.2983937 0.521468
vn -0.2394491 -0.7625594 -0.600972
vn -0.1363011 -0.7920302 0.5950716
vn -0.924646 -0.003685355 0.38081
vn 0.02578849 0.5120543 0.8585659
vn -0.5783636 -0.5120573 -0.6350534
vn -0.5120543 0.7920272 -0.3324054
vn 0.5783666 0.5120543 0.6350532
vn 0.924649 -0.003685355 -0.3808027
vn 0.5120573 -0.7920302 0.3323935
vn -0.02578551 -0.5120573 -0.8585641
vn 0.1363041 0.7920272 -0.5950749
g ster136_0
f 3/3/3 2/2/2 1/1/1
f 4/4/4 3/3/3 1/1/1
f 3/3/3 5/5/5 2/2/2
f 4/4/4 5/5/5 3/3/3
f 8/8/8 7/7/7 6/6/6
f 9/9/9 8/8/8 6/6/6
f 8/8/8 10/10/10 7/7/7
f 9/9/9 10/10/10 8/8/8
f 13/13/13 12/12/12 11/11/11
f 11/11/11 12/12/12 14/14/14
f 13/13/13 15/15/15 12/12/12
f 12/12/12 15/15/15 14/14/14
f 18/18/18 17/17/17 16/16/16
f 19/19/19 17/17/17 18/18/18
f 17/17/17 20/20/20 16/16/16
f 19/19/19 20/20/20 17/17/17
