g ster202
v -1.947596 -1.262456 0.308887
v -1.40799 1.719728 -1.844787
v -3.994343 6.316657 0.6335087
v -0.7677889 1.719728 2.189932
v 1.947644 1.262634 -0.3089352
v 1.947644 1.262634 -0.3089352
v 0.767837 -1.720228 -2.189754
v 3.994391 -6.316254 -0.6335573
v 1.407813 -1.720228 1.844738
v -1.947596 -1.262456 0.308887
v 1.407813 -1.720228 1.844738
v 1.175197 8.869171E-05 7.407396
v 1.947644 1.262634 -0.3089352
v -1.947596 -1.262456 0.308887
v -0.7677889 1.719728 2.189932
v 1.947644 1.262634 -0.3089352
v -1.175149 8.869171E-05 -7.407445
v 0.767837 -1.720228 -2.189754
v -1.947596 -1.262456 0.308887
v -1.40799 1.719728 -1.844787
vt 0.6376616 0.07365538
vt 0.6312976 0.08320133
vt 0.6360706 0.08320133
vt 0.6408436 0.08320133
vt 0.6360706 0.09592926
vt 0.6360706 0.09592926
vt 0.6312976 0.1030887
vt 0.6360706 0.1030887
vt 0.6408436 0.1030887
vt 0.6368661 0.1086572
vt 0.6456165 0.06888241
vt 0.6456165 0.07365538
vt 0.651185 0.07365538
vt 0.6376616 0.07365538
vt 0.6456165 0.07842836
vt 0.6201607 0.07285989
vt 0.6265246 0.07365538
vt 0.6265246 0.06888241
vt 0.6376616 0.07365538
vt 0.6265246 0.07842836
vn -0.9526814 -0.2652615 0.1484404
vn -0.3325018 0.2951416 -0.895731
vn -0.534247 0.8406008 0.08927772
vn -0.04109222 0.2951416 0.9545694
vn 0.6388637 0.7658803 -0.07266783
vn 0.9526895 0.2652535 -0.1484028
vn 0.04110026 -0.2951497 -0.9545666
vn 0.5342551 -0.8406088 -0.08915313
vn 0.3325099 -0.2951497 0.8957253
vn -0.6388556 -0.7658884 0.07265307
vn 0.5566712 -0.7883046 0.2620937
vn 0.1531809 -0.003740072 0.9881911
vn 0.8406088 0.5118309 0.1772173
vn -0.7509362 -0.511839 0.4172717
vn -0.4445825 0.7882964 0.4253647
vn 0.7509443 0.5118309 -0.4172671
vn -0.1531728 -0.003740072 -0.9881923
vn 0.4445906 -0.7883046 -0.4253412
vn -0.8406008 -0.511839 -0.1772321
vn -0.5566631 0.7882964 -0.2621354
g ster202_0
f 3/3/3 2/2/2 1/1/1
f 4/4/4 3/3/3 1/1/1
f 3/3/3 5/5/5 2/2/2
f 4/4/4 5/5/5 3/3/3
f 8/8/8 7/7/7 6/6/6
f 9/9/9 8/8/8 6/6/6
f 8/8/8 10/10/10 7/7/7
f 9/9/9 10/10/10 8/8/8
f 13/13/13 12/12/12 11/11/11
f 11/11/11 12/12/12 14/14/14
f 13/13/13 15/15/15 12/12/12
f 12/12/12 15/15/15 14/14/14
f 18/18/18 17/17/17 16/16/16
f 19/19/19 17/17/17 18/18/18
f 17/17/17 20/20/20 16/16/16
f 19/19/19 20/20/20 17/17/17
