g ster271
v 1.61022 -1.26228 1.138021
v -0.2792563 1.719784 2.303668
v 3.302691 6.316636 2.334124
v 2.078252 1.719784 -1.032312
v -1.610294 1.26274 -1.137947
v -1.610294 1.26274 -1.137947
v -2.078326 -1.71971 1.032387
v -3.302573 -6.316176 -2.334243
v 0.2793746 -1.71971 -2.303593
v 1.61022 -1.26228 1.138021
v 0.2793746 -1.71971 -2.303593
v 4.328775 0.0001335144 -6.124761
v -1.610294 1.26274 -1.137947
v 1.61022 -1.26228 1.138021
v 2.078252 1.719784 -1.032312
v -1.610294 1.26274 -1.137947
v -4.328658 0.0001335144 6.124643
v -2.078326 -1.71971 1.032387
v 1.61022 -1.26228 1.138021
v -0.2792563 1.719784 2.303668
vt 0.2784961 0.07140277
vt 0.2704692 0.07942964
vt 0.2752853 0.07942964
vt 0.2801014 0.07942964
vt 0.2752853 0.09227264
vt 0.2752853 0.09227264
vt 0.2704692 0.09949682
vt 0.2752853 0.09949682
vt 0.2801014 0.09949682
vt 0.276088 0.1051156
vt 0.2849175 0.06498127
vt 0.2849175 0.0697974
vt 0.2905363 0.0697974
vt 0.2784961 0.07140277
vt 0.2849175 0.07461352
vt 0.2600342 0.06899471
vt 0.265653 0.0697974
vt 0.265653 0.06498127
vt 0.2784961 0.07140277
vt 0.265653 0.07461352
vn 0.7893541 -0.2608843 0.5557513
vn -0.3864913 0.2940091 0.8741757
vn 0.4392429 0.8422965 0.3124138
vn 0.6968719 0.2940091 -0.6541623
vn -0.5252146 0.763026 -0.3767506
vn -0.7894495 0.2609797 -0.555571
vn -0.6969672 -0.2939137 0.6541035
vn -0.4393382 -0.8422011 -0.3125367
vn 0.3863959 -0.2939137 -0.8742499
vn 0.5251192 -0.7629306 0.3770765
vn -0.2081326 -0.7893541 -0.5775819
vn 0.5779662 -0.003255248 -0.8160542
vn -0.4855794 0.5120028 -0.708566
vn 0.8289894 -0.5119075 0.2252274
vn 0.6161668 0.7876157 0
vn -0.8290848 0.5120028 -0.2246589
vn -0.5780616 -0.003255248 0.8159866
vn -0.616272 -0.7875334 0
vn 0.485484 -0.5119075 0.7087002
vn 0.2080373 0.7894495 0.5774859
g ster271_0
f 3/3/3 2/2/2 1/1/1
f 4/4/4 3/3/3 1/1/1
f 3/3/3 5/5/5 2/2/2
f 4/4/4 5/5/5 3/3/3
f 8/8/8 7/7/7 6/6/6
f 9/9/9 8/8/8 6/6/6
f 8/8/8 10/10/10 7/7/7
f 9/9/9 10/10/10 8/8/8
f 13/13/13 12/12/12 11/11/11
f 11/11/11 12/12/12 14/14/14
f 13/13/13 15/15/15 12/12/12
f 12/12/12 15/15/15 14/14/14
f 18/18/18 17/17/17 16/16/16
f 19/19/19 17/17/17 18/18/18
f 17/17/17 20/20/20 16/16/16
f 19/19/19 20/20/20 17/17/17
