g ster284
v 1.855848 -1.017405 1.001704
v -0.1892366 1.839529 2.21886
v 2.867258 6.755154 1.547816
v 1.75112 1.839529 -1.375913
v -1.856022 1.01696 -1.001943
v -1.856022 1.01696 -1.001943
v -1.751087 -1.839767 1.37588
v -2.867226 -6.755392 -1.547848
v 0.1894751 -1.839767 -2.219098
v 1.855848 -1.017405 1.001704
v 0.1894751 -1.839767 -2.219098
v 3.562421 -0.0002222061 -6.599949
v -1.856022 1.01696 -1.001943
v 1.855848 -1.017405 1.001704
v 1.75112 1.839529 -1.375913
v -1.856022 1.01696 -1.001943
v -3.562595 -0.0002222061 6.599916
v -1.751087 -1.839767 1.37588
v 1.855848 -1.017405 1.001704
v -0.1892366 1.839529 2.21886
vt 0.7229624 0.1022395
vt 0.714131 0.1154866
vt 0.72107 0.1154866
vt 0.7273781 0.1154866
vt 0.72107 0.1325186
vt 0.72107 0.1325186
vt 0.714131 0.1413501
vt 0.72107 0.1413501
vt 0.7273781 0.1413501
vt 0.7217008 0.1489199
vt 0.7336863 0.09593133
vt 0.7336863 0.1022395
vt 0.7412561 0.1009779
vt 0.7229624 0.1022395
vt 0.7336863 0.1091785
vt 0.7002531 0.1016087
vt 0.7078229 0.1022395
vt 0.7078229 0.09593133
vt 0.7229624 0.1022395
vt 0.7078229 0.1091785
vn 0.872436 -0.1448196 0.466779
vn -0.3072916 0.3143558 0.8981939
vn 0.3850037 0.9006874 0.2013315
vn 0.5757381 0.3143558 -0.7547888
vn -0.6393107 0.6816961 -0.35577
vn -0.8724305 0.1448141 -0.4667911
vn -0.5757325 -0.3143613 0.7547907
vn -0.3849981 -0.900693 -0.201317
vn 0.3143613 -0.3143613 -0.8957421
vn 0.6393162 -0.6817017 0.3557494
vn -0.1942638 -0.8441791 -0.4996231
vn 0.4768388 0.00352931 -0.8789837
vn -0.618118 0.413255 -0.6686931
vn 0.900693 -0.4132606 0.1340439
vn 0.5262884 0.8441735 -0.1019389
vn -0.9006874 0.413255 -0.1340987
vn -0.4768332 0.00352931 0.8789867
vn -0.5262828 -0.8441791 0.1019219
vn 0.6181235 -0.4132606 0.6686845
vn 0.1942693 0.8441735 0.4996304
g ster284_0
f 3/3/3 2/2/2 1/1/1
f 4/4/4 3/3/3 1/1/1
f 3/3/3 5/5/5 2/2/2
f 4/4/4 5/5/5 3/3/3
f 8/8/8 7/7/7 6/6/6
f 9/9/9 8/8/8 6/6/6
f 8/8/8 10/10/10 7/7/7
f 9/9/9 10/10/10 8/8/8
f 13/13/13 12/12/12 11/11/11
f 11/11/11 12/12/12 14/14/14
f 13/13/13 15/15/15 12/12/12
f 12/12/12 15/15/15 14/14/14
f 18/18/18 17/17/17 16/16/16
f 19/19/19 17/17/17 18/18/18
f 17/17/17 20/20/20 16/16/16
f 19/19/19 20/20/20 17/17/17
