g ster209
v -1.732689 -1.017788 -1.202088
v 0.4352036 1.840094 -2.183989
v -2.67707 6.754958 -1.857238
v -1.893281 1.840094 1.172575
v 1.732929 1.017548 1.20226
v 1.732929 1.017548 1.20226
v 1.893521 -1.839509 -1.172402
v 2.67731 -6.755198 1.857204
v -0.4351692 -1.839509 2.183955
v -1.732689 -1.017788 -1.202088
v -0.4351692 -1.839509 2.183955
v -4.274953 -0.0004291534 6.162271
v 1.732929 1.017548 1.20226
v -1.732689 -1.017788 -1.202088
v -1.893281 1.840094 1.172575
v 1.732929 1.017548 1.20226
v 4.274986 -0.0004291534 -6.162306
v 1.893521 -1.839509 -1.172402
v -1.732689 -1.017788 -1.202088
v 0.4352036 1.840094 -2.183989
vt 0.7229624 0.1022395
vt 0.714131 0.1154866
vt 0.72107 0.1154866
vt 0.7273781 0.1154866
vt 0.72107 0.1325186
vt 0.72107 0.1325186
vt 0.714131 0.1413501
vt 0.72107 0.1413501
vt 0.7273781 0.1413501
vt 0.7217008 0.1489199
vt 0.7336863 0.09593133
vt 0.7336863 0.1022395
vt 0.7412561 0.1009779
vt 0.7229624 0.1022395
vt 0.7336863 0.1091785
vt 0.7002531 0.1016087
vt 0.7078229 0.1022395
vt 0.7078229 0.09593133
vt 0.7229624 0.1022395
vt 0.7078229 0.1091785
vn -0.8158349 -0.1448717 -0.5598442
vn 0.4062404 0.3142896 -0.8580156
vn -0.3566737 0.9006031 -0.2483906
vn -0.6604266 0.3142896 0.6819522
vn 0.5969689 0.6816185 0.4231127
vn 0.8159535 0.1447532 0.559702
vn 0.6605451 -0.3144081 -0.6817827
vn 0.3567923 -0.9007217 0.2477895
vn -0.4061218 -0.3144081 0.8580284
vn -0.5968503 -0.6817371 -0.4230888
vn 0.1378077 -0.8442096 0.5179955
vn -0.5685943 0.003472745 0.8226108
vn 0.5333927 0.4131859 0.7380851
vn -0.8794112 -0.4133044 -0.2362529
vn -0.5332741 0.844091 0.05593858
vn 0.8795297 0.4131859 0.2360191
vn 0.5687128 0.003472745 -0.8225288
vn 0.5333927 -0.8442096 -0.052938
vn -0.5332741 -0.4133044 -0.7381045
vn -0.1376891 0.844091 -0.5182201
g ster209_0
f 3/3/3 2/2/2 1/1/1
f 4/4/4 3/3/3 1/1/1
f 3/3/3 5/5/5 2/2/2
f 4/4/4 5/5/5 3/3/3
f 8/8/8 7/7/7 6/6/6
f 9/9/9 8/8/8 6/6/6
f 8/8/8 10/10/10 7/7/7
f 9/9/9 10/10/10 8/8/8
f 13/13/13 12/12/12 11/11/11
f 11/11/11 12/12/12 14/14/14
f 13/13/13 15/15/15 12/12/12
f 12/12/12 15/15/15 14/14/14
f 18/18/18 17/17/17 16/16/16
f 19/19/19 17/17/17 18/18/18
f 17/17/17 20/20/20 16/16/16
f 19/19/19 20/20/20 17/17/17
