g ster210
v -2.310337 -1.356796 -1.602811
v 0.5802689 2.453548 -2.91205
v -3.569549 9.006615 -2.47637
v -2.524467 2.453548 1.563222
v 2.310344 1.355965 1.602804
v 2.310344 1.355965 1.602804
v 2.524473 -2.452731 -1.563229
v 3.569556 -9.007446 2.476363
v -0.5799866 -2.452731 2.912043
v -2.310337 -1.356796 -1.602811
v -0.5799866 -2.452731 2.912043
v -5.70012 -0.0002784729 8.216618
v 2.310344 1.355965 1.602804
v -2.310337 -1.356796 -1.602811
v -2.524467 2.453548 1.563222
v 2.310344 1.355965 1.602804
v 5.700127 -0.0002784729 -8.216351
v 2.524473 -2.452731 -1.563229
v -2.310337 -1.356796 -1.602811
v 0.5802689 2.453548 -2.91205
vt 0.7229624 0.1022395
vt 0.714131 0.1154866
vt 0.72107 0.1154866
vt 0.7273781 0.1154866
vt 0.72107 0.1325186
vt 0.72107 0.1325186
vt 0.714131 0.1413501
vt 0.72107 0.1413501
vt 0.7273781 0.1413501
vt 0.7217008 0.1489199
vt 0.7336863 0.09593133
vt 0.7336863 0.1022395
vt 0.7412561 0.1009779
vt 0.7229624 0.1022395
vt 0.7336863 0.1091785
vt 0.7002531 0.1016087
vt 0.7078229 0.1022395
vt 0.7078229 0.09593133
vt 0.7229624 0.1022395
vt 0.7078229 0.1091785
vn -0.8158379 -0.1448557 -0.559844
vn 0.4062209 0.3142993 -0.8580213
vn -0.3566828 0.900605 -0.2483706
vn -0.6604316 0.3142993 0.6819429
vn 0.5969469 0.6816234 0.4231358
vn 0.8159285 0.1447651 0.5597354
vn 0.6605222 -0.3143899 -0.6818133
vn 0.3567735 -0.9006956 0.2479114
vn -0.4061304 -0.3143899 0.8580309
vn -0.5968563 -0.681714 -0.4231177
vn 0.1377918 -0.8441842 0.5180409
vn -0.5686006 0.003486633 0.8226063
vn 0.5333716 0.4131942 0.7380958
vn -0.8794132 -0.4132849 -0.2362796
vn -0.5332809 0.8440936 0.05583406
vn 0.8795038 0.4131942 0.2361006
vn 0.5686912 0.003486633 -0.8225437
vn 0.5333716 -0.8441842 -0.05355145
vn -0.5332809 -0.4132849 -0.7381105
vn -0.1377012 0.8440936 -0.5182127
g ster210_0
f 3/3/3 2/2/2 1/1/1
f 4/4/4 3/3/3 1/1/1
f 3/3/3 5/5/5 2/2/2
f 4/4/4 5/5/5 3/3/3
f 8/8/8 7/7/7 6/6/6
f 9/9/9 8/8/8 6/6/6
f 8/8/8 10/10/10 7/7/7
f 9/9/9 10/10/10 8/8/8
f 13/13/13 12/12/12 11/11/11
f 11/11/11 12/12/12 14/14/14
f 13/13/13 15/15/15 12/12/12
f 12/12/12 15/15/15 14/14/14
f 18/18/18 17/17/17 16/16/16
f 19/19/19 17/17/17 18/18/18
f 17/17/17 20/20/20 16/16/16
f 19/19/19 20/20/20 17/17/17
