g ster165
v 1.610234 -1.262498 1.137923
v -0.2793765 1.71986 2.303533
v 3.302845 6.316377 2.334181
v 2.078444 1.71986 -1.032344
v -0.5050969 2.821474 -0.3571115
v -1.604205 2.330133 0.6525569
v 0.07973242 2.330133 -1.73013
v -1.604205 2.330133 0.6525569
v -2.583418 1.101491 0.6751099
v -1.610181 1.26283 -1.137976
v -0.5050969 2.821474 -0.3571115
v -0.22579 1.101491 -2.66096
v 0.07973242 2.330133 -1.73013
v -2.304111 -0.618299 -1.628546
v -2.889132 -0.1269579 -0.2553353
v -1.205195 -0.1269579 -2.638407
v -2.889132 -0.1269579 -0.2553353
v -2.078198 -1.719913 1.032291
v -3.3026 -6.316045 -2.334042
v -2.304111 -0.618299 -1.628546
v 0.2796226 -1.719913 -2.303586
v -1.205195 -0.1269579 -2.638407
v 1.610234 -1.262498 1.137923
v 0.2796226 -1.719913 -2.303586
v 4.328898 0.0004553795 -6.124828
v -0.22579 1.101491 -2.66096
v -1.205195 -0.1269579 -2.638407
v 1.610234 -1.262498 1.137923
v 0.07973242 2.330133 -1.73013
v 2.078444 1.71986 -1.032344
v -2.889132 -0.1269579 -0.2553353
v -2.583418 1.101491 0.6751099
v -4.328652 0.0004553795 6.124582
v -2.078198 -1.719913 1.032291
v 1.610234 -1.262498 1.137923
v -0.2793765 1.71986 2.303533
v -1.604205 2.330133 0.6525569
vt 0.2736799 0.0697974
vt 0.2704692 0.07942964
vt 0.2752853 0.07942964
vt 0.2801014 0.07942964
vt 0.2752853 0.08424576
vt 0.2704692 0.08424576
vt 0.2801014 0.08424576
vt 0.2704692 0.08424576
vt 0.2704692 0.08906189
vt 0.2752853 0.08906189
vt 0.2752853 0.08424576
vt 0.2801014 0.08906189
vt 0.2801014 0.08424576
vt 0.2752853 0.0946807
vt 0.2704692 0.0946807
vt 0.2801014 0.0946807
vt 0.2704692 0.0946807
vt 0.2704692 0.09949682
vt 0.2752853 0.09949682
vt 0.2752853 0.0946807
vt 0.2801014 0.09949682
vt 0.2801014 0.0946807
vt 0.2744826 0.1051156
vt 0.2849175 0.06498127
vt 0.2849175 0.0697974
vt 0.2897337 0.0697974
vt 0.2897337 0.06498127
vt 0.2736799 0.0697974
vt 0.2897337 0.07461352
vt 0.2849175 0.07461352
vt 0.2600342 0.06498127
vt 0.2600342 0.0697974
vt 0.265653 0.0697974
vt 0.265653 0.06498127
vt 0.2736799 0.0697974
vt 0.265653 0.07461352
vt 0.2600342 0.07461352
vn 0.7898089 -0.2649847 0.5531592
vn -0.222352 0.2748345 0.935428
vn 0.5423917 0.7471762 0.3841081
vn 0.8048038 0.2748345 -0.5260769
vn -0.3723018 0.8896285 -0.2644852
vn -0.6572063 0.6722013 0.3409184
vn 0.09254247 0.6722013 -0.734562
vn -0.6946938 0.6197189 -0.3651698
vn -0.7396787 0.5372466 -0.4052672
vn -0.6871963 0.5372466 -0.4890066
vn -0.6422113 0.6197189 -0.4511242
vn -0.6272163 0.5372466 -0.5638846
vn -0.574734 0.6197189 -0.534443
vn -0.7321812 0.4472767 -0.5136675
vn -0.7846637 0.4472767 -0.4292394
vn -0.6647038 0.4472767 -0.5984249
vn -0.9945933 0.03491485 0.09780195
vn -0.5972265 -0.4374269 0.6722932
vn -0.3273169 -0.9172661 -0.2269063
vn -0.8146536 0.04241234 -0.5783949
vn 0.4374269 -0.4374269 -0.7856942
vn -0.237347 0.03491485 -0.9707973
vn 0.5273968 -0.7673163 0.364799
vn -0.04241234 -0.8347937 -0.5489268
vn 0.6773465 -0.08504498 -0.7307318
vn -0.3048245 0.4697691 -0.828492
vn -0.5222516 -0.1975073 -0.8296048
vn 0.8272963 -0.5124018 0.2302722
vn 0.05505502 0.9046235 -0.4226408
vn 0.7423717 0.6699882 0
vn -0.9571059 -0.1975073 -0.2119888
vn -0.882131 0.4697691 -0.03408648
vn -0.4622717 -0.08504498 0.8826507
vn -0.529749 -0.8347937 0.1499512
vn 0.4824118 -0.5124018 0.7104387
vn 0.2574872 0.6722013 0.6941511
vn -0.3797992 0.9046235 0.1934136
g ster165_0
f 3/3/3 2/2/2 1/1/1
f 4/4/4 3/3/3 1/1/1
f 3/3/3 5/5/5 2/2/2
f 5/5/5 6/6/6 2/2/2
f 7/7/7 5/5/5 3/3/3
f 4/4/4 7/7/7 3/3/3
f 10/10/10 9/9/9 8/8/8
f 11/11/11 10/10/10 8/8/8
f 12/12/12 10/10/10 11/11/11
f 13/13/13 12/12/12 11/11/11
f 10/10/10 14/14/14 9/9/9
f 14/14/14 15/15/15 9/9/9
f 16/16/16 14/14/14 10/10/10
f 12/12/12 16/16/16 10/10/10
f 19/19/19 18/18/18 17/17/17
f 20/20/20 19/19/19 17/17/17
f 21/21/21 19/19/19 20/20/20
f 22/22/22 21/21/21 20/20/20
f 19/19/19 23/23/23 18/18/18
f 21/21/21 23/23/23 19/19/19
f 26/26/26 25/25/25 24/24/24
f 27/27/27 26/26/26 24/24/24
f 24/24/24 25/25/25 28/28/28
f 26/26/26 29/29/29 25/25/25
f 29/29/29 30/30/30 25/25/25
f 25/25/25 30/30/30 28/28/28
f 33/33/33 32/32/32 31/31/31
f 34/34/34 33/33/33 31/31/31
f 35/35/35 33/33/33 34/34/34
f 33/33/33 36/36/36 32/32/32
f 35/35/35 36/36/36 33/33/33
f 36/36/36 37/37/37 32/32/32
