g ster97
v 0.5628247 -1.262379 -1.889762
v 2.271896 1.720105 -0.4726658
v 1.154232 6.316236 -3.876111
v -1.643328 1.720105 -1.63859
v -0.562736 1.26273 1.889894
v -0.562736 1.26273 1.889894
v 1.643197 -1.720193 1.638282
v -1.154143 -6.315886 3.875803
v -2.272027 -1.720193 0.4727964
v 0.5628247 -1.262379 -1.889762
v -2.272027 -1.720193 0.4727964
v -7.187992 6.532669E-05 -2.140496
v -0.562736 1.26273 1.889894
v 0.5628247 -1.262379 -1.889762
v -1.643328 1.720105 -1.63859
v -0.562736 1.26273 1.889894
v 7.188081 6.532669E-05 2.140408
v 1.643197 -1.720193 1.638282
v 0.5628247 -1.262379 -1.889762
v 2.271896 1.720105 -0.4726658
vt 0.6376616 0.07365538
vt 0.6312976 0.08320133
vt 0.6360706 0.08320133
vt 0.6408436 0.08320133
vt 0.6360706 0.09592926
vt 0.6360706 0.09592926
vt 0.6312976 0.1030887
vt 0.6360706 0.1030887
vt 0.6408436 0.1030887
vt 0.6368661 0.1086572
vt 0.6456165 0.06888241
vt 0.6456165 0.07365538
vt 0.651185 0.07365538
vt 0.6376616 0.07365538
vt 0.6456165 0.07842836
vt 0.6201607 0.07285989
vt 0.6265246 0.07365538
vt 0.6265246 0.06888241
vt 0.6376616 0.07365538
vt 0.6265246 0.07842836
vn 0.274331 -0.2668142 -0.9238791
vn 0.9508487 0.2969505 0.08779062
vn 0.1540613 0.8456814 -0.5109678
vn -0.8456814 0.2969505 -0.4434449
vn -0.1841975 0.762996 0.6196034
vn -0.2743999 0.266883 0.9238389
vn 0.8456126 -0.2968817 0.443622
vn -0.1541301 -0.8456126 0.5110608
vn -0.9509176 -0.2968817 -0.08727524
vn 0.1841287 -0.7629271 -0.6197087
vn -0.4773552 -0.7854777 0.3938995
vn -0.9584345 -0.003723979 -0.2852885
vn -0.5149395 0.5149395 0.6853281
vn -0.05641091 -0.5148706 -0.8554099
vn -0.1917144 0.7855465 -0.5883555
vn 0.05634207 0.5149395 0.855373
vn 0.9583656 -0.003723979 0.2855199
vn 0.1916456 -0.7854777 0.5884699
vn 0.5148706 -0.5148706 -0.6854316
vn 0.4772863 0.7855465 -0.3938456
g ster97_0
f 3/3/3 2/2/2 1/1/1
f 4/4/4 3/3/3 1/1/1
f 3/3/3 5/5/5 2/2/2
f 4/4/4 5/5/5 3/3/3
f 8/8/8 7/7/7 6/6/6
f 9/9/9 8/8/8 6/6/6
f 8/8/8 10/10/10 7/7/7
f 9/9/9 10/10/10 8/8/8
f 13/13/13 12/12/12 11/11/11
f 11/11/11 12/12/12 14/14/14
f 13/13/13 15/15/15 12/12/12
f 12/12/12 15/15/15 14/14/14
f 18/18/18 17/17/17 16/16/16
f 19/19/19 17/17/17 18/18/18
f 17/17/17 20/20/20 16/16/16
f 19/19/19 20/20/20 17/17/17
