g ster205
v -1.947383 -1.262627 0.3089218
v -1.407785 1.720196 -1.844723
v -3.994329 6.316387 0.6335402
v -0.7678175 1.720196 2.189942
v 1.947579 1.26243 -0.3088918
v 1.947579 1.26243 -0.3088918
v 0.7677879 -1.720392 -2.189912
v 3.9943 -6.315679 -0.6337361
v 1.407981 -1.720392 1.844753
v -1.947383 -1.262627 0.3089218
v 1.407981 -1.720392 1.844753
v 1.175142 -9.822845E-05 7.407338
v 1.947579 1.26243 -0.3088918
v -1.947383 -1.262627 0.3089218
v -0.7678175 1.720196 2.189942
v 1.947579 1.26243 -0.3088918
v -1.174947 -9.822845E-05 -7.407309
v 0.7677879 -1.720392 -2.189912
v -1.947383 -1.262627 0.3089218
v -1.407785 1.720196 -1.844723
vt 0.6376616 0.07365538
vt 0.6312976 0.08320133
vt 0.6360706 0.08320133
vt 0.6408436 0.08320133
vt 0.6360706 0.09592926
vt 0.6360706 0.09592926
vt 0.6312976 0.1030887
vt 0.6360706 0.1030887
vt 0.6408436 0.1030887
vt 0.6368661 0.1086572
vt 0.6456165 0.06888241
vt 0.6456165 0.07365538
vt 0.651185 0.07365538
vt 0.6376616 0.07365538
vt 0.6456165 0.07842836
vt 0.6201607 0.07285989
vt 0.6265246 0.07365538
vt 0.6265246 0.06888241
vt 0.6376616 0.07365538
vt 0.6265246 0.07842836
vn -0.9526417 -0.2652641 0.1486904
vn -0.3324811 0.295122 -0.8957452
vn -0.53422 0.8405644 0.08977938
vn -0.0410803 0.295122 0.954576
vn 0.6388548 0.7658463 -0.07310289
vn 0.952671 0.2652348 -0.1485546
vn 0.04110968 -0.2951514 -0.9545657
vn 0.5342494 -0.8405938 -0.08932912
vn 0.3325104 -0.2951514 0.8957246
vn -0.6388255 -0.7658756 0.07305151
vn 0.5566648 -0.7882911 0.2621477
vn 0.1531869 -0.003750563 0.9881901
vn 0.8405938 0.5118046 0.1773644
vn -0.7509027 -0.511834 0.4173381
vn -0.4445583 0.7882617 0.4254543
vn 0.750932 0.5118046 -0.4173214
vn -0.1531575 0.003721237 -0.9881948
vn 0.4445876 -0.7882911 -0.4253692
vn -0.8405644 -0.511834 -0.1774188
vn -0.5566354 0.7882617 -0.2622984
g ster205_0
f 3/3/3 2/2/2 1/1/1
f 4/4/4 3/3/3 1/1/1
f 3/3/3 5/5/5 2/2/2
f 4/4/4 5/5/5 3/3/3
f 8/8/8 7/7/7 6/6/6
f 9/9/9 8/8/8 6/6/6
f 8/8/8 10/10/10 7/7/7
f 9/9/9 10/10/10 8/8/8
f 13/13/13 12/12/12 11/11/11
f 11/11/11 12/12/12 14/14/14
f 13/13/13 15/15/15 12/12/12
f 12/12/12 15/15/15 14/14/14
f 18/18/18 17/17/17 16/16/16
f 19/19/19 17/17/17 18/18/18
f 17/17/17 20/20/20 16/16/16
f 19/19/19 20/20/20 17/17/17
