g ster87
v 1.920076 -1.262406 0.44941
v 0.6069636 1.719956 2.239674
v 3.937884 6.316518 0.9214349
v 1.537642 1.719956 -1.737774
v -1.920087 1.262863 -0.4493995
v -1.920087 1.262863 -0.4493995
v -1.537876 -1.719945 1.737785
v -3.937894 -6.316062 -0.9214244
v -0.6069746 -1.719945 -2.239663
v 1.920076 -1.262406 0.44941
v -0.6069746 -1.719945 -2.239663
v 1.708802 0.0003395081 -7.30268
v -1.920087 1.262863 -0.4493995
v 1.920076 -1.262406 0.44941
v 1.537642 1.719956 -1.737774
v -1.920087 1.262863 -0.4493995
v -1.709035 0.0003395081 7.30269
v -1.537876 -1.719945 1.737785
v 1.920076 -1.262406 0.44941
v 0.6069636 1.719956 2.239674
vt 0.6376616 0.07365538
vt 0.6312976 0.08320133
vt 0.6360706 0.08320133
vt 0.6408436 0.08320133
vt 0.6360706 0.09592926
vt 0.6360706 0.09592926
vt 0.6312976 0.1030887
vt 0.6360706 0.1030887
vt 0.6408436 0.1030887
vt 0.6368661 0.1086572
vt 0.6456165 0.06888241
vt 0.6456165 0.07365538
vt 0.651185 0.07365538
vt 0.6376616 0.07365538
vt 0.6456165 0.07842836
vt 0.6201607 0.07285989
vt 0.6265246 0.07365538
vt 0.6265246 0.06888241
vt 0.6376616 0.07365538
vt 0.6265246 0.07842836
vn 0.9392128 -0.2615074 0.2224707
vn -0.0257808 0.2983363 0.9541126
vn 0.5266964 0.8434471 0.1057726
vn 0.3941019 0.2983363 -0.869298
vn -0.6298226 0.7624171 -0.148471
vn -0.9392098 0.2615044 -0.2224868
vn -0.394099 -0.2983392 0.8692984
vn -0.5266935 -0.8434501 -0.1057639
vn 0.02578378 -0.2983392 -0.9541116
vn 0.6298255 -0.7624201 0.1484433
vn -0.4088317 -0.7918856 -0.4536231
vn 0.2246755 0.003681719 -0.9744267
vn -0.7182189 0.5119607 -0.4712301
vn 0.8508164 -0.5119637 -0.1183409
vn 0.5708946 0.7918825 -0.2167981
vn -0.8508135 0.5119607 0.1183747
vn -0.2246726 -0.00368464 0.9744273
vn -0.5708916 -0.7918856 0.216795
vn 0.7182219 -0.5119637 0.4712223
vn 0.4088346 0.7918825 0.4536258
g ster87_0
f 3/3/3 2/2/2 1/1/1
f 4/4/4 3/3/3 1/1/1
f 3/3/3 5/5/5 2/2/2
f 4/4/4 5/5/5 3/3/3
f 8/8/8 7/7/7 6/6/6
f 9/9/9 8/8/8 6/6/6
f 8/8/8 10/10/10 7/7/7
f 9/9/9 10/10/10 8/8/8
f 13/13/13 12/12/12 11/11/11
f 11/11/11 12/12/12 14/14/14
f 13/13/13 15/15/15 12/12/12
f 12/12/12 15/15/15 14/14/14
f 18/18/18 17/17/17 16/16/16
f 19/19/19 17/17/17 18/18/18
f 17/17/17 20/20/20 16/16/16
f 19/19/19 20/20/20 17/17/17
