g ster68
v -1.037684 -1.356191 2.613274
v -2.967817 2.452737 0.09431553
v -1.603251 9.00668 4.037686
v 2.094491 2.452737 2.104717
v 0.9202442 1.202476 -2.316861
v 0.9202442 1.202476 -2.316861
v -2.094506 -2.453006 -2.104986
v 1.60352 -9.006948 -4.037672
v 2.967802 -2.453006 -0.09458447
v -1.037684 -1.356191 2.613274
v 2.967802 -2.453006 -0.09458447
v 9.293986 0.0001497269 3.690518
v 0.9202442 1.202476 -2.316861
v -1.037684 -1.356191 2.613274
v 2.094491 2.452737 2.104717
v 0.9202442 1.202476 -2.316861
v -9.294002 0.0001497269 -3.690786
v -2.094506 -2.453006 -2.104986
v -1.037684 -1.356191 2.613274
v -2.967817 2.452737 0.09431553
vt 0.690336 0.07822117
vt 0.6839348 0.08782297
vt 0.6887357 0.08782297
vt 0.6935366 0.08782297
vt 0.6887357 0.09822492
vt 0.6887357 0.09822492
vt 0.6839348 0.1078267
vt 0.6887357 0.1078267
vt 0.6935366 0.1078267
vt 0.6895359 0.1134278
vt 0.6983375 0.07342027
vt 0.6983375 0.07822117
vt 0.7031384 0.07822117
vt 0.690336 0.07822117
vt 0.6983375 0.08302207
vt 0.6735328 0.07822117
vt 0.6791339 0.07822117
vt 0.6791339 0.07342027
vt 0.690336 0.07822117
vt 0.6791339 0.08302207
vn -0.368324 -0.1480606 0.917832
vn -0.9215931 0.3166855 -0.2244469
vn -0.1839009 0.8699546 0.457558
vn 0.8193605 0.3166855 0.4778689
vn 0.2808452 0.6560239 -0.7005417
vn 0.3619913 0.176524 -0.915315
vn -0.8109393 -0.3103529 -0.496043
vn 0.1333067 -0.9300143 -0.3424948
vn 0.9300143 -0.3103529 0.1968615
vn -0.2724239 -0.6865759 0.674091
vn 0.4800221 -0.8414912 -0.2479341
vn 0.9005066 -0.03002983 0.4338041
vn 0.5685451 0.4199625 -0.7073811
vn -0.04373938 -0.4136298 0.9093939
vn 0.1775683 0.8478239 0.499664
vn 0.07429135 0.4199625 -0.9044956
vn -0.9511008 -0.03002983 -0.3074175
vn -0.176524 -0.8414912 -0.510619
vn -0.5970085 -0.4136298 0.68738
vn -0.4716008 0.8478239 0.2424609
g ster68_0
f 3/3/3 2/2/2 1/1/1
f 4/4/4 3/3/3 1/1/1
f 3/3/3 5/5/5 2/2/2
f 4/4/4 5/5/5 3/3/3
f 8/8/8 7/7/7 6/6/6
f 9/9/9 8/8/8 6/6/6
f 8/8/8 10/10/10 7/7/7
f 9/9/9 10/10/10 8/8/8
f 13/13/13 12/12/12 11/11/11
f 11/11/11 12/12/12 14/14/14
f 13/13/13 15/15/15 12/12/12
f 12/12/12 15/15/15 14/14/14
f 18/18/18 17/17/17 16/16/16
f 19/19/19 17/17/17 18/18/18
f 17/17/17 20/20/20 16/16/16
f 19/19/19 20/20/20 17/17/17
