g ster140
v -0.3301945 -1.356685 -2.79232
v 2.565625 2.452887 -1.49458
v -0.5102177 9.006742 -4.314633
v -2.843542 2.452887 -0.8551064
v 0.3301916 1.356082 2.792626
v 0.3301916 1.356082 2.792626
v 2.843539 -2.452883 0.8551092
v 0.5102139 -9.007346 4.314334
v -2.565628 -2.452883 1.494887
v -0.3301945 -1.356685 -2.79232
v -2.565628 -2.452883 1.494887
v -9.930799 -0.0001497269 1.174543
v 0.3301916 1.356082 2.792626
v -0.3301945 -1.356685 -2.79232
v -2.843542 2.452887 -0.8551064
v 0.3301916 1.356082 2.792626
v 9.930796 -0.0001497269 -1.174237
v 2.843539 -2.452883 0.8551092
v -0.3301945 -1.356685 -2.79232
v 2.565625 2.452887 -1.49458
vt 0.7229624 0.1022395
vt 0.714131 0.1154866
vt 0.72107 0.1154866
vt 0.7273781 0.1154866
vt 0.72107 0.1325186
vt 0.72107 0.1325186
vt 0.714131 0.1413501
vt 0.72107 0.1413501
vt 0.7273781 0.1413501
vt 0.7217008 0.1489199
vt 0.7336863 0.09593133
vt 0.7336863 0.1022395
vt 0.7412561 0.1009779
vt 0.7229624 0.1022395
vt 0.7336863 0.1091785
vt 0.7002531 0.1016087
vt 0.7078229 0.1022395
vt 0.7078229 0.09593133
vt 0.7229624 0.1022395
vt 0.7078229 0.1091785
vn -0.1129509 -0.1440828 -0.9830983
vn 0.9151837 0.3154622 -0.2508433
vn -0.05063969 0.8996295 -0.4337076
vn -0.9463629 0.3154622 -0.0698631
vn 0.08956051 0.6815404 0.7262793
vn 0.1129272 0.1441064 0.9830976
vn 0.9463393 -0.3154386 0.07028834
vn 0.05061603 -0.8996059 0.4337594
vn -0.9152073 -0.3154386 0.2507868
vn -0.08958417 -0.6815168 -0.7262985
vn -0.2998844 -0.8450836 0.4426094
vn -0.9930964 0.00390631 0.1172358
vn -0.1986287 0.4167179 0.8870698
vn -0.3933511 -0.4166942 -0.8195369
vn -0.3933511 0.8451073 -0.362034
vn 0.3933275 0.4167179 0.8195362
vn 0.9930727 0.00390631 -0.1174367
vn 0.3933275 -0.8450836 0.3621149
vn 0.1986051 -0.4166942 -0.8870862
vn 0.2998608 0.8451073 -0.4425802
g ster140_0
f 3/3/3 2/2/2 1/1/1
f 4/4/4 3/3/3 1/1/1
f 3/3/3 5/5/5 2/2/2
f 4/4/4 5/5/5 3/3/3
f 8/8/8 7/7/7 6/6/6
f 9/9/9 8/8/8 6/6/6
f 8/8/8 10/10/10 7/7/7
f 9/9/9 10/10/10 8/8/8
f 13/13/13 12/12/12 11/11/11
f 11/11/11 12/12/12 14/14/14
f 13/13/13 15/15/15 12/12/12
f 12/12/12 15/15/15 14/14/14
f 18/18/18 17/17/17 16/16/16
f 19/19/19 17/17/17 18/18/18
f 17/17/17 20/20/20 16/16/16
f 19/19/19 20/20/20 17/17/17
