g ster200
v -2.096607 -1.017292 -0.2267561
v -0.662539 1.839467 -2.126179
v -3.2394 6.755166 -0.3505478
v -1.101952 1.839467 1.935268
v 2.096825 1.017073 0.2267661
v 2.096825 1.017073 0.2267661
v 1.101943 -1.839912 -1.935258
v 3.239391 -6.755383 0.3505573
v 0.662529 -1.839912 2.126189
v -2.096607 -1.017292 -0.2267561
v 0.662529 -1.839912 2.126189
v -0.8065829 -0.0001091957 7.456498
v 2.096825 1.017073 0.2267661
v -2.096607 -1.017292 -0.2267561
v -1.101952 1.839467 1.935268
v 2.096825 1.017073 0.2267661
v 0.8065729 -0.0001091957 -7.456488
v 1.101943 -1.839912 -1.935258
v -2.096607 -1.017292 -0.2267561
v -0.662539 1.839467 -2.126179
vt 0.9551296 0.07390583
vt 0.9489734 0.0844594
vt 0.9542502 0.0844594
vt 0.9586475 0.0844594
vt 0.9542502 0.09677191
vt 0.9542502 0.09677191
vt 0.9489734 0.1038076
vt 0.9542502 0.1038076
vt 0.9586475 0.1038076
vt 0.9542502 0.1090844
vt 0.9639243 0.0695085
vt 0.9639243 0.07478529
vt 0.9692011 0.07478529
vt 0.9551296 0.07390583
vt 0.9639243 0.07918262
vt 0.9384198 0.07390583
vt 0.9436966 0.07478529
vt 0.9436966 0.0695085
vt 0.9551296 0.07390583
vt 0.9436966 0.07918262
vn -0.9835054 -0.1426975 -0.1111512
vn -0.05014539 0.3124119 -0.9486223
vn -0.4281176 0.8986545 -0.09557973
vn -0.2507021 0.3124119 0.9162681
vn 0.7289401 0.6826704 0.05106334
vn 0.9834929 0.1427101 0.1112457
vn 0.2506896 -0.3123993 -0.9162759
vn 0.4358189 -0.8986419 0.05004585
vn 0.05013293 -0.3123993 0.9486271
vn -0.7289526 -0.6826578 -0.05105225
vn 0.3663954 -0.8446459 0.3902918
vn -0.1041415 -0.003850579 0.9945551
vn 0.8215048 0.4126902 0.3934676
vn -0.883227 -0.4126776 0.2227268
vn -0.4435451 0.8446585 0.2996994
vn 0.8832145 0.4126902 -0.222753
vn 0.104129 -0.003850579 -0.9945563
vn 0.4435325 -0.8446459 -0.2997536
vn -0.8215173 -0.4126776 -0.3934545
vn -0.3664079 0.8446585 -0.3902529
g ster200_0
f 3/3/3 2/2/2 1/1/1
f 4/4/4 3/3/3 1/1/1
f 3/3/3 5/5/5 2/2/2
f 4/4/4 5/5/5 3/3/3
f 8/8/8 7/7/7 6/6/6
f 9/9/9 8/8/8 6/6/6
f 8/8/8 10/10/10 7/7/7
f 9/9/9 10/10/10 8/8/8
f 13/13/13 12/12/12 11/11/11
f 11/11/11 12/12/12 14/14/14
f 13/13/13 15/15/15 12/12/12
f 12/12/12 15/15/15 14/14/14
f 18/18/18 17/17/17 16/16/16
f 19/19/19 17/17/17 18/18/18
f 17/17/17 20/20/20 16/16/16
f 19/19/19 20/20/20 17/17/17
