g ster131
v -1.899027 -1.262476 -0.5313387
v -0.5101523 1.719825 -2.26385
v -3.894722 6.316271 -1.089666
v -1.610936 1.719825 1.67001
v 1.898832 1.262891 0.5313129
v 1.898832 1.262891 0.5313129
v 1.610962 -1.71985 -1.670256
v 3.894527 -6.316076 1.08964
v 0.5101781 -1.71985 2.263604
v -1.899027 -1.262476 -0.5313387
v 0.5101781 -1.71985 2.263604
v -2.0207 0.0003175735 7.222643
v 1.898832 1.262891 0.5313129
v -1.899027 -1.262476 -0.5313387
v -1.610936 1.719825 1.67001
v 1.898832 1.262891 0.5313129
v 2.020725 0.0003175735 -7.222669
v 1.610962 -1.71985 -1.670256
v -1.899027 -1.262476 -0.5313387
v -0.5101523 1.719825 -2.26385
vt 0.2784961 0.07140277
vt 0.2704692 0.07942964
vt 0.2752853 0.07942964
vt 0.2801014 0.07942964
vt 0.2752853 0.09227264
vt 0.2752853 0.09227264
vt 0.2704692 0.09949682
vt 0.2752853 0.09949682
vt 0.2801014 0.09949682
vt 0.276088 0.1051156
vt 0.2849175 0.06498127
vt 0.2849175 0.0697974
vt 0.2905363 0.0697974
vt 0.2784961 0.07140277
vt 0.2849175 0.07461352
vt 0.2600342 0.06899471
vt 0.265653 0.0697974
vt 0.265653 0.06498127
vt 0.2784961 0.07140277
vt 0.265653 0.07461352
vn -0.9289011 -0.2659253 -0.2577334
vn 0.06921607 0.2950603 -0.9529683
vn -0.5209116 0.8414748 -0.1434272
vn -0.4334853 0.2950603 0.8514869
vn 0.6229161 0.7686194 0.1456014
vn 0.9289082 0.2659181 0.257715
vn 0.4334924 -0.2950674 -0.8514808
vn 0.5209187 -0.8414819 0.143359
vn -0.06920892 -0.2950674 0.9529666
vn -0.6229089 -0.7686266 -0.1455938
vn 0.3897793 -0.7904832 0.4724493
vn -0.2659181 0.003639162 0.9639888
vn 0.6957714 0.513626 0.5020862
vn -0.8560458 -0.5136333 0.05802052
vn -0.5791957 0.7904761 0.1991981
vn 0.856053 0.513626 -0.05797967
vn 0.2732108 0.003639162 -0.9619473
vn 0.579203 -0.7904832 -0.1991487
vn -0.6957642 -0.5136333 -0.5020887
vn -0.3897721 0.7904761 -0.4724673
g ster131_0
f 3/3/3 2/2/2 1/1/1
f 4/4/4 3/3/3 1/1/1
f 3/3/3 5/5/5 2/2/2
f 4/4/4 5/5/5 3/3/3
f 8/8/8 7/7/7 6/6/6
f 9/9/9 8/8/8 6/6/6
f 8/8/8 10/10/10 7/7/7
f 9/9/9 10/10/10 8/8/8
f 13/13/13 12/12/12 11/11/11
f 11/11/11 12/12/12 14/14/14
f 13/13/13 15/15/15 12/12/12
f 12/12/12 15/15/15 14/14/14
f 18/18/18 17/17/17 16/16/16
f 19/19/19 17/17/17 18/18/18
f 17/17/17 20/20/20 16/16/16
f 19/19/19 20/20/20 17/17/17
