g ster203
v -1.947398 -1.262407 0.3089256
v -1.407796 1.719531 -1.844734
v -3.994358 6.316431 0.6335454
v -0.7675986 1.719531 2.189959
v 1.94759 1.262666 -0.3088923
v 1.94759 1.262666 -0.3088923
v 0.7677908 -1.720176 -2.189925
v 3.994324 -6.316397 -0.633738
v 1.407989 -1.720176 1.844767
v -1.947398 -1.262407 0.3089256
v 1.407989 -1.720176 1.844767
v 1.175148 0.0001296997 7.407389
v 1.94759 1.262666 -0.3088923
v -1.947398 -1.262407 0.3089256
v -0.7675986 1.719531 2.189959
v 1.94759 1.262666 -0.3088923
v -1.174956 0.0001296997 -7.407356
v 0.7677908 -1.720176 -2.189925
v -1.947398 -1.262407 0.3089256
v -1.407796 1.719531 -1.844734
vt 0.6376616 0.07365538
vt 0.6312976 0.08320133
vt 0.6360706 0.08320133
vt 0.6408436 0.08320133
vt 0.6360706 0.09592926
vt 0.6360706 0.09592926
vt 0.6312976 0.1030887
vt 0.6360706 0.1030887
vt 0.6408436 0.1030887
vt 0.6368661 0.1086572
vt 0.6456165 0.06888241
vt 0.6456165 0.07365538
vt 0.651185 0.07365538
vt 0.6376616 0.07365538
vt 0.6456165 0.07842836
vt 0.6201607 0.07285989
vt 0.6265246 0.07365538
vt 0.6265246 0.06888241
vt 0.6376616 0.07365538
vt 0.6265246 0.07842836
vn -0.952667 -0.2652522 0.1485491
vn -0.3324995 0.29514 -0.8957323
vn -0.5342407 0.8405885 0.08943114
vn -0.0410955 0.29514 0.9545698
vn 0.6388471 0.7658695 -0.07292657
vn 0.9526668 0.2652525 -0.1485503
vn 0.04109532 -0.2951398 -0.9545699
vn 0.5342405 -0.8405883 -0.08943315
vn 0.3324993 -0.2951398 0.8957325
vn -0.6388472 -0.7658693 0.07292739
vn 0.5566562 -0.788285 0.2621842
vn 0.1531738 -0.00373584 0.9881922
vn 0.8405883 0.5118251 0.1773311
vn -0.7434539 -0.5118248 0.4304784
vn -0.4445779 0.7882853 0.4253902
vn 0.7509255 0.5118251 -0.417308
vn -0.1531739 -0.00373584 -0.9881922
vn 0.4445778 -0.788285 -0.4253908
vn -0.8405885 -0.5118248 -0.1773313
vn -0.5566564 0.7882853 -0.2621833
g ster203_0
f 3/3/3 2/2/2 1/1/1
f 4/4/4 3/3/3 1/1/1
f 3/3/3 5/5/5 2/2/2
f 4/4/4 5/5/5 3/3/3
f 8/8/8 7/7/7 6/6/6
f 9/9/9 8/8/8 6/6/6
f 8/8/8 10/10/10 7/7/7
f 9/9/9 10/10/10 8/8/8
f 13/13/13 12/12/12 11/11/11
f 11/11/11 12/12/12 14/14/14
f 13/13/13 15/15/15 12/12/12
f 12/12/12 15/15/15 14/14/14
f 18/18/18 17/17/17 16/16/16
f 19/19/19 17/17/17 18/18/18
f 17/17/17 20/20/20 16/16/16
f 19/19/19 20/20/20 17/17/17
