g ster85
v 2.090077 -1.017291 -0.2804728
v 1.151134 1.839694 1.906388
v 3.229559 6.755367 -0.4333715
v 0.6080484 1.839694 -2.142254
v -2.090139 1.016899 0.2803073
v -2.090139 1.016899 0.2803073
v -0.607883 -1.839632 2.142315
v -3.229393 -6.755305 0.4332061
v -1.150968 -1.839632 -1.906327
v 2.090077 -1.017291 -0.2804728
v -1.150968 -1.839632 -1.906327
v -0.9971623 -8.296967E-05 -7.433368
v -2.090139 1.016899 0.2803073
v 2.090077 -1.017291 -0.2804728
v 0.6080484 1.839694 -2.142254
v -2.090139 1.016899 0.2803073
v 0.9973278 -8.296967E-05 7.433429
v -0.607883 -1.839632 2.142315
v 2.090077 -1.017291 -0.2804728
v 1.151134 1.839694 1.906388
vt 0.9551296 0.07390583
vt 0.9489734 0.0844594
vt 0.9542502 0.0844594
vt 0.9586475 0.0844594
vt 0.9542502 0.09677191
vt 0.9542502 0.09677191
vt 0.9489734 0.1038076
vt 0.9542502 0.1038076
vt 0.9586475 0.1038076
vt 0.9542502 0.1090844
vt 0.9639243 0.0695085
vt 0.9639243 0.07478529
vt 0.9692011 0.07478529
vt 0.9551296 0.07390583
vt 0.9639243 0.07918262
vt 0.9384198 0.07390583
vt 0.9436966 0.07478529
vt 0.9436966 0.0695085
vt 0.9551296 0.07390583
vt 0.9436966 0.07918262
vn 0.9804616 -0.1499572 -0.1273101
vn 0.2729949 0.319124 0.9075426
vn 0.426792 0.903553 -0.03795425
vn 0.02691954 0.319124 -0.9473305
vn -0.7266862 0.6805471 0.09371614
vn -0.9804515 0.1499472 0.1274001
vn -0.02690947 -0.3191341 0.9473275
vn -0.4267819 -0.903563 0.03782919
vn -0.2729849 -0.3191341 -0.9075421
vn 0.7266964 -0.6805573 -0.09356401
vn -0.4498515 -0.8420442 -0.2976494
vn -0.1345674 0.00383991 -0.990897
vn -0.8881732 0.4114022 -0.2046864
vn 0.8112848 -0.4114123 -0.4153997
vn 0.3575833 0.8420341 -0.4038721
vn -0.8112746 0.4114022 0.4154295
vn 0.1345775 -0.003849983 0.9908956
vn -0.3575733 -0.8420442 0.4038599
vn 0.8881834 -0.4114123 0.2046222
vn 0.4498616 0.8420341 0.2976628
g ster85_0
f 3/3/3 2/2/2 1/1/1
f 4/4/4 3/3/3 1/1/1
f 3/3/3 5/5/5 2/2/2
f 4/4/4 5/5/5 3/3/3
f 8/8/8 7/7/7 6/6/6
f 9/9/9 8/8/8 6/6/6
f 8/8/8 10/10/10 7/7/7
f 9/9/9 10/10/10 8/8/8
f 13/13/13 12/12/12 11/11/11
f 11/11/11 12/12/12 14/14/14
f 13/13/13 15/15/15 12/12/12
f 12/12/12 15/15/15 14/14/14
f 18/18/18 17/17/17 16/16/16
f 19/19/19 17/17/17 18/18/18
f 17/17/17 20/20/20 16/16/16
f 19/19/19 20/20/20 17/17/17
