g ster69
v 0.3411951 -1.262988 1.941983
v -1.821151 1.719932 1.438142
v 0.6998577 6.316046 3.983272
v 2.202364 1.719932 0.7311864
v -0.1069646 2.821394 -0.6096849
v -1.598424 2.329952 -0.6669445
v 1.275386 2.329952 -1.171913
v -1.598424 2.329952 -0.6669445
v -2.309438 1.10112 -1.340762
v -0.3411884 1.26253 -1.941989
v -0.1069646 2.821394 -0.6096849
v 1.714077 1.10112 -2.047943
v 1.275386 2.329952 -1.171913
v -0.4881701 -0.6187019 -2.77902
v -1.870746 -0.1274853 -2.216566
v 1.003064 -0.1274853 -2.72176
v -1.870746 -0.1274853 -2.216566
v -2.202358 -1.72039 -0.7314181
v -0.6998515 -6.316052 -3.983504
v -0.4881701 -0.6187019 -2.77902
v 1.821158 -1.72039 -1.438374
v 1.003064 -0.1274853 -2.72176
v 0.3411951 -1.262988 1.941983
v 1.821158 -1.72039 -1.438374
v 7.386856 -0.0001158714 -1.29793
v 1.714077 1.10112 -2.047943
v 1.003064 -0.1274853 -2.72176
v 0.3411951 -1.262988 1.941983
v 1.275386 2.329952 -1.171913
v 2.202364 1.719932 0.7311864
v -1.870746 -0.1274853 -2.216566
v -2.309438 1.10112 -1.340762
v -7.386849 -0.0001158714 1.297924
v -2.202358 -1.72039 -0.7314181
v 0.3411951 -1.262988 1.941983
v -1.821151 1.719932 1.438142
v -1.598424 2.329952 -0.6669445
vt 0.2736799 0.0697974
vt 0.2704692 0.07942964
vt 0.2752853 0.07942964
vt 0.2801014 0.07942964
vt 0.2752853 0.08424576
vt 0.2704692 0.08424576
vt 0.2801014 0.08424576
vt 0.2704692 0.08424576
vt 0.2704692 0.08906189
vt 0.2752853 0.08906189
vt 0.2752853 0.08424576
vt 0.2801014 0.08906189
vt 0.2801014 0.08424576
vt 0.2752853 0.0946807
vt 0.2704692 0.0946807
vt 0.2801014 0.0946807
vt 0.2704692 0.0946807
vt 0.2704692 0.09949682
vt 0.2752853 0.09949682
vt 0.2752853 0.0946807
vt 0.2801014 0.09949682
vt 0.2801014 0.0946807
vt 0.2744826 0.1051156
vt 0.2849175 0.06498127
vt 0.2849175 0.0697974
vt 0.2897337 0.0697974
vt 0.2897337 0.06498127
vt 0.2736799 0.0697974
vt 0.2897337 0.07461352
vt 0.2849175 0.07461352
vt 0.2600342 0.06498127
vt 0.2600342 0.0697974
vt 0.265653 0.0697974
vt 0.265653 0.06498127
vt 0.2736799 0.0697974
vt 0.265653 0.07461352
vt 0.2600342 0.07461352
vn 0.1642992 -0.2634406 0.9505813
vn -0.8194888 0.2703978 0.5052952
vn 0.1185416 0.7432262 0.6584548
vn 0.9421781 0.2703978 0.1979531
vn -0.07974124 0.8881252 -0.4526312
vn -0.7050948 0.6745898 -0.2185634
vn 0.5837437 0.6745898 -0.451854
vn -0.2322665 0.6212059 -0.7484353
vn -0.247519 0.537317 -0.8062412
vn -0.1483777 0.537317 -0.8302255
vn -0.1331251 0.6212059 -0.772257
vn -0.04160988 0.537317 -0.8423532
vn -0.03398359 0.6212059 -0.7829102
vn -0.1560038 0.4534281 -0.8775339
vn -0.2551453 0.4458019 -0.8579986
vn -0.05686247 0.4458019 -0.8933238
vn -0.7737312 0.03398359 -0.6326019
vn -0.8957515 -0.4388447 0.07102552
vn -0.07211494 -0.9192993 -0.3868957
vn -0.1712564 0.04160988 -0.9843474
vn 0.8659155 -0.4388447 -0.2400119
vn 0.5151073 0.03398359 -0.8564517
vn 0.1109154 -0.7667741 0.6322621
vn 0.3549558 -0.8354104 -0.4196377
vn 0.995562 -0.0880366 -0.03325618
vn 0.3702083 0.4686807 -0.8020499
vn 0.2176831 -0.1948043 -0.9563814
vn 0.4312184 -0.5151073 0.7407531
vn 0.3397033 0.9033778 -0.2617447
vn 0.5227336 0.6745898 0.5212277
vn -0.5296907 -0.1948043 -0.8255174
vn -0.6212059 0.4686807 -0.6280458
vn -0.9491353 -0.0880366 0.3023107
vn -0.4763069 -0.8354104 -0.2742648
vn -0.1560038 -0.5151073 0.8428091
vn -0.3085291 0.6745898 0.6706254
vn -0.4076706 0.9033778 -0.1330911
g ster69_0
f 3/3/3 2/2/2 1/1/1
f 4/4/4 3/3/3 1/1/1
f 3/3/3 5/5/5 2/2/2
f 5/5/5 6/6/6 2/2/2
f 7/7/7 5/5/5 3/3/3
f 4/4/4 7/7/7 3/3/3
f 10/10/10 9/9/9 8/8/8
f 11/11/11 10/10/10 8/8/8
f 12/12/12 10/10/10 11/11/11
f 13/13/13 12/12/12 11/11/11
f 10/10/10 14/14/14 9/9/9
f 14/14/14 15/15/15 9/9/9
f 16/16/16 14/14/14 10/10/10
f 12/12/12 16/16/16 10/10/10
f 19/19/19 18/18/18 17/17/17
f 20/20/20 19/19/19 17/17/17
f 21/21/21 19/19/19 20/20/20
f 22/22/22 21/21/21 20/20/20
f 19/19/19 23/23/23 18/18/18
f 21/21/21 23/23/23 19/19/19
f 26/26/26 25/25/25 24/24/24
f 27/27/27 26/26/26 24/24/24
f 24/24/24 25/25/25 28/28/28
f 26/26/26 29/29/29 25/25/25
f 29/29/29 30/30/30 25/25/25
f 25/25/25 30/30/30 28/28/28
f 33/33/33 32/32/32 31/31/31
f 34/34/34 33/33/33 31/31/31
f 35/35/35 33/33/33 34/34/34
f 33/33/33 36/36/36 32/32/32
f 35/35/35 36/36/36 33/33/33
f 36/36/36 37/37/37 32/32/32
