g ster156
v 3.483502 -1.695142 -0.4674883
v 1.918215 3.06613 3.177288
v 5.382264 11.25856 -0.7219419
v 1.01307 3.06613 -3.570462
v -3.48354 1.695559 0.4675255
v -3.48354 1.695559 0.4675255
v -1.013108 -3.06647 3.5705
v -5.382301 -11.2589 0.7219791
v -1.918631 -3.06647 -3.17725
v 3.483502 -1.695142 -0.4674883
v -1.918631 -3.06647 -3.17725
v -1.661908 0.000207901 -12.38901
v -3.48354 1.695559 0.4675255
v 3.483502 -1.695142 -0.4674883
v 1.01307 3.06613 -3.570462
v -3.48354 1.695559 0.4675255
v 1.66187 0.000207901 12.38904
v -1.013108 -3.06647 3.5705
v 3.483502 -1.695142 -0.4674883
v 1.918215 3.06613 3.177288
vt 0.7229624 0.1022395
vt 0.714131 0.1154866
vt 0.72107 0.1154866
vt 0.7273781 0.1154866
vt 0.72107 0.1325186
vt 0.72107 0.1325186
vt 0.714131 0.1413501
vt 0.72107 0.1413501
vt 0.7273781 0.1413501
vt 0.7217008 0.1489199
vt 0.7336863 0.09593133
vt 0.7336863 0.1022395
vt 0.7412561 0.1009779
vt 0.7229624 0.1022395
vt 0.7336863 0.1091785
vt 0.7002531 0.1016087
vt 0.7078229 0.1022395
vt 0.7078229 0.09593133
vt 0.7229624 0.1022395
vt 0.7078229 0.1091785
vn 0.9804609 -0.1499541 -0.1273189
vn 0.2729922 0.3191285 0.9075419
vn 0.4267898 0.9035591 -0.03783313
vn 0.02691609 0.3191285 -0.9473292
vn -0.7266919 0.6805527 0.09363199
vn -0.980458 0.1499512 0.1273454
vn -0.02691311 -0.3191314 0.9473283
vn -0.4267867 -0.9035622 0.0377953
vn -0.2729892 -0.3191314 -0.9075418
vn 0.7266949 -0.6805557 -0.0935863
vn -0.4498563 -0.8420432 -0.297645
vn -0.1345714 -0.003846467 -0.9908965
vn -0.8881794 0.4114069 -0.2046503
vn 0.8112836 -0.41141 -0.4154043
vn 0.3575808 0.8420401 -0.4038618
vn -0.8112805 0.4114069 0.4154133
vn 0.1345744 -0.003846467 0.990896
vn -0.3575779 -0.8420432 0.4038581
vn 0.8881824 -0.41141 0.2046311
vn 0.4498594 0.8420401 0.2976491
g ster156_0
f 3/3/3 2/2/2 1/1/1
f 4/4/4 3/3/3 1/1/1
f 3/3/3 5/5/5 2/2/2
f 4/4/4 5/5/5 3/3/3
f 8/8/8 7/7/7 6/6/6
f 9/9/9 8/8/8 6/6/6
f 8/8/8 10/10/10 7/7/7
f 9/9/9 10/10/10 8/8/8
f 13/13/13 12/12/12 11/11/11
f 11/11/11 12/12/12 14/14/14
f 13/13/13 15/15/15 12/12/12
f 12/12/12 15/15/15 14/14/14
f 18/18/18 17/17/17 16/16/16
f 19/19/19 17/17/17 18/18/18
f 17/17/17 20/20/20 16/16/16
f 19/19/19 20/20/20 17/17/17
