g ster261
v -1.781712 -1.017417 1.128211
v -1.84232 1.839641 -1.250987
v -2.752892 6.754917 1.743161
v 0.3428884 1.839641 2.200406
v 1.781828 1.017095 -1.128327
v 1.781828 1.017095 -1.128327
v -0.3429785 -1.839962 -2.200316
v 2.753009 -6.755239 -1.743071
v 1.842436 -1.839962 1.250871
v -1.781712 -1.017417 1.128211
v 1.842436 -1.839962 1.250871
v 4.01239 -0.0002641678 6.33643
v 1.781828 1.017095 -1.128327
v -1.781712 -1.017417 1.128211
v 0.3428884 1.839641 2.200406
v 1.781828 1.017095 -1.128327
v -4.012068 -0.0002641678 -6.336545
v -0.3429785 -1.839962 -2.200316
v -1.781712 -1.017417 1.128211
v -1.84232 1.839641 -1.250987
vt 0.6898637 0.07784157
vt 0.6834468 0.0882692
vt 0.6882595 0.0882692
vt 0.6930723 0.0882692
vt 0.6890616 0.09869684
vt 0.6890616 0.09869684
vt 0.6834468 0.1075202
vt 0.6882595 0.1075202
vt 0.6930723 0.1075202
vt 0.6890616 0.1131351
vt 0.6986871 0.07302882
vt 0.6986871 0.07864369
vt 0.704302 0.07864369
vt 0.6898637 0.07784157
vt 0.6986871 0.08345646
vt 0.6730191 0.07784157
vt 0.678634 0.07864369
vt 0.678634 0.07302882
vt 0.6898637 0.07784157
vt 0.678634 0.08345646
vn -0.8371083 -0.1448019 0.5275245
vn -0.6322493 0.3143647 -0.7081212
vn -0.3638135 0.9006851 0.2374996
vn 0.3708531 0.3143647 0.8738666
vn 0.6180966 0.681698 -0.3914643
vn 0.8370838 0.1448264 -0.5275567
vn -0.3708776 -0.3143403 -0.8738649
vn 0.363789 -0.9006607 -0.2376297
vn 0.6322248 -0.3143403 0.708154
vn -0.6181211 -0.6816735 0.3914685
vn 0.5333275 -0.8441479 0.05455437
vn 0.5333275 0.003544271 0.8459014
vn 0.8865325 0.4132622 -0.2080252
vn -0.5686724 -0.4132377 0.7112288
vn -0.1589546 0.8441723 0.5119635
vn 0.5686479 0.4132622 -0.711234
vn -0.5333518 -0.003519833 -0.8458862
vn 0.1589301 -0.8441479 -0.5120113
vn -0.8865569 -0.4132377 0.2079697
vn -0.5333518 0.8441723 -0.05393464
g ster261_0
f 3/3/3 2/2/2 1/1/1
f 4/4/4 3/3/3 1/1/1
f 3/3/3 5/5/5 2/2/2
f 4/4/4 5/5/5 3/3/3
f 8/8/8 7/7/7 6/6/6
f 9/9/9 8/8/8 6/6/6
f 8/8/8 10/10/10 7/7/7
f 9/9/9 10/10/10 8/8/8
f 13/13/13 12/12/12 11/11/11
f 11/11/11 12/12/12 14/14/14
f 13/13/13 15/15/15 12/12/12
f 12/12/12 15/15/15 14/14/14
f 18/18/18 17/17/17 16/16/16
f 19/19/19 17/17/17 18/18/18
f 17/17/17 20/20/20 16/16/16
f 19/19/19 20/20/20 17/17/17
