g ster234
v 2.156662 -1.356495 -1.803995
v 2.654738 2.453025 1.329603
v 3.332036 9.006916 -2.787504
v -0.8400469 2.453025 -2.847977
v -2.156708 1.356266 1.804316
v -2.156708 1.356266 1.804316
v 0.8400011 -2.452429 2.848023
v -3.332356 -9.007145 2.78755
v -2.65506 -2.452429 -1.329557
v 2.156662 -1.356495 -1.803995
v -2.65506 -2.452429 -1.329557
v -6.416475 2.288818E-05 -7.670144
v -2.156708 1.356266 1.804316
v 2.156662 -1.356495 -1.803995
v -0.8400469 2.453025 -2.847977
v -2.156708 1.356266 1.804316
v 6.41643 2.288818E-05 7.670189
v 0.8400011 -2.452429 2.848023
v 2.156662 -1.356495 -1.803995
v 2.654738 2.453025 1.329603
vt 0.7229626 0.1022395
vt 0.7141311 0.1154866
vt 0.7210701 0.1154866
vt 0.7273782 0.1154866
vt 0.7204393 0.131257
vt 0.7204393 0.131257
vt 0.7141311 0.1413501
vt 0.7210701 0.1413501
vt 0.7273782 0.1413501
vt 0.7217009 0.1489199
vt 0.7336864 0.09593133
vt 0.7336864 0.1022395
vt 0.7412562 0.1035011
vt 0.7229626 0.1022395
vt 0.7336864 0.1091785
vt 0.7002532 0.1016087
vt 0.707823 0.1022395
vt 0.707823 0.09593133
vt 0.7229626 0.1022395
vt 0.707823 0.1091785
vn 0.7594711 -0.1448451 -0.6342109
vn 0.7170831 0.3143584 0.6220697
vn 0.3355911 0.9007257 -0.2758112
vn -0.4839103 0.3143584 -0.8167066
vn -0.5616217 0.681721 0.4688684
vn -0.7594323 0.1448063 0.6342663
vn 0.4839491 -0.3143971 0.8166687
vn -0.3355523 -0.9007645 0.2757317
vn -0.7170444 -0.3143971 -0.6220948
vn 0.5616604 -0.6817598 -0.4687656
vn -0.5391312 -0.8422219 0
vn -0.639333 0.003512919 -0.7689219
vn -0.8512731 0.4132637 0.3233378
vn 0.4698198 -0.4133024 -0.7800324
vn 0.08832777 0.8442084 -0.5286875
vn -0.4697809 0.4132637 0.7800763
vn 0.6393718 0.003512919 0.7688897
vn -0.08828896 -0.8442471 0.5286321
vn 0.8513118 -0.4133024 -0.3231862
vn 0.5391762 0.842193 0
g ster234_0
f 3/3/3 2/2/2 1/1/1
f 4/4/4 3/3/3 1/1/1
f 3/3/3 5/5/5 2/2/2
f 4/4/4 5/5/5 3/3/3
f 8/8/8 7/7/7 6/6/6
f 9/9/9 8/8/8 6/6/6
f 8/8/8 10/10/10 7/7/7
f 9/9/9 10/10/10 8/8/8
f 13/13/13 12/12/12 11/11/11
f 11/11/11 12/12/12 14/14/14
f 13/13/13 15/15/15 12/12/12
f 12/12/12 15/15/15 14/14/14
f 18/18/18 17/17/17 16/16/16
f 19/19/19 17/17/17 18/18/18
f 17/17/17 20/20/20 16/16/16
f 19/19/19 20/20/20 17/17/17
