g ster99
v 0.9379587 -2.104253 -3.149895
v 3.786421 2.866937 -0.7880592
v 1.923641 10.52682 -6.460121
v -2.738608 2.866937 -2.730906
v -0.9379826 2.104276 3.149552
v -0.9379826 2.104276 3.149552
v 2.738585 -2.866914 2.730564
v -1.923665 -10.52679 6.460145
v -3.786444 -2.866914 0.7877169
v 0.9379587 -2.104253 -3.149895
v -3.786444 -2.866914 0.7877169
v -11.98011 -0.0001707077 -3.567786
v -0.9379826 2.104276 3.149552
v 0.9379587 -2.104253 -3.149895
v -2.738608 2.866937 -2.730906
v -0.9379826 2.104276 3.149552
v 11.98009 -0.0001707077 3.567444
v 2.738585 -2.866914 2.730564
v 0.9379587 -2.104253 -3.149895
v 3.786421 2.866937 -0.7880592
vt 0.6376616 0.07365538
vt 0.6312976 0.08320133
vt 0.6360706 0.08320133
vt 0.6408436 0.08320133
vt 0.6360706 0.09592926
vt 0.6360706 0.09592926
vt 0.6312976 0.1030887
vt 0.6360706 0.1030887
vt 0.6408436 0.1030887
vt 0.6368661 0.1086572
vt 0.6456165 0.06888241
vt 0.6456165 0.07365538
vt 0.651185 0.07365538
vt 0.6376616 0.07365538
vt 0.6456165 0.07842836
vt 0.6201607 0.07285989
vt 0.6265246 0.07365538
vt 0.6265246 0.06888241
vt 0.6376616 0.07365538
vt 0.6265246 0.07842836
vn 0.2743773 -0.2668605 -0.923852
vn 0.950892 0.2969016 0.08748639
vn 0.154108 0.8456302 -0.5110384
vn -0.8456302 0.2969016 -0.4435752
vn -0.1841492 0.7629451 0.6196804
vn -0.2743512 0.2668343 0.9238673
vn 0.8456563 -0.2969278 0.4435079
vn -0.1540819 -0.8456563 0.5110031
vn -0.9508658 -0.2969278 -0.0876818
vn 0.1841754 -0.7629712 -0.6196405
vn -0.4773056 -0.7855217 0.3938718
vn -0.9583827 -0.003771484 -0.2854618
vn -0.5148897 0.5148897 0.685403
vn -0.05636317 -0.5149158 -0.8553858
vn -0.1916661 0.7854956 -0.5884393
vn 0.05638927 0.5148897 0.8553998
vn 0.9584088 0.003745317 0.2853745
vn 0.1916922 -0.7855217 0.588396
vn 0.5149158 -0.5149158 -0.6853637
vn 0.4773317 0.7854956 -0.3938923
g ster99_0
f 3/3/3 2/2/2 1/1/1
f 4/4/4 3/3/3 1/1/1
f 3/3/3 5/5/5 2/2/2
f 4/4/4 5/5/5 3/3/3
f 8/8/8 7/7/7 6/6/6
f 9/9/9 8/8/8 6/6/6
f 8/8/8 10/10/10 7/7/7
f 9/9/9 10/10/10 8/8/8
f 13/13/13 12/12/12 11/11/11
f 11/11/11 12/12/12 14/14/14
f 13/13/13 15/15/15 12/12/12
f 12/12/12 15/15/15 14/14/14
f 18/18/18 17/17/17 16/16/16
f 19/19/19 17/17/17 18/18/18
f 17/17/17 20/20/20 16/16/16
f 19/19/19 20/20/20 17/17/17
