g ster181
v -1.947405 -1.262185 0.3089275
v -1.407801 1.719763 -1.844739
v -3.994372 6.316226 0.6335483
v -0.7678275 1.719763 2.189741
v 1.94737 1.262898 -0.3088927
v 1.94737 1.262898 -0.3088927
v 0.7677927 -1.719954 -2.189932
v 3.994337 -6.316192 -0.6335135
v 1.407767 -1.719954 1.844774
v -1.947405 -1.262185 0.3089275
v 1.407767 -1.719954 1.844774
v 1.174926 0.0003566742 7.407415
v 1.94737 1.262898 -0.3088927
v -1.947405 -1.262185 0.3089275
v -0.7678275 1.719763 2.189741
v 1.94737 1.262898 -0.3088927
v -1.174961 0.0003566742 -7.40738
v 0.7677927 -1.719954 -2.189932
v -1.947405 -1.262185 0.3089275
v -1.407801 1.719763 -1.844739
vt 0.6376616 0.07365538
vt 0.6312976 0.08320133
vt 0.6360706 0.08320133
vt 0.6408436 0.08320133
vt 0.6360706 0.09592926
vt 0.6360706 0.09592926
vt 0.6312976 0.1030887
vt 0.6360706 0.1030887
vt 0.6408436 0.1030887
vt 0.6368661 0.1086572
vt 0.6456165 0.06888241
vt 0.6456165 0.07365538
vt 0.651185 0.07365538
vt 0.6376616 0.07365538
vt 0.6456165 0.07842836
vt 0.6201607 0.07285989
vt 0.6265246 0.07365538
vt 0.6265246 0.06888241
vt 0.6376616 0.07365538
vt 0.6265246 0.07842836
vn -0.9526591 -0.2652655 0.1485759
vn -0.3324889 0.2951292 -0.8957399
vn -0.5342309 0.8405801 0.08956768
vn -0.04108363 0.2951292 0.9545737
vn 0.638862 0.7658608 -0.07288691
vn 0.9526831 0.2652415 -0.1484651
vn 0.04110759 -0.2951533 -0.9545652
vn 0.534255 -0.8406041 -0.08919824
vn 0.3325129 -0.2951533 0.895723
vn -0.6388381 -0.7658848 0.07284479
vn 0.5566708 -0.7883006 0.2621063
vn 0.1531866 -0.00374794 0.9881902
vn 0.8406041 0.5118152 0.1772849
vn -0.750917 -0.5118392 0.4173061
vn -0.4445678 0.7882767 0.4254167
vn 0.750941 0.5118152 -0.4172923
vn -0.1531626 -0.00374794 -0.9881939
vn 0.4445918 -0.7883006 -0.4253472
vn -0.8405801 -0.5118392 -0.1773294
vn -0.5566468 0.7882767 -0.2622293
g ster181_0
f 3/3/3 2/2/2 1/1/1
f 4/4/4 3/3/3 1/1/1
f 3/3/3 5/5/5 2/2/2
f 4/4/4 5/5/5 3/3/3
f 8/8/8 7/7/7 6/6/6
f 9/9/9 8/8/8 6/6/6
f 8/8/8 10/10/10 7/7/7
f 9/9/9 10/10/10 8/8/8
f 13/13/13 12/12/12 11/11/11
f 11/11/11 12/12/12 14/14/14
f 13/13/13 15/15/15 12/12/12
f 12/12/12 15/15/15 14/14/14
f 18/18/18 17/17/17 16/16/16
f 19/19/19 17/17/17 18/18/18
f 17/17/17 20/20/20 16/16/16
f 19/19/19 20/20/20 17/17/17
