g ster139
v -0.3301878 -1.356387 -2.792325
v 2.56563 2.452878 -1.494889
v -0.51021 9.006732 -4.314334
v -2.843534 2.452878 -0.8551121
v 0.3301983 1.356074 2.792618
v 0.3301983 1.356074 2.792618
v 2.843544 -2.452888 0.8551025
v 0.5102205 -9.007045 4.314324
v -2.565619 -2.452888 1.49488
v -0.3301878 -1.356387 -2.792325
v -2.565619 -2.452888 1.49488
v -9.930787 -0.0001564026 1.174536
v 0.3301983 1.356074 2.792618
v -0.3301878 -1.356387 -2.792325
v -2.843534 2.452878 -0.8551121
v 0.3301983 1.356074 2.792618
v 9.930797 -0.0001564026 -1.174243
v 2.843544 -2.452888 0.8551025
v -0.3301878 -1.356387 -2.792325
v 2.56563 2.452878 -1.494889
vt 0.7229626 0.1022395
vt 0.7141311 0.1154866
vt 0.7210701 0.1154866
vt 0.7273782 0.1154866
vt 0.7204393 0.131257
vt 0.7204393 0.131257
vt 0.7141311 0.1413501
vt 0.7210701 0.1413501
vt 0.7273782 0.1413501
vt 0.7217009 0.1489199
vt 0.7336864 0.09593133
vt 0.7336864 0.1022395
vt 0.7412562 0.1035011
vt 0.7229626 0.1022395
vt 0.7336864 0.1091785
vt 0.7002532 0.1016087
vt 0.707823 0.1022395
vt 0.707823 0.09593133
vt 0.7229626 0.1022395
vt 0.707823 0.1091785
vn -0.1129436 -0.1440921 -0.9830977
vn 0.9151994 0.3154566 -0.2507932
vn -0.05063194 0.8996288 -0.43371
vn -0.9463626 0.3154566 -0.06989311
vn 0.08956939 0.6815378 0.7262806
vn 0.1129363 0.1440994 0.9830975
vn 0.9463552 -0.3154493 0.07002518
vn 0.05062461 -0.8996215 0.433726
vn -0.9152067 -0.3154493 0.2507756
vn -0.08957666 -0.6815305 -0.7262865
vn -0.2998787 -0.8450987 0.4425844
vn -0.9930963 0.003898144 0.1172371
vn -0.1986222 0.4167132 0.8870735
vn -0.3933463 -0.4167058 -0.8195334
vn -0.3933463 0.8451061 -0.3620421
vn 0.3933389 0.4167132 0.8195331
vn 0.993089 0.003898144 -0.1172988
vn 0.3933389 -0.8450987 0.3620671
vn 0.1986149 -0.4167058 -0.8870785
vn 0.2998714 0.8451061 -0.4425753
g ster139_0
f 3/3/3 2/2/2 1/1/1
f 4/4/4 3/3/3 1/1/1
f 3/3/3 5/5/5 2/2/2
f 4/4/4 5/5/5 3/3/3
f 8/8/8 7/7/7 6/6/6
f 9/9/9 8/8/8 6/6/6
f 8/8/8 10/10/10 7/7/7
f 9/9/9 10/10/10 8/8/8
f 13/13/13 12/12/12 11/11/11
f 11/11/11 12/12/12 14/14/14
f 13/13/13 15/15/15 12/12/12
f 12/12/12 15/15/15 14/14/14
f 18/18/18 17/17/17 16/16/16
f 19/19/19 17/17/17 18/18/18
f 17/17/17 20/20/20 16/16/16
f 19/19/19 20/20/20 17/17/17
