g ster201
v -3.165032 -2.104478 -0.8855543
v -0.8506212 2.866731 -3.772692
v -6.491173 10.52707 -1.816095
v -2.684884 2.866731 2.783706
v 3.164699 2.104077 0.8855209
v 3.164699 2.104077 0.8855209
v 2.684917 -2.866764 -2.78374
v 6.491207 -10.5271 1.816062
v 0.8506546 -2.866764 3.773026
v -3.165032 -2.104478 -0.8855543
v 0.8506546 -2.866764 3.773026
v -3.368187 0.000166893 12.03768
v 3.164699 2.104077 0.8855209
v -3.165032 -2.104478 -0.8855543
v -2.684884 2.866731 2.783706
v 3.164699 2.104077 0.8855209
v 3.36822 0.000166893 -12.03771
v 2.684917 -2.866764 -2.78374
v -3.165032 -2.104478 -0.8855543
v -0.8506212 2.866731 -3.772692
vt 0.2784961 0.07140277
vt 0.2704692 0.07942964
vt 0.2752853 0.07942964
vt 0.2801014 0.07942964
vt 0.2752853 0.09227264
vt 0.2752853 0.09227264
vt 0.2704692 0.09949682
vt 0.2752853 0.09949682
vt 0.2801014 0.09949682
vt 0.276088 0.1051156
vt 0.2849175 0.06498127
vt 0.2849175 0.0697974
vt 0.2905363 0.0697974
vt 0.2784961 0.07140277
vt 0.2849175 0.07461352
vt 0.2600342 0.06899471
vt 0.265653 0.0697974
vt 0.265653 0.06498127
vt 0.2784961 0.07140277
vt 0.265653 0.07461352
vn -0.9289332 -0.2659209 -0.2576222
vn 0.06920713 0.2950776 -0.9529635
vn -0.5209342 0.8415049 -0.143168
vn -0.4335058 0.2950776 0.8514704
vn 0.62292 0.7686478 0.1454343
vn 0.9289193 0.2659349 0.2576581
vn 0.4334919 -0.2950637 -0.8514823
vn 0.5209203 -0.8414909 0.1433008
vn -0.06922108 -0.2950637 0.9529669
vn -0.6229339 -0.768634 -0.1454482
vn 0.3897778 -0.790491 0.4724375
vn -0.2659349 0.003649831 0.9639841
vn 0.695777 0.5136486 0.5020553
vn -0.8560762 -0.5136346 0.05755974
vn -0.5792198 0.790505 0.1990134
vn 0.8560623 0.5136486 -0.05764123
vn 0.2659209 -0.003635883 -0.963988
vn 0.5792059 -0.790491 -0.1991092
vn -0.6957909 -0.5136346 -0.5020503
vn -0.3897917 0.790505 -0.4724027
g ster201_0
f 3/3/3 2/2/2 1/1/1
f 4/4/4 3/3/3 1/1/1
f 3/3/3 5/5/5 2/2/2
f 4/4/4 5/5/5 3/3/3
f 8/8/8 7/7/7 6/6/6
f 9/9/9 8/8/8 6/6/6
f 8/8/8 10/10/10 7/7/7
f 9/9/9 10/10/10 8/8/8
f 13/13/13 12/12/12 11/11/11
f 11/11/11 12/12/12 14/14/14
f 13/13/13 15/15/15 12/12/12
f 12/12/12 15/15/15 14/14/14
f 18/18/18 17/17/17 16/16/16
f 19/19/19 17/17/17 18/18/18
f 17/17/17 20/20/20 16/16/16
f 19/19/19 20/20/20 17/17/17
