g ster226
v 0.9277449 -1.356421 -2.65426
v 2.961074 2.452973 -0.2181835
v 1.433341 9.006701 -4.101041
v -2.180442 2.452973 -2.015568
v -0.8226805 1.202093 2.353295
v -0.8226805 1.202093 2.353295
v 2.180354 -2.452886 2.015656
v -1.433429 -9.007189 4.101129
v -2.961162 -2.452886 0.2182713
v 0.9277449 -1.356421 -2.65426
v -2.961162 -2.452886 0.2182713
v -9.439985 -0.0001001358 -3.299578
v -0.8226805 1.202093 2.353295
v 0.9277449 -1.356421 -2.65426
v -2.180442 2.452973 -2.015568
v -0.8226805 1.202093 2.353295
v 9.439898 -0.0001001358 3.299666
v 2.180354 -2.452886 2.015656
v 0.9277449 -1.356421 -2.65426
v 2.961074 2.452973 -0.2181835
vt 0.690336 0.07822117
vt 0.6839348 0.08782297
vt 0.6887357 0.08782297
vt 0.6935366 0.08782297
vt 0.6887357 0.09822492
vt 0.6887357 0.09822492
vt 0.6839348 0.1078267
vt 0.6887357 0.1078267
vt 0.6935366 0.1078267
vt 0.6895359 0.1134278
vt 0.6983375 0.07342027
vt 0.6983375 0.07822117
vt 0.7031384 0.07822117
vt 0.690336 0.07822117
vt 0.6983375 0.08302207
vt 0.6735328 0.07822117
vt 0.6791339 0.07822117
vt 0.6791339 0.07342027
vt 0.690336 0.07822117
vt 0.6791339 0.08302207
vn 0.3227083 -0.1439901 -0.9354818
vn 0.9333287 0.3176985 0.1672277
vn 0.1663299 0.8687462 -0.4664917
vn -0.8389598 0.3176985 -0.4418304
vn -0.2506791 0.6602417 0.7079837
vn -0.3251451 0.1762133 0.9291015
vn 0.8290765 -0.3152617 0.4617816
vn -0.1240871 -0.9333287 0.3368973
vn -0.9357655 -0.3152617 -0.1579651
vn 0.2407958 -0.6801447 -0.6924021
vn -0.4666303 -0.8439696 0.264521
vn -0.9208723 -0.03229123 -0.3885247
vn -0.5410962 0.4219508 0.7274424
vn 0.002504885 -0.4120674 -0.9111499
vn -0.1985531 0.8464065 -0.4941384
vn -0.03472805 0.4219508 0.9059533
vn 0.9631151 -0.03229123 0.2671453
vn 0.1961163 -0.8439696 0.4992531
vn 0.5684458 -0.4120674 -0.7120883
vn 0.4641935 0.8464065 -0.260999
g ster226_0
f 3/3/3 2/2/2 1/1/1
f 4/4/4 3/3/3 1/1/1
f 3/3/3 5/5/5 2/2/2
f 4/4/4 5/5/5 3/3/3
f 8/8/8 7/7/7 6/6/6
f 9/9/9 8/8/8 6/6/6
f 8/8/8 10/10/10 7/7/7
f 9/9/9 10/10/10 8/8/8
f 13/13/13 12/12/12 11/11/11
f 11/11/11 12/12/12 14/14/14
f 13/13/13 15/15/15 12/12/12
f 12/12/12 15/15/15 14/14/14
f 18/18/18 17/17/17 16/16/16
f 19/19/19 17/17/17 18/18/18
f 17/17/17 20/20/20 16/16/16
f 19/19/19 20/20/20 17/17/17
