g ster147
v 1.480412 -1.356444 -2.390509
v 2.938327 2.452718 0.4280176
v 2.287433 9.006742 -3.693398
v -1.692425 2.452718 -2.439711
v -1.480499 1.355983 2.390597
v -1.480499 1.355983 2.390597
v 1.692337 -2.452905 2.439799
v -2.28752 -9.006929 3.693485
v -2.938415 -2.452905 -0.4279299
v 1.480412 -1.356444 -2.390509
v -2.938415 -2.452905 -0.4279299
v -8.50153 -0.0002307892 -5.265385
v -1.480499 1.355983 2.390597
v 1.480412 -1.356444 -2.390509
v -1.692425 2.452718 -2.439711
v -1.480499 1.355983 2.390597
v 8.501442 -0.0002307892 5.265198
v 1.692337 -2.452905 2.439799
v 1.480412 -1.356444 -2.390509
v 2.938327 2.452718 0.4280176
vt 0.7229626 0.1022395
vt 0.7141311 0.1154866
vt 0.7210701 0.1154866
vt 0.7273782 0.1154866
vt 0.7204393 0.131257
vt 0.7204393 0.131257
vt 0.7141311 0.1413501
vt 0.7210701 0.1413501
vt 0.7273782 0.1413501
vt 0.7217009 0.1489199
vt 0.7336864 0.09593133
vt 0.7336864 0.1022395
vt 0.7412562 0.1035011
vt 0.7229626 0.1022395
vt 0.7336864 0.1091785
vt 0.7002532 0.1016087
vt 0.707823 0.1022395
vt 0.707823 0.09593133
vt 0.7229626 0.1022395
vt 0.707823 0.1091785
vn 0.5192767 -0.1448689 -0.8422379
vn 0.8795559 0.3143106 0.3571978
vn 0.2296405 0.9006473 -0.368917
vn -0.7169756 0.3143106 -0.6222178
vn -0.3849535 0.6816541 0.6222206
vn -0.5191752 0.1447674 0.8423179
vn 0.7170771 -0.3144121 0.6220495
vn -0.2295389 -0.9007488 0.3687321
vn -0.8794544 -0.3144121 -0.3573584
vn 0.3850551 -0.6817556 -0.6220465
vn -0.5121108 -0.8442345 0.1581475
vn -0.8511972 0.003481388 -0.5248344
vn -0.7028469 0.4132107 0.5790191
vn 0.2013833 -0.4133123 -0.8880415
vn -0.08118868 0.8441329 -0.529951
vn -0.2012818 0.4132107 0.8881118
vn 0.8512987 0.003481388 0.5246697
vn 0.08129019 -0.8442345 0.5297737
vn 0.7029485 -0.4133123 -0.5788233
vn 0.5122124 0.8441329 -0.1583607
g ster147_0
f 3/3/3 2/2/2 1/1/1
f 4/4/4 3/3/3 1/1/1
f 3/3/3 5/5/5 2/2/2
f 4/4/4 5/5/5 3/3/3
f 8/8/8 7/7/7 6/6/6
f 9/9/9 8/8/8 6/6/6
f 8/8/8 10/10/10 7/7/7
f 9/9/9 10/10/10 8/8/8
f 13/13/13 12/12/12 11/11/11
f 11/11/11 12/12/12 14/14/14
f 13/13/13 15/15/15 12/12/12
f 12/12/12 15/15/15 14/14/14
f 18/18/18 17/17/17 16/16/16
f 19/19/19 17/17/17 18/18/18
f 17/17/17 20/20/20 16/16/16
f 19/19/19 20/20/20 17/17/17
