g ster215
v -0.6952491 -1.017249 -1.990941
v 1.635693 1.839435 -1.51101
v -1.074267 6.755221 -3.076135
v -2.22083 1.839435 -0.1643491
v 0.6952772 1.01722 1.991129
v 0.6952772 1.01722 1.991129
v 2.220859 -1.839896 0.164537
v 1.074296 -6.755466 3.076323
v -1.635664 -1.839896 1.511197
v -0.6952491 -1.017249 -1.990941
v -1.635664 -1.839896 1.511197
v -7.080649 9.393692E-05 2.472789
v 0.6952772 1.01722 1.991129
v -0.6952491 -1.017249 -1.990941
v -2.22083 1.839435 -0.1643491
v 0.6952772 1.01722 1.991129
v 7.080678 9.393692E-05 -2.472601
v 2.220859 -1.839896 0.164537
v -0.6952491 -1.017249 -1.990941
v 1.635693 1.839435 -1.51101
vt 0.6898637 0.07784157
vt 0.6834468 0.0882692
vt 0.6882595 0.0882692
vt 0.6930723 0.0882692
vt 0.6890616 0.09869684
vt 0.6890616 0.09869684
vt 0.6834468 0.1075202
vt 0.6882595 0.1075202
vt 0.6930723 0.1075202
vt 0.6890616 0.1131351
vt 0.6986871 0.07302882
vt 0.6986871 0.07864369
vt 0.704302 0.07864369
vt 0.6898637 0.07784157
vt 0.6986871 0.08345646
vt 0.6730191 0.07784157
vt 0.678634 0.07864369
vt 0.678634 0.07302882
vt 0.6898637 0.07784157
vt 0.678634 0.08345646
vn -0.3294356 -0.1444439 -0.9330639
vn 0.83305 0.3146268 -0.4550139
vn -0.1443264 0.8995719 -0.4122381
vn -0.9365937 0.3146268 0.1542799
vn 0.2407007 0.6848452 0.6877865
vn 0.3295531 0.1443264 0.9330406
vn 0.9367111 -0.3147444 -0.153324
vn 0.1444439 -0.8996893 0.4119407
vn -0.8329326 -0.3147444 0.4551475
vn -0.2405832 -0.6849627 -0.6877106
vn -0.196157 -0.8404544 0.5051325
vn -0.9439981 0.003643453 0.3299308
vn 0.003760934 0.418288 0.9083067
vn -0.5663754 -0.4184055 -0.7100393
vn -0.4627142 0.8403369 -0.282364
vn 0.5664928 0.418288 0.7100148
vn 0.9441155 -0.003760934 -0.3295933
vn 0.4628317 -0.8404544 0.2818213
vn -0.003643453 -0.4184055 -0.908253
vn 0.1962745 0.8403369 -0.5052823
g ster215_0
f 3/3/3 2/2/2 1/1/1
f 4/4/4 3/3/3 1/1/1
f 3/3/3 5/5/5 2/2/2
f 4/4/4 5/5/5 3/3/3
f 8/8/8 7/7/7 6/6/6
f 9/9/9 8/8/8 6/6/6
f 8/8/8 10/10/10 7/7/7
f 9/9/9 10/10/10 8/8/8
f 13/13/13 12/12/12 11/11/11
f 11/11/11 12/12/12 14/14/14
f 13/13/13 15/15/15 12/12/12
f 12/12/12 15/15/15 14/14/14
f 18/18/18 17/17/17 16/16/16
f 19/19/19 17/17/17 18/18/18
f 17/17/17 20/20/20 16/16/16
f 19/19/19 20/20/20 17/17/17
