g ster1
v -1.037925 -1.356221 2.613223
v -2.967764 2.452971 0.09427834
v -1.603489 9.007161 4.037628
v 2.094234 2.452971 2.104669
v 1.037985 1.356445 -2.613566
v 1.037985 1.356445 -2.613566
v -2.094458 -2.45303 -2.104729
v 1.603549 -9.006938 -4.037971
v 2.967824 -2.45303 -0.09462166
v -1.037925 -1.356221 2.613223
v 2.967824 -2.45303 -0.09462166
v 9.293975 0.0001115799 3.690744
v 1.037985 1.356445 -2.613566
v -1.037925 -1.356221 2.613223
v 2.094234 2.452971 2.104669
v 1.037985 1.356445 -2.613566
v -9.293916 0.0001115799 -3.690804
v -2.094458 -2.45303 -2.104729
v -1.037925 -1.356221 2.613223
v -2.967764 2.452971 0.09427834
vt 0.7229624 0.1022395
vt 0.714131 0.1154866
vt 0.72107 0.1154866
vt 0.7273781 0.1154866
vt 0.72107 0.1325186
vt 0.72107 0.1325186
vt 0.714131 0.1413501
vt 0.72107 0.1413501
vt 0.7273781 0.1413501
vt 0.7217008 0.1489199
vt 0.7336863 0.09593133
vt 0.7336863 0.1022395
vt 0.7412561 0.1009779
vt 0.7229624 0.1022395
vt 0.7336863 0.1091785
vt 0.7002531 0.1016087
vt 0.7078229 0.1022395
vt 0.7078229 0.09593133
vt 0.7229624 0.1022395
vt 0.7078229 0.1091785
vn -0.3681066 -0.1494105 0.9177004
vn -0.9293575 0.3170837 -0.1890834
vn -0.1567264 0.9002016 0.406293
vn 0.812707 0.3170837 0.4888407
vn 0.2660341 0.6815324 -0.6817181
vn 0.3680797 0.1494374 -0.9177068
vn -0.8127339 -0.3170569 -0.4888134
vn 0.1639885 -0.9001747 -0.4034765
vn 0.9293306 -0.3170569 0.1892607
vn -0.2660609 -0.6815055 0.6817344
vn 0.4774143 -0.8418629 -0.2516793
vn 0.9293306 -0.003631055 0.3692309
vn 0.5940378 0.4118404 -0.6910185
vn -0.04010278 -0.4118135 0.9103853
vn 0.1785664 0.8418899 0.5092499
vn 0.0400759 0.4118404 -0.9103743
vn -0.9293575 0.003657937 -0.3691629
vn -0.1785933 -0.8418629 -0.5092851
vn -0.5940647 -0.4118135 0.6910114
vn -0.4774412 0.8418899 0.2515379
g ster1_0
f 3/3/3 2/2/2 1/1/1
f 4/4/4 3/3/3 1/1/1
f 3/3/3 5/5/5 2/2/2
f 4/4/4 5/5/5 3/3/3
f 8/8/8 7/7/7 6/6/6
f 9/9/9 8/8/8 6/6/6
f 8/8/8 10/10/10 7/7/7
f 9/9/9 10/10/10 8/8/8
f 13/13/13 12/12/12 11/11/11
f 11/11/11 12/12/12 14/14/14
f 13/13/13 15/15/15 12/12/12
f 12/12/12 15/15/15 14/14/14
f 18/18/18 17/17/17 16/16/16
f 19/19/19 17/17/17 18/18/18
f 17/17/17 20/20/20 16/16/16
f 19/19/19 20/20/20 17/17/17
