g ster125
v -1.431365 -1.017377 -1.548645
v 0.8978052 1.839557 -2.038064
v -2.211465 6.755181 -2.392861
v -2.102201 1.839557 0.7347574
v 1.431342 1.016987 1.548668
v 1.431342 1.016987 1.548668
v 2.102385 -1.83974 -0.7347345
v 2.211648 -6.755364 2.392884
v -0.8976221 -1.83974 2.038087
v -1.431365 -1.017377 -1.548645
v -0.8976221 -1.83974 2.038087
v -5.507927 -0.0001945496 5.090458
v 1.431342 1.016987 1.548668
v -1.431365 -1.017377 -1.548645
v -2.102201 1.839557 0.7347574
v 1.431342 1.016987 1.548668
v 5.507904 -0.0001945496 -5.090435
v 2.102385 -1.83974 -0.7347345
v -1.431365 -1.017377 -1.548645
v 0.8978052 1.839557 -2.038064
vt 0.7229624 0.1022395
vt 0.714131 0.1154866
vt 0.72107 0.1154866
vt 0.7273781 0.1154866
vt 0.72107 0.1325186
vt 0.72107 0.1325186
vt 0.714131 0.1413501
vt 0.72107 0.1413501
vt 0.7273781 0.1413501
vt 0.7217008 0.1489199
vt 0.7336863 0.09593133
vt 0.7336863 0.1022395
vt 0.7412561 0.1009779
vt 0.7229624 0.1022395
vt 0.7336863 0.1091785
vt 0.7002531 0.1016087
vt 0.7078229 0.1022395
vt 0.7078229 0.09593133
vt 0.7229624 0.1022395
vt 0.7078229 0.1091785
vn -0.6746468 -0.144821 -0.7237945
vn 0.5828124 0.3143635 -0.7493365
vn -0.2931704 0.9007069 -0.3205903
vn -0.7876769 0.3143635 0.5298496
vn 0.4980399 0.6817111 0.5359348
vn 0.6746494 0.1448185 0.7237927
vn 0.7876794 -0.3143661 -0.5298444
vn 0.293173 -0.9007095 0.3205809
vn -0.5828099 -0.3143661 0.7493374
vn -0.4980374 -0.6817137 -0.5359339
vn 0.01766223 -0.8441944 0.535746
vn -0.7311618 0.00353092 0.682195
vn 0.3638167 0.4132648 0.8347751
vn -0.8018056 -0.4132674 -0.4316456
vn -0.5333592 0.8441918 -0.05355368
vn 0.8018082 0.4132648 0.4316432
vn 0.7311644 0.00353092 -0.6821921
vn 0.5333618 -0.8441944 0.05348853
vn -0.3638142 -0.4132674 -0.834775
vn -0.01765966 0.8441918 -0.5357502
g ster125_0
f 3/3/3 2/2/2 1/1/1
f 4/4/4 3/3/3 1/1/1
f 3/3/3 5/5/5 2/2/2
f 4/4/4 5/5/5 3/3/3
f 8/8/8 7/7/7 6/6/6
f 9/9/9 8/8/8 6/6/6
f 8/8/8 10/10/10 7/7/7
f 9/9/9 10/10/10 8/8/8
f 13/13/13 12/12/12 11/11/11
f 11/11/11 12/12/12 14/14/14
f 13/13/13 15/15/15 12/12/12
f 12/12/12 15/15/15 14/14/14
f 18/18/18 17/17/17 16/16/16
f 19/19/19 17/17/17 18/18/18
f 17/17/17 20/20/20 16/16/16
f 19/19/19 20/20/20 17/17/17
