g ster188
v -2.795487 -1.35577 -0.30233
v -0.8833971 2.452634 -2.834894
v -4.319214 9.007506 -0.4673853
v -1.469282 2.452634 2.58037
v 2.795754 1.356717 0.3023663
v 2.795754 1.356717 0.3023663
v 1.469245 -2.452901 -2.580333
v 4.319177 -9.00656 0.4674215
v 0.8833599 -2.452901 2.834931
v -2.795487 -1.35577 -0.30233
v 0.8833599 -2.452901 2.834931
v -1.075456 0.0004730225 9.94201
v 2.795754 1.356717 0.3023663
v -2.795487 -1.35577 -0.30233
v -1.469282 2.452634 2.58037
v 2.795754 1.356717 0.3023663
v 1.075418 0.0004730225 -9.941974
v 1.469245 -2.452901 -2.580333
v -2.795487 -1.35577 -0.30233
v -0.8833971 2.452634 -2.834894
vt 0.7229624 0.1022395
vt 0.714131 0.1154866
vt 0.72107 0.1154866
vt 0.7273781 0.1154866
vt 0.72107 0.1325186
vt 0.72107 0.1325186
vt 0.714131 0.1413501
vt 0.72107 0.1413501
vt 0.7273781 0.1413501
vt 0.7217008 0.1489199
vt 0.7336863 0.09593133
vt 0.7336863 0.1022395
vt 0.7412561 0.1009779
vt 0.7229624 0.1022395
vt 0.7336863 0.1091785
vt 0.7002531 0.1016087
vt 0.7078229 0.1022395
vt 0.7078229 0.09593133
vt 0.7229624 0.1022395
vt 0.7078229 0.1091785
vn -0.9835021 -0.1427009 -0.1111755
vn -0.05014205 0.3124086 -0.9486235
vn -0.4281144 0.8986512 -0.09562431
vn -0.2506988 0.3124086 0.9162702
vn 0.7289436 0.6826671 0.05105692
vn 0.9834963 0.1427068 0.1112195
vn 0.250693 -0.3124027 -0.9162738
vn 0.4358222 -0.8986454 0.04995406
vn 0.05013627 -0.3124027 0.9486258
vn -0.7289494 -0.6826612 -0.05105283
vn 0.3663988 -0.8446494 0.3902812
vn -0.1041381 -0.003853917 0.9945554
vn 0.8215082 0.4126869 0.3934639
vn -0.8832238 -0.412681 0.2227333
vn -0.4435418 0.8446552 0.2997138
vn 0.8832179 0.4126869 -0.2227455
vn 0.1041323 -0.003853917 -0.994556
vn 0.4435359 -0.8446494 -0.2997388
vn -0.821514 -0.412681 -0.3934579
vn -0.3664047 0.8446552 -0.3902631
g ster188_0
f 3/3/3 2/2/2 1/1/1
f 4/4/4 3/3/3 1/1/1
f 3/3/3 5/5/5 2/2/2
f 4/4/4 5/5/5 3/3/3
f 8/8/8 7/7/7 6/6/6
f 9/9/9 8/8/8 6/6/6
f 8/8/8 10/10/10 7/7/7
f 9/9/9 10/10/10 8/8/8
f 13/13/13 12/12/12 11/11/11
f 11/11/11 12/12/12 14/14/14
f 13/13/13 15/15/15 12/12/12
f 12/12/12 15/15/15 14/14/14
f 18/18/18 17/17/17 16/16/16
f 19/19/19 17/17/17 18/18/18
f 17/17/17 20/20/20 16/16/16
f 19/19/19 20/20/20 17/17/17
