g ster285
v -1.781863 -1.017678 1.128156
v -1.842266 1.840204 -1.251041
v -2.752838 6.755069 1.743107
v 0.3429427 1.840204 2.200352
v 1.781882 1.016834 -1.128175
v 1.781882 1.016834 -1.128175
v -0.3429241 -1.839399 -2.20037
v 2.753063 -6.755088 -1.743126
v 1.842491 -1.839399 1.251022
v -1.781863 -1.017678 1.128156
v 1.842491 -1.839399 1.251022
v 4.012239 -0.0003185272 6.336581
v 1.781882 1.016834 -1.128175
v -1.781863 -1.017678 1.128156
v 0.3429427 1.840204 2.200352
v 1.781882 1.016834 -1.128175
v -4.012219 -0.0003185272 -6.3366
v -0.3429241 -1.839399 -2.20037
v -1.781863 -1.017678 1.128156
v -1.842266 1.840204 -1.251041
vt 0.9551296 0.07390583
vt 0.9489734 0.0844594
vt 0.9542502 0.0844594
vt 0.9586475 0.0844594
vt 0.9542502 0.09677191
vt 0.9542502 0.09677191
vt 0.9489734 0.1038076
vt 0.9542502 0.1038076
vt 0.9586475 0.1038076
vt 0.9542502 0.1090844
vt 0.9639243 0.0695085
vt 0.9639243 0.07478529
vt 0.9692011 0.07478529
vt 0.9551296 0.07390583
vt 0.9639243 0.07918262
vt 0.9384198 0.07390583
vt 0.9436966 0.07478529
vt 0.9436966 0.0695085
vt 0.9551296 0.07390583
vt 0.9436966 0.07918262
vn -0.836968 -0.1448736 0.5277274
vn -0.6321233 0.3142609 -0.7082798
vn -0.3707698 0.9005405 0.2270606
vn 0.3709091 0.3142609 0.8738802
vn 0.6181355 0.6815686 -0.3916285
vn 0.8371073 0.1447343 -0.5275446
vn -0.3707698 -0.3144003 -0.8738891
vn 0.3638455 -0.9006798 -0.2374708
vn 0.6322626 -0.3144003 0.7080935
vn -0.6179962 -0.6817079 0.3916058
vn 0.5333721 -0.8441709 0.05375531
vn 0.5333721 0.003462136 0.8458737
vn 0.8865526 0.4131514 -0.2081596
vn -0.5685509 -0.4132908 0.711295
vn -0.1588616 0.8440316 0.5122241
vn 0.5686902 0.4131514 -0.7112647
vn -0.5332329 0.003462136 -0.8459615
vn 0.1590008 -0.8441709 -0.5119514
vn -0.8864133 -0.4132908 0.208476
vn -0.5332329 0.8440316 -0.05721283
g ster285_0
f 3/3/3 2/2/2 1/1/1
f 4/4/4 3/3/3 1/1/1
f 3/3/3 5/5/5 2/2/2
f 4/4/4 5/5/5 3/3/3
f 8/8/8 7/7/7 6/6/6
f 9/9/9 8/8/8 6/6/6
f 8/8/8 10/10/10 7/7/7
f 9/9/9 10/10/10 8/8/8
f 13/13/13 12/12/12 11/11/11
f 11/11/11 12/12/12 14/14/14
f 13/13/13 15/15/15 12/12/12
f 12/12/12 15/15/15 14/14/14
f 18/18/18 17/17/17 16/16/16
f 19/19/19 17/17/17 18/18/18
f 17/17/17 20/20/20 16/16/16
f 19/19/19 20/20/20 17/17/17
