g ster281
v 1.222498 -1.262207 1.547141
v -0.9196925 1.719857 2.130831
v 2.507465 6.316709 3.173301
v 2.2854 1.719857 -0.4020925
v -1.222525 1.262813 -1.54692
v -1.222525 1.262813 -1.54692
v -2.285428 -1.720023 0.4023132
v -2.507107 -6.316103 -3.17308
v 0.9198575 -1.720023 -2.130225
v 1.222498 -1.262207 1.547141
v 0.9198575 -1.720023 -2.130225
v 5.884889 0.0002064705 -4.649655
v -1.222525 1.262813 -1.54692
v 1.222498 -1.262207 1.547141
v 2.2854 1.719857 -0.4020925
v -1.222525 1.262813 -1.54692
v -5.884724 0.0002064705 4.649876
v -2.285428 -1.720023 0.4023132
v 1.222498 -1.262207 1.547141
v -0.9196925 1.719857 2.130831
vt 0.6376616 0.07365538
vt 0.6312976 0.08320133
vt 0.6360706 0.08320133
vt 0.6408436 0.08320133
vt 0.6360706 0.09592926
vt 0.6360706 0.09592926
vt 0.6312976 0.1030887
vt 0.6360706 0.1030887
vt 0.6408436 0.1030887
vt 0.6368661 0.1086572
vt 0.6456165 0.06888241
vt 0.6456165 0.07365538
vt 0.651185 0.07365538
vt 0.6376616 0.07365538
vt 0.6456165 0.07842836
vt 0.6201607 0.07285989
vt 0.6265246 0.07365538
vt 0.6265246 0.06888241
vt 0.6376616 0.07365538
vt 0.6265246 0.07842836
vn 0.5980699 -0.2639205 0.7567419
vn -0.618234 0.2974505 0.7275368
vn 0.3374333 0.8454556 0.4139366
vn 0.8520235 0.2974505 -0.430789
vn -0.3976954 0.7652597 -0.5061777
vn -0.5981851 0.2640356 -0.7566108
vn -0.8521386 -0.2973354 0.4306407
vn -0.3375485 -0.8453405 -0.4140778
vn 0.6181189 -0.2973354 -0.7276817
vn 0.3975803 -0.7651446 0.5064421
vn -0.03681403 -0.7918766 -0.6095706
vn 0.7851936 -0.003283918 -0.6192417
vn -0.2640356 0.5179892 -0.8136169
vn 0.7317297 -0.5178741 0.4431457
vn 0.5913869 0.7919917 0.1516927
vn -0.7318448 0.5179892 -0.442821
vn -0.7853087 -0.003283918 0.6190957
vn -0.5848191 -0.7918766 -0.1758357
vn 0.2639205 -0.5178741 0.8137275
vn 0.03669888 0.7919917 0.6094279
g ster281_0
f 3/3/3 2/2/2 1/1/1
f 4/4/4 3/3/3 1/1/1
f 3/3/3 5/5/5 2/2/2
f 4/4/4 5/5/5 3/3/3
f 8/8/8 7/7/7 6/6/6
f 9/9/9 8/8/8 6/6/6
f 8/8/8 10/10/10 7/7/7
f 9/9/9 10/10/10 8/8/8
f 13/13/13 12/12/12 11/11/11
f 11/11/11 12/12/12 14/14/14
f 13/13/13 15/15/15 12/12/12
f 12/12/12 15/15/15 14/14/14
f 18/18/18 17/17/17 16/16/16
f 19/19/19 17/17/17 18/18/18
f 17/17/17 20/20/20 16/16/16
f 19/19/19 20/20/20 17/17/17
