g ster244
v 2.072342 -1.017671 0.3905816
v 0.4935966 1.84022 2.171535
v 3.201913 6.755047 0.6035852
v 1.250243 1.84022 -1.842919
v -2.072343 1.016771 -0.3905811
v -2.072343 1.016771 -0.3905811
v -1.250468 -1.839545 1.842919
v -3.201914 -6.755046 -0.6035848
v -0.493597 -1.839545 -2.171534
v 2.072342 -1.017671 0.3905816
v -0.493597 -1.839545 -2.171534
v 1.389246 -0.0003371239 -7.370214
v -2.072343 1.016771 -0.3905811
v 2.072342 -1.017671 0.3905816
v 1.250243 1.84022 -1.842919
v -2.072343 1.016771 -0.3905811
v -1.389022 -0.0003371239 7.370215
v -1.250468 -1.839545 1.842919
v 2.072342 -1.017671 0.3905816
v 0.4935966 1.84022 2.171535
vt 0.9551296 0.07390583
vt 0.9489734 0.0844594
vt 0.9542502 0.0844594
vt 0.9586475 0.0844594
vt 0.9542502 0.09677191
vt 0.9542502 0.09677191
vt 0.9489734 0.1038076
vt 0.9542502 0.1038076
vt 0.9586475 0.1038076
vt 0.9542502 0.1090844
vt 0.9639243 0.0695085
vt 0.9639243 0.07478529
vt 0.9692011 0.07478529
vt 0.9551296 0.07390583
vt 0.9639243 0.07918262
vt 0.9384198 0.07390583
vt 0.9436966 0.07478529
vt 0.9436966 0.0695085
vt 0.9551296 0.07390583
vt 0.9436966 0.07918262
vn 0.9721214 -0.1486876 0.1813061
vn -0.02667332 0.3164 0.9482508
vn 0.4303916 0.9026423 0
vn 0.3240485 0.3164 -0.8915625
vn -0.7204925 0.6823706 -0.1235349
vn -0.9720973 0.1486635 -0.1814551
vn -0.3240244 -0.3164241 0.8915626
vn -0.4231414 -0.9035019 -0.06808548
vn 0.0266974 -0.3164241 -0.9482421
vn 0.7205167 -0.6823947 0.1232603
vn -0.3316488 -0.8425068 -0.4244895
vn 0.1868095 0.003800154 -0.9823888
vn -0.789112 0.415517 -0.4523802
vn 0.9035019 -0.4155412 -0.1049277
vn 0.4612875 0.8424827 -0.2782745
vn -0.9034778 0.415517 0.1052302
vn -0.1867854 0.003800154 0.9823934
vn -0.4612634 -0.8425068 0.2782415
vn 0.7891361 -0.4155412 0.452316
vn 0.3316729 0.8424827 0.4245184
g ster244_0
f 3/3/3 2/2/2 1/1/1
f 4/4/4 3/3/3 1/1/1
f 3/3/3 5/5/5 2/2/2
f 4/4/4 5/5/5 3/3/3
f 8/8/8 7/7/7 6/6/6
f 9/9/9 8/8/8 6/6/6
f 8/8/8 10/10/10 7/7/7
f 9/9/9 10/10/10 8/8/8
f 13/13/13 12/12/12 11/11/11
f 11/11/11 12/12/12 14/14/14
f 13/13/13 15/15/15 12/12/12
f 12/12/12 15/15/15 14/14/14
f 18/18/18 17/17/17 16/16/16
f 19/19/19 17/17/17 18/18/18
f 17/17/17 20/20/20 16/16/16
f 19/19/19 20/20/20 17/17/17
