g ster265
v 1.855875 -1.017201 1.001554
v -0.1892686 1.839816 2.218744
v 2.867314 6.755376 1.547681
v 1.751144 1.839816 -1.376132
v -1.855896 1.017016 -1.001945
v -1.855896 1.017016 -1.001945
v -1.750959 -1.839176 1.375741
v -2.867335 -6.755561 -1.54766
v 0.1894541 -1.839176 -2.218929
v 1.855875 -1.017201 1.001554
v 0.1894541 -1.839176 -2.218929
v 3.562498 1.049042E-05 -6.599908
v -1.855896 1.017016 -1.001945
v 1.855875 -1.017201 1.001554
v 1.751144 1.839816 -1.376132
v -1.855896 1.017016 -1.001945
v -3.562519 1.049042E-05 6.599928
v -1.750959 -1.839176 1.375741
v 1.855875 -1.017201 1.001554
v -0.1892686 1.839816 2.218744
vt 0.9551296 0.07390583
vt 0.9489734 0.0844594
vt 0.9542502 0.0844594
vt 0.9586475 0.0844594
vt 0.9542502 0.09677191
vt 0.9542502 0.09677191
vt 0.9489734 0.1038076
vt 0.9542502 0.1038076
vt 0.9586475 0.1038076
vt 0.9542502 0.1090844
vt 0.9639243 0.0695085
vt 0.9639243 0.07478529
vt 0.9692011 0.07478529
vt 0.9551296 0.07390583
vt 0.9639243 0.07918262
vt 0.9384198 0.07390583
vt 0.9436966 0.07478529
vt 0.9436966 0.0695085
vt 0.9551296 0.07390583
vt 0.9436966 0.07918262
vn 0.8725661 -0.144881 0.4665168
vn -0.3143378 0.3143378 0.8957586
vn 0.3850877 0.900725 0.2010023
vn 0.5758401 0.3143378 -0.7547184
vn -0.6393235 0.681713 -0.3557146
vn -0.8724654 0.1447802 -0.4667364
vn -0.5757394 -0.3144386 0.7547533
vn -0.384987 -0.9008257 -0.2007436
vn 0.3073738 -0.3144386 -0.8981368
vn 0.6394243 -0.6818137 0.3553402
vn -0.1942345 -0.8443065 -0.4994192
vn 0.4769315 0.003482103 -0.8789336
vn -0.6181288 0.4132465 -0.6686884
vn 0.9008257 -0.4133473 0.1328796
vn 0.5263858 0.8442057 -0.1011668
vn -0.900725 0.4132465 -0.1338723
vn -0.4768307 0.003482103 0.8789883
vn -0.5262851 -0.8443065 0.1008493
vn 0.6182295 -0.4133473 0.6685329
vn 0.1943353 0.8442057 0.4995503
g ster265_0
f 3/3/3 2/2/2 1/1/1
f 4/4/4 3/3/3 1/1/1
f 3/3/3 5/5/5 2/2/2
f 4/4/4 5/5/5 3/3/3
f 8/8/8 7/7/7 6/6/6
f 9/9/9 8/8/8 6/6/6
f 8/8/8 10/10/10 7/7/7
f 9/9/9 10/10/10 8/8/8
f 13/13/13 12/12/12 11/11/11
f 11/11/11 12/12/12 14/14/14
f 13/13/13 15/15/15 12/12/12
f 12/12/12 15/15/15 14/14/14
f 18/18/18 17/17/17 16/16/16
f 19/19/19 17/17/17 18/18/18
f 17/17/17 20/20/20 16/16/16
f 19/19/19 20/20/20 17/17/17
