g ster254
v 1.904099 -1.262438 0.5120206
v 0.5330272 1.719749 2.258408
v 3.90556 6.316588 1.050238
v 1.593989 1.719749 -1.686381
v -1.904313 1.262651 -0.5120287
v -1.904313 1.262651 -0.5120287
v -1.593981 -1.720199 1.686373
v -3.905551 -6.316154 -1.050246
v -0.5332398 -1.720199 -2.258417
v 1.904099 -1.262438 0.5120206
v -0.5332398 -1.720199 -2.258417
v 1.947643 0.0001063347 -7.242728
v -1.904313 1.262651 -0.5120287
v 1.904099 -1.262438 0.5120206
v 1.593989 1.719749 -1.686381
v -1.904313 1.262651 -0.5120287
v -1.947635 0.0001063347 7.242719
v -1.593981 -1.720199 1.686373
v 1.904099 -1.262438 0.5120206
v 0.5330272 1.719749 2.258408
vt 0.2784961 0.07140277
vt 0.2704692 0.07942964
vt 0.2752853 0.07942964
vt 0.2801014 0.07942964
vt 0.2752853 0.09227264
vt 0.2752853 0.09227264
vt 0.2704692 0.09949682
vt 0.2752853 0.09949682
vt 0.2801014 0.09949682
vt 0.276088 0.1051156
vt 0.2849175 0.06498127
vt 0.2849175 0.0697974
vt 0.2905363 0.0697974
vt 0.2784961 0.07140277
vt 0.2849175 0.07461352
vt 0.2600342 0.06899471
vt 0.265653 0.0697974
vt 0.265653 0.06498127
vt 0.2784961 0.07140277
vt 0.265653 0.07461352
vn 0.9315129 -0.2666743 0.2473228
vn -0.06209201 0.2958813 0.9532045
vn 0.5223815 0.8438252 0.1227872
vn 0.4274045 0.2958813 -0.8542714
vn -0.6246477 0.7634601 -0.164146
vn -0.9314962 0.2666577 -0.2474035
vn -0.4273879 -0.295898 0.8542739
vn -0.5223648 -0.8438419 -0.1227435
vn 0.06210864 -0.295898 -0.9531983
vn 0.6246643 -0.7634768 0.1640051
vn -0.3981642 -0.7853945 -0.4739416
vn 0.2593684 -0.003661275 -0.9657716
vn -0.6977069 0.5150589 -0.4979151
vn 0.8511478 -0.5150756 -0.1012157
vn 0.5808288 0.7853779 -0.2140548
vn -0.8511311 0.5150589 0.1014399
vn -0.2593518 -0.003661275 0.965776
vn -0.5808122 -0.7853945 0.2140389
vn 0.6977235 -0.5150756 0.4978746
vn 0.3981808 0.7853779 0.4739552
g ster254_0
f 3/3/3 2/2/2 1/1/1
f 4/4/4 3/3/3 1/1/1
f 3/3/3 5/5/5 2/2/2
f 4/4/4 5/5/5 3/3/3
f 8/8/8 7/7/7 6/6/6
f 9/9/9 8/8/8 6/6/6
f 8/8/8 10/10/10 7/7/7
f 9/9/9 10/10/10 8/8/8
f 13/13/13 12/12/12 11/11/11
f 11/11/11 12/12/12 14/14/14
f 13/13/13 15/15/15 12/12/12
f 12/12/12 15/15/15 14/14/14
f 18/18/18 17/17/17 16/16/16
f 19/19/19 17/17/17 18/18/18
f 17/17/17 20/20/20 16/16/16
f 19/19/19 20/20/20 17/17/17
