g ster88
v 2.13306 -0.5013013 -0.8254209
v 1.125656 2.102592 1.629806
v 1.346869 7.31462 -0.9669442
v -0.3915896 1.881379 -2.156498
v -2.13295 0.5020847 0.8253112
v -2.13295 0.5020847 0.8253112
v 0.3919225 -1.881042 2.156612
v -1.346537 -7.314284 0.9668345
v -1.125323 -2.102255 -1.629916
v 2.13306 -0.5013013 -0.8254209
v -1.125323 -2.102255 -1.629916
v -2.78543 -0.4059854 -6.951547
v -2.13295 0.5020847 0.8253112
v 2.13306 -0.5013013 -0.8254209
v -0.3915896 1.881379 -2.156498
v -2.13295 0.5020847 0.8253112
v 2.785763 0.4063225 6.951661
v 0.3919225 -1.881042 2.156612
v 2.13306 -0.5013013 -0.8254209
v 1.125656 2.102592 1.629806
vt 0.6376616 0.07365538
vt 0.6312976 0.08320133
vt 0.6360706 0.08320133
vt 0.6408436 0.08320133
vt 0.6360706 0.09592926
vt 0.6360706 0.09592926
vt 0.6312976 0.1030887
vt 0.6360706 0.1030887
vt 0.6408436 0.1030887
vt 0.6368661 0.1086572
vt 0.6456165 0.06888241
vt 0.6456165 0.07365538
vt 0.651185 0.07365538
vt 0.6376616 0.07365538
vt 0.6456165 0.07842836
vt 0.6201607 0.07285989
vt 0.6265246 0.07365538
vt 0.6265246 0.06888241
vt 0.6376616 0.07365538
vt 0.6265246 0.07842836
vn 0.926409 0.08840996 -0.3659919
vn 0.4113115 0.3959308 0.8210126
vn 0.1806709 0.9725326 -0.1467598
vn -0.2882985 0.2882985 -0.9131089
vn -0.818772 0.4958752 0.2893444
vn -0.9264044 -0.08841455 0.3660023
vn 0.2883031 -0.2883031 0.913106
vn -0.1806663 -0.9725371 0.1467354
vn -0.4113069 -0.3959355 -0.8210127
vn 0.8187767 -0.4958797 -0.2893234
vn -0.2959866 -0.934097 -0.1996366
vn -0.3728668 -0.05766249 -0.9260914
vn -0.9802205 0.1883542 0.06074915
vn 0.7572725 -0.219111 -0.615247
vn 0.03459841 0.8956522 -0.4434073
vn -0.7572679 0.2191064 0.6152542
vn 0.3728714 0.0576579 0.9260899
vn -0.03459376 -0.8956569 0.4433982
vn 0.9802251 -0.1883588 -0.06065961
vn 0.2959912 0.9340923 0.1996515
g ster88_0
f 3/3/3 2/2/2 1/1/1
f 4/4/4 3/3/3 1/1/1
f 3/3/3 5/5/5 2/2/2
f 4/4/4 5/5/5 3/3/3
f 8/8/8 7/7/7 6/6/6
f 9/9/9 8/8/8 6/6/6
f 8/8/8 10/10/10 7/7/7
f 9/9/9 10/10/10 8/8/8
f 13/13/13 12/12/12 11/11/11
f 11/11/11 12/12/12 14/14/14
f 13/13/13 15/15/15 12/12/12
f 12/12/12 15/15/15 14/14/14
f 18/18/18 17/17/17 16/16/16
f 19/19/19 17/17/17 18/18/18
f 17/17/17 20/20/20 16/16/16
f 19/19/19 20/20/20 17/17/17
