g ster83
v 1.855784 -1.017341 1.001768
v -0.1893001 1.839386 2.218923
v 2.867194 6.755011 1.547674
v 1.751056 1.839386 -1.376055
v -1.855879 1.017024 -1.001879
v -1.855879 1.017024 -1.001879
v -1.751151 -1.83991 1.375944
v -2.867289 -6.755535 -1.547785
v 0.1894116 -1.83991 -2.219034
v 1.855784 -1.017341 1.001768
v 0.1894116 -1.83991 -2.219034
v 3.562358 -0.0001587868 -6.599885
v -1.855879 1.017024 -1.001879
v 1.855784 -1.017341 1.001768
v 1.751056 1.839386 -1.376055
v -1.855879 1.017024 -1.001879
v -3.562659 -0.0001587868 6.599774
v -1.751151 -1.83991 1.375944
v 1.855784 -1.017341 1.001768
v -0.1893001 1.839386 2.218923
vt 0.7229624 0.1022395
vt 0.714131 0.1154866
vt 0.72107 0.1154866
vt 0.7273781 0.1154866
vt 0.72107 0.1325186
vt 0.72107 0.1325186
vt 0.714131 0.1413501
vt 0.72107 0.1413501
vt 0.7273781 0.1413501
vt 0.7217008 0.1489199
vt 0.7336863 0.09593133
vt 0.7336863 0.1022395
vt 0.7412561 0.1009779
vt 0.7229624 0.1022395
vt 0.7336863 0.1091785
vt 0.7002531 0.1016087
vt 0.7078229 0.1022395
vt 0.7078229 0.09593133
vt 0.7229624 0.1022395
vt 0.7078229 0.1091785
vn 0.8724155 -0.1447935 0.4668254
vn -0.3143856 0.3143856 0.895725
vn 0.3849794 0.9007218 0.2012239
vn 0.5757153 0.3143856 -0.7547938
vn -0.6393431 0.6817288 -0.3556491
vn -0.8724647 0.1448426 -0.4667183
vn -0.5757644 -0.3143365 0.7547768
vn -0.3850285 -0.9006727 -0.2013496
vn 0.3143365 -0.3143365 -0.8957595
vn 0.6392939 -0.6816797 0.3558316
vn -0.1942926 -0.8441584 -0.4996468
vn 0.4768152 -0.003507555 -0.8789966
vn -0.6181502 0.4132857 -0.6686444
vn 0.9006727 -0.4132366 0.1342543
vn 0.5262653 0.8442075 -0.1017774
vn -0.9007218 0.4132857 -0.1337725
vn -0.4768643 -0.003507555 0.87897
vn -0.5263143 -0.8441584 0.1019304
vn 0.618101 -0.4132366 0.6687202
vn 0.1942435 0.8442075 0.4995831
g ster83_0
f 3/3/3 2/2/2 1/1/1
f 4/4/4 3/3/3 1/1/1
f 3/3/3 5/5/5 2/2/2
f 4/4/4 5/5/5 3/3/3
f 8/8/8 7/7/7 6/6/6
f 9/9/9 8/8/8 6/6/6
f 8/8/8 10/10/10 7/7/7
f 9/9/9 10/10/10 8/8/8
f 13/13/13 12/12/12 11/11/11
f 11/11/11 12/12/12 14/14/14
f 13/13/13 15/15/15 12/12/12
f 12/12/12 15/15/15 14/14/14
f 18/18/18 17/17/17 16/16/16
f 19/19/19 17/17/17 18/18/18
f 17/17/17 20/20/20 16/16/16
f 19/19/19 20/20/20 17/17/17
