g ster108
v -1.431373 -1.017369 -1.548637
v 0.8977976 1.839564 -2.03785
v -2.211473 6.755189 -2.392853
v -2.102209 1.839564 0.7349715
v 1.431334 1.016995 1.548882
v 1.431334 1.016995 1.548882
v 2.102377 -1.839732 -0.7347269
v 2.211435 -6.755357 2.393098
v -0.8976297 -1.839732 2.038095
v -1.431373 -1.017369 -1.548637
v -0.8976297 -1.839732 2.038095
v -5.507729 -0.0001869202 5.090672
v 1.431334 1.016995 1.548882
v -1.431373 -1.017369 -1.548637
v -2.102209 1.839564 0.7349715
v 1.431334 1.016995 1.548882
v 5.507896 -0.0001869202 -5.090427
v 2.102377 -1.839732 -0.7347269
v -1.431373 -1.017369 -1.548637
v 0.8977976 1.839564 -2.03785
vt 0.7229624 0.1022395
vt 0.714131 0.1154866
vt 0.72107 0.1154866
vt 0.7273781 0.1154866
vt 0.72107 0.1325186
vt 0.72107 0.1325186
vt 0.714131 0.1413501
vt 0.72107 0.1413501
vt 0.7273781 0.1413501
vt 0.7217008 0.1489199
vt 0.7336863 0.09593133
vt 0.7336863 0.1022395
vt 0.7412561 0.1009779
vt 0.7229624 0.1022395
vt 0.7336863 0.1091785
vt 0.7002531 0.1016087
vt 0.7078229 0.1022395
vt 0.7078229 0.09593133
vt 0.7229624 0.1022395
vt 0.7078229 0.1091785
vn -0.6746199 -0.144815 -0.7238209
vn 0.5827889 0.314351 -0.7493601
vn -0.2931587 0.9006708 -0.3207024
vn -0.7876453 0.314351 0.5299041
vn 0.4980198 0.681684 0.5359882
vn 0.6746221 0.1448128 0.7238193
vn 0.7876476 -0.3143533 -0.5298993
vn 0.293161 -0.9006731 0.3206939
vn -0.5827866 -0.3143533 0.7493609
vn -0.4980175 -0.6816862 -0.5359874
vn 0.01766139 -0.8441603 0.5357998
vn -0.7311326 0.00353092 0.6822263
vn 0.363802 0.4132484 0.8347898
vn -0.8017735 -0.4132506 -0.4317212
vn -0.5333379 0.8441581 -0.05429316
vn 0.8017758 0.4132484 0.4317191
vn 0.7311348 0.00353092 -0.6822239
vn 0.5333402 -0.8441603 0.05423605
vn -0.3637998 -0.4132506 -0.8347896
vn -0.01765913 0.8441581 -0.5358034
g ster108_0
f 3/3/3 2/2/2 1/1/1
f 4/4/4 3/3/3 1/1/1
f 3/3/3 5/5/5 2/2/2
f 4/4/4 5/5/5 3/3/3
f 8/8/8 7/7/7 6/6/6
f 9/9/9 8/8/8 6/6/6
f 8/8/8 10/10/10 7/7/7
f 9/9/9 10/10/10 8/8/8
f 13/13/13 12/12/12 11/11/11
f 11/11/11 12/12/12 14/14/14
f 13/13/13 15/15/15 12/12/12
f 12/12/12 15/15/15 14/14/14
f 18/18/18 17/17/17 16/16/16
f 19/19/19 17/17/17 18/18/18
f 17/17/17 20/20/20 16/16/16
f 19/19/19 20/20/20 17/17/17
