g ster212
v -1.732681 -1.017384 -1.20189
v 0.4352112 1.839674 -2.183997
v -2.677269 6.754951 -1.857246
v -1.893273 1.839674 1.17236
v 1.73273 1.017128 1.202046
v 1.73273 1.017128 1.202046
v 1.893322 -1.839929 -1.17241
v 2.677318 -6.755206 1.857197
v -0.4349556 -1.839929 2.183948
v -1.732681 -1.017384 -1.20189
v -0.4349556 -1.839929 2.183948
v -4.275151 -2.479553E-05 6.162264
v 1.73273 1.017128 1.202046
v -1.732681 -1.017384 -1.20189
v -1.893273 1.839674 1.17236
v 1.73273 1.017128 1.202046
v 4.2752 -2.479553E-05 -6.162313
v 1.893322 -1.839929 -1.17241
v -1.732681 -1.017384 -1.20189
v 0.4352112 1.839674 -2.183997
vt 0.7229624 0.1022395
vt 0.714131 0.1154866
vt 0.72107 0.1154866
vt 0.7273781 0.1154866
vt 0.72107 0.1325186
vt 0.72107 0.1325186
vt 0.714131 0.1413501
vt 0.72107 0.1413501
vt 0.7273781 0.1413501
vt 0.7217008 0.1489199
vt 0.7336863 0.09593133
vt 0.7336863 0.1022395
vt 0.7412561 0.1009779
vt 0.7229624 0.1022395
vt 0.7336863 0.1091785
vt 0.7002531 0.1016087
vt 0.7078229 0.1022395
vt 0.7078229 0.09593133
vt 0.7229624 0.1022395
vt 0.7078229 0.1091785
vn -0.8159249 -0.1447793 -0.5597369
vn 0.4061473 0.3143808 -0.8580263
vn -0.3567649 0.900693 -0.2479333
vn -0.6605169 0.3143808 0.6818226
vn 0.5968754 0.681709 0.4230989
vn 0.8158594 0.1448448 0.5598155
vn 0.6604514 -0.3143153 -0.6819163
vn 0.3566993 -0.9006274 0.2482657
vn -0.4062129 -0.3143153 0.8580192
vn -0.5969409 -0.6816434 -0.4231121
vn 0.1377153 -0.8441154 0.5181734
vn -0.5686849 -0.00349921 0.822548
vn 0.5332993 0.4132769 0.7381017
vn -0.879501 -0.4132113 -0.2360812
vn -0.533365 0.844181 0.0536682
vn 0.8794354 0.4132769 0.2362109
vn 0.5686194 -0.00349921 -0.8225933
vn 0.5332993 -0.8441154 -0.05532574
vn -0.533365 -0.4132113 -0.7380909
vn -0.1377808 0.844181 -0.5180491
g ster212_0
f 3/3/3 2/2/2 1/1/1
f 4/4/4 3/3/3 1/1/1
f 3/3/3 5/5/5 2/2/2
f 4/4/4 5/5/5 3/3/3
f 8/8/8 7/7/7 6/6/6
f 9/9/9 8/8/8 6/6/6
f 8/8/8 10/10/10 7/7/7
f 9/9/9 10/10/10 8/8/8
f 13/13/13 12/12/12 11/11/11
f 11/11/11 12/12/12 14/14/14
f 13/13/13 15/15/15 12/12/12
f 12/12/12 15/15/15 14/14/14
f 18/18/18 17/17/17 16/16/16
f 19/19/19 17/17/17 18/18/18
f 17/17/17 20/20/20 16/16/16
f 19/19/19 20/20/20 17/17/17
