g ster171
v 1.104504 -1.356535 2.585877
v -2.039996 2.452846 2.157593
v 1.706236 9.006786 3.995345
v 2.9692 2.452846 0.01841164
v -1.10428 1.356031 -2.586101
v -1.10428 1.356031 -2.586101
v -2.969257 -2.453069 -0.01835442
v -1.706293 -9.00701 -3.995569
v 2.039939 -2.453069 -2.157816
v 1.104504 -1.356535 2.585877
v 2.039939 -2.453069 -2.157816
v 9.196455 -0.0003919601 -3.927369
v -1.10428 1.356031 -2.586101
v 1.104504 -1.356535 2.585877
v 2.9692 2.452846 0.01841164
v -1.10428 1.356031 -2.586101
v -9.196512 -0.0003919601 3.927145
v -2.969257 -2.453069 -0.01835442
v 1.104504 -1.356535 2.585877
v -2.039996 2.452846 2.157593
vt 0.7229626 0.1022395
vt 0.7141311 0.1154866
vt 0.7210701 0.1154866
vt 0.7273782 0.1154866
vt 0.7204393 0.131257
vt 0.7204393 0.131257
vt 0.7141311 0.1413501
vt 0.7210701 0.1413501
vt 0.7273782 0.1413501
vt 0.7217009 0.1489199
vt 0.7336864 0.09593133
vt 0.7336864 0.1022395
vt 0.7412562 0.1035011
vt 0.7229626 0.1022395
vt 0.7336864 0.1091785
vt 0.7002532 0.1016087
vt 0.707823 0.1022395
vt 0.707823 0.09593133
vt 0.7229626 0.1022395
vt 0.707823 0.1091785
vn 0.3865213 -0.1481131 0.9103097
vn -0.7982948 0.3142542 0.5137799
vn 0.1697866 0.8994377 0.4027213
vn 0.9211334 0.3142542 -0.2296902
vn -0.2853562 0.682703 -0.6726726
vn -0.386499 0.1480908 -0.9103228
vn -0.9211111 -0.3142764 0.2297492
vn -0.1697644 -0.89946 -0.4026808
vn 0.7983171 -0.3142764 -0.5137317
vn 0.2853784 -0.6827253 0.6726406
vn 0.1625621 -0.841664 -0.5149516
vn 0.9211334 0.003601134 -0.3892304
vn -0.06139702 0.4153969 -0.9075659
vn 0.6104804 -0.4154192 0.6743445
vn 0.4804396 0.8416418 0.2466108
vn -0.6104581 0.4153969 -0.6743784
vn -0.9211111 0.003601134 0.3892832
vn -0.4804174 -0.841664 -0.2465782
vn 0.06141931 -0.4154192 0.9075541
vn -0.1625398 0.8416418 0.514995
g ster171_0
f 3/3/3 2/2/2 1/1/1
f 4/4/4 3/3/3 1/1/1
f 3/3/3 5/5/5 2/2/2
f 4/4/4 5/5/5 3/3/3
f 8/8/8 7/7/7 6/6/6
f 9/9/9 8/8/8 6/6/6
f 8/8/8 10/10/10 7/7/7
f 9/9/9 10/10/10 8/8/8
f 13/13/13 12/12/12 11/11/11
f 11/11/11 12/12/12 14/14/14
f 13/13/13 15/15/15 12/12/12
f 12/12/12 15/15/15 14/14/14
f 18/18/18 17/17/17 16/16/16
f 19/19/19 17/17/17 18/18/18
f 17/17/17 20/20/20 16/16/16
f 19/19/19 20/20/20 17/17/17
