g ster103
v -1.908452 -1.356465 -2.065083
v 1.197041 2.452697 -2.717352
v -2.948565 9.006721 -3.190405
v -2.802882 2.452697 0.9796629
v 1.908407 1.356236 2.065129
v 1.908407 1.356236 2.065129
v 2.803112 -2.452926 -0.9793425
v 2.948793 -9.00695 3.190451
v -1.196812 -2.452926 2.717398
v -1.908452 -1.356465 -2.065083
v -1.196812 -2.452926 2.717398
v -7.343752 -0.00025177 6.787413
v 1.908407 1.356236 2.065129
v -1.908452 -1.356465 -2.065083
v -2.802882 2.452697 0.9796629
v 1.908407 1.356236 2.065129
v 7.343981 -0.00025177 -6.787367
v 2.803112 -2.452926 -0.9793425
v -1.908452 -1.356465 -2.065083
v 1.197041 2.452697 -2.717352
vt 0.7229624 0.1022395
vt 0.714131 0.1154866
vt 0.72107 0.1154866
vt 0.7273781 0.1154866
vt 0.72107 0.1325186
vt 0.72107 0.1325186
vt 0.714131 0.1413501
vt 0.72107 0.1413501
vt 0.7273781 0.1413501
vt 0.7217008 0.1489199
vt 0.7336863 0.09593133
vt 0.7336863 0.1022395
vt 0.7412561 0.1009779
vt 0.7229624 0.1022395
vt 0.7336863 0.1091785
vt 0.7002531 0.1016087
vt 0.7078229 0.1022395
vt 0.7078229 0.09593133
vt 0.7229624 0.1022395
vt 0.7078229 0.1091785
vn -0.6746582 -0.1448122 -0.7237857
vn 0.5828049 0.3143739 -0.749338
vn -0.2931806 0.900719 -0.320547
vn -0.7876886 0.3143739 0.5298262
vn 0.4980322 0.6817226 0.5359274
vn 0.6746421 0.1448282 0.7237974
vn 0.7876726 -0.3143578 -0.5298595
vn 0.2931646 -0.900703 0.3206067
vn -0.582821 -0.3143578 0.7493323
vn -0.4980482 -0.6817065 -0.535933
vn 0.01765299 -0.8441877 0.5357569
vn -0.7311734 -0.003524184 0.6821826
vn 0.3638086 0.4132755 0.8347735
vn -0.8018174 -0.4132594 -0.4316312
vn -0.5333703 0.8442038 -0.05325512
vn 0.8018013 0.4132755 0.4316457
vn 0.7311574 -0.003524184 -0.6821997
vn 0.5333542 -0.8441877 0.05366986
vn -0.3638246 -0.4132594 -0.8347744
vn -0.01766902 0.8442038 -0.535731
g ster103_0
f 3/3/3 2/2/2 1/1/1
f 4/4/4 3/3/3 1/1/1
f 3/3/3 5/5/5 2/2/2
f 4/4/4 5/5/5 3/3/3
f 8/8/8 7/7/7 6/6/6
f 9/9/9 8/8/8 6/6/6
f 8/8/8 10/10/10 7/7/7
f 9/9/9 10/10/10 8/8/8
f 13/13/13 12/12/12 11/11/11
f 11/11/11 12/12/12 14/14/14
f 13/13/13 15/15/15 12/12/12
f 12/12/12 15/15/15 14/14/14
f 18/18/18 17/17/17 16/16/16
f 19/19/19 17/17/17 18/18/18
f 17/17/17 20/20/20 16/16/16
f 19/19/19 20/20/20 17/17/17
